<?xml version="1.0" encoding="utf-8" standalone="no"?>
<!DOCTYPE svg PUBLIC "-//W3C//DTD SVG 1.1//EN"
  "http://www.w3.org/Graphics/SVG/1.1/DTD/svg11.dtd">
<!-- Created with matplotlib (https://matplotlib.org/) -->
<svg height="230.4pt" version="1.1" viewBox="0 0 936 230.4" width="936pt" xmlns="http://www.w3.org/2000/svg" xmlns:xlink="http://www.w3.org/1999/xlink">
 <metadata>
  <rdf:RDF xmlns:cc="http://creativecommons.org/ns#" xmlns:dc="http://purl.org/dc/elements/1.1/" xmlns:rdf="http://www.w3.org/1999/02/22-rdf-syntax-ns#">
   <cc:Work>
    <dc:type rdf:resource="http://purl.org/dc/dcmitype/StillImage"/>
    <dc:date>2021-01-18T09:21:29.924310</dc:date>
    <dc:format>image/svg+xml</dc:format>
    <dc:creator>
     <cc:Agent>
      <dc:title>Matplotlib v3.3.1, https://matplotlib.org/</dc:title>
     </cc:Agent>
    </dc:creator>
   </cc:Work>
  </rdf:RDF>
 </metadata>
 <defs>
  <style type="text/css">*{stroke-linecap:butt;stroke-linejoin:round;}</style>
 </defs>
 <g id="figure_1">
  <g id="patch_1">
   <path d="M 0 230.4 
L 936 230.4 
L 936 0 
L 0 0 
z
" style="fill:none;"/>
  </g>
  <g id="axes_1">
   <g id="patch_2">
    <path d="M 54.336865 164.399746 
L 308.22 164.399746 
L 308.22 27.34 
L 54.336865 27.34 
z
" style="fill:#ffffff;"/>
   </g>
   <g id="matplotlib.axis_1">
    <g id="xtick_1">
     <g id="line2d_1">
      <defs>
       <path d="M 0 0 
L 0 3.5 
" id="mffa9c0a9f1" style="stroke:#000000;stroke-width:0.8;"/>
      </defs>
      <g>
       <use style="stroke:#000000;stroke-width:0.8;" x="54.336865" xlink:href="#mffa9c0a9f1" y="164.399746"/>
      </g>
     </g>
     <g id="text_1">
      <!-- 2020-04 -->
      <g transform="translate(15.250803 200.245184)rotate(-30)scale(0.105 -0.105)">
       <defs>
        <path d="M 19.1875 8.296875 
L 53.609375 8.296875 
L 53.609375 0 
L 7.328125 0 
L 7.328125 8.296875 
Q 12.9375 14.109375 22.625 23.890625 
Q 32.328125 33.6875 34.8125 36.53125 
Q 39.546875 41.84375 41.421875 45.53125 
Q 43.3125 49.21875 43.3125 52.78125 
Q 43.3125 58.59375 39.234375 62.25 
Q 35.15625 65.921875 28.609375 65.921875 
Q 23.96875 65.921875 18.8125 64.3125 
Q 13.671875 62.703125 7.8125 59.421875 
L 7.8125 69.390625 
Q 13.765625 71.78125 18.9375 73 
Q 24.125 74.21875 28.421875 74.21875 
Q 39.75 74.21875 46.484375 68.546875 
Q 53.21875 62.890625 53.21875 53.421875 
Q 53.21875 48.921875 51.53125 44.890625 
Q 49.859375 40.875 45.40625 35.40625 
Q 44.1875 33.984375 37.640625 27.21875 
Q 31.109375 20.453125 19.1875 8.296875 
z
" id="DejaVuSans-50"/>
        <path d="M 31.78125 66.40625 
Q 24.171875 66.40625 20.328125 58.90625 
Q 16.5 51.421875 16.5 36.375 
Q 16.5 21.390625 20.328125 13.890625 
Q 24.171875 6.390625 31.78125 6.390625 
Q 39.453125 6.390625 43.28125 13.890625 
Q 47.125 21.390625 47.125 36.375 
Q 47.125 51.421875 43.28125 58.90625 
Q 39.453125 66.40625 31.78125 66.40625 
z
M 31.78125 74.21875 
Q 44.046875 74.21875 50.515625 64.515625 
Q 56.984375 54.828125 56.984375 36.375 
Q 56.984375 17.96875 50.515625 8.265625 
Q 44.046875 -1.421875 31.78125 -1.421875 
Q 19.53125 -1.421875 13.0625 8.265625 
Q 6.59375 17.96875 6.59375 36.375 
Q 6.59375 54.828125 13.0625 64.515625 
Q 19.53125 74.21875 31.78125 74.21875 
z
" id="DejaVuSans-48"/>
        <path d="M 4.890625 31.390625 
L 31.203125 31.390625 
L 31.203125 23.390625 
L 4.890625 23.390625 
z
" id="DejaVuSans-45"/>
        <path d="M 37.796875 64.3125 
L 12.890625 25.390625 
L 37.796875 25.390625 
z
M 35.203125 72.90625 
L 47.609375 72.90625 
L 47.609375 25.390625 
L 58.015625 25.390625 
L 58.015625 17.1875 
L 47.609375 17.1875 
L 47.609375 0 
L 37.796875 0 
L 37.796875 17.1875 
L 4.890625 17.1875 
L 4.890625 26.703125 
z
" id="DejaVuSans-52"/>
       </defs>
       <use xlink:href="#DejaVuSans-50"/>
       <use x="63.623047" xlink:href="#DejaVuSans-48"/>
       <use x="127.246094" xlink:href="#DejaVuSans-50"/>
       <use x="190.869141" xlink:href="#DejaVuSans-48"/>
       <use x="254.492188" xlink:href="#DejaVuSans-45"/>
       <use x="290.576172" xlink:href="#DejaVuSans-48"/>
       <use x="354.199219" xlink:href="#DejaVuSans-52"/>
      </g>
     </g>
    </g>
    <g id="xtick_2">
     <g id="line2d_2">
      <g>
       <use style="stroke:#000000;stroke-width:0.8;" x="85.552004" xlink:href="#mffa9c0a9f1" y="164.399746"/>
      </g>
     </g>
     <g id="text_2">
      <!-- 2020-05 -->
      <g transform="translate(46.465942 200.245184)rotate(-30)scale(0.105 -0.105)">
       <defs>
        <path d="M 10.796875 72.90625 
L 49.515625 72.90625 
L 49.515625 64.59375 
L 19.828125 64.59375 
L 19.828125 46.734375 
Q 21.96875 47.46875 24.109375 47.828125 
Q 26.265625 48.1875 28.421875 48.1875 
Q 40.625 48.1875 47.75 41.5 
Q 54.890625 34.8125 54.890625 23.390625 
Q 54.890625 11.625 47.5625 5.09375 
Q 40.234375 -1.421875 26.90625 -1.421875 
Q 22.3125 -1.421875 17.546875 -0.640625 
Q 12.796875 0.140625 7.71875 1.703125 
L 7.71875 11.625 
Q 12.109375 9.234375 16.796875 8.0625 
Q 21.484375 6.890625 26.703125 6.890625 
Q 35.15625 6.890625 40.078125 11.328125 
Q 45.015625 15.765625 45.015625 23.390625 
Q 45.015625 31 40.078125 35.4375 
Q 35.15625 39.890625 26.703125 39.890625 
Q 22.75 39.890625 18.8125 39.015625 
Q 14.890625 38.140625 10.796875 36.28125 
z
" id="DejaVuSans-53"/>
       </defs>
       <use xlink:href="#DejaVuSans-50"/>
       <use x="63.623047" xlink:href="#DejaVuSans-48"/>
       <use x="127.246094" xlink:href="#DejaVuSans-50"/>
       <use x="190.869141" xlink:href="#DejaVuSans-48"/>
       <use x="254.492188" xlink:href="#DejaVuSans-45"/>
       <use x="290.576172" xlink:href="#DejaVuSans-48"/>
       <use x="354.199219" xlink:href="#DejaVuSans-53"/>
      </g>
     </g>
    </g>
    <g id="xtick_3">
     <g id="line2d_3">
      <g>
       <use style="stroke:#000000;stroke-width:0.8;" x="117.807648" xlink:href="#mffa9c0a9f1" y="164.399746"/>
      </g>
     </g>
     <g id="text_3">
      <!-- 2020-06 -->
      <g transform="translate(78.721587 200.245184)rotate(-30)scale(0.105 -0.105)">
       <defs>
        <path d="M 33.015625 40.375 
Q 26.375 40.375 22.484375 35.828125 
Q 18.609375 31.296875 18.609375 23.390625 
Q 18.609375 15.53125 22.484375 10.953125 
Q 26.375 6.390625 33.015625 6.390625 
Q 39.65625 6.390625 43.53125 10.953125 
Q 47.40625 15.53125 47.40625 23.390625 
Q 47.40625 31.296875 43.53125 35.828125 
Q 39.65625 40.375 33.015625 40.375 
z
M 52.59375 71.296875 
L 52.59375 62.3125 
Q 48.875 64.0625 45.09375 64.984375 
Q 41.3125 65.921875 37.59375 65.921875 
Q 27.828125 65.921875 22.671875 59.328125 
Q 17.53125 52.734375 16.796875 39.40625 
Q 19.671875 43.65625 24.015625 45.921875 
Q 28.375 48.1875 33.59375 48.1875 
Q 44.578125 48.1875 50.953125 41.515625 
Q 57.328125 34.859375 57.328125 23.390625 
Q 57.328125 12.15625 50.6875 5.359375 
Q 44.046875 -1.421875 33.015625 -1.421875 
Q 20.359375 -1.421875 13.671875 8.265625 
Q 6.984375 17.96875 6.984375 36.375 
Q 6.984375 53.65625 15.1875 63.9375 
Q 23.390625 74.21875 37.203125 74.21875 
Q 40.921875 74.21875 44.703125 73.484375 
Q 48.484375 72.75 52.59375 71.296875 
z
" id="DejaVuSans-54"/>
       </defs>
       <use xlink:href="#DejaVuSans-50"/>
       <use x="63.623047" xlink:href="#DejaVuSans-48"/>
       <use x="127.246094" xlink:href="#DejaVuSans-50"/>
       <use x="190.869141" xlink:href="#DejaVuSans-48"/>
       <use x="254.492188" xlink:href="#DejaVuSans-45"/>
       <use x="290.576172" xlink:href="#DejaVuSans-48"/>
       <use x="354.199219" xlink:href="#DejaVuSans-54"/>
      </g>
     </g>
    </g>
    <g id="xtick_4">
     <g id="line2d_4">
      <g>
       <use style="stroke:#000000;stroke-width:0.8;" x="149.022788" xlink:href="#mffa9c0a9f1" y="164.399746"/>
      </g>
     </g>
     <g id="text_4">
      <!-- 2020-07 -->
      <g transform="translate(109.936726 200.245184)rotate(-30)scale(0.105 -0.105)">
       <defs>
        <path d="M 8.203125 72.90625 
L 55.078125 72.90625 
L 55.078125 68.703125 
L 28.609375 0 
L 18.3125 0 
L 43.21875 64.59375 
L 8.203125 64.59375 
z
" id="DejaVuSans-55"/>
       </defs>
       <use xlink:href="#DejaVuSans-50"/>
       <use x="63.623047" xlink:href="#DejaVuSans-48"/>
       <use x="127.246094" xlink:href="#DejaVuSans-50"/>
       <use x="190.869141" xlink:href="#DejaVuSans-48"/>
       <use x="254.492188" xlink:href="#DejaVuSans-45"/>
       <use x="290.576172" xlink:href="#DejaVuSans-48"/>
       <use x="354.199219" xlink:href="#DejaVuSans-55"/>
      </g>
     </g>
    </g>
    <g id="xtick_5">
     <g id="line2d_5">
      <g>
       <use style="stroke:#000000;stroke-width:0.8;" x="181.278432" xlink:href="#mffa9c0a9f1" y="164.399746"/>
      </g>
     </g>
     <g id="text_5">
      <!-- 2020-08 -->
      <g transform="translate(142.19237 200.245184)rotate(-30)scale(0.105 -0.105)">
       <defs>
        <path d="M 31.78125 34.625 
Q 24.75 34.625 20.71875 30.859375 
Q 16.703125 27.09375 16.703125 20.515625 
Q 16.703125 13.921875 20.71875 10.15625 
Q 24.75 6.390625 31.78125 6.390625 
Q 38.8125 6.390625 42.859375 10.171875 
Q 46.921875 13.96875 46.921875 20.515625 
Q 46.921875 27.09375 42.890625 30.859375 
Q 38.875 34.625 31.78125 34.625 
z
M 21.921875 38.8125 
Q 15.578125 40.375 12.03125 44.71875 
Q 8.5 49.078125 8.5 55.328125 
Q 8.5 64.0625 14.71875 69.140625 
Q 20.953125 74.21875 31.78125 74.21875 
Q 42.671875 74.21875 48.875 69.140625 
Q 55.078125 64.0625 55.078125 55.328125 
Q 55.078125 49.078125 51.53125 44.71875 
Q 48 40.375 41.703125 38.8125 
Q 48.828125 37.15625 52.796875 32.3125 
Q 56.78125 27.484375 56.78125 20.515625 
Q 56.78125 9.90625 50.3125 4.234375 
Q 43.84375 -1.421875 31.78125 -1.421875 
Q 19.734375 -1.421875 13.25 4.234375 
Q 6.78125 9.90625 6.78125 20.515625 
Q 6.78125 27.484375 10.78125 32.3125 
Q 14.796875 37.15625 21.921875 38.8125 
z
M 18.3125 54.390625 
Q 18.3125 48.734375 21.84375 45.5625 
Q 25.390625 42.390625 31.78125 42.390625 
Q 38.140625 42.390625 41.71875 45.5625 
Q 45.3125 48.734375 45.3125 54.390625 
Q 45.3125 60.0625 41.71875 63.234375 
Q 38.140625 66.40625 31.78125 66.40625 
Q 25.390625 66.40625 21.84375 63.234375 
Q 18.3125 60.0625 18.3125 54.390625 
z
" id="DejaVuSans-56"/>
       </defs>
       <use xlink:href="#DejaVuSans-50"/>
       <use x="63.623047" xlink:href="#DejaVuSans-48"/>
       <use x="127.246094" xlink:href="#DejaVuSans-50"/>
       <use x="190.869141" xlink:href="#DejaVuSans-48"/>
       <use x="254.492188" xlink:href="#DejaVuSans-45"/>
       <use x="290.576172" xlink:href="#DejaVuSans-48"/>
       <use x="354.199219" xlink:href="#DejaVuSans-56"/>
      </g>
     </g>
    </g>
    <g id="xtick_6">
     <g id="line2d_6">
      <g>
       <use style="stroke:#000000;stroke-width:0.8;" x="213.534077" xlink:href="#mffa9c0a9f1" y="164.399746"/>
      </g>
     </g>
     <g id="text_6">
      <!-- 2020-09 -->
      <g transform="translate(174.448015 200.245184)rotate(-30)scale(0.105 -0.105)">
       <defs>
        <path d="M 10.984375 1.515625 
L 10.984375 10.5 
Q 14.703125 8.734375 18.5 7.8125 
Q 22.3125 6.890625 25.984375 6.890625 
Q 35.75 6.890625 40.890625 13.453125 
Q 46.046875 20.015625 46.78125 33.40625 
Q 43.953125 29.203125 39.59375 26.953125 
Q 35.25 24.703125 29.984375 24.703125 
Q 19.046875 24.703125 12.671875 31.3125 
Q 6.296875 37.9375 6.296875 49.421875 
Q 6.296875 60.640625 12.9375 67.421875 
Q 19.578125 74.21875 30.609375 74.21875 
Q 43.265625 74.21875 49.921875 64.515625 
Q 56.59375 54.828125 56.59375 36.375 
Q 56.59375 19.140625 48.40625 8.859375 
Q 40.234375 -1.421875 26.421875 -1.421875 
Q 22.703125 -1.421875 18.890625 -0.6875 
Q 15.09375 0.046875 10.984375 1.515625 
z
M 30.609375 32.421875 
Q 37.25 32.421875 41.125 36.953125 
Q 45.015625 41.5 45.015625 49.421875 
Q 45.015625 57.28125 41.125 61.84375 
Q 37.25 66.40625 30.609375 66.40625 
Q 23.96875 66.40625 20.09375 61.84375 
Q 16.21875 57.28125 16.21875 49.421875 
Q 16.21875 41.5 20.09375 36.953125 
Q 23.96875 32.421875 30.609375 32.421875 
z
" id="DejaVuSans-57"/>
       </defs>
       <use xlink:href="#DejaVuSans-50"/>
       <use x="63.623047" xlink:href="#DejaVuSans-48"/>
       <use x="127.246094" xlink:href="#DejaVuSans-50"/>
       <use x="190.869141" xlink:href="#DejaVuSans-48"/>
       <use x="254.492188" xlink:href="#DejaVuSans-45"/>
       <use x="290.576172" xlink:href="#DejaVuSans-48"/>
       <use x="354.199219" xlink:href="#DejaVuSans-57"/>
      </g>
     </g>
    </g>
    <g id="xtick_7">
     <g id="line2d_7">
      <g>
       <use style="stroke:#000000;stroke-width:0.8;" x="244.749216" xlink:href="#mffa9c0a9f1" y="164.399746"/>
      </g>
     </g>
     <g id="text_7">
      <!-- 2020-10 -->
      <g transform="translate(205.663154 200.245184)rotate(-30)scale(0.105 -0.105)">
       <defs>
        <path d="M 12.40625 8.296875 
L 28.515625 8.296875 
L 28.515625 63.921875 
L 10.984375 60.40625 
L 10.984375 69.390625 
L 28.421875 72.90625 
L 38.28125 72.90625 
L 38.28125 8.296875 
L 54.390625 8.296875 
L 54.390625 0 
L 12.40625 0 
z
" id="DejaVuSans-49"/>
       </defs>
       <use xlink:href="#DejaVuSans-50"/>
       <use x="63.623047" xlink:href="#DejaVuSans-48"/>
       <use x="127.246094" xlink:href="#DejaVuSans-50"/>
       <use x="190.869141" xlink:href="#DejaVuSans-48"/>
       <use x="254.492188" xlink:href="#DejaVuSans-45"/>
       <use x="290.576172" xlink:href="#DejaVuSans-49"/>
       <use x="354.199219" xlink:href="#DejaVuSans-48"/>
      </g>
     </g>
    </g>
    <g id="xtick_8">
     <g id="line2d_8">
      <g>
       <use style="stroke:#000000;stroke-width:0.8;" x="277.00486" xlink:href="#mffa9c0a9f1" y="164.399746"/>
      </g>
     </g>
     <g id="text_8">
      <!-- 2020-11 -->
      <g transform="translate(237.918799 200.245184)rotate(-30)scale(0.105 -0.105)">
       <use xlink:href="#DejaVuSans-50"/>
       <use x="63.623047" xlink:href="#DejaVuSans-48"/>
       <use x="127.246094" xlink:href="#DejaVuSans-50"/>
       <use x="190.869141" xlink:href="#DejaVuSans-48"/>
       <use x="254.492188" xlink:href="#DejaVuSans-45"/>
       <use x="290.576172" xlink:href="#DejaVuSans-49"/>
       <use x="354.199219" xlink:href="#DejaVuSans-49"/>
      </g>
     </g>
    </g>
    <g id="xtick_9">
     <g id="line2d_9">
      <g>
       <use style="stroke:#000000;stroke-width:0.8;" x="308.22" xlink:href="#mffa9c0a9f1" y="164.399746"/>
      </g>
     </g>
     <g id="text_9">
      <!-- 2020-12 -->
      <g transform="translate(269.133938 200.245184)rotate(-30)scale(0.105 -0.105)">
       <use xlink:href="#DejaVuSans-50"/>
       <use x="63.623047" xlink:href="#DejaVuSans-48"/>
       <use x="127.246094" xlink:href="#DejaVuSans-50"/>
       <use x="190.869141" xlink:href="#DejaVuSans-48"/>
       <use x="254.492188" xlink:href="#DejaVuSans-45"/>
       <use x="290.576172" xlink:href="#DejaVuSans-49"/>
       <use x="354.199219" xlink:href="#DejaVuSans-50"/>
      </g>
     </g>
    </g>
   </g>
   <g id="matplotlib.axis_2">
    <g id="ytick_1">
     <g id="line2d_10">
      <defs>
       <path d="M 0 0 
L -3.5 0 
" id="m01a6fcc18a" style="stroke:#000000;stroke-width:0.8;"/>
      </defs>
      <g>
       <use style="stroke:#000000;stroke-width:0.8;" x="54.336865" xlink:href="#m01a6fcc18a" y="158.177377"/>
      </g>
     </g>
     <g id="text_10">
      <!-- 0 -->
      <g transform="translate(40.65624 162.166557)scale(0.105 -0.105)">
       <use xlink:href="#DejaVuSans-48"/>
      </g>
     </g>
    </g>
    <g id="ytick_2">
     <g id="line2d_11">
      <g>
       <use style="stroke:#000000;stroke-width:0.8;" x="54.336865" xlink:href="#m01a6fcc18a" y="120.078133"/>
      </g>
     </g>
     <g id="text_11">
      <!-- 5000 -->
      <g transform="translate(20.614365 124.067313)scale(0.105 -0.105)">
       <use xlink:href="#DejaVuSans-53"/>
       <use x="63.623047" xlink:href="#DejaVuSans-48"/>
       <use x="127.246094" xlink:href="#DejaVuSans-48"/>
       <use x="190.869141" xlink:href="#DejaVuSans-48"/>
      </g>
     </g>
    </g>
    <g id="ytick_3">
     <g id="line2d_12">
      <g>
       <use style="stroke:#000000;stroke-width:0.8;" x="54.336865" xlink:href="#m01a6fcc18a" y="81.978888"/>
      </g>
     </g>
     <g id="text_12">
      <!-- 10000 -->
      <g transform="translate(13.93374 85.968068)scale(0.105 -0.105)">
       <use xlink:href="#DejaVuSans-49"/>
       <use x="63.623047" xlink:href="#DejaVuSans-48"/>
       <use x="127.246094" xlink:href="#DejaVuSans-48"/>
       <use x="190.869141" xlink:href="#DejaVuSans-48"/>
       <use x="254.492188" xlink:href="#DejaVuSans-48"/>
      </g>
     </g>
    </g>
    <g id="ytick_4">
     <g id="line2d_13">
      <g>
       <use style="stroke:#000000;stroke-width:0.8;" x="54.336865" xlink:href="#m01a6fcc18a" y="43.879644"/>
      </g>
     </g>
     <g id="text_13">
      <!-- 15000 -->
      <g transform="translate(13.93374 47.868824)scale(0.105 -0.105)">
       <use xlink:href="#DejaVuSans-49"/>
       <use x="63.623047" xlink:href="#DejaVuSans-53"/>
       <use x="127.246094" xlink:href="#DejaVuSans-48"/>
       <use x="190.869141" xlink:href="#DejaVuSans-48"/>
       <use x="254.492188" xlink:href="#DejaVuSans-48"/>
      </g>
     </g>
    </g>
   </g>
   <g id="line2d_14">
    <path clip-path="url(#p23d7715279)" d="M -1 158.169758 
L 27.283744 158.124038 
L 31.445762 157.857344 
L 33.526772 157.781145 
L 34.567276 157.628748 
L 35.607781 157.804005 
L 38.729295 157.209657 
L 39.769799 157.148698 
L 40.810304 157.384913 
L 41.850809 156.851524 
L 43.931818 157.133458 
L 44.972323 156.440052 
L 46.012827 156.683887 
L 47.053332 156.455292 
L 48.093837 156.561969 
L 49.134341 156.333374 
L 50.174846 156.447672 
L 51.215351 156.409572 
L 52.255855 155.624728 
L 53.29636 156.112398 
L 54.336865 155.624728 
L 55.377369 155.960001 
L 56.417874 155.693307 
L 57.458379 156.226696 
L 58.498883 156.089539 
L 59.539388 155.495191 
L 60.579893 155.434232 
L 61.620397 155.853323 
L 62.660902 155.815224 
L 63.701406 155.921902 
L 64.741911 156.142878 
L 65.782416 156.150498 
L 66.82292 155.198016 
L 67.863425 155.899043 
L 68.90393 155.876183 
L 69.944434 156.059059 
L 70.984939 156.00572 
L 72.025444 156.180977 
L 73.065948 156.52387 
L 74.106453 155.761885 
L 75.146958 155.914282 
L 76.187462 156.386713 
L 77.227967 156.295275 
L 78.268472 156.333374 
L 79.308976 156.767705 
L 80.349481 156.356233 
L 81.389986 156.264795 
L 82.43049 156.363853 
L 83.470995 156.721986 
L 84.5115 156.622928 
L 85.552004 156.653408 
L 86.592509 156.836284 
L 87.633013 156.836284 
L 88.673518 156.721986 
L 90.754527 157.133458 
L 91.795032 156.874383 
L 92.835537 157.087739 
L 93.876041 157.575409 
L 94.916546 156.958202 
L 98.03806 157.476351 
L 99.078565 157.301095 
L 101.159574 157.55255 
L 104.281088 157.308715 
L 105.321593 157.583029 
L 113.64563 157.758286 
L 114.686134 157.476351 
L 115.726639 157.933542 
L 116.767144 157.956402 
L 117.807648 157.864964 
L 120.929162 157.887823 
L 121.969667 157.903063 
L 123.010172 158.05546 
L 127.17219 158.009741 
L 131.334209 158.108799 
L 132.374714 158.009741 
L 134.455723 158.05546 
L 136.536732 158.093559 
L 137.577237 64.399897 
L 138.617742 33.569988 
L 139.658246 158.108799 
L 140.698751 158.06308 
L 141.739255 158.154518 
L 144.860769 158.131658 
L 150.063293 158.108799 
L 153.184807 158.085939 
L 154.225311 149.185956 
L 155.265816 157.971641 
L 156.306321 158.101179 
L 158.38733 158.085939 
L 171.91389 158.06308 
L 175.035404 158.154518 
L 176.075909 158.070699 
L 178.156918 158.093559 
L 179.197423 140.110716 
L 180.237928 158.146898 
L 181.278432 157.01916 
L 182.318937 157.514451 
L 183.359442 157.453492 
L 184.399946 156.920102 
L 185.440451 157.514451 
L 186.480956 157.674467 
L 187.52146 157.636368 
L 188.561965 157.445872 
L 190.642974 157.735426 
L 193.764488 157.476351 
L 194.804993 157.202037 
L 195.845497 158.078319 
L 196.886002 156.767705 
L 197.926507 157.331574 
L 198.967011 157.53731 
L 200.007516 157.54493 
L 201.048021 157.323954 
L 202.088525 156.874383 
L 203.12903 156.866763 
L 204.169535 158.093559 
L 205.210039 156.942962 
L 206.250544 157.849724 
L 207.291049 156.775325 
L 208.331553 156.996301 
L 209.372058 157.407773 
L 210.412563 157.095359 
L 211.453067 157.423012 
L 212.493572 157.05726 
L 213.534077 157.240136 
L 214.574581 158.017361 
L 215.615086 156.721986 
L 216.655591 157.491591 
L 217.696095 157.179177 
L 218.7366 157.514451 
L 219.777104 157.377293 
L 220.817609 157.575409 
L 221.858114 157.56017 
L 222.898618 158.009741 
L 223.939123 155.091339 
L 224.979628 156.356233 
L 226.020132 157.080119 
L 227.060637 157.52969 
L 228.101142 157.01154 
L 229.141646 157.217276 
L 230.182151 156.668647 
L 231.222656 157.0344 
L 232.26316 156.866763 
L 233.303665 157.377293 
L 234.34417 158.154518 
L 235.384674 157.102979 
L 236.425179 157.01916 
L 237.465684 157.118218 
L 238.506188 156.981061 
L 239.546693 156.51625 
L 240.587198 157.133458 
L 241.627702 156.790565 
L 242.668207 156.638168 
L 243.708711 156.981061 
L 244.749216 156.203836 
L 245.789721 154.969421 
L 246.830225 156.066679 
L 247.87073 155.342794 
L 249.951739 156.691507 
L 250.992244 158.093559 
L 252.032749 154.52747 
L 253.073253 156.234316 
L 255.154263 154.093138 
L 256.194767 155.198016 
L 257.235272 155.678067 
L 258.275777 158.04022 
L 259.316281 157.925922 
L 260.356786 151.052819 
L 261.397291 148.530649 
L 262.437795 155.883803 
L 263.4783 154.641767 
L 264.518805 154.49699 
L 265.559309 154.786545 
L 266.599814 154.321734 
L 267.640319 153.658807 
L 268.680823 152.706326 
L 269.721328 157.933542 
L 270.761832 149.353592 
L 271.802337 153.133037 
L 272.842842 154.588429 
L 273.883346 154.260775 
L 274.923851 153.361633 
L 275.964356 150.420371 
L 277.00486 152.378672 
L 278.045365 157.194417 
L 279.08587 151.441431 
L 280.126374 155.281835 
L 281.166879 149.216435 
L 282.207384 157.483971 
L 283.247888 144.995039 
L 284.288393 149.269774 
L 285.328898 150.48895 
L 286.369402 148.294433 
L 287.409907 146.519009 
L 288.450412 150.648967 
L 289.490916 139.021077 
L 290.531421 150.892802 
L 291.571926 146.892381 
L 292.61243 145.261733 
L 293.652935 146.922861 
L 294.69344 144.225434 
L 295.733944 144.332112 
L 296.774449 144.987419 
L 297.814953 148.812583 
L 298.855458 147.212415 
L 299.895963 157.697327 
L 300.936467 145.840842 
L 301.976972 148.644946 
L 303.017477 139.272532 
L 304.057981 150.534669 
L 305.098486 149.315493 
L 306.138991 147.921061 
L 307.179495 148.073458 
L 308.22 157.52969 
L 309.260505 157.750666 
L 311.341514 157.727806 
L 312.382019 80.531117 
L 313.422523 135.500707 
L 314.463028 157.735426 
L 315.503533 128.193272 
L 316.544037 143.91302 
L 317.584542 156.493391 
L 318.625047 123.194651 
L 319.665551 157.971641 
L 320.706056 133.031876 
L 321.74656 139.714483 
L 322.787065 147.562928 
L 323.82757 142.785283 
L 323.82757 142.785283 
" style="fill:none;stroke:#1f77b4;stroke-linecap:square;stroke-width:1.5;"/>
   </g>
   <g id="patch_3">
    <path d="M 54.336865 164.399746 
L 54.336865 27.34 
" style="fill:none;stroke:#000000;stroke-linecap:square;stroke-linejoin:miter;stroke-width:0.8;"/>
   </g>
   <g id="patch_4">
    <path d="M 308.22 164.399746 
L 308.22 27.34 
" style="fill:none;stroke:#000000;stroke-linecap:square;stroke-linejoin:miter;stroke-width:0.8;"/>
   </g>
   <g id="patch_5">
    <path d="M 54.336865 164.399746 
L 308.22 164.399746 
" style="fill:none;stroke:#000000;stroke-linecap:square;stroke-linejoin:miter;stroke-width:0.8;"/>
   </g>
   <g id="patch_6">
    <path d="M 54.336865 27.34 
L 308.22 27.34 
" style="fill:none;stroke:#000000;stroke-linecap:square;stroke-linejoin:miter;stroke-width:0.8;"/>
   </g>
   <g id="text_14">
    <!-- CT -->
    <g transform="translate(173.424057 21.34)scale(0.12 -0.12)">
     <defs>
      <path d="M 64.40625 67.28125 
L 64.40625 56.890625 
Q 59.421875 61.53125 53.78125 63.8125 
Q 48.140625 66.109375 41.796875 66.109375 
Q 29.296875 66.109375 22.65625 58.46875 
Q 16.015625 50.828125 16.015625 36.375 
Q 16.015625 21.96875 22.65625 14.328125 
Q 29.296875 6.6875 41.796875 6.6875 
Q 48.140625 6.6875 53.78125 8.984375 
Q 59.421875 11.28125 64.40625 15.921875 
L 64.40625 5.609375 
Q 59.234375 2.09375 53.4375 0.328125 
Q 47.65625 -1.421875 41.21875 -1.421875 
Q 24.65625 -1.421875 15.125 8.703125 
Q 5.609375 18.84375 5.609375 36.375 
Q 5.609375 53.953125 15.125 64.078125 
Q 24.65625 74.21875 41.21875 74.21875 
Q 47.75 74.21875 53.53125 72.484375 
Q 59.328125 70.75 64.40625 67.28125 
z
" id="DejaVuSans-67"/>
      <path d="M -0.296875 72.90625 
L 61.375 72.90625 
L 61.375 64.59375 
L 35.5 64.59375 
L 35.5 0 
L 25.59375 0 
L 25.59375 64.59375 
L -0.296875 64.59375 
z
" id="DejaVuSans-84"/>
     </defs>
     <use xlink:href="#DejaVuSans-67"/>
     <use x="69.824219" xlink:href="#DejaVuSans-84"/>
    </g>
   </g>
  </g>
  <g id="axes_2">
   <g id="patch_7">
    <path d="M 362.556865 164.399746 
L 616.44 164.399746 
L 616.44 27.34 
L 362.556865 27.34 
z
" style="fill:#ffffff;"/>
   </g>
   <g id="matplotlib.axis_3">
    <g id="xtick_10">
     <g id="line2d_15">
      <g>
       <use style="stroke:#000000;stroke-width:0.8;" x="362.556865" xlink:href="#mffa9c0a9f1" y="164.399746"/>
      </g>
     </g>
     <g id="text_15">
      <!-- 2020-04 -->
      <g transform="translate(323.470803 200.245184)rotate(-30)scale(0.105 -0.105)">
       <use xlink:href="#DejaVuSans-50"/>
       <use x="63.623047" xlink:href="#DejaVuSans-48"/>
       <use x="127.246094" xlink:href="#DejaVuSans-50"/>
       <use x="190.869141" xlink:href="#DejaVuSans-48"/>
       <use x="254.492188" xlink:href="#DejaVuSans-45"/>
       <use x="290.576172" xlink:href="#DejaVuSans-48"/>
       <use x="354.199219" xlink:href="#DejaVuSans-52"/>
      </g>
     </g>
    </g>
    <g id="xtick_11">
     <g id="line2d_16">
      <g>
       <use style="stroke:#000000;stroke-width:0.8;" x="393.772004" xlink:href="#mffa9c0a9f1" y="164.399746"/>
      </g>
     </g>
     <g id="text_16">
      <!-- 2020-05 -->
      <g transform="translate(354.685942 200.245184)rotate(-30)scale(0.105 -0.105)">
       <use xlink:href="#DejaVuSans-50"/>
       <use x="63.623047" xlink:href="#DejaVuSans-48"/>
       <use x="127.246094" xlink:href="#DejaVuSans-50"/>
       <use x="190.869141" xlink:href="#DejaVuSans-48"/>
       <use x="254.492188" xlink:href="#DejaVuSans-45"/>
       <use x="290.576172" xlink:href="#DejaVuSans-48"/>
       <use x="354.199219" xlink:href="#DejaVuSans-53"/>
      </g>
     </g>
    </g>
    <g id="xtick_12">
     <g id="line2d_17">
      <g>
       <use style="stroke:#000000;stroke-width:0.8;" x="426.027648" xlink:href="#mffa9c0a9f1" y="164.399746"/>
      </g>
     </g>
     <g id="text_17">
      <!-- 2020-06 -->
      <g transform="translate(386.941587 200.245184)rotate(-30)scale(0.105 -0.105)">
       <use xlink:href="#DejaVuSans-50"/>
       <use x="63.623047" xlink:href="#DejaVuSans-48"/>
       <use x="127.246094" xlink:href="#DejaVuSans-50"/>
       <use x="190.869141" xlink:href="#DejaVuSans-48"/>
       <use x="254.492188" xlink:href="#DejaVuSans-45"/>
       <use x="290.576172" xlink:href="#DejaVuSans-48"/>
       <use x="354.199219" xlink:href="#DejaVuSans-54"/>
      </g>
     </g>
    </g>
    <g id="xtick_13">
     <g id="line2d_18">
      <g>
       <use style="stroke:#000000;stroke-width:0.8;" x="457.242788" xlink:href="#mffa9c0a9f1" y="164.399746"/>
      </g>
     </g>
     <g id="text_18">
      <!-- 2020-07 -->
      <g transform="translate(418.156726 200.245184)rotate(-30)scale(0.105 -0.105)">
       <use xlink:href="#DejaVuSans-50"/>
       <use x="63.623047" xlink:href="#DejaVuSans-48"/>
       <use x="127.246094" xlink:href="#DejaVuSans-50"/>
       <use x="190.869141" xlink:href="#DejaVuSans-48"/>
       <use x="254.492188" xlink:href="#DejaVuSans-45"/>
       <use x="290.576172" xlink:href="#DejaVuSans-48"/>
       <use x="354.199219" xlink:href="#DejaVuSans-55"/>
      </g>
     </g>
    </g>
    <g id="xtick_14">
     <g id="line2d_19">
      <g>
       <use style="stroke:#000000;stroke-width:0.8;" x="489.498432" xlink:href="#mffa9c0a9f1" y="164.399746"/>
      </g>
     </g>
     <g id="text_19">
      <!-- 2020-08 -->
      <g transform="translate(450.41237 200.245184)rotate(-30)scale(0.105 -0.105)">
       <use xlink:href="#DejaVuSans-50"/>
       <use x="63.623047" xlink:href="#DejaVuSans-48"/>
       <use x="127.246094" xlink:href="#DejaVuSans-50"/>
       <use x="190.869141" xlink:href="#DejaVuSans-48"/>
       <use x="254.492188" xlink:href="#DejaVuSans-45"/>
       <use x="290.576172" xlink:href="#DejaVuSans-48"/>
       <use x="354.199219" xlink:href="#DejaVuSans-56"/>
      </g>
     </g>
    </g>
    <g id="xtick_15">
     <g id="line2d_20">
      <g>
       <use style="stroke:#000000;stroke-width:0.8;" x="521.754077" xlink:href="#mffa9c0a9f1" y="164.399746"/>
      </g>
     </g>
     <g id="text_20">
      <!-- 2020-09 -->
      <g transform="translate(482.668015 200.245184)rotate(-30)scale(0.105 -0.105)">
       <use xlink:href="#DejaVuSans-50"/>
       <use x="63.623047" xlink:href="#DejaVuSans-48"/>
       <use x="127.246094" xlink:href="#DejaVuSans-50"/>
       <use x="190.869141" xlink:href="#DejaVuSans-48"/>
       <use x="254.492188" xlink:href="#DejaVuSans-45"/>
       <use x="290.576172" xlink:href="#DejaVuSans-48"/>
       <use x="354.199219" xlink:href="#DejaVuSans-57"/>
      </g>
     </g>
    </g>
    <g id="xtick_16">
     <g id="line2d_21">
      <g>
       <use style="stroke:#000000;stroke-width:0.8;" x="552.969216" xlink:href="#mffa9c0a9f1" y="164.399746"/>
      </g>
     </g>
     <g id="text_21">
      <!-- 2020-10 -->
      <g transform="translate(513.883154 200.245184)rotate(-30)scale(0.105 -0.105)">
       <use xlink:href="#DejaVuSans-50"/>
       <use x="63.623047" xlink:href="#DejaVuSans-48"/>
       <use x="127.246094" xlink:href="#DejaVuSans-50"/>
       <use x="190.869141" xlink:href="#DejaVuSans-48"/>
       <use x="254.492188" xlink:href="#DejaVuSans-45"/>
       <use x="290.576172" xlink:href="#DejaVuSans-49"/>
       <use x="354.199219" xlink:href="#DejaVuSans-48"/>
      </g>
     </g>
    </g>
    <g id="xtick_17">
     <g id="line2d_22">
      <g>
       <use style="stroke:#000000;stroke-width:0.8;" x="585.22486" xlink:href="#mffa9c0a9f1" y="164.399746"/>
      </g>
     </g>
     <g id="text_22">
      <!-- 2020-11 -->
      <g transform="translate(546.138799 200.245184)rotate(-30)scale(0.105 -0.105)">
       <use xlink:href="#DejaVuSans-50"/>
       <use x="63.623047" xlink:href="#DejaVuSans-48"/>
       <use x="127.246094" xlink:href="#DejaVuSans-50"/>
       <use x="190.869141" xlink:href="#DejaVuSans-48"/>
       <use x="254.492188" xlink:href="#DejaVuSans-45"/>
       <use x="290.576172" xlink:href="#DejaVuSans-49"/>
       <use x="354.199219" xlink:href="#DejaVuSans-49"/>
      </g>
     </g>
    </g>
    <g id="xtick_18">
     <g id="line2d_23">
      <g>
       <use style="stroke:#000000;stroke-width:0.8;" x="616.44" xlink:href="#mffa9c0a9f1" y="164.399746"/>
      </g>
     </g>
     <g id="text_23">
      <!-- 2020-12 -->
      <g transform="translate(577.353938 200.245184)rotate(-30)scale(0.105 -0.105)">
       <use xlink:href="#DejaVuSans-50"/>
       <use x="63.623047" xlink:href="#DejaVuSans-48"/>
       <use x="127.246094" xlink:href="#DejaVuSans-50"/>
       <use x="190.869141" xlink:href="#DejaVuSans-48"/>
       <use x="254.492188" xlink:href="#DejaVuSans-45"/>
       <use x="290.576172" xlink:href="#DejaVuSans-49"/>
       <use x="354.199219" xlink:href="#DejaVuSans-50"/>
      </g>
     </g>
    </g>
    <g id="text_24">
     <!-- CDC Report Date -->
     <g transform="translate(440.581206 214.874503)scale(0.115 -0.115)">
      <defs>
       <path d="M 19.671875 64.796875 
L 19.671875 8.109375 
L 31.59375 8.109375 
Q 46.6875 8.109375 53.6875 14.9375 
Q 60.6875 21.78125 60.6875 36.53125 
Q 60.6875 51.171875 53.6875 57.984375 
Q 46.6875 64.796875 31.59375 64.796875 
z
M 9.8125 72.90625 
L 30.078125 72.90625 
Q 51.265625 72.90625 61.171875 64.09375 
Q 71.09375 55.28125 71.09375 36.53125 
Q 71.09375 17.671875 61.125 8.828125 
Q 51.171875 0 30.078125 0 
L 9.8125 0 
z
" id="DejaVuSans-68"/>
       <path id="DejaVuSans-32"/>
       <path d="M 44.390625 34.1875 
Q 47.5625 33.109375 50.5625 29.59375 
Q 53.5625 26.078125 56.59375 19.921875 
L 66.609375 0 
L 56 0 
L 46.6875 18.703125 
Q 43.0625 26.03125 39.671875 28.421875 
Q 36.28125 30.8125 30.421875 30.8125 
L 19.671875 30.8125 
L 19.671875 0 
L 9.8125 0 
L 9.8125 72.90625 
L 32.078125 72.90625 
Q 44.578125 72.90625 50.734375 67.671875 
Q 56.890625 62.453125 56.890625 51.90625 
Q 56.890625 45.015625 53.6875 40.46875 
Q 50.484375 35.9375 44.390625 34.1875 
z
M 19.671875 64.796875 
L 19.671875 38.921875 
L 32.078125 38.921875 
Q 39.203125 38.921875 42.84375 42.21875 
Q 46.484375 45.515625 46.484375 51.90625 
Q 46.484375 58.296875 42.84375 61.546875 
Q 39.203125 64.796875 32.078125 64.796875 
z
" id="DejaVuSans-82"/>
       <path d="M 56.203125 29.59375 
L 56.203125 25.203125 
L 14.890625 25.203125 
Q 15.484375 15.921875 20.484375 11.0625 
Q 25.484375 6.203125 34.421875 6.203125 
Q 39.59375 6.203125 44.453125 7.46875 
Q 49.3125 8.734375 54.109375 11.28125 
L 54.109375 2.78125 
Q 49.265625 0.734375 44.1875 -0.34375 
Q 39.109375 -1.421875 33.890625 -1.421875 
Q 20.796875 -1.421875 13.15625 6.1875 
Q 5.515625 13.8125 5.515625 26.8125 
Q 5.515625 40.234375 12.765625 48.109375 
Q 20.015625 56 32.328125 56 
Q 43.359375 56 49.78125 48.890625 
Q 56.203125 41.796875 56.203125 29.59375 
z
M 47.21875 32.234375 
Q 47.125 39.59375 43.09375 43.984375 
Q 39.0625 48.390625 32.421875 48.390625 
Q 24.90625 48.390625 20.390625 44.140625 
Q 15.875 39.890625 15.1875 32.171875 
z
" id="DejaVuSans-101"/>
       <path d="M 18.109375 8.203125 
L 18.109375 -20.796875 
L 9.078125 -20.796875 
L 9.078125 54.6875 
L 18.109375 54.6875 
L 18.109375 46.390625 
Q 20.953125 51.265625 25.265625 53.625 
Q 29.59375 56 35.59375 56 
Q 45.5625 56 51.78125 48.09375 
Q 58.015625 40.1875 58.015625 27.296875 
Q 58.015625 14.40625 51.78125 6.484375 
Q 45.5625 -1.421875 35.59375 -1.421875 
Q 29.59375 -1.421875 25.265625 0.953125 
Q 20.953125 3.328125 18.109375 8.203125 
z
M 48.6875 27.296875 
Q 48.6875 37.203125 44.609375 42.84375 
Q 40.53125 48.484375 33.40625 48.484375 
Q 26.265625 48.484375 22.1875 42.84375 
Q 18.109375 37.203125 18.109375 27.296875 
Q 18.109375 17.390625 22.1875 11.75 
Q 26.265625 6.109375 33.40625 6.109375 
Q 40.53125 6.109375 44.609375 11.75 
Q 48.6875 17.390625 48.6875 27.296875 
z
" id="DejaVuSans-112"/>
       <path d="M 30.609375 48.390625 
Q 23.390625 48.390625 19.1875 42.75 
Q 14.984375 37.109375 14.984375 27.296875 
Q 14.984375 17.484375 19.15625 11.84375 
Q 23.34375 6.203125 30.609375 6.203125 
Q 37.796875 6.203125 41.984375 11.859375 
Q 46.1875 17.53125 46.1875 27.296875 
Q 46.1875 37.015625 41.984375 42.703125 
Q 37.796875 48.390625 30.609375 48.390625 
z
M 30.609375 56 
Q 42.328125 56 49.015625 48.375 
Q 55.71875 40.765625 55.71875 27.296875 
Q 55.71875 13.875 49.015625 6.21875 
Q 42.328125 -1.421875 30.609375 -1.421875 
Q 18.84375 -1.421875 12.171875 6.21875 
Q 5.515625 13.875 5.515625 27.296875 
Q 5.515625 40.765625 12.171875 48.375 
Q 18.84375 56 30.609375 56 
z
" id="DejaVuSans-111"/>
       <path d="M 41.109375 46.296875 
Q 39.59375 47.171875 37.8125 47.578125 
Q 36.03125 48 33.890625 48 
Q 26.265625 48 22.1875 43.046875 
Q 18.109375 38.09375 18.109375 28.8125 
L 18.109375 0 
L 9.078125 0 
L 9.078125 54.6875 
L 18.109375 54.6875 
L 18.109375 46.1875 
Q 20.953125 51.171875 25.484375 53.578125 
Q 30.03125 56 36.53125 56 
Q 37.453125 56 38.578125 55.875 
Q 39.703125 55.765625 41.0625 55.515625 
z
" id="DejaVuSans-114"/>
       <path d="M 18.3125 70.21875 
L 18.3125 54.6875 
L 36.8125 54.6875 
L 36.8125 47.703125 
L 18.3125 47.703125 
L 18.3125 18.015625 
Q 18.3125 11.328125 20.140625 9.421875 
Q 21.96875 7.515625 27.59375 7.515625 
L 36.8125 7.515625 
L 36.8125 0 
L 27.59375 0 
Q 17.1875 0 13.234375 3.875 
Q 9.28125 7.765625 9.28125 18.015625 
L 9.28125 47.703125 
L 2.6875 47.703125 
L 2.6875 54.6875 
L 9.28125 54.6875 
L 9.28125 70.21875 
z
" id="DejaVuSans-116"/>
       <path d="M 34.28125 27.484375 
Q 23.390625 27.484375 19.1875 25 
Q 14.984375 22.515625 14.984375 16.5 
Q 14.984375 11.71875 18.140625 8.90625 
Q 21.296875 6.109375 26.703125 6.109375 
Q 34.1875 6.109375 38.703125 11.40625 
Q 43.21875 16.703125 43.21875 25.484375 
L 43.21875 27.484375 
z
M 52.203125 31.203125 
L 52.203125 0 
L 43.21875 0 
L 43.21875 8.296875 
Q 40.140625 3.328125 35.546875 0.953125 
Q 30.953125 -1.421875 24.3125 -1.421875 
Q 15.921875 -1.421875 10.953125 3.296875 
Q 6 8.015625 6 15.921875 
Q 6 25.140625 12.171875 29.828125 
Q 18.359375 34.515625 30.609375 34.515625 
L 43.21875 34.515625 
L 43.21875 35.40625 
Q 43.21875 41.609375 39.140625 45 
Q 35.0625 48.390625 27.6875 48.390625 
Q 23 48.390625 18.546875 47.265625 
Q 14.109375 46.140625 10.015625 43.890625 
L 10.015625 52.203125 
Q 14.9375 54.109375 19.578125 55.046875 
Q 24.21875 56 28.609375 56 
Q 40.484375 56 46.34375 49.84375 
Q 52.203125 43.703125 52.203125 31.203125 
z
" id="DejaVuSans-97"/>
      </defs>
      <use xlink:href="#DejaVuSans-67"/>
      <use x="69.824219" xlink:href="#DejaVuSans-68"/>
      <use x="146.826172" xlink:href="#DejaVuSans-67"/>
      <use x="216.650391" xlink:href="#DejaVuSans-32"/>
      <use x="248.4375" xlink:href="#DejaVuSans-82"/>
      <use x="313.419922" xlink:href="#DejaVuSans-101"/>
      <use x="374.943359" xlink:href="#DejaVuSans-112"/>
      <use x="438.419922" xlink:href="#DejaVuSans-111"/>
      <use x="499.601562" xlink:href="#DejaVuSans-114"/>
      <use x="540.714844" xlink:href="#DejaVuSans-116"/>
      <use x="579.923828" xlink:href="#DejaVuSans-32"/>
      <use x="611.710938" xlink:href="#DejaVuSans-68"/>
      <use x="688.712891" xlink:href="#DejaVuSans-97"/>
      <use x="749.992188" xlink:href="#DejaVuSans-116"/>
      <use x="789.201172" xlink:href="#DejaVuSans-101"/>
     </g>
    </g>
   </g>
   <g id="matplotlib.axis_4">
    <g id="ytick_5">
     <g id="line2d_24">
      <g>
       <use style="stroke:#000000;stroke-width:0.8;" x="362.556865" xlink:href="#m01a6fcc18a" y="158.178706"/>
      </g>
     </g>
     <g id="text_25">
      <!-- 0 -->
      <g transform="translate(348.87624 162.167886)scale(0.105 -0.105)">
       <use xlink:href="#DejaVuSans-48"/>
      </g>
     </g>
    </g>
    <g id="ytick_6">
     <g id="line2d_25">
      <g>
       <use style="stroke:#000000;stroke-width:0.8;" x="362.556865" xlink:href="#m01a6fcc18a" y="113.435899"/>
      </g>
     </g>
     <g id="text_26">
      <!-- 5000 -->
      <g transform="translate(328.834365 117.425079)scale(0.105 -0.105)">
       <use xlink:href="#DejaVuSans-53"/>
       <use x="63.623047" xlink:href="#DejaVuSans-48"/>
       <use x="127.246094" xlink:href="#DejaVuSans-48"/>
       <use x="190.869141" xlink:href="#DejaVuSans-48"/>
      </g>
     </g>
    </g>
    <g id="ytick_7">
     <g id="line2d_26">
      <g>
       <use style="stroke:#000000;stroke-width:0.8;" x="362.556865" xlink:href="#m01a6fcc18a" y="68.693092"/>
      </g>
     </g>
     <g id="text_27">
      <!-- 10000 -->
      <g transform="translate(322.15374 72.682272)scale(0.105 -0.105)">
       <use xlink:href="#DejaVuSans-49"/>
       <use x="63.623047" xlink:href="#DejaVuSans-48"/>
       <use x="127.246094" xlink:href="#DejaVuSans-48"/>
       <use x="190.869141" xlink:href="#DejaVuSans-48"/>
       <use x="254.492188" xlink:href="#DejaVuSans-48"/>
      </g>
     </g>
    </g>
   </g>
   <g id="line2d_27">
    <path clip-path="url(#p4beddf87af)" d="M 267.870941 158.169758 
L 327.179706 158.116066 
L 328.220211 158.017632 
L 329.260716 158.107118 
L 330.30122 157.731278 
L 332.38223 157.901301 
L 333.422734 157.731278 
L 335.503744 157.829712 
L 336.544248 157.543358 
L 337.584753 157.489667 
L 338.625258 156.764833 
L 339.665762 156.362148 
L 341.746772 156.245817 
L 343.827781 154.760356 
L 344.868285 153.48966 
L 345.90879 151.690999 
L 346.949295 151.726793 
L 347.989799 150.867731 
L 349.030304 151.68205 
L 350.070809 149.999721 
L 351.111313 150.894577 
L 352.151818 151.18988 
L 353.192323 148.648488 
L 354.232827 149.19435 
L 355.273332 148.818511 
L 356.313837 148.836408 
L 357.354341 147.655198 
L 358.394846 147.386741 
L 359.435351 148.335289 
L 360.475855 144.916938 
L 361.51636 146.277119 
L 362.556865 143.252506 
L 363.597369 148.004192 
L 365.678379 144.934835 
L 366.718883 145.140652 
L 367.759388 142.518724 
L 368.799893 143.10038 
L 369.840397 144.415819 
L 370.880902 146.58137 
L 371.921406 141.516485 
L 372.961911 143.359888 
L 374.002416 141.66861 
L 375.04292 137.632809 
L 376.083425 137.086947 
L 377.12393 139.950486 
L 378.164434 140.997468 
L 379.204939 139.467264 
L 380.245444 138.259208 
L 381.285948 137.373301 
L 382.326453 129.954943 
L 383.366958 135.735714 
L 384.407462 137.176432 
L 385.447967 136.729004 
L 386.488472 135.145109 
L 387.528976 133.910208 
L 388.569481 133.543317 
L 389.609986 126.509747 
L 390.65049 130.482909 
L 391.690995 138.473974 
L 392.7315 139.735721 
L 393.772004 135.673074 
L 394.812509 136.890078 
L 395.853013 137.543323 
L 396.893518 134.500813 
L 397.934023 137.051153 
L 400.015032 140.585834 
L 401.055537 140.290532 
L 402.096041 140.129458 
L 403.136546 139.43147 
L 404.177051 136.022068 
L 405.217555 136.066811 
L 406.25806 140.791651 
L 407.298565 143.673088 
L 408.339069 145.704411 
L 409.379574 144.263693 
L 410.420079 143.646242 
L 411.460583 142.867718 
L 412.501088 142.91246 
L 413.541593 146.008663 
L 414.582097 148.192112 
L 415.622602 148.890099 
L 417.703611 150.769297 
L 418.744116 148.943791 
L 419.784621 148.442671 
L 420.825125 150.098155 
L 421.86563 150.930371 
L 422.906134 149.650727 
L 423.946639 151.440439 
L 424.987144 151.342005 
L 426.027648 150.250281 
L 427.068153 151.816279 
L 428.108658 151.136188 
L 429.149162 152.693238 
L 431.230172 152.925901 
L 432.270676 152.782724 
L 433.311181 151.261468 
L 434.351686 151.959456 
L 435.39219 152.863261 
L 436.432695 153.570197 
L 437.4732 152.612701 
L 439.554209 152.451627 
L 440.594714 150.858783 
L 441.635218 151.646256 
L 442.675723 152.013147 
L 443.716228 153.015386 
L 444.756732 151.00196 
L 445.797237 151.950507 
L 446.837742 150.321869 
L 447.878246 149.364373 
L 448.918751 150.635069 
L 449.959255 151.708896 
L 450.99976 152.272656 
L 452.040265 151.279365 
L 453.080769 150.849834 
L 454.121274 150.107104 
L 455.161779 147.88786 
L 456.202283 148.469517 
L 457.242788 149.38227 
L 458.283293 149.963927 
L 459.323797 149.802853 
L 460.364302 149.113813 
L 461.404807 147.27041 
L 462.445311 146.080251 
L 463.485816 145.418058 
L 464.526321 148.13842 
L 465.566825 149.453859 
L 466.60733 146.876673 
L 467.647835 145.892331 
L 468.688339 145.659669 
L 469.728844 144.308436 
L 470.769349 144.711121 
L 471.809853 145.937074 
L 472.850358 148.746922 
L 473.890862 146.563473 
L 474.931367 145.33752 
L 475.971872 143.619397 
L 477.012376 141.095902 
L 478.052881 142.921409 
L 479.093386 143.431477 
L 480.13389 146.89457 
L 481.174395 144.818504 
L 482.2149 143.905751 
L 483.255404 142.420289 
L 484.295909 140.73796 
L 485.336414 141.05116 
L 486.376918 142.805078 
L 487.417423 146.223428 
L 488.457928 145.185395 
L 490.538937 140.165252 
L 491.579442 138.563459 
L 492.619946 141.507536 
L 493.660451 139.843104 
L 494.700956 143.458323 
L 495.74146 143.154071 
L 496.781965 141.203285 
L 497.82247 141.05116 
L 498.862974 138.456077 
L 499.903479 138.912453 
L 500.943983 142.071296 
L 501.984488 143.180917 
L 503.024993 142.626106 
L 504.065497 142.894563 
L 505.106002 138.715585 
L 506.146507 136.75585 
L 507.187011 138.572408 
L 508.227516 140.156303 
L 509.268021 144.039979 
L 510.308525 142.026553 
L 511.34903 141.337513 
L 512.389535 138.715585 
L 513.430039 139.413573 
L 514.470544 138.357643 
L 515.511049 139.905744 
L 516.551553 140.827445 
L 517.592058 144.442664 
L 518.632563 145.104858 
L 519.673067 138.572408 
L 520.713572 138.482922 
L 521.754077 139.583595 
L 522.794581 142.178678 
L 523.835086 145.283829 
L 524.875591 145.212241 
L 525.916095 142.456084 
L 526.9566 141.131697 
L 527.997104 140.729011 
L 529.037609 139.315139 
L 530.078114 142.966152 
L 531.118618 145.874434 
L 532.159123 143.583602 
L 533.199628 141.695456 
L 534.240132 139.503058 
L 535.280637 134.509761 
L 537.361646 139.503058 
L 538.402151 143.431477 
L 539.442656 144.21895 
L 540.48316 141.811787 
L 541.523665 140.039972 
L 542.56417 139.655184 
L 543.604674 138.456077 
L 544.645179 140.558989 
L 545.685684 142.312907 
L 546.726188 139.699927 
L 547.766693 138.661894 
L 548.807198 131.869936 
L 549.847702 128.890065 
L 550.888207 127.995208 
L 552.969216 134.500813 
L 554.009721 132.997454 
L 555.050225 124.639498 
L 556.09073 123.538825 
L 557.131235 122.903477 
L 558.171739 117.945974 
L 559.212244 120.916896 
L 560.252749 130.509754 
L 561.293253 124.746881 
L 562.333758 117.588032 
L 563.374263 112.147306 
L 564.414767 110.473925 
L 565.455272 112.469454 
L 566.495777 112.469454 
L 567.536281 120.236806 
L 568.576786 116.505256 
L 569.617291 109.552223 
L 570.657795 93.936984 
L 571.6983 88.666281 
L 572.738805 91.753535 
L 573.779309 91.306107 
L 574.819814 106.330741 
L 575.860319 103.109259 
L 576.900823 87.98619 
L 577.941328 69.892199 
L 578.981832 60.675181 
L 580.022337 54.241165 
L 581.062842 59.780325 
L 582.103346 71.959317 
L 583.143851 71.422403 
L 584.184356 53.731097 
L 585.22486 47.162853 
L 586.265365 33.569988 
L 587.30587 47.887687 
L 588.346374 49.85637 
L 589.386879 73.301601 
L 590.427384 67.878773 
L 591.467888 67.091299 
L 592.508393 50.840712 
L 593.548898 54.76913 
L 594.589402 55.690832 
L 595.629907 73.408984 
L 596.670412 86.939209 
L 597.710916 78.491767 
L 598.751421 76.91682 
L 599.791926 62.849681 
L 600.83243 87.288203 
L 601.872935 94.071212 
L 602.91344 91.950403 
L 603.953944 99.673012 
L 604.994449 84.433612 
L 606.034953 85.337416 
L 607.075458 70.831798 
L 608.115963 75.896684 
L 609.156467 74.590194 
L 610.196972 91.556666 
L 611.237477 98.661824 
L 612.277981 97.534305 
L 613.318486 91.923557 
L 614.358991 79.538748 
L 615.399495 78.402281 
L 616.44 93.507453 
L 617.480505 102.60814 
L 618.521009 108.70211 
L 619.561514 109.069001 
L 620.602019 100.066748 
L 621.642523 99.350863 
L 622.683028 96.120433 
L 623.723533 101.068987 
L 624.764037 109.713297 
L 625.804542 122.894528 
L 626.845047 117.462752 
L 627.885551 105.874365 
L 628.926056 106.420227 
L 629.96656 109.686452 
L 631.007065 131.538839 
L 632.04757 131.995215 
L 632.04757 131.995215 
" style="fill:none;stroke:#1f77b4;stroke-linecap:square;stroke-width:1.5;"/>
   </g>
   <g id="patch_8">
    <path d="M 362.556865 164.399746 
L 362.556865 27.34 
" style="fill:none;stroke:#000000;stroke-linecap:square;stroke-linejoin:miter;stroke-width:0.8;"/>
   </g>
   <g id="patch_9">
    <path d="M 616.44 164.399746 
L 616.44 27.34 
" style="fill:none;stroke:#000000;stroke-linecap:square;stroke-linejoin:miter;stroke-width:0.8;"/>
   </g>
   <g id="patch_10">
    <path d="M 362.556865 164.399746 
L 616.44 164.399746 
" style="fill:none;stroke:#000000;stroke-linecap:square;stroke-linejoin:miter;stroke-width:0.8;"/>
   </g>
   <g id="patch_11">
    <path d="M 362.556865 27.34 
L 616.44 27.34 
" style="fill:none;stroke:#000000;stroke-linecap:square;stroke-linejoin:miter;stroke-width:0.8;"/>
   </g>
   <g id="text_28">
    <!-- IL -->
    <g transform="translate(484.385307 21.34)scale(0.12 -0.12)">
     <defs>
      <path d="M 9.8125 72.90625 
L 19.671875 72.90625 
L 19.671875 0 
L 9.8125 0 
z
" id="DejaVuSans-73"/>
      <path d="M 9.8125 72.90625 
L 19.671875 72.90625 
L 19.671875 8.296875 
L 55.171875 8.296875 
L 55.171875 0 
L 9.8125 0 
z
" id="DejaVuSans-76"/>
     </defs>
     <use xlink:href="#DejaVuSans-73"/>
     <use x="29.492188" xlink:href="#DejaVuSans-76"/>
    </g>
   </g>
  </g>
  <g id="axes_3">
   <g id="patch_12">
    <path d="M 670.776865 164.399746 
L 924.66 164.399746 
L 924.66 27.34 
L 670.776865 27.34 
z
" style="fill:#ffffff;"/>
   </g>
   <g id="matplotlib.axis_5">
    <g id="xtick_19">
     <g id="line2d_28">
      <g>
       <use style="stroke:#000000;stroke-width:0.8;" x="670.776865" xlink:href="#mffa9c0a9f1" y="164.399746"/>
      </g>
     </g>
     <g id="text_29">
      <!-- 2020-04 -->
      <g transform="translate(631.690803 200.245184)rotate(-30)scale(0.105 -0.105)">
       <use xlink:href="#DejaVuSans-50"/>
       <use x="63.623047" xlink:href="#DejaVuSans-48"/>
       <use x="127.246094" xlink:href="#DejaVuSans-50"/>
       <use x="190.869141" xlink:href="#DejaVuSans-48"/>
       <use x="254.492188" xlink:href="#DejaVuSans-45"/>
       <use x="290.576172" xlink:href="#DejaVuSans-48"/>
       <use x="354.199219" xlink:href="#DejaVuSans-52"/>
      </g>
     </g>
    </g>
    <g id="xtick_20">
     <g id="line2d_29">
      <g>
       <use style="stroke:#000000;stroke-width:0.8;" x="701.992004" xlink:href="#mffa9c0a9f1" y="164.399746"/>
      </g>
     </g>
     <g id="text_30">
      <!-- 2020-05 -->
      <g transform="translate(662.905942 200.245184)rotate(-30)scale(0.105 -0.105)">
       <use xlink:href="#DejaVuSans-50"/>
       <use x="63.623047" xlink:href="#DejaVuSans-48"/>
       <use x="127.246094" xlink:href="#DejaVuSans-50"/>
       <use x="190.869141" xlink:href="#DejaVuSans-48"/>
       <use x="254.492188" xlink:href="#DejaVuSans-45"/>
       <use x="290.576172" xlink:href="#DejaVuSans-48"/>
       <use x="354.199219" xlink:href="#DejaVuSans-53"/>
      </g>
     </g>
    </g>
    <g id="xtick_21">
     <g id="line2d_30">
      <g>
       <use style="stroke:#000000;stroke-width:0.8;" x="734.247648" xlink:href="#mffa9c0a9f1" y="164.399746"/>
      </g>
     </g>
     <g id="text_31">
      <!-- 2020-06 -->
      <g transform="translate(695.161587 200.245184)rotate(-30)scale(0.105 -0.105)">
       <use xlink:href="#DejaVuSans-50"/>
       <use x="63.623047" xlink:href="#DejaVuSans-48"/>
       <use x="127.246094" xlink:href="#DejaVuSans-50"/>
       <use x="190.869141" xlink:href="#DejaVuSans-48"/>
       <use x="254.492188" xlink:href="#DejaVuSans-45"/>
       <use x="290.576172" xlink:href="#DejaVuSans-48"/>
       <use x="354.199219" xlink:href="#DejaVuSans-54"/>
      </g>
     </g>
    </g>
    <g id="xtick_22">
     <g id="line2d_31">
      <g>
       <use style="stroke:#000000;stroke-width:0.8;" x="765.462788" xlink:href="#mffa9c0a9f1" y="164.399746"/>
      </g>
     </g>
     <g id="text_32">
      <!-- 2020-07 -->
      <g transform="translate(726.376726 200.245184)rotate(-30)scale(0.105 -0.105)">
       <use xlink:href="#DejaVuSans-50"/>
       <use x="63.623047" xlink:href="#DejaVuSans-48"/>
       <use x="127.246094" xlink:href="#DejaVuSans-50"/>
       <use x="190.869141" xlink:href="#DejaVuSans-48"/>
       <use x="254.492188" xlink:href="#DejaVuSans-45"/>
       <use x="290.576172" xlink:href="#DejaVuSans-48"/>
       <use x="354.199219" xlink:href="#DejaVuSans-55"/>
      </g>
     </g>
    </g>
    <g id="xtick_23">
     <g id="line2d_32">
      <g>
       <use style="stroke:#000000;stroke-width:0.8;" x="797.718432" xlink:href="#mffa9c0a9f1" y="164.399746"/>
      </g>
     </g>
     <g id="text_33">
      <!-- 2020-08 -->
      <g transform="translate(758.63237 200.245184)rotate(-30)scale(0.105 -0.105)">
       <use xlink:href="#DejaVuSans-50"/>
       <use x="63.623047" xlink:href="#DejaVuSans-48"/>
       <use x="127.246094" xlink:href="#DejaVuSans-50"/>
       <use x="190.869141" xlink:href="#DejaVuSans-48"/>
       <use x="254.492188" xlink:href="#DejaVuSans-45"/>
       <use x="290.576172" xlink:href="#DejaVuSans-48"/>
       <use x="354.199219" xlink:href="#DejaVuSans-56"/>
      </g>
     </g>
    </g>
    <g id="xtick_24">
     <g id="line2d_33">
      <g>
       <use style="stroke:#000000;stroke-width:0.8;" x="829.974077" xlink:href="#mffa9c0a9f1" y="164.399746"/>
      </g>
     </g>
     <g id="text_34">
      <!-- 2020-09 -->
      <g transform="translate(790.888015 200.245184)rotate(-30)scale(0.105 -0.105)">
       <use xlink:href="#DejaVuSans-50"/>
       <use x="63.623047" xlink:href="#DejaVuSans-48"/>
       <use x="127.246094" xlink:href="#DejaVuSans-50"/>
       <use x="190.869141" xlink:href="#DejaVuSans-48"/>
       <use x="254.492188" xlink:href="#DejaVuSans-45"/>
       <use x="290.576172" xlink:href="#DejaVuSans-48"/>
       <use x="354.199219" xlink:href="#DejaVuSans-57"/>
      </g>
     </g>
    </g>
    <g id="xtick_25">
     <g id="line2d_34">
      <g>
       <use style="stroke:#000000;stroke-width:0.8;" x="861.189216" xlink:href="#mffa9c0a9f1" y="164.399746"/>
      </g>
     </g>
     <g id="text_35">
      <!-- 2020-10 -->
      <g transform="translate(822.103154 200.245184)rotate(-30)scale(0.105 -0.105)">
       <use xlink:href="#DejaVuSans-50"/>
       <use x="63.623047" xlink:href="#DejaVuSans-48"/>
       <use x="127.246094" xlink:href="#DejaVuSans-50"/>
       <use x="190.869141" xlink:href="#DejaVuSans-48"/>
       <use x="254.492188" xlink:href="#DejaVuSans-45"/>
       <use x="290.576172" xlink:href="#DejaVuSans-49"/>
       <use x="354.199219" xlink:href="#DejaVuSans-48"/>
      </g>
     </g>
    </g>
    <g id="xtick_26">
     <g id="line2d_35">
      <g>
       <use style="stroke:#000000;stroke-width:0.8;" x="893.44486" xlink:href="#mffa9c0a9f1" y="164.399746"/>
      </g>
     </g>
     <g id="text_36">
      <!-- 2020-11 -->
      <g transform="translate(854.358799 200.245184)rotate(-30)scale(0.105 -0.105)">
       <use xlink:href="#DejaVuSans-50"/>
       <use x="63.623047" xlink:href="#DejaVuSans-48"/>
       <use x="127.246094" xlink:href="#DejaVuSans-50"/>
       <use x="190.869141" xlink:href="#DejaVuSans-48"/>
       <use x="254.492188" xlink:href="#DejaVuSans-45"/>
       <use x="290.576172" xlink:href="#DejaVuSans-49"/>
       <use x="354.199219" xlink:href="#DejaVuSans-49"/>
      </g>
     </g>
    </g>
    <g id="xtick_27">
     <g id="line2d_36">
      <g>
       <use style="stroke:#000000;stroke-width:0.8;" x="924.66" xlink:href="#mffa9c0a9f1" y="164.399746"/>
      </g>
     </g>
     <g id="text_37">
      <!-- 2020-12 -->
      <g transform="translate(885.573938 200.245184)rotate(-30)scale(0.105 -0.105)">
       <use xlink:href="#DejaVuSans-50"/>
       <use x="63.623047" xlink:href="#DejaVuSans-48"/>
       <use x="127.246094" xlink:href="#DejaVuSans-50"/>
       <use x="190.869141" xlink:href="#DejaVuSans-48"/>
       <use x="254.492188" xlink:href="#DejaVuSans-45"/>
       <use x="290.576172" xlink:href="#DejaVuSans-49"/>
       <use x="354.199219" xlink:href="#DejaVuSans-50"/>
      </g>
     </g>
    </g>
   </g>
   <g id="matplotlib.axis_6">
    <g id="ytick_8">
     <g id="line2d_37">
      <g>
       <use style="stroke:#000000;stroke-width:0.8;" x="670.776865" xlink:href="#m01a6fcc18a" y="158.187032"/>
      </g>
     </g>
     <g id="text_38">
      <!-- 0 -->
      <g transform="translate(657.09624 162.176212)scale(0.105 -0.105)">
       <use xlink:href="#DejaVuSans-48"/>
      </g>
     </g>
    </g>
    <g id="ytick_9">
     <g id="line2d_38">
      <g>
       <use style="stroke:#000000;stroke-width:0.8;" x="670.776865" xlink:href="#m01a6fcc18a" y="123.638364"/>
      </g>
     </g>
     <g id="text_39">
      <!-- 2000 -->
      <g transform="translate(637.054365 127.627544)scale(0.105 -0.105)">
       <use xlink:href="#DejaVuSans-50"/>
       <use x="63.623047" xlink:href="#DejaVuSans-48"/>
       <use x="127.246094" xlink:href="#DejaVuSans-48"/>
       <use x="190.869141" xlink:href="#DejaVuSans-48"/>
      </g>
     </g>
    </g>
    <g id="ytick_10">
     <g id="line2d_39">
      <g>
       <use style="stroke:#000000;stroke-width:0.8;" x="670.776865" xlink:href="#m01a6fcc18a" y="89.089697"/>
      </g>
     </g>
     <g id="text_40">
      <!-- 4000 -->
      <g transform="translate(637.054365 93.078877)scale(0.105 -0.105)">
       <use xlink:href="#DejaVuSans-52"/>
       <use x="63.623047" xlink:href="#DejaVuSans-48"/>
       <use x="127.246094" xlink:href="#DejaVuSans-48"/>
       <use x="190.869141" xlink:href="#DejaVuSans-48"/>
      </g>
     </g>
    </g>
    <g id="ytick_11">
     <g id="line2d_40">
      <g>
       <use style="stroke:#000000;stroke-width:0.8;" x="670.776865" xlink:href="#m01a6fcc18a" y="54.54103"/>
      </g>
     </g>
     <g id="text_41">
      <!-- 6000 -->
      <g transform="translate(637.054365 58.530209)scale(0.105 -0.105)">
       <use xlink:href="#DejaVuSans-54"/>
       <use x="63.623047" xlink:href="#DejaVuSans-48"/>
       <use x="127.246094" xlink:href="#DejaVuSans-48"/>
       <use x="190.869141" xlink:href="#DejaVuSans-48"/>
      </g>
     </g>
    </g>
   </g>
   <g id="line2d_41">
    <path clip-path="url(#peef7fa831a)" d="M 576.090941 157.789722 
L 578.17195 158.169758 
L 607.306081 158.152483 
L 608.346585 157.910643 
L 609.38709 158.169758 
L 610.427595 158.083386 
L 616.670623 158.169758 
L 624.99466 158.066112 
L 626.035164 158.152483 
L 627.075669 158.117935 
L 628.116174 157.962466 
L 630.197183 158.066112 
L 633.318697 157.962466 
L 635.399706 157.806997 
L 636.440211 157.478784 
L 637.480716 157.927917 
L 638.52122 156.338678 
L 639.561725 157.254218 
L 640.60223 156.615067 
L 641.642734 156.839634 
L 642.683239 156.476873 
L 643.723744 156.373227 
L 644.764248 155.837722 
L 645.804753 155.544059 
L 646.845258 154.317581 
L 647.885762 152.331033 
L 648.926267 151.225475 
L 649.966772 149.895352 
L 651.007276 145.680414 
L 652.047781 146.043175 
L 653.088285 140.567211 
L 654.12879 134.210257 
L 655.169295 132.94923 
L 656.209799 127.162328 
L 657.250304 129.027957 
L 658.290809 113.446508 
L 659.331313 127.093231 
L 660.371818 127.784205 
L 661.412323 107.383216 
L 662.452827 112.945552 
L 663.493332 108.091464 
L 664.533837 107.020455 
L 665.574341 99.886156 
L 666.614846 108.696066 
L 667.655351 114.431145 
L 668.695855 86.913131 
L 669.73636 95.325731 
L 670.776865 77.723185 
L 671.817369 92.510015 
L 672.857874 90.523467 
L 673.898379 103.427394 
L 674.938883 112.461871 
L 675.979388 82.266335 
L 677.019893 91.041697 
L 678.060397 90.143431 
L 679.100902 100.594403 
L 680.141406 93.68467 
L 681.181911 116.970472 
L 682.222416 123.586541 
L 683.26292 103.030084 
L 684.303425 98.124174 
L 685.34393 97.174085 
L 686.384434 105.413942 
L 687.424939 105.932172 
L 688.465444 124.242966 
L 689.505948 132.344629 
L 690.546453 102.408208 
L 691.586958 119.112489 
L 692.627462 115.32941 
L 693.667967 116.538613 
L 694.708472 116.849551 
L 695.748976 131.342717 
L 696.789481 139.098893 
L 697.829986 117.246861 
L 698.87049 124.415709 
L 699.910995 128.647921 
L 700.9515 131.446363 
L 701.992004 127.956948 
L 703.032509 142.173724 
L 704.073013 146.924166 
L 705.113518 131.446363 
L 707.194527 137.872415 
L 708.235032 137.561477 
L 709.275537 137.423283 
L 710.316041 148.167918 
L 711.356546 149.135281 
L 712.397051 137.37146 
L 713.437555 139.04707 
L 714.47806 135.454009 
L 715.518565 139.254362 
L 716.559069 140.532663 
L 717.599574 149.273476 
L 718.640079 150.828166 
L 719.680583 138.874327 
L 720.721088 135.903141 
L 721.761593 137.941513 
L 722.802097 139.358008 
L 723.842602 141.707317 
L 724.883107 150.499953 
L 725.923611 152.79744 
L 726.964116 151.691882 
L 728.004621 106.864986 
L 729.045125 129.373443 
L 730.08563 146.751423 
L 731.126134 146.492308 
L 732.166639 152.676519 
L 733.207144 153.246572 
L 734.247648 146.872343 
L 735.288153 148.496131 
L 736.328658 148.185193 
L 737.369162 149.739883 
L 738.409667 150.672697 
L 739.450172 153.885723 
L 740.490676 154.887634 
L 741.531181 151.76098 
L 742.571686 151.570962 
L 743.61219 112.824632 
L 744.652695 153.281121 
L 745.6932 152.210112 
L 746.733704 155.008554 
L 747.774209 154.35213 
L 748.814714 151.950997 
L 749.855218 151.899174 
L 750.895723 152.866537 
L 751.936228 151.709157 
L 754.017237 154.524873 
L 755.057742 153.937546 
L 756.098246 151.311847 
L 757.138751 151.864626 
L 758.179255 150.672697 
L 759.21976 152.261935 
L 761.300769 152.417404 
L 762.341274 151.657334 
L 763.381779 150.413582 
L 764.422283 150.879989 
L 765.462788 151.070006 
L 766.503293 153.073829 
L 767.543797 154.300307 
L 768.584302 152.970183 
L 770.665311 151.208201 
L 771.705816 151.795528 
L 772.746321 150.689971 
L 773.786825 152.624696 
L 774.82733 153.298395 
L 775.867835 153.332944 
L 776.908339 154.127563 
L 777.948844 152.607422 
L 778.989349 154.213935 
L 780.029853 153.488413 
L 781.070358 155.094926 
L 782.110862 154.939457 
L 783.151367 155.440413 
L 784.191872 155.233121 
L 785.232376 153.937546 
L 786.272881 153.453864 
L 787.313386 150.862714 
L 788.35389 151.329121 
L 789.394395 149.653511 
L 790.4349 149.964449 
L 791.475404 151.432767 
L 792.515909 150.396307 
L 793.556414 154.47305 
L 794.596918 148.530679 
L 795.637423 151.087281 
L 796.677928 150.413582 
L 797.718432 152.313758 
L 798.758937 155.526784 
L 799.799442 149.187104 
L 800.839946 151.985546 
L 801.880451 145.732237 
L 802.920956 155.440413 
L 803.96146 148.478856 
L 805.001965 155.284944 
L 806.04247 150.465405 
L 807.082974 150.914537 
L 808.123479 150.499953 
L 809.163983 150.413582 
L 810.204488 148.513405 
L 811.244993 151.260024 
L 812.285497 152.814714 
L 813.326002 155.474961 
L 814.366507 150.154467 
L 815.407011 151.674608 
L 816.447516 152.711068 
L 817.488021 152.365581 
L 818.528525 152.469227 
L 819.56903 155.423138 
L 820.609535 152.054643 
L 821.650039 152.141015 
L 822.690544 155.50951 
L 823.731049 149.964449 
L 824.771553 152.382856 
L 825.812058 153.022006 
L 826.852563 155.975917 
L 827.893067 149.912626 
L 828.933572 149.428945 
L 829.974077 150.897263 
L 831.014581 150.655422 
L 832.055086 151.24275 
L 833.095591 151.311847 
L 834.136095 154.386678 
L 835.1766 150.828166 
L 836.217104 149.549865 
L 837.257609 150.96636 
L 838.298114 149.135281 
L 839.338618 150.534502 
L 840.379123 149.722608 
L 841.419628 154.334855 
L 842.460132 149.68806 
L 843.500637 149.670785 
L 844.541142 149.031635 
L 845.581646 149.757157 
L 846.622151 149.584414 
L 847.662656 148.599777 
L 848.70316 154.179386 
L 849.743665 147.269653 
L 850.78417 147.908803 
L 851.824674 148.081547 
L 852.865179 147.770609 
L 854.946188 146.18137 
L 855.986693 152.814714 
L 857.027198 141.655494 
L 858.067702 144.22937 
L 859.108207 144.851246 
L 860.148711 146.008627 
L 861.189216 144.10845 
L 862.229721 145.162184 
L 863.270225 142.605583 
L 864.31073 151.329121 
L 865.351235 140.342645 
L 866.391739 144.954892 
L 867.432244 144.350291 
L 868.472749 139.04707 
L 869.513253 145.058538 
L 870.553758 143.797512 
L 871.594263 150.258113 
L 872.634767 134.970327 
L 873.675272 137.751495 
L 874.715777 141.11999 
L 875.756281 140.757229 
L 876.796786 141.085441 
L 877.837291 148.098821 
L 878.877795 129.338895 
L 879.9183 135.281265 
L 880.958805 133.121974 
L 881.999309 135.920416 
L 883.039814 135.903141 
L 884.080319 127.145054 
L 885.120823 144.885795 
L 886.161328 129.027957 
L 887.201832 122.170046 
L 888.242337 126.903213 
L 889.282842 126.937762 
L 891.363851 126.21224 
L 892.404356 141.672769 
L 893.44486 115.623074 
L 894.485365 113.77472 
L 895.52587 111.442685 
L 896.566374 111.770897 
L 897.606879 114.603888 
L 898.647384 109.991641 
L 899.687888 94.496563 
L 900.728393 122.619179 
L 901.768898 83.56191 
L 902.809402 97.225908 
L 903.849907 89.348812 
L 904.890412 103.824704 
L 905.930916 87.569556 
L 906.971421 129.667107 
L 908.011926 70.226125 
L 909.05243 87.742299 
L 910.092935 75.736637 
L 911.13344 92.181803 
L 912.173944 90.160706 
L 913.214449 75.028389 
L 914.254953 131.532735 
L 915.295458 76.738548 
L 916.335963 82.559999 
L 917.376467 86.291255 
L 918.416972 80.918937 
L 919.457477 103.392845 
L 920.497981 81.385344 
L 921.538486 81.48899 
L 922.578991 129.407992 
L 923.619495 59.222374 
L 925.700505 85.686653 
L 926.741009 87.120423 
L 927.781514 80.33161 
L 928.822019 139.876238 
L 929.862523 33.569988 
L 930.903028 77.74046 
L 931.943533 90.471644 
L 932.984037 82.80184 
L 934.024542 109.007004 
L 935.065047 138.442468 
L 936.105551 138.632486 
L 937 140.147138 
L 937 140.147138 
" style="fill:none;stroke:#1f77b4;stroke-linecap:square;stroke-width:1.5;"/>
   </g>
   <g id="patch_13">
    <path d="M 670.776865 164.399746 
L 670.776865 27.34 
" style="fill:none;stroke:#000000;stroke-linecap:square;stroke-linejoin:miter;stroke-width:0.8;"/>
   </g>
   <g id="patch_14">
    <path d="M 924.66 164.399746 
L 924.66 27.34 
" style="fill:none;stroke:#000000;stroke-linecap:square;stroke-linejoin:miter;stroke-width:0.8;"/>
   </g>
   <g id="patch_15">
    <path d="M 670.776865 164.399746 
L 924.66 164.399746 
" style="fill:none;stroke:#000000;stroke-linecap:square;stroke-linejoin:miter;stroke-width:0.8;"/>
   </g>
   <g id="patch_16">
    <path d="M 670.776865 27.34 
L 924.66 27.34 
" style="fill:none;stroke:#000000;stroke-linecap:square;stroke-linejoin:miter;stroke-width:0.8;"/>
   </g>
   <g id="text_42">
    <!-- NJ -->
    <g transform="translate(791.459682 21.34)scale(0.12 -0.12)">
     <defs>
      <path d="M 9.8125 72.90625 
L 23.09375 72.90625 
L 55.421875 11.921875 
L 55.421875 72.90625 
L 64.984375 72.90625 
L 64.984375 0 
L 51.703125 0 
L 19.390625 60.984375 
L 19.390625 0 
L 9.8125 0 
z
" id="DejaVuSans-78"/>
      <path d="M 9.8125 72.90625 
L 19.671875 72.90625 
L 19.671875 5.078125 
Q 19.671875 -8.109375 14.671875 -14.0625 
Q 9.671875 -20.015625 -1.421875 -20.015625 
L -5.171875 -20.015625 
L -5.171875 -11.71875 
L -2.09375 -11.71875 
Q 4.4375 -11.71875 7.125 -8.046875 
Q 9.8125 -4.390625 9.8125 5.078125 
z
" id="DejaVuSans-74"/>
     </defs>
     <use xlink:href="#DejaVuSans-78"/>
     <use x="74.804688" xlink:href="#DejaVuSans-74"/>
    </g>
   </g>
  </g>
 </g>
 <defs>
  <clipPath id="p23d7715279">
   <rect height="137.059746" width="253.883135" x="54.336865" y="27.34"/>
  </clipPath>
  <clipPath id="p4beddf87af">
   <rect height="137.059746" width="253.883135" x="362.556865" y="27.34"/>
  </clipPath>
  <clipPath id="peef7fa831a">
   <rect height="137.059746" width="253.883135" x="670.776865" y="27.34"/>
  </clipPath>
 </defs>
</svg>
