<?xml version="1.0" encoding="utf-8" standalone="no"?>
<!DOCTYPE svg PUBLIC "-//W3C//DTD SVG 1.1//EN"
  "http://www.w3.org/Graphics/SVG/1.1/DTD/svg11.dtd">
<!-- Created with matplotlib (https://matplotlib.org/) -->
<svg height="239.364523pt" version="1.1" viewBox="0 0 915.377969 239.364523" width="915.377969pt" xmlns="http://www.w3.org/2000/svg" xmlns:xlink="http://www.w3.org/1999/xlink">
 <metadata>
  <rdf:RDF xmlns:cc="http://creativecommons.org/ns#" xmlns:dc="http://purl.org/dc/elements/1.1/" xmlns:rdf="http://www.w3.org/1999/02/22-rdf-syntax-ns#">
   <cc:Work>
    <dc:type rdf:resource="http://purl.org/dc/dcmitype/StillImage"/>
    <dc:date>2020-12-11T22:06:36.134360</dc:date>
    <dc:format>image/svg+xml</dc:format>
    <dc:creator>
     <cc:Agent>
      <dc:title>Matplotlib v3.3.1, https://matplotlib.org/</dc:title>
     </cc:Agent>
    </dc:creator>
   </cc:Work>
  </rdf:RDF>
 </metadata>
 <defs>
  <style type="text/css">*{stroke-linecap:butt;stroke-linejoin:round;}</style>
 </defs>
 <g id="figure_1">
  <g id="patch_1">
   <path d="M 0 239.364523 
L 915.377969 239.364523 
L 915.377969 0 
L 0 0 
z
" style="fill:none;"/>
  </g>
  <g id="axes_1">
   <g id="patch_2">
    <path d="M 62.732969 179.298125 
L 311.987969 179.298125 
L 311.987969 22.318125 
L 62.732969 22.318125 
z
" style="fill:#ffffff;"/>
   </g>
   <g id="matplotlib.axis_1">
    <g id="xtick_1">
     <g id="line2d_1">
      <defs>
       <path d="M 0 0 
L 0 3.5 
" id="mc1251b09fe" style="stroke:#000000;stroke-width:0.8;"/>
      </defs>
      <g>
       <use style="stroke:#000000;stroke-width:0.8;" x="62.732969" xlink:href="#mc1251b09fe" y="179.298125"/>
      </g>
     </g>
     <g id="text_1">
      <!-- 2020-04 -->
      <g transform="translate(23.646907 215.143563)rotate(-30)scale(0.105 -0.105)">
       <defs>
        <path d="M 19.1875 8.296875 
L 53.609375 8.296875 
L 53.609375 0 
L 7.328125 0 
L 7.328125 8.296875 
Q 12.9375 14.109375 22.625 23.890625 
Q 32.328125 33.6875 34.8125 36.53125 
Q 39.546875 41.84375 41.421875 45.53125 
Q 43.3125 49.21875 43.3125 52.78125 
Q 43.3125 58.59375 39.234375 62.25 
Q 35.15625 65.921875 28.609375 65.921875 
Q 23.96875 65.921875 18.8125 64.3125 
Q 13.671875 62.703125 7.8125 59.421875 
L 7.8125 69.390625 
Q 13.765625 71.78125 18.9375 73 
Q 24.125 74.21875 28.421875 74.21875 
Q 39.75 74.21875 46.484375 68.546875 
Q 53.21875 62.890625 53.21875 53.421875 
Q 53.21875 48.921875 51.53125 44.890625 
Q 49.859375 40.875 45.40625 35.40625 
Q 44.1875 33.984375 37.640625 27.21875 
Q 31.109375 20.453125 19.1875 8.296875 
z
" id="DejaVuSans-50"/>
        <path d="M 31.78125 66.40625 
Q 24.171875 66.40625 20.328125 58.90625 
Q 16.5 51.421875 16.5 36.375 
Q 16.5 21.390625 20.328125 13.890625 
Q 24.171875 6.390625 31.78125 6.390625 
Q 39.453125 6.390625 43.28125 13.890625 
Q 47.125 21.390625 47.125 36.375 
Q 47.125 51.421875 43.28125 58.90625 
Q 39.453125 66.40625 31.78125 66.40625 
z
M 31.78125 74.21875 
Q 44.046875 74.21875 50.515625 64.515625 
Q 56.984375 54.828125 56.984375 36.375 
Q 56.984375 17.96875 50.515625 8.265625 
Q 44.046875 -1.421875 31.78125 -1.421875 
Q 19.53125 -1.421875 13.0625 8.265625 
Q 6.59375 17.96875 6.59375 36.375 
Q 6.59375 54.828125 13.0625 64.515625 
Q 19.53125 74.21875 31.78125 74.21875 
z
" id="DejaVuSans-48"/>
        <path d="M 4.890625 31.390625 
L 31.203125 31.390625 
L 31.203125 23.390625 
L 4.890625 23.390625 
z
" id="DejaVuSans-45"/>
        <path d="M 37.796875 64.3125 
L 12.890625 25.390625 
L 37.796875 25.390625 
z
M 35.203125 72.90625 
L 47.609375 72.90625 
L 47.609375 25.390625 
L 58.015625 25.390625 
L 58.015625 17.1875 
L 47.609375 17.1875 
L 47.609375 0 
L 37.796875 0 
L 37.796875 17.1875 
L 4.890625 17.1875 
L 4.890625 26.703125 
z
" id="DejaVuSans-52"/>
       </defs>
       <use xlink:href="#DejaVuSans-50"/>
       <use x="63.623047" xlink:href="#DejaVuSans-48"/>
       <use x="127.246094" xlink:href="#DejaVuSans-50"/>
       <use x="190.869141" xlink:href="#DejaVuSans-48"/>
       <use x="254.492188" xlink:href="#DejaVuSans-45"/>
       <use x="290.576172" xlink:href="#DejaVuSans-48"/>
       <use x="354.199219" xlink:href="#DejaVuSans-52"/>
      </g>
     </g>
    </g>
    <g id="xtick_2">
     <g id="line2d_2">
      <g>
       <use style="stroke:#000000;stroke-width:0.8;" x="97.675258" xlink:href="#mc1251b09fe" y="179.298125"/>
      </g>
     </g>
     <g id="text_2">
      <!-- 2020-05 -->
      <g transform="translate(58.589197 215.143563)rotate(-30)scale(0.105 -0.105)">
       <defs>
        <path d="M 10.796875 72.90625 
L 49.515625 72.90625 
L 49.515625 64.59375 
L 19.828125 64.59375 
L 19.828125 46.734375 
Q 21.96875 47.46875 24.109375 47.828125 
Q 26.265625 48.1875 28.421875 48.1875 
Q 40.625 48.1875 47.75 41.5 
Q 54.890625 34.8125 54.890625 23.390625 
Q 54.890625 11.625 47.5625 5.09375 
Q 40.234375 -1.421875 26.90625 -1.421875 
Q 22.3125 -1.421875 17.546875 -0.640625 
Q 12.796875 0.140625 7.71875 1.703125 
L 7.71875 11.625 
Q 12.109375 9.234375 16.796875 8.0625 
Q 21.484375 6.890625 26.703125 6.890625 
Q 35.15625 6.890625 40.078125 11.328125 
Q 45.015625 15.765625 45.015625 23.390625 
Q 45.015625 31 40.078125 35.4375 
Q 35.15625 39.890625 26.703125 39.890625 
Q 22.75 39.890625 18.8125 39.015625 
Q 14.890625 38.140625 10.796875 36.28125 
z
" id="DejaVuSans-53"/>
       </defs>
       <use xlink:href="#DejaVuSans-50"/>
       <use x="63.623047" xlink:href="#DejaVuSans-48"/>
       <use x="127.246094" xlink:href="#DejaVuSans-50"/>
       <use x="190.869141" xlink:href="#DejaVuSans-48"/>
       <use x="254.492188" xlink:href="#DejaVuSans-45"/>
       <use x="290.576172" xlink:href="#DejaVuSans-48"/>
       <use x="354.199219" xlink:href="#DejaVuSans-53"/>
      </g>
     </g>
    </g>
    <g id="xtick_3">
     <g id="line2d_3">
      <g>
       <use style="stroke:#000000;stroke-width:0.8;" x="133.782291" xlink:href="#mc1251b09fe" y="179.298125"/>
      </g>
     </g>
     <g id="text_3">
      <!-- 2020-06 -->
      <g transform="translate(94.696229 215.143563)rotate(-30)scale(0.105 -0.105)">
       <defs>
        <path d="M 33.015625 40.375 
Q 26.375 40.375 22.484375 35.828125 
Q 18.609375 31.296875 18.609375 23.390625 
Q 18.609375 15.53125 22.484375 10.953125 
Q 26.375 6.390625 33.015625 6.390625 
Q 39.65625 6.390625 43.53125 10.953125 
Q 47.40625 15.53125 47.40625 23.390625 
Q 47.40625 31.296875 43.53125 35.828125 
Q 39.65625 40.375 33.015625 40.375 
z
M 52.59375 71.296875 
L 52.59375 62.3125 
Q 48.875 64.0625 45.09375 64.984375 
Q 41.3125 65.921875 37.59375 65.921875 
Q 27.828125 65.921875 22.671875 59.328125 
Q 17.53125 52.734375 16.796875 39.40625 
Q 19.671875 43.65625 24.015625 45.921875 
Q 28.375 48.1875 33.59375 48.1875 
Q 44.578125 48.1875 50.953125 41.515625 
Q 57.328125 34.859375 57.328125 23.390625 
Q 57.328125 12.15625 50.6875 5.359375 
Q 44.046875 -1.421875 33.015625 -1.421875 
Q 20.359375 -1.421875 13.671875 8.265625 
Q 6.984375 17.96875 6.984375 36.375 
Q 6.984375 53.65625 15.1875 63.9375 
Q 23.390625 74.21875 37.203125 74.21875 
Q 40.921875 74.21875 44.703125 73.484375 
Q 48.484375 72.75 52.59375 71.296875 
z
" id="DejaVuSans-54"/>
       </defs>
       <use xlink:href="#DejaVuSans-50"/>
       <use x="63.623047" xlink:href="#DejaVuSans-48"/>
       <use x="127.246094" xlink:href="#DejaVuSans-50"/>
       <use x="190.869141" xlink:href="#DejaVuSans-48"/>
       <use x="254.492188" xlink:href="#DejaVuSans-45"/>
       <use x="290.576172" xlink:href="#DejaVuSans-48"/>
       <use x="354.199219" xlink:href="#DejaVuSans-54"/>
      </g>
     </g>
    </g>
    <g id="xtick_4">
     <g id="line2d_4">
      <g>
       <use style="stroke:#000000;stroke-width:0.8;" x="168.724581" xlink:href="#mc1251b09fe" y="179.298125"/>
      </g>
     </g>
     <g id="text_4">
      <!-- 2020-07 -->
      <g transform="translate(129.638519 215.143563)rotate(-30)scale(0.105 -0.105)">
       <defs>
        <path d="M 8.203125 72.90625 
L 55.078125 72.90625 
L 55.078125 68.703125 
L 28.609375 0 
L 18.3125 0 
L 43.21875 64.59375 
L 8.203125 64.59375 
z
" id="DejaVuSans-55"/>
       </defs>
       <use xlink:href="#DejaVuSans-50"/>
       <use x="63.623047" xlink:href="#DejaVuSans-48"/>
       <use x="127.246094" xlink:href="#DejaVuSans-50"/>
       <use x="190.869141" xlink:href="#DejaVuSans-48"/>
       <use x="254.492188" xlink:href="#DejaVuSans-45"/>
       <use x="290.576172" xlink:href="#DejaVuSans-48"/>
       <use x="354.199219" xlink:href="#DejaVuSans-55"/>
      </g>
     </g>
    </g>
    <g id="xtick_5">
     <g id="line2d_5">
      <g>
       <use style="stroke:#000000;stroke-width:0.8;" x="204.831614" xlink:href="#mc1251b09fe" y="179.298125"/>
      </g>
     </g>
     <g id="text_5">
      <!-- 2020-08 -->
      <g transform="translate(165.745552 215.143563)rotate(-30)scale(0.105 -0.105)">
       <defs>
        <path d="M 31.78125 34.625 
Q 24.75 34.625 20.71875 30.859375 
Q 16.703125 27.09375 16.703125 20.515625 
Q 16.703125 13.921875 20.71875 10.15625 
Q 24.75 6.390625 31.78125 6.390625 
Q 38.8125 6.390625 42.859375 10.171875 
Q 46.921875 13.96875 46.921875 20.515625 
Q 46.921875 27.09375 42.890625 30.859375 
Q 38.875 34.625 31.78125 34.625 
z
M 21.921875 38.8125 
Q 15.578125 40.375 12.03125 44.71875 
Q 8.5 49.078125 8.5 55.328125 
Q 8.5 64.0625 14.71875 69.140625 
Q 20.953125 74.21875 31.78125 74.21875 
Q 42.671875 74.21875 48.875 69.140625 
Q 55.078125 64.0625 55.078125 55.328125 
Q 55.078125 49.078125 51.53125 44.71875 
Q 48 40.375 41.703125 38.8125 
Q 48.828125 37.15625 52.796875 32.3125 
Q 56.78125 27.484375 56.78125 20.515625 
Q 56.78125 9.90625 50.3125 4.234375 
Q 43.84375 -1.421875 31.78125 -1.421875 
Q 19.734375 -1.421875 13.25 4.234375 
Q 6.78125 9.90625 6.78125 20.515625 
Q 6.78125 27.484375 10.78125 32.3125 
Q 14.796875 37.15625 21.921875 38.8125 
z
M 18.3125 54.390625 
Q 18.3125 48.734375 21.84375 45.5625 
Q 25.390625 42.390625 31.78125 42.390625 
Q 38.140625 42.390625 41.71875 45.5625 
Q 45.3125 48.734375 45.3125 54.390625 
Q 45.3125 60.0625 41.71875 63.234375 
Q 38.140625 66.40625 31.78125 66.40625 
Q 25.390625 66.40625 21.84375 63.234375 
Q 18.3125 60.0625 18.3125 54.390625 
z
" id="DejaVuSans-56"/>
       </defs>
       <use xlink:href="#DejaVuSans-50"/>
       <use x="63.623047" xlink:href="#DejaVuSans-48"/>
       <use x="127.246094" xlink:href="#DejaVuSans-50"/>
       <use x="190.869141" xlink:href="#DejaVuSans-48"/>
       <use x="254.492188" xlink:href="#DejaVuSans-45"/>
       <use x="290.576172" xlink:href="#DejaVuSans-48"/>
       <use x="354.199219" xlink:href="#DejaVuSans-56"/>
      </g>
     </g>
    </g>
    <g id="xtick_6">
     <g id="line2d_6">
      <g>
       <use style="stroke:#000000;stroke-width:0.8;" x="240.938646" xlink:href="#mc1251b09fe" y="179.298125"/>
      </g>
     </g>
     <g id="text_6">
      <!-- 2020-09 -->
      <g transform="translate(201.852584 215.143563)rotate(-30)scale(0.105 -0.105)">
       <defs>
        <path d="M 10.984375 1.515625 
L 10.984375 10.5 
Q 14.703125 8.734375 18.5 7.8125 
Q 22.3125 6.890625 25.984375 6.890625 
Q 35.75 6.890625 40.890625 13.453125 
Q 46.046875 20.015625 46.78125 33.40625 
Q 43.953125 29.203125 39.59375 26.953125 
Q 35.25 24.703125 29.984375 24.703125 
Q 19.046875 24.703125 12.671875 31.3125 
Q 6.296875 37.9375 6.296875 49.421875 
Q 6.296875 60.640625 12.9375 67.421875 
Q 19.578125 74.21875 30.609375 74.21875 
Q 43.265625 74.21875 49.921875 64.515625 
Q 56.59375 54.828125 56.59375 36.375 
Q 56.59375 19.140625 48.40625 8.859375 
Q 40.234375 -1.421875 26.421875 -1.421875 
Q 22.703125 -1.421875 18.890625 -0.6875 
Q 15.09375 0.046875 10.984375 1.515625 
z
M 30.609375 32.421875 
Q 37.25 32.421875 41.125 36.953125 
Q 45.015625 41.5 45.015625 49.421875 
Q 45.015625 57.28125 41.125 61.84375 
Q 37.25 66.40625 30.609375 66.40625 
Q 23.96875 66.40625 20.09375 61.84375 
Q 16.21875 57.28125 16.21875 49.421875 
Q 16.21875 41.5 20.09375 36.953125 
Q 23.96875 32.421875 30.609375 32.421875 
z
" id="DejaVuSans-57"/>
       </defs>
       <use xlink:href="#DejaVuSans-50"/>
       <use x="63.623047" xlink:href="#DejaVuSans-48"/>
       <use x="127.246094" xlink:href="#DejaVuSans-50"/>
       <use x="190.869141" xlink:href="#DejaVuSans-48"/>
       <use x="254.492188" xlink:href="#DejaVuSans-45"/>
       <use x="290.576172" xlink:href="#DejaVuSans-48"/>
       <use x="354.199219" xlink:href="#DejaVuSans-57"/>
      </g>
     </g>
    </g>
    <g id="xtick_7">
     <g id="line2d_7">
      <g>
       <use style="stroke:#000000;stroke-width:0.8;" x="275.880936" xlink:href="#mc1251b09fe" y="179.298125"/>
      </g>
     </g>
     <g id="text_7">
      <!-- 2020-10 -->
      <g transform="translate(236.794874 215.143563)rotate(-30)scale(0.105 -0.105)">
       <defs>
        <path d="M 12.40625 8.296875 
L 28.515625 8.296875 
L 28.515625 63.921875 
L 10.984375 60.40625 
L 10.984375 69.390625 
L 28.421875 72.90625 
L 38.28125 72.90625 
L 38.28125 8.296875 
L 54.390625 8.296875 
L 54.390625 0 
L 12.40625 0 
z
" id="DejaVuSans-49"/>
       </defs>
       <use xlink:href="#DejaVuSans-50"/>
       <use x="63.623047" xlink:href="#DejaVuSans-48"/>
       <use x="127.246094" xlink:href="#DejaVuSans-50"/>
       <use x="190.869141" xlink:href="#DejaVuSans-48"/>
       <use x="254.492188" xlink:href="#DejaVuSans-45"/>
       <use x="290.576172" xlink:href="#DejaVuSans-49"/>
       <use x="354.199219" xlink:href="#DejaVuSans-48"/>
      </g>
     </g>
    </g>
    <g id="xtick_8">
     <g id="line2d_8">
      <g>
       <use style="stroke:#000000;stroke-width:0.8;" x="311.987969" xlink:href="#mc1251b09fe" y="179.298125"/>
      </g>
     </g>
     <g id="text_8">
      <!-- 2020-11 -->
      <g transform="translate(272.901907 215.143563)rotate(-30)scale(0.105 -0.105)">
       <use xlink:href="#DejaVuSans-50"/>
       <use x="63.623047" xlink:href="#DejaVuSans-48"/>
       <use x="127.246094" xlink:href="#DejaVuSans-50"/>
       <use x="190.869141" xlink:href="#DejaVuSans-48"/>
       <use x="254.492188" xlink:href="#DejaVuSans-45"/>
       <use x="290.576172" xlink:href="#DejaVuSans-49"/>
       <use x="354.199219" xlink:href="#DejaVuSans-49"/>
      </g>
     </g>
    </g>
    <g id="xtick_9">
     <g id="line2d_9">
      <defs>
       <path d="M 0 0 
L 0 2 
" id="mfc2b24dfbb" style="stroke:#000000;stroke-width:0.6;"/>
      </defs>
      <g>
       <use style="stroke:#000000;stroke-width:0.6;" x="68.556684" xlink:href="#mfc2b24dfbb" y="179.298125"/>
      </g>
     </g>
    </g>
    <g id="xtick_10">
     <g id="line2d_10">
      <g>
       <use style="stroke:#000000;stroke-width:0.6;" x="76.709885" xlink:href="#mfc2b24dfbb" y="179.298125"/>
      </g>
     </g>
    </g>
    <g id="xtick_11">
     <g id="line2d_11">
      <g>
       <use style="stroke:#000000;stroke-width:0.6;" x="84.863086" xlink:href="#mfc2b24dfbb" y="179.298125"/>
      </g>
     </g>
    </g>
    <g id="xtick_12">
     <g id="line2d_12">
      <g>
       <use style="stroke:#000000;stroke-width:0.6;" x="93.016287" xlink:href="#mfc2b24dfbb" y="179.298125"/>
      </g>
     </g>
    </g>
    <g id="xtick_13">
     <g id="line2d_13">
      <g>
       <use style="stroke:#000000;stroke-width:0.6;" x="101.169487" xlink:href="#mfc2b24dfbb" y="179.298125"/>
      </g>
     </g>
    </g>
    <g id="xtick_14">
     <g id="line2d_14">
      <g>
       <use style="stroke:#000000;stroke-width:0.6;" x="109.322688" xlink:href="#mfc2b24dfbb" y="179.298125"/>
      </g>
     </g>
    </g>
    <g id="xtick_15">
     <g id="line2d_15">
      <g>
       <use style="stroke:#000000;stroke-width:0.6;" x="117.475889" xlink:href="#mfc2b24dfbb" y="179.298125"/>
      </g>
     </g>
    </g>
    <g id="xtick_16">
     <g id="line2d_16">
      <g>
       <use style="stroke:#000000;stroke-width:0.6;" x="125.62909" xlink:href="#mfc2b24dfbb" y="179.298125"/>
      </g>
     </g>
    </g>
    <g id="xtick_17">
     <g id="line2d_17">
      <g>
       <use style="stroke:#000000;stroke-width:0.6;" x="141.935492" xlink:href="#mfc2b24dfbb" y="179.298125"/>
      </g>
     </g>
    </g>
    <g id="xtick_18">
     <g id="line2d_18">
      <g>
       <use style="stroke:#000000;stroke-width:0.6;" x="150.088693" xlink:href="#mfc2b24dfbb" y="179.298125"/>
      </g>
     </g>
    </g>
    <g id="xtick_19">
     <g id="line2d_19">
      <g>
       <use style="stroke:#000000;stroke-width:0.6;" x="158.241894" xlink:href="#mfc2b24dfbb" y="179.298125"/>
      </g>
     </g>
    </g>
    <g id="xtick_20">
     <g id="line2d_20">
      <g>
       <use style="stroke:#000000;stroke-width:0.6;" x="166.395095" xlink:href="#mfc2b24dfbb" y="179.298125"/>
      </g>
     </g>
    </g>
    <g id="xtick_21">
     <g id="line2d_21">
      <g>
       <use style="stroke:#000000;stroke-width:0.6;" x="174.548296" xlink:href="#mfc2b24dfbb" y="179.298125"/>
      </g>
     </g>
    </g>
    <g id="xtick_22">
     <g id="line2d_22">
      <g>
       <use style="stroke:#000000;stroke-width:0.6;" x="182.701497" xlink:href="#mfc2b24dfbb" y="179.298125"/>
      </g>
     </g>
    </g>
    <g id="xtick_23">
     <g id="line2d_23">
      <g>
       <use style="stroke:#000000;stroke-width:0.6;" x="190.854698" xlink:href="#mfc2b24dfbb" y="179.298125"/>
      </g>
     </g>
    </g>
    <g id="xtick_24">
     <g id="line2d_24">
      <g>
       <use style="stroke:#000000;stroke-width:0.6;" x="199.007899" xlink:href="#mfc2b24dfbb" y="179.298125"/>
      </g>
     </g>
    </g>
    <g id="xtick_25">
     <g id="line2d_25">
      <g>
       <use style="stroke:#000000;stroke-width:0.6;" x="207.1611" xlink:href="#mfc2b24dfbb" y="179.298125"/>
      </g>
     </g>
    </g>
    <g id="xtick_26">
     <g id="line2d_26">
      <g>
       <use style="stroke:#000000;stroke-width:0.6;" x="215.314301" xlink:href="#mfc2b24dfbb" y="179.298125"/>
      </g>
     </g>
    </g>
    <g id="xtick_27">
     <g id="line2d_27">
      <g>
       <use style="stroke:#000000;stroke-width:0.6;" x="223.467501" xlink:href="#mfc2b24dfbb" y="179.298125"/>
      </g>
     </g>
    </g>
    <g id="xtick_28">
     <g id="line2d_28">
      <g>
       <use style="stroke:#000000;stroke-width:0.6;" x="231.620702" xlink:href="#mfc2b24dfbb" y="179.298125"/>
      </g>
     </g>
    </g>
    <g id="xtick_29">
     <g id="line2d_29">
      <g>
       <use style="stroke:#000000;stroke-width:0.6;" x="239.773903" xlink:href="#mfc2b24dfbb" y="179.298125"/>
      </g>
     </g>
    </g>
    <g id="xtick_30">
     <g id="line2d_30">
      <g>
       <use style="stroke:#000000;stroke-width:0.6;" x="247.927104" xlink:href="#mfc2b24dfbb" y="179.298125"/>
      </g>
     </g>
    </g>
    <g id="xtick_31">
     <g id="line2d_31">
      <g>
       <use style="stroke:#000000;stroke-width:0.6;" x="256.080305" xlink:href="#mfc2b24dfbb" y="179.298125"/>
      </g>
     </g>
    </g>
    <g id="xtick_32">
     <g id="line2d_32">
      <g>
       <use style="stroke:#000000;stroke-width:0.6;" x="264.233506" xlink:href="#mfc2b24dfbb" y="179.298125"/>
      </g>
     </g>
    </g>
    <g id="xtick_33">
     <g id="line2d_33">
      <g>
       <use style="stroke:#000000;stroke-width:0.6;" x="272.386707" xlink:href="#mfc2b24dfbb" y="179.298125"/>
      </g>
     </g>
    </g>
    <g id="xtick_34">
     <g id="line2d_34">
      <g>
       <use style="stroke:#000000;stroke-width:0.6;" x="280.539908" xlink:href="#mfc2b24dfbb" y="179.298125"/>
      </g>
     </g>
    </g>
    <g id="xtick_35">
     <g id="line2d_35">
      <g>
       <use style="stroke:#000000;stroke-width:0.6;" x="288.693109" xlink:href="#mfc2b24dfbb" y="179.298125"/>
      </g>
     </g>
    </g>
    <g id="xtick_36">
     <g id="line2d_36">
      <g>
       <use style="stroke:#000000;stroke-width:0.6;" x="296.84631" xlink:href="#mfc2b24dfbb" y="179.298125"/>
      </g>
     </g>
    </g>
    <g id="xtick_37">
     <g id="line2d_37">
      <g>
       <use style="stroke:#000000;stroke-width:0.6;" x="304.999511" xlink:href="#mfc2b24dfbb" y="179.298125"/>
      </g>
     </g>
    </g>
   </g>
   <g id="matplotlib.axis_2">
    <g id="ytick_1">
     <g id="line2d_38">
      <defs>
       <path d="M 0 0 
L -3.5 0 
" id="m841d915838" style="stroke:#000000;stroke-width:0.8;"/>
      </defs>
      <g>
       <use style="stroke:#000000;stroke-width:0.8;" x="62.732969" xlink:href="#m841d915838" y="172.166131"/>
      </g>
     </g>
     <g id="text_9">
      <!-- 0 -->
      <g transform="translate(49.052344 176.155311)scale(0.105 -0.105)">
       <use xlink:href="#DejaVuSans-48"/>
      </g>
     </g>
    </g>
    <g id="ytick_2">
     <g id="line2d_39">
      <g>
       <use style="stroke:#000000;stroke-width:0.8;" x="62.732969" xlink:href="#m841d915838" y="147.940022"/>
      </g>
     </g>
     <g id="text_10">
      <!-- 2000 -->
      <g transform="translate(29.010469 151.929201)scale(0.105 -0.105)">
       <use xlink:href="#DejaVuSans-50"/>
       <use x="63.623047" xlink:href="#DejaVuSans-48"/>
       <use x="127.246094" xlink:href="#DejaVuSans-48"/>
       <use x="190.869141" xlink:href="#DejaVuSans-48"/>
      </g>
     </g>
    </g>
    <g id="ytick_3">
     <g id="line2d_40">
      <g>
       <use style="stroke:#000000;stroke-width:0.8;" x="62.732969" xlink:href="#m841d915838" y="123.713912"/>
      </g>
     </g>
     <g id="text_11">
      <!-- 4000 -->
      <g transform="translate(29.010469 127.703091)scale(0.105 -0.105)">
       <use xlink:href="#DejaVuSans-52"/>
       <use x="63.623047" xlink:href="#DejaVuSans-48"/>
       <use x="127.246094" xlink:href="#DejaVuSans-48"/>
       <use x="190.869141" xlink:href="#DejaVuSans-48"/>
      </g>
     </g>
    </g>
    <g id="ytick_4">
     <g id="line2d_41">
      <g>
       <use style="stroke:#000000;stroke-width:0.8;" x="62.732969" xlink:href="#m841d915838" y="99.487802"/>
      </g>
     </g>
     <g id="text_12">
      <!-- 6000 -->
      <g transform="translate(29.010469 103.476982)scale(0.105 -0.105)">
       <use xlink:href="#DejaVuSans-54"/>
       <use x="63.623047" xlink:href="#DejaVuSans-48"/>
       <use x="127.246094" xlink:href="#DejaVuSans-48"/>
       <use x="190.869141" xlink:href="#DejaVuSans-48"/>
      </g>
     </g>
    </g>
    <g id="ytick_5">
     <g id="line2d_42">
      <g>
       <use style="stroke:#000000;stroke-width:0.8;" x="62.732969" xlink:href="#m841d915838" y="75.261692"/>
      </g>
     </g>
     <g id="text_13">
      <!-- 8000 -->
      <g transform="translate(29.010469 79.250872)scale(0.105 -0.105)">
       <use xlink:href="#DejaVuSans-56"/>
       <use x="63.623047" xlink:href="#DejaVuSans-48"/>
       <use x="127.246094" xlink:href="#DejaVuSans-48"/>
       <use x="190.869141" xlink:href="#DejaVuSans-48"/>
      </g>
     </g>
    </g>
    <g id="ytick_6">
     <g id="line2d_43">
      <g>
       <use style="stroke:#000000;stroke-width:0.8;" x="62.732969" xlink:href="#m841d915838" y="51.035582"/>
      </g>
     </g>
     <g id="text_14">
      <!-- 10000 -->
      <g transform="translate(22.329844 55.024762)scale(0.105 -0.105)">
       <use xlink:href="#DejaVuSans-49"/>
       <use x="63.623047" xlink:href="#DejaVuSans-48"/>
       <use x="127.246094" xlink:href="#DejaVuSans-48"/>
       <use x="190.869141" xlink:href="#DejaVuSans-48"/>
       <use x="254.492188" xlink:href="#DejaVuSans-48"/>
      </g>
     </g>
    </g>
    <g id="ytick_7">
     <g id="line2d_44">
      <g>
       <use style="stroke:#000000;stroke-width:0.8;" x="62.732969" xlink:href="#m841d915838" y="26.809473"/>
      </g>
     </g>
     <g id="text_15">
      <!-- 12000 -->
      <g transform="translate(22.329844 30.798652)scale(0.105 -0.105)">
       <use xlink:href="#DejaVuSans-49"/>
       <use x="63.623047" xlink:href="#DejaVuSans-50"/>
       <use x="127.246094" xlink:href="#DejaVuSans-48"/>
       <use x="190.869141" xlink:href="#DejaVuSans-48"/>
       <use x="254.492188" xlink:href="#DejaVuSans-48"/>
      </g>
     </g>
    </g>
    <g id="text_16">
     <!-- Count -->
     <g transform="translate(15.938203 117.883828)rotate(-90)scale(0.115 -0.115)">
      <defs>
       <path d="M 64.40625 67.28125 
L 64.40625 56.890625 
Q 59.421875 61.53125 53.78125 63.8125 
Q 48.140625 66.109375 41.796875 66.109375 
Q 29.296875 66.109375 22.65625 58.46875 
Q 16.015625 50.828125 16.015625 36.375 
Q 16.015625 21.96875 22.65625 14.328125 
Q 29.296875 6.6875 41.796875 6.6875 
Q 48.140625 6.6875 53.78125 8.984375 
Q 59.421875 11.28125 64.40625 15.921875 
L 64.40625 5.609375 
Q 59.234375 2.09375 53.4375 0.328125 
Q 47.65625 -1.421875 41.21875 -1.421875 
Q 24.65625 -1.421875 15.125 8.703125 
Q 5.609375 18.84375 5.609375 36.375 
Q 5.609375 53.953125 15.125 64.078125 
Q 24.65625 74.21875 41.21875 74.21875 
Q 47.75 74.21875 53.53125 72.484375 
Q 59.328125 70.75 64.40625 67.28125 
z
" id="DejaVuSans-67"/>
       <path d="M 30.609375 48.390625 
Q 23.390625 48.390625 19.1875 42.75 
Q 14.984375 37.109375 14.984375 27.296875 
Q 14.984375 17.484375 19.15625 11.84375 
Q 23.34375 6.203125 30.609375 6.203125 
Q 37.796875 6.203125 41.984375 11.859375 
Q 46.1875 17.53125 46.1875 27.296875 
Q 46.1875 37.015625 41.984375 42.703125 
Q 37.796875 48.390625 30.609375 48.390625 
z
M 30.609375 56 
Q 42.328125 56 49.015625 48.375 
Q 55.71875 40.765625 55.71875 27.296875 
Q 55.71875 13.875 49.015625 6.21875 
Q 42.328125 -1.421875 30.609375 -1.421875 
Q 18.84375 -1.421875 12.171875 6.21875 
Q 5.515625 13.875 5.515625 27.296875 
Q 5.515625 40.765625 12.171875 48.375 
Q 18.84375 56 30.609375 56 
z
" id="DejaVuSans-111"/>
       <path d="M 8.5 21.578125 
L 8.5 54.6875 
L 17.484375 54.6875 
L 17.484375 21.921875 
Q 17.484375 14.15625 20.5 10.265625 
Q 23.53125 6.390625 29.59375 6.390625 
Q 36.859375 6.390625 41.078125 11.03125 
Q 45.3125 15.671875 45.3125 23.6875 
L 45.3125 54.6875 
L 54.296875 54.6875 
L 54.296875 0 
L 45.3125 0 
L 45.3125 8.40625 
Q 42.046875 3.421875 37.71875 1 
Q 33.40625 -1.421875 27.6875 -1.421875 
Q 18.265625 -1.421875 13.375 4.4375 
Q 8.5 10.296875 8.5 21.578125 
z
M 31.109375 56 
z
" id="DejaVuSans-117"/>
       <path d="M 54.890625 33.015625 
L 54.890625 0 
L 45.90625 0 
L 45.90625 32.71875 
Q 45.90625 40.484375 42.875 44.328125 
Q 39.84375 48.1875 33.796875 48.1875 
Q 26.515625 48.1875 22.3125 43.546875 
Q 18.109375 38.921875 18.109375 30.90625 
L 18.109375 0 
L 9.078125 0 
L 9.078125 54.6875 
L 18.109375 54.6875 
L 18.109375 46.1875 
Q 21.34375 51.125 25.703125 53.5625 
Q 30.078125 56 35.796875 56 
Q 45.21875 56 50.046875 50.171875 
Q 54.890625 44.34375 54.890625 33.015625 
z
" id="DejaVuSans-110"/>
       <path d="M 18.3125 70.21875 
L 18.3125 54.6875 
L 36.8125 54.6875 
L 36.8125 47.703125 
L 18.3125 47.703125 
L 18.3125 18.015625 
Q 18.3125 11.328125 20.140625 9.421875 
Q 21.96875 7.515625 27.59375 7.515625 
L 36.8125 7.515625 
L 36.8125 0 
L 27.59375 0 
Q 17.1875 0 13.234375 3.875 
Q 9.28125 7.765625 9.28125 18.015625 
L 9.28125 47.703125 
L 2.6875 47.703125 
L 2.6875 54.6875 
L 9.28125 54.6875 
L 9.28125 70.21875 
z
" id="DejaVuSans-116"/>
      </defs>
      <use xlink:href="#DejaVuSans-67"/>
      <use x="69.824219" xlink:href="#DejaVuSans-111"/>
      <use x="131.005859" xlink:href="#DejaVuSans-117"/>
      <use x="194.384766" xlink:href="#DejaVuSans-110"/>
      <use x="257.763672" xlink:href="#DejaVuSans-116"/>
     </g>
    </g>
   </g>
   <g id="line2d_45">
    <path clip-path="url(#p83a9453c0f)" d="M 27.790679 172.16267 
L 40.602852 172.07961 
L 46.426567 171.617583 
L 48.756053 171.261113 
L 49.920796 170.963478 
L 51.085539 170.491069 
L 52.250282 170.210738 
L 53.415025 169.814468 
L 55.744511 168.289954 
L 59.23874 165.433003 
L 61.568226 163.112488 
L 62.732969 162.150365 
L 63.897712 160.873303 
L 65.062455 159.795241 
L 66.227198 158.994049 
L 67.391941 159.210354 
L 68.556684 158.668727 
L 69.721427 158.478379 
L 70.88617 158.473188 
L 73.215656 159.217276 
L 74.380399 159.390319 
L 75.545142 159.321102 
L 76.709885 159.736407 
L 77.874628 160.509912 
L 79.039371 160.78159 
L 80.204114 160.522025 
L 81.368857 160.573938 
L 82.5336 161.169208 
L 83.698343 161.352634 
L 84.863086 161.726408 
L 86.027829 161.21766 
L 87.192572 161.568939 
L 88.357315 161.530869 
L 89.522058 162.108835 
L 90.686801 162.0102 
L 91.851544 162.345905 
L 93.016287 162.340713 
L 94.181029 163.275149 
L 96.510515 164.005393 
L 97.675258 164.083263 
L 98.840001 164.363594 
L 100.004744 163.934445 
L 101.169487 164.226889 
L 102.33423 163.79601 
L 103.498973 163.59701 
L 104.663716 164.711411 
L 106.993202 164.46742 
L 108.157945 165.128446 
L 109.322688 165.083455 
L 111.652174 164.434541 
L 112.816917 163.657575 
L 113.98166 164.178437 
L 115.146403 163.391088 
L 116.311146 162.910027 
L 117.475889 162.885801 
L 118.640632 163.448193 
L 119.805375 162.761209 
L 120.970118 162.871957 
L 122.134861 162.437618 
L 123.299604 163.470688 
L 124.464347 162.897914 
L 125.62909 163.100375 
L 126.793833 163.109027 
L 127.958576 164.119602 
L 129.123319 163.261306 
L 130.288062 163.226697 
L 131.452805 162.676418 
L 132.617548 163.166132 
L 133.782291 162.972323 
L 136.111777 160.549712 
L 137.27652 160.894069 
L 139.606006 159.132484 
L 140.770749 158.582205 
L 141.935492 157.628735 
L 143.100235 157.561248 
L 144.264978 156.862152 
L 145.429721 155.794472 
L 146.594464 153.652192 
L 148.92395 151.06519 
L 150.088693 148.351865 
L 151.253436 146.283994 
L 152.418179 144.479149 
L 154.747665 138.865613 
L 155.912408 134.565479 
L 158.241894 130.954058 
L 159.406637 125.681418 
L 160.57138 121.680649 
L 162.900866 102.450309 
L 164.065609 95.962903 
L 165.230352 91.406664 
L 166.395095 87.431852 
L 167.559838 85.554328 
L 168.724581 77.821008 
L 169.889324 76.91945 
L 171.054067 73.716413 
L 172.21881 71.060193 
L 173.383553 69.547791 
L 174.548296 67.414163 
L 175.713039 61.49261 
L 176.877782 62.48415 
L 178.042525 59.198051 
L 179.207268 61.063461 
L 180.372011 51.764096 
L 181.536754 41.416086 
L 182.701497 38.152483 
L 183.86624 38.062501 
L 185.030983 29.45358 
L 187.360469 29.69411 
L 188.525212 34.622393 
L 189.689955 37.723335 
L 190.854698 37.579709 
L 192.019441 38.143831 
L 193.184184 44.587976 
L 194.348927 42.649888 
L 195.51367 39.483189 
L 196.678413 44.928872 
L 197.843156 47.730449 
L 199.007899 47.958867 
L 200.172642 48.578363 
L 201.337385 49.019624 
L 202.502128 55.008664 
L 203.666871 59.405703 
L 204.831614 63.202281 
L 208.325843 83.425891 
L 209.490586 87.388591 
L 210.655329 89.674497 
L 211.820072 91.638542 
L 212.984815 93.25477 
L 214.149558 94.40551 
L 215.314301 93.725449 
L 216.479044 89.119027 
L 218.808529 94.010971 
L 219.973272 97.643157 
L 221.138015 101.711413 
L 222.302758 104.262076 
L 223.467501 107.56894 
L 224.632244 114.449155 
L 225.796987 117.40128 
L 226.96173 119.93983 
L 228.126473 123.357442 
L 229.291216 124.73833 
L 230.455959 125.828505 
L 231.620702 127.83235 
L 232.785445 129.292839 
L 233.950188 131.634119 
L 235.114931 133.42166 
L 236.279674 135.475688 
L 238.60916 136.811585 
L 239.773903 128.617969 
L 240.938646 129.900222 
L 242.103389 129.144021 
L 243.268132 129.817161 
L 244.432875 128.844656 
L 245.597618 129.036734 
L 246.762361 128.711412 
L 247.927104 138.490108 
L 249.091847 138.824083 
L 250.25659 140.689493 
L 251.421333 139.948866 
L 252.586076 140.857345 
L 254.915562 141.198241 
L 256.080305 138.844848 
L 257.245048 138.856961 
L 258.409791 137.617968 
L 259.574534 138.433004 
L 260.739277 137.74256 
L 261.90402 137.496838 
L 263.068763 137.735638 
L 264.233506 139.069805 
L 265.398249 138.604317 
L 266.562992 139.739483 
L 267.727735 140.357249 
L 268.892478 141.71045 
L 270.057221 142.85946 
L 271.221964 144.340714 
L 272.386707 142.925217 
L 273.55145 143.845809 
L 274.716193 143.472035 
L 275.880936 143.726409 
L 278.210422 143.681418 
L 279.375165 142.689877 
L 280.539908 144.281879 
L 282.869394 142.691608 
L 284.034137 142.317834 
L 285.19888 144.036157 
L 286.363623 140.895415 
L 287.528366 140.552789 
L 289.857852 139.246309 
L 291.022595 139.163248 
L 292.187338 138.246117 
L 293.352081 134.406278 
L 294.516824 136.472419 
L 295.681567 136.169593 
L 296.84631 134.556826 
L 298.011053 135.769862 
L 299.175796 132.002702 
L 300.340539 131.483571 
L 301.505282 130.739484 
L 302.670025 130.976553 
L 303.834768 128.178438 
L 304.999511 127.039811 
L 306.164254 123.698338 
L 307.328997 125.937523 
L 308.49374 122.689493 
L 309.658483 126.011931 
L 310.823226 118.738907 
L 311.987969 119.90176 
L 314.317455 118.815046 
L 315.482198 115.343791 
L 316.646941 115.994435 
L 317.811684 112.72391 
L 318.976427 112.318988 
L 320.14117 110.206125 
L 321.305913 110.685456 
L 322.470656 108.269767 
L 323.635399 109.380707 
L 324.800142 106.516835 
L 325.964885 106.312643 
L 327.129628 100.545099 
L 328.294371 99.293993 
L 329.459114 93.910605 
L 330.623857 90.307837 
L 331.7886 84.178631 
L 332.953343 80.459923 
L 334.118086 73.778708 
L 335.282829 79.785053 
L 336.447572 76.99732 
L 337.612315 75.246118 
L 338.777058 74.453578 
L 339.941801 72.204011 
L 342.271287 79.679496 
L 343.436029 78.450887 
L 345.765515 76.985207 
L 346.930258 74.019239 
L 348.095001 73.256116 
L 349.259744 67.296493 
L 349.259744 67.296493 
" style="fill:none;stroke:#1f77b4;stroke-linecap:square;stroke-width:1.5;"/>
   </g>
   <g id="patch_3">
    <path d="M 62.732969 179.298125 
L 62.732969 22.318125 
" style="fill:none;stroke:#000000;stroke-linecap:square;stroke-linejoin:miter;stroke-width:0.8;"/>
   </g>
   <g id="patch_4">
    <path d="M 311.987969 179.298125 
L 311.987969 22.318125 
" style="fill:none;stroke:#000000;stroke-linecap:square;stroke-linejoin:miter;stroke-width:0.8;"/>
   </g>
   <g id="patch_5">
    <path d="M 62.732969 179.298125 
L 311.987969 179.298125 
" style="fill:none;stroke:#000000;stroke-linecap:square;stroke-linejoin:miter;stroke-width:0.8;"/>
   </g>
   <g id="patch_6">
    <path d="M 62.732969 22.318125 
L 311.987969 22.318125 
" style="fill:none;stroke:#000000;stroke-linecap:square;stroke-linejoin:miter;stroke-width:0.8;"/>
   </g>
   <g id="text_17">
    <!-- COVID-19 Cases -->
    <g transform="translate(138.542031 16.318125)scale(0.12 -0.12)">
     <defs>
      <path d="M 39.40625 66.21875 
Q 28.65625 66.21875 22.328125 58.203125 
Q 16.015625 50.203125 16.015625 36.375 
Q 16.015625 22.609375 22.328125 14.59375 
Q 28.65625 6.59375 39.40625 6.59375 
Q 50.140625 6.59375 56.421875 14.59375 
Q 62.703125 22.609375 62.703125 36.375 
Q 62.703125 50.203125 56.421875 58.203125 
Q 50.140625 66.21875 39.40625 66.21875 
z
M 39.40625 74.21875 
Q 54.734375 74.21875 63.90625 63.9375 
Q 73.09375 53.65625 73.09375 36.375 
Q 73.09375 19.140625 63.90625 8.859375 
Q 54.734375 -1.421875 39.40625 -1.421875 
Q 24.03125 -1.421875 14.8125 8.828125 
Q 5.609375 19.09375 5.609375 36.375 
Q 5.609375 53.65625 14.8125 63.9375 
Q 24.03125 74.21875 39.40625 74.21875 
z
" id="DejaVuSans-79"/>
      <path d="M 28.609375 0 
L 0.78125 72.90625 
L 11.078125 72.90625 
L 34.1875 11.53125 
L 57.328125 72.90625 
L 67.578125 72.90625 
L 39.796875 0 
z
" id="DejaVuSans-86"/>
      <path d="M 9.8125 72.90625 
L 19.671875 72.90625 
L 19.671875 0 
L 9.8125 0 
z
" id="DejaVuSans-73"/>
      <path d="M 19.671875 64.796875 
L 19.671875 8.109375 
L 31.59375 8.109375 
Q 46.6875 8.109375 53.6875 14.9375 
Q 60.6875 21.78125 60.6875 36.53125 
Q 60.6875 51.171875 53.6875 57.984375 
Q 46.6875 64.796875 31.59375 64.796875 
z
M 9.8125 72.90625 
L 30.078125 72.90625 
Q 51.265625 72.90625 61.171875 64.09375 
Q 71.09375 55.28125 71.09375 36.53125 
Q 71.09375 17.671875 61.125 8.828125 
Q 51.171875 0 30.078125 0 
L 9.8125 0 
z
" id="DejaVuSans-68"/>
      <path id="DejaVuSans-32"/>
      <path d="M 34.28125 27.484375 
Q 23.390625 27.484375 19.1875 25 
Q 14.984375 22.515625 14.984375 16.5 
Q 14.984375 11.71875 18.140625 8.90625 
Q 21.296875 6.109375 26.703125 6.109375 
Q 34.1875 6.109375 38.703125 11.40625 
Q 43.21875 16.703125 43.21875 25.484375 
L 43.21875 27.484375 
z
M 52.203125 31.203125 
L 52.203125 0 
L 43.21875 0 
L 43.21875 8.296875 
Q 40.140625 3.328125 35.546875 0.953125 
Q 30.953125 -1.421875 24.3125 -1.421875 
Q 15.921875 -1.421875 10.953125 3.296875 
Q 6 8.015625 6 15.921875 
Q 6 25.140625 12.171875 29.828125 
Q 18.359375 34.515625 30.609375 34.515625 
L 43.21875 34.515625 
L 43.21875 35.40625 
Q 43.21875 41.609375 39.140625 45 
Q 35.0625 48.390625 27.6875 48.390625 
Q 23 48.390625 18.546875 47.265625 
Q 14.109375 46.140625 10.015625 43.890625 
L 10.015625 52.203125 
Q 14.9375 54.109375 19.578125 55.046875 
Q 24.21875 56 28.609375 56 
Q 40.484375 56 46.34375 49.84375 
Q 52.203125 43.703125 52.203125 31.203125 
z
" id="DejaVuSans-97"/>
      <path d="M 44.28125 53.078125 
L 44.28125 44.578125 
Q 40.484375 46.53125 36.375 47.5 
Q 32.28125 48.484375 27.875 48.484375 
Q 21.1875 48.484375 17.84375 46.4375 
Q 14.5 44.390625 14.5 40.28125 
Q 14.5 37.15625 16.890625 35.375 
Q 19.28125 33.59375 26.515625 31.984375 
L 29.59375 31.296875 
Q 39.15625 29.25 43.1875 25.515625 
Q 47.21875 21.78125 47.21875 15.09375 
Q 47.21875 7.46875 41.1875 3.015625 
Q 35.15625 -1.421875 24.609375 -1.421875 
Q 20.21875 -1.421875 15.453125 -0.5625 
Q 10.6875 0.296875 5.421875 2 
L 5.421875 11.28125 
Q 10.40625 8.6875 15.234375 7.390625 
Q 20.0625 6.109375 24.8125 6.109375 
Q 31.15625 6.109375 34.5625 8.28125 
Q 37.984375 10.453125 37.984375 14.40625 
Q 37.984375 18.0625 35.515625 20.015625 
Q 33.0625 21.96875 24.703125 23.78125 
L 21.578125 24.515625 
Q 13.234375 26.265625 9.515625 29.90625 
Q 5.8125 33.546875 5.8125 39.890625 
Q 5.8125 47.609375 11.28125 51.796875 
Q 16.75 56 26.8125 56 
Q 31.78125 56 36.171875 55.265625 
Q 40.578125 54.546875 44.28125 53.078125 
z
" id="DejaVuSans-115"/>
      <path d="M 56.203125 29.59375 
L 56.203125 25.203125 
L 14.890625 25.203125 
Q 15.484375 15.921875 20.484375 11.0625 
Q 25.484375 6.203125 34.421875 6.203125 
Q 39.59375 6.203125 44.453125 7.46875 
Q 49.3125 8.734375 54.109375 11.28125 
L 54.109375 2.78125 
Q 49.265625 0.734375 44.1875 -0.34375 
Q 39.109375 -1.421875 33.890625 -1.421875 
Q 20.796875 -1.421875 13.15625 6.1875 
Q 5.515625 13.8125 5.515625 26.8125 
Q 5.515625 40.234375 12.765625 48.109375 
Q 20.015625 56 32.328125 56 
Q 43.359375 56 49.78125 48.890625 
Q 56.203125 41.796875 56.203125 29.59375 
z
M 47.21875 32.234375 
Q 47.125 39.59375 43.09375 43.984375 
Q 39.0625 48.390625 32.421875 48.390625 
Q 24.90625 48.390625 20.390625 44.140625 
Q 15.875 39.890625 15.1875 32.171875 
z
" id="DejaVuSans-101"/>
     </defs>
     <use xlink:href="#DejaVuSans-67"/>
     <use x="69.824219" xlink:href="#DejaVuSans-79"/>
     <use x="146.785156" xlink:href="#DejaVuSans-86"/>
     <use x="215.193359" xlink:href="#DejaVuSans-73"/>
     <use x="244.685547" xlink:href="#DejaVuSans-68"/>
     <use x="321.6875" xlink:href="#DejaVuSans-45"/>
     <use x="357.771484" xlink:href="#DejaVuSans-49"/>
     <use x="421.394531" xlink:href="#DejaVuSans-57"/>
     <use x="485.017578" xlink:href="#DejaVuSans-32"/>
     <use x="516.804688" xlink:href="#DejaVuSans-67"/>
     <use x="586.628906" xlink:href="#DejaVuSans-97"/>
     <use x="647.908203" xlink:href="#DejaVuSans-115"/>
     <use x="700.007812" xlink:href="#DejaVuSans-101"/>
     <use x="761.53125" xlink:href="#DejaVuSans-115"/>
    </g>
   </g>
  </g>
  <g id="axes_2">
   <g id="patch_7">
    <path d="M 360.827969 179.298125 
L 610.082969 179.298125 
L 610.082969 22.318125 
L 360.827969 22.318125 
z
" style="fill:#ffffff;"/>
   </g>
   <g id="matplotlib.axis_3">
    <g id="xtick_38">
     <g id="line2d_46">
      <g>
       <use style="stroke:#000000;stroke-width:0.8;" x="360.827969" xlink:href="#mc1251b09fe" y="179.298125"/>
      </g>
     </g>
     <g id="text_18">
      <!-- 2020-04 -->
      <g transform="translate(321.741907 215.143563)rotate(-30)scale(0.105 -0.105)">
       <use xlink:href="#DejaVuSans-50"/>
       <use x="63.623047" xlink:href="#DejaVuSans-48"/>
       <use x="127.246094" xlink:href="#DejaVuSans-50"/>
       <use x="190.869141" xlink:href="#DejaVuSans-48"/>
       <use x="254.492188" xlink:href="#DejaVuSans-45"/>
       <use x="290.576172" xlink:href="#DejaVuSans-48"/>
       <use x="354.199219" xlink:href="#DejaVuSans-52"/>
      </g>
     </g>
    </g>
    <g id="xtick_39">
     <g id="line2d_47">
      <g>
       <use style="stroke:#000000;stroke-width:0.8;" x="395.770258" xlink:href="#mc1251b09fe" y="179.298125"/>
      </g>
     </g>
     <g id="text_19">
      <!-- 2020-05 -->
      <g transform="translate(356.684197 215.143563)rotate(-30)scale(0.105 -0.105)">
       <use xlink:href="#DejaVuSans-50"/>
       <use x="63.623047" xlink:href="#DejaVuSans-48"/>
       <use x="127.246094" xlink:href="#DejaVuSans-50"/>
       <use x="190.869141" xlink:href="#DejaVuSans-48"/>
       <use x="254.492188" xlink:href="#DejaVuSans-45"/>
       <use x="290.576172" xlink:href="#DejaVuSans-48"/>
       <use x="354.199219" xlink:href="#DejaVuSans-53"/>
      </g>
     </g>
    </g>
    <g id="xtick_40">
     <g id="line2d_48">
      <g>
       <use style="stroke:#000000;stroke-width:0.8;" x="431.877291" xlink:href="#mc1251b09fe" y="179.298125"/>
      </g>
     </g>
     <g id="text_20">
      <!-- 2020-06 -->
      <g transform="translate(392.791229 215.143563)rotate(-30)scale(0.105 -0.105)">
       <use xlink:href="#DejaVuSans-50"/>
       <use x="63.623047" xlink:href="#DejaVuSans-48"/>
       <use x="127.246094" xlink:href="#DejaVuSans-50"/>
       <use x="190.869141" xlink:href="#DejaVuSans-48"/>
       <use x="254.492188" xlink:href="#DejaVuSans-45"/>
       <use x="290.576172" xlink:href="#DejaVuSans-48"/>
       <use x="354.199219" xlink:href="#DejaVuSans-54"/>
      </g>
     </g>
    </g>
    <g id="xtick_41">
     <g id="line2d_49">
      <g>
       <use style="stroke:#000000;stroke-width:0.8;" x="466.819581" xlink:href="#mc1251b09fe" y="179.298125"/>
      </g>
     </g>
     <g id="text_21">
      <!-- 2020-07 -->
      <g transform="translate(427.733519 215.143563)rotate(-30)scale(0.105 -0.105)">
       <use xlink:href="#DejaVuSans-50"/>
       <use x="63.623047" xlink:href="#DejaVuSans-48"/>
       <use x="127.246094" xlink:href="#DejaVuSans-50"/>
       <use x="190.869141" xlink:href="#DejaVuSans-48"/>
       <use x="254.492188" xlink:href="#DejaVuSans-45"/>
       <use x="290.576172" xlink:href="#DejaVuSans-48"/>
       <use x="354.199219" xlink:href="#DejaVuSans-55"/>
      </g>
     </g>
    </g>
    <g id="xtick_42">
     <g id="line2d_50">
      <g>
       <use style="stroke:#000000;stroke-width:0.8;" x="502.926614" xlink:href="#mc1251b09fe" y="179.298125"/>
      </g>
     </g>
     <g id="text_22">
      <!-- 2020-08 -->
      <g transform="translate(463.840552 215.143563)rotate(-30)scale(0.105 -0.105)">
       <use xlink:href="#DejaVuSans-50"/>
       <use x="63.623047" xlink:href="#DejaVuSans-48"/>
       <use x="127.246094" xlink:href="#DejaVuSans-50"/>
       <use x="190.869141" xlink:href="#DejaVuSans-48"/>
       <use x="254.492188" xlink:href="#DejaVuSans-45"/>
       <use x="290.576172" xlink:href="#DejaVuSans-48"/>
       <use x="354.199219" xlink:href="#DejaVuSans-56"/>
      </g>
     </g>
    </g>
    <g id="xtick_43">
     <g id="line2d_51">
      <g>
       <use style="stroke:#000000;stroke-width:0.8;" x="539.033646" xlink:href="#mc1251b09fe" y="179.298125"/>
      </g>
     </g>
     <g id="text_23">
      <!-- 2020-09 -->
      <g transform="translate(499.947584 215.143563)rotate(-30)scale(0.105 -0.105)">
       <use xlink:href="#DejaVuSans-50"/>
       <use x="63.623047" xlink:href="#DejaVuSans-48"/>
       <use x="127.246094" xlink:href="#DejaVuSans-50"/>
       <use x="190.869141" xlink:href="#DejaVuSans-48"/>
       <use x="254.492188" xlink:href="#DejaVuSans-45"/>
       <use x="290.576172" xlink:href="#DejaVuSans-48"/>
       <use x="354.199219" xlink:href="#DejaVuSans-57"/>
      </g>
     </g>
    </g>
    <g id="xtick_44">
     <g id="line2d_52">
      <g>
       <use style="stroke:#000000;stroke-width:0.8;" x="573.975936" xlink:href="#mc1251b09fe" y="179.298125"/>
      </g>
     </g>
     <g id="text_24">
      <!-- 2020-10 -->
      <g transform="translate(534.889874 215.143563)rotate(-30)scale(0.105 -0.105)">
       <use xlink:href="#DejaVuSans-50"/>
       <use x="63.623047" xlink:href="#DejaVuSans-48"/>
       <use x="127.246094" xlink:href="#DejaVuSans-50"/>
       <use x="190.869141" xlink:href="#DejaVuSans-48"/>
       <use x="254.492188" xlink:href="#DejaVuSans-45"/>
       <use x="290.576172" xlink:href="#DejaVuSans-49"/>
       <use x="354.199219" xlink:href="#DejaVuSans-48"/>
      </g>
     </g>
    </g>
    <g id="xtick_45">
     <g id="line2d_53">
      <g>
       <use style="stroke:#000000;stroke-width:0.8;" x="610.082969" xlink:href="#mc1251b09fe" y="179.298125"/>
      </g>
     </g>
     <g id="text_25">
      <!-- 2020-11 -->
      <g transform="translate(570.996907 215.143563)rotate(-30)scale(0.105 -0.105)">
       <use xlink:href="#DejaVuSans-50"/>
       <use x="63.623047" xlink:href="#DejaVuSans-48"/>
       <use x="127.246094" xlink:href="#DejaVuSans-50"/>
       <use x="190.869141" xlink:href="#DejaVuSans-48"/>
       <use x="254.492188" xlink:href="#DejaVuSans-45"/>
       <use x="290.576172" xlink:href="#DejaVuSans-49"/>
       <use x="354.199219" xlink:href="#DejaVuSans-49"/>
      </g>
     </g>
    </g>
    <g id="xtick_46">
     <g id="line2d_54">
      <g>
       <use style="stroke:#000000;stroke-width:0.6;" x="366.651684" xlink:href="#mfc2b24dfbb" y="179.298125"/>
      </g>
     </g>
    </g>
    <g id="xtick_47">
     <g id="line2d_55">
      <g>
       <use style="stroke:#000000;stroke-width:0.6;" x="374.804885" xlink:href="#mfc2b24dfbb" y="179.298125"/>
      </g>
     </g>
    </g>
    <g id="xtick_48">
     <g id="line2d_56">
      <g>
       <use style="stroke:#000000;stroke-width:0.6;" x="382.958086" xlink:href="#mfc2b24dfbb" y="179.298125"/>
      </g>
     </g>
    </g>
    <g id="xtick_49">
     <g id="line2d_57">
      <g>
       <use style="stroke:#000000;stroke-width:0.6;" x="391.111287" xlink:href="#mfc2b24dfbb" y="179.298125"/>
      </g>
     </g>
    </g>
    <g id="xtick_50">
     <g id="line2d_58">
      <g>
       <use style="stroke:#000000;stroke-width:0.6;" x="399.264487" xlink:href="#mfc2b24dfbb" y="179.298125"/>
      </g>
     </g>
    </g>
    <g id="xtick_51">
     <g id="line2d_59">
      <g>
       <use style="stroke:#000000;stroke-width:0.6;" x="407.417688" xlink:href="#mfc2b24dfbb" y="179.298125"/>
      </g>
     </g>
    </g>
    <g id="xtick_52">
     <g id="line2d_60">
      <g>
       <use style="stroke:#000000;stroke-width:0.6;" x="415.570889" xlink:href="#mfc2b24dfbb" y="179.298125"/>
      </g>
     </g>
    </g>
    <g id="xtick_53">
     <g id="line2d_61">
      <g>
       <use style="stroke:#000000;stroke-width:0.6;" x="423.72409" xlink:href="#mfc2b24dfbb" y="179.298125"/>
      </g>
     </g>
    </g>
    <g id="xtick_54">
     <g id="line2d_62">
      <g>
       <use style="stroke:#000000;stroke-width:0.6;" x="440.030492" xlink:href="#mfc2b24dfbb" y="179.298125"/>
      </g>
     </g>
    </g>
    <g id="xtick_55">
     <g id="line2d_63">
      <g>
       <use style="stroke:#000000;stroke-width:0.6;" x="448.183693" xlink:href="#mfc2b24dfbb" y="179.298125"/>
      </g>
     </g>
    </g>
    <g id="xtick_56">
     <g id="line2d_64">
      <g>
       <use style="stroke:#000000;stroke-width:0.6;" x="456.336894" xlink:href="#mfc2b24dfbb" y="179.298125"/>
      </g>
     </g>
    </g>
    <g id="xtick_57">
     <g id="line2d_65">
      <g>
       <use style="stroke:#000000;stroke-width:0.6;" x="464.490095" xlink:href="#mfc2b24dfbb" y="179.298125"/>
      </g>
     </g>
    </g>
    <g id="xtick_58">
     <g id="line2d_66">
      <g>
       <use style="stroke:#000000;stroke-width:0.6;" x="472.643296" xlink:href="#mfc2b24dfbb" y="179.298125"/>
      </g>
     </g>
    </g>
    <g id="xtick_59">
     <g id="line2d_67">
      <g>
       <use style="stroke:#000000;stroke-width:0.6;" x="480.796497" xlink:href="#mfc2b24dfbb" y="179.298125"/>
      </g>
     </g>
    </g>
    <g id="xtick_60">
     <g id="line2d_68">
      <g>
       <use style="stroke:#000000;stroke-width:0.6;" x="488.949698" xlink:href="#mfc2b24dfbb" y="179.298125"/>
      </g>
     </g>
    </g>
    <g id="xtick_61">
     <g id="line2d_69">
      <g>
       <use style="stroke:#000000;stroke-width:0.6;" x="497.102899" xlink:href="#mfc2b24dfbb" y="179.298125"/>
      </g>
     </g>
    </g>
    <g id="xtick_62">
     <g id="line2d_70">
      <g>
       <use style="stroke:#000000;stroke-width:0.6;" x="505.2561" xlink:href="#mfc2b24dfbb" y="179.298125"/>
      </g>
     </g>
    </g>
    <g id="xtick_63">
     <g id="line2d_71">
      <g>
       <use style="stroke:#000000;stroke-width:0.6;" x="513.409301" xlink:href="#mfc2b24dfbb" y="179.298125"/>
      </g>
     </g>
    </g>
    <g id="xtick_64">
     <g id="line2d_72">
      <g>
       <use style="stroke:#000000;stroke-width:0.6;" x="521.562501" xlink:href="#mfc2b24dfbb" y="179.298125"/>
      </g>
     </g>
    </g>
    <g id="xtick_65">
     <g id="line2d_73">
      <g>
       <use style="stroke:#000000;stroke-width:0.6;" x="529.715702" xlink:href="#mfc2b24dfbb" y="179.298125"/>
      </g>
     </g>
    </g>
    <g id="xtick_66">
     <g id="line2d_74">
      <g>
       <use style="stroke:#000000;stroke-width:0.6;" x="537.868903" xlink:href="#mfc2b24dfbb" y="179.298125"/>
      </g>
     </g>
    </g>
    <g id="xtick_67">
     <g id="line2d_75">
      <g>
       <use style="stroke:#000000;stroke-width:0.6;" x="546.022104" xlink:href="#mfc2b24dfbb" y="179.298125"/>
      </g>
     </g>
    </g>
    <g id="xtick_68">
     <g id="line2d_76">
      <g>
       <use style="stroke:#000000;stroke-width:0.6;" x="554.175305" xlink:href="#mfc2b24dfbb" y="179.298125"/>
      </g>
     </g>
    </g>
    <g id="xtick_69">
     <g id="line2d_77">
      <g>
       <use style="stroke:#000000;stroke-width:0.6;" x="562.328506" xlink:href="#mfc2b24dfbb" y="179.298125"/>
      </g>
     </g>
    </g>
    <g id="xtick_70">
     <g id="line2d_78">
      <g>
       <use style="stroke:#000000;stroke-width:0.6;" x="570.481707" xlink:href="#mfc2b24dfbb" y="179.298125"/>
      </g>
     </g>
    </g>
    <g id="xtick_71">
     <g id="line2d_79">
      <g>
       <use style="stroke:#000000;stroke-width:0.6;" x="578.634908" xlink:href="#mfc2b24dfbb" y="179.298125"/>
      </g>
     </g>
    </g>
    <g id="xtick_72">
     <g id="line2d_80">
      <g>
       <use style="stroke:#000000;stroke-width:0.6;" x="586.788109" xlink:href="#mfc2b24dfbb" y="179.298125"/>
      </g>
     </g>
    </g>
    <g id="xtick_73">
     <g id="line2d_81">
      <g>
       <use style="stroke:#000000;stroke-width:0.6;" x="594.94131" xlink:href="#mfc2b24dfbb" y="179.298125"/>
      </g>
     </g>
    </g>
    <g id="xtick_74">
     <g id="line2d_82">
      <g>
       <use style="stroke:#000000;stroke-width:0.6;" x="603.094511" xlink:href="#mfc2b24dfbb" y="179.298125"/>
      </g>
     </g>
    </g>
    <g id="text_26">
     <!-- Positive Confirmed Date -->
     <g transform="translate(416.043086 229.772882)scale(0.115 -0.115)">
      <defs>
       <path d="M 19.671875 64.796875 
L 19.671875 37.40625 
L 32.078125 37.40625 
Q 38.96875 37.40625 42.71875 40.96875 
Q 46.484375 44.53125 46.484375 51.125 
Q 46.484375 57.671875 42.71875 61.234375 
Q 38.96875 64.796875 32.078125 64.796875 
z
M 9.8125 72.90625 
L 32.078125 72.90625 
Q 44.34375 72.90625 50.609375 67.359375 
Q 56.890625 61.8125 56.890625 51.125 
Q 56.890625 40.328125 50.609375 34.8125 
Q 44.34375 29.296875 32.078125 29.296875 
L 19.671875 29.296875 
L 19.671875 0 
L 9.8125 0 
z
" id="DejaVuSans-80"/>
       <path d="M 9.421875 54.6875 
L 18.40625 54.6875 
L 18.40625 0 
L 9.421875 0 
z
M 9.421875 75.984375 
L 18.40625 75.984375 
L 18.40625 64.59375 
L 9.421875 64.59375 
z
" id="DejaVuSans-105"/>
       <path d="M 2.984375 54.6875 
L 12.5 54.6875 
L 29.59375 8.796875 
L 46.6875 54.6875 
L 56.203125 54.6875 
L 35.6875 0 
L 23.484375 0 
z
" id="DejaVuSans-118"/>
       <path d="M 37.109375 75.984375 
L 37.109375 68.5 
L 28.515625 68.5 
Q 23.6875 68.5 21.796875 66.546875 
Q 19.921875 64.59375 19.921875 59.515625 
L 19.921875 54.6875 
L 34.71875 54.6875 
L 34.71875 47.703125 
L 19.921875 47.703125 
L 19.921875 0 
L 10.890625 0 
L 10.890625 47.703125 
L 2.296875 47.703125 
L 2.296875 54.6875 
L 10.890625 54.6875 
L 10.890625 58.5 
Q 10.890625 67.625 15.140625 71.796875 
Q 19.390625 75.984375 28.609375 75.984375 
z
" id="DejaVuSans-102"/>
       <path d="M 41.109375 46.296875 
Q 39.59375 47.171875 37.8125 47.578125 
Q 36.03125 48 33.890625 48 
Q 26.265625 48 22.1875 43.046875 
Q 18.109375 38.09375 18.109375 28.8125 
L 18.109375 0 
L 9.078125 0 
L 9.078125 54.6875 
L 18.109375 54.6875 
L 18.109375 46.1875 
Q 20.953125 51.171875 25.484375 53.578125 
Q 30.03125 56 36.53125 56 
Q 37.453125 56 38.578125 55.875 
Q 39.703125 55.765625 41.0625 55.515625 
z
" id="DejaVuSans-114"/>
       <path d="M 52 44.1875 
Q 55.375 50.25 60.0625 53.125 
Q 64.75 56 71.09375 56 
Q 79.640625 56 84.28125 50.015625 
Q 88.921875 44.046875 88.921875 33.015625 
L 88.921875 0 
L 79.890625 0 
L 79.890625 32.71875 
Q 79.890625 40.578125 77.09375 44.375 
Q 74.3125 48.1875 68.609375 48.1875 
Q 61.625 48.1875 57.5625 43.546875 
Q 53.515625 38.921875 53.515625 30.90625 
L 53.515625 0 
L 44.484375 0 
L 44.484375 32.71875 
Q 44.484375 40.625 41.703125 44.40625 
Q 38.921875 48.1875 33.109375 48.1875 
Q 26.21875 48.1875 22.15625 43.53125 
Q 18.109375 38.875 18.109375 30.90625 
L 18.109375 0 
L 9.078125 0 
L 9.078125 54.6875 
L 18.109375 54.6875 
L 18.109375 46.1875 
Q 21.1875 51.21875 25.484375 53.609375 
Q 29.78125 56 35.6875 56 
Q 41.65625 56 45.828125 52.96875 
Q 50 49.953125 52 44.1875 
z
" id="DejaVuSans-109"/>
       <path d="M 45.40625 46.390625 
L 45.40625 75.984375 
L 54.390625 75.984375 
L 54.390625 0 
L 45.40625 0 
L 45.40625 8.203125 
Q 42.578125 3.328125 38.25 0.953125 
Q 33.9375 -1.421875 27.875 -1.421875 
Q 17.96875 -1.421875 11.734375 6.484375 
Q 5.515625 14.40625 5.515625 27.296875 
Q 5.515625 40.1875 11.734375 48.09375 
Q 17.96875 56 27.875 56 
Q 33.9375 56 38.25 53.625 
Q 42.578125 51.265625 45.40625 46.390625 
z
M 14.796875 27.296875 
Q 14.796875 17.390625 18.875 11.75 
Q 22.953125 6.109375 30.078125 6.109375 
Q 37.203125 6.109375 41.296875 11.75 
Q 45.40625 17.390625 45.40625 27.296875 
Q 45.40625 37.203125 41.296875 42.84375 
Q 37.203125 48.484375 30.078125 48.484375 
Q 22.953125 48.484375 18.875 42.84375 
Q 14.796875 37.203125 14.796875 27.296875 
z
" id="DejaVuSans-100"/>
      </defs>
      <use xlink:href="#DejaVuSans-80"/>
      <use x="56.677734" xlink:href="#DejaVuSans-111"/>
      <use x="117.859375" xlink:href="#DejaVuSans-115"/>
      <use x="169.958984" xlink:href="#DejaVuSans-105"/>
      <use x="197.742188" xlink:href="#DejaVuSans-116"/>
      <use x="236.951172" xlink:href="#DejaVuSans-105"/>
      <use x="264.734375" xlink:href="#DejaVuSans-118"/>
      <use x="323.914062" xlink:href="#DejaVuSans-101"/>
      <use x="385.4375" xlink:href="#DejaVuSans-32"/>
      <use x="417.224609" xlink:href="#DejaVuSans-67"/>
      <use x="487.048828" xlink:href="#DejaVuSans-111"/>
      <use x="548.230469" xlink:href="#DejaVuSans-110"/>
      <use x="611.609375" xlink:href="#DejaVuSans-102"/>
      <use x="646.814453" xlink:href="#DejaVuSans-105"/>
      <use x="674.597656" xlink:href="#DejaVuSans-114"/>
      <use x="713.960938" xlink:href="#DejaVuSans-109"/>
      <use x="811.373047" xlink:href="#DejaVuSans-101"/>
      <use x="872.896484" xlink:href="#DejaVuSans-100"/>
      <use x="936.373047" xlink:href="#DejaVuSans-32"/>
      <use x="968.160156" xlink:href="#DejaVuSans-68"/>
      <use x="1045.162109" xlink:href="#DejaVuSans-97"/>
      <use x="1106.441406" xlink:href="#DejaVuSans-116"/>
      <use x="1145.650391" xlink:href="#DejaVuSans-101"/>
     </g>
    </g>
   </g>
   <g id="matplotlib.axis_4">
    <g id="ytick_8">
     <g id="line2d_83">
      <g>
       <use style="stroke:#000000;stroke-width:0.8;" x="360.827969" xlink:href="#m841d915838" y="172.196061"/>
      </g>
     </g>
     <g id="text_27">
      <!-- 0 -->
      <g transform="translate(347.147344 176.18524)scale(0.105 -0.105)">
       <use xlink:href="#DejaVuSans-48"/>
      </g>
     </g>
    </g>
    <g id="ytick_9">
     <g id="line2d_84">
      <g>
       <use style="stroke:#000000;stroke-width:0.8;" x="360.827969" xlink:href="#m841d915838" y="148.823023"/>
      </g>
     </g>
     <g id="text_28">
      <!-- 100 -->
      <g transform="translate(333.786094 152.812202)scale(0.105 -0.105)">
       <use xlink:href="#DejaVuSans-49"/>
       <use x="63.623047" xlink:href="#DejaVuSans-48"/>
       <use x="127.246094" xlink:href="#DejaVuSans-48"/>
      </g>
     </g>
    </g>
    <g id="ytick_10">
     <g id="line2d_85">
      <g>
       <use style="stroke:#000000;stroke-width:0.8;" x="360.827969" xlink:href="#m841d915838" y="125.449985"/>
      </g>
     </g>
     <g id="text_29">
      <!-- 200 -->
      <g transform="translate(333.786094 129.439165)scale(0.105 -0.105)">
       <use xlink:href="#DejaVuSans-50"/>
       <use x="63.623047" xlink:href="#DejaVuSans-48"/>
       <use x="127.246094" xlink:href="#DejaVuSans-48"/>
      </g>
     </g>
    </g>
    <g id="ytick_11">
     <g id="line2d_86">
      <g>
       <use style="stroke:#000000;stroke-width:0.8;" x="360.827969" xlink:href="#m841d915838" y="102.076947"/>
      </g>
     </g>
     <g id="text_30">
      <!-- 300 -->
      <g transform="translate(333.786094 106.066127)scale(0.105 -0.105)">
       <defs>
        <path d="M 40.578125 39.3125 
Q 47.65625 37.796875 51.625 33 
Q 55.609375 28.21875 55.609375 21.1875 
Q 55.609375 10.40625 48.1875 4.484375 
Q 40.765625 -1.421875 27.09375 -1.421875 
Q 22.515625 -1.421875 17.65625 -0.515625 
Q 12.796875 0.390625 7.625 2.203125 
L 7.625 11.71875 
Q 11.71875 9.328125 16.59375 8.109375 
Q 21.484375 6.890625 26.8125 6.890625 
Q 36.078125 6.890625 40.9375 10.546875 
Q 45.796875 14.203125 45.796875 21.1875 
Q 45.796875 27.640625 41.28125 31.265625 
Q 36.765625 34.90625 28.71875 34.90625 
L 20.21875 34.90625 
L 20.21875 43.015625 
L 29.109375 43.015625 
Q 36.375 43.015625 40.234375 45.921875 
Q 44.09375 48.828125 44.09375 54.296875 
Q 44.09375 59.90625 40.109375 62.90625 
Q 36.140625 65.921875 28.71875 65.921875 
Q 24.65625 65.921875 20.015625 65.03125 
Q 15.375 64.15625 9.8125 62.3125 
L 9.8125 71.09375 
Q 15.4375 72.65625 20.34375 73.4375 
Q 25.25 74.21875 29.59375 74.21875 
Q 40.828125 74.21875 47.359375 69.109375 
Q 53.90625 64.015625 53.90625 55.328125 
Q 53.90625 49.265625 50.4375 45.09375 
Q 46.96875 40.921875 40.578125 39.3125 
z
" id="DejaVuSans-51"/>
       </defs>
       <use xlink:href="#DejaVuSans-51"/>
       <use x="63.623047" xlink:href="#DejaVuSans-48"/>
       <use x="127.246094" xlink:href="#DejaVuSans-48"/>
      </g>
     </g>
    </g>
    <g id="ytick_12">
     <g id="line2d_87">
      <g>
       <use style="stroke:#000000;stroke-width:0.8;" x="360.827969" xlink:href="#m841d915838" y="78.703909"/>
      </g>
     </g>
     <g id="text_31">
      <!-- 400 -->
      <g transform="translate(333.786094 82.693089)scale(0.105 -0.105)">
       <use xlink:href="#DejaVuSans-52"/>
       <use x="63.623047" xlink:href="#DejaVuSans-48"/>
       <use x="127.246094" xlink:href="#DejaVuSans-48"/>
      </g>
     </g>
    </g>
    <g id="ytick_13">
     <g id="line2d_88">
      <g>
       <use style="stroke:#000000;stroke-width:0.8;" x="360.827969" xlink:href="#m841d915838" y="55.330871"/>
      </g>
     </g>
     <g id="text_32">
      <!-- 500 -->
      <g transform="translate(333.786094 59.320051)scale(0.105 -0.105)">
       <use xlink:href="#DejaVuSans-53"/>
       <use x="63.623047" xlink:href="#DejaVuSans-48"/>
       <use x="127.246094" xlink:href="#DejaVuSans-48"/>
      </g>
     </g>
    </g>
    <g id="ytick_14">
     <g id="line2d_89">
      <g>
       <use style="stroke:#000000;stroke-width:0.8;" x="360.827969" xlink:href="#m841d915838" y="31.957834"/>
      </g>
     </g>
     <g id="text_33">
      <!-- 600 -->
      <g transform="translate(333.786094 35.947013)scale(0.105 -0.105)">
       <use xlink:href="#DejaVuSans-54"/>
       <use x="63.623047" xlink:href="#DejaVuSans-48"/>
       <use x="127.246094" xlink:href="#DejaVuSans-48"/>
      </g>
     </g>
    </g>
   </g>
   <g id="line2d_90">
    <path clip-path="url(#p6c0a564a68)" d="M 325.885679 172.16267 
L 330.544651 172.09589 
L 332.874137 171.99572 
L 337.533109 171.96233 
L 338.697852 171.461479 
L 339.862595 170.827068 
L 341.027338 170.493168 
L 343.356824 169.524856 
L 344.521567 168.356204 
L 345.68631 167.755183 
L 346.851053 166.720092 
L 348.015796 165.351099 
L 349.180539 163.447866 
L 350.345282 161.845144 
L 351.510025 159.77496 
L 353.839511 153.19712 
L 355.004254 148.689462 
L 356.168997 145.517407 
L 357.33374 140.609069 
L 358.498483 134.7992 
L 360.827969 126.051006 
L 361.992712 119.306215 
L 363.157455 114.331097 
L 364.322198 111.693283 
L 365.486941 113.429565 
L 366.651684 113.028885 
L 367.816427 112.795154 
L 368.98117 113.229225 
L 370.145913 115.299408 
L 371.310656 117.770272 
L 372.475399 119.473165 
L 373.640142 118.605024 
L 374.804885 119.807066 
L 375.969628 121.209448 
L 378.299114 123.279631 
L 379.463857 126.284736 
L 380.6286 127.787289 
L 381.793343 128.85577 
L 382.958086 130.358323 
L 384.122829 130.525273 
L 386.452315 133.830888 
L 387.617058 134.86598 
L 388.781801 135.233271 
L 389.946544 136.802603 
L 391.111287 135.233271 
L 393.440772 139.039737 
L 394.605515 140.67585 
L 395.770258 140.408729 
L 396.935001 140.97636 
L 398.099744 141.27687 
L 399.264487 144.014855 
L 401.593973 144.816216 
L 402.758716 147.12013 
L 403.923459 148.522512 
L 405.088202 147.687761 
L 406.252945 147.988271 
L 407.417688 148.522512 
L 408.582431 147.554201 
L 409.747174 145.617578 
L 410.911917 142.145012 
L 412.07666 141.477211 
L 413.241403 141.944672 
L 414.406146 140.8428 
L 415.570889 140.67585 
L 416.735632 141.911282 
L 417.900375 140.90958 
L 419.065118 142.145012 
L 420.229861 141.21009 
L 421.394604 141.744331 
L 423.72409 144.048245 
L 424.888833 143.847905 
L 426.053576 145.817918 
L 427.218319 144.582486 
L 428.383062 145.684358 
L 430.712548 145.817918 
L 431.877291 145.383847 
L 433.042034 145.083337 
L 434.206777 144.415536 
L 435.37152 145.851308 
L 436.536263 145.617578 
L 437.701006 144.382146 
L 438.865749 143.714344 
L 440.030492 141.610771 
L 441.195235 140.275169 
L 442.359978 139.807708 
L 443.524721 138.806006 
L 444.689464 136.902773 
L 445.854207 136.802603 
L 447.01895 136.068022 
L 449.348436 132.061216 
L 450.513179 130.458493 
L 451.677922 128.58865 
L 452.842665 127.520168 
L 454.007408 125.182864 
L 455.172151 123.780482 
L 456.336894 120.274526 
L 457.501637 118.438074 
L 458.66638 116.968911 
L 459.831123 112.427864 
L 460.995866 106.851725 
L 462.160609 100.240494 
L 463.325352 95.298766 
L 465.654838 90.490598 
L 466.819581 79.00442 
L 467.984324 73.22794 
L 469.149067 72.359799 
L 470.31381 73.495061 
L 471.478553 74.997613 
L 473.808039 60.80684 
L 474.972782 65.281108 
L 476.137525 58.269196 
L 477.302268 51.991866 
L 478.467011 50.355753 
L 479.631754 38.034823 
L 481.96124 35.163279 
L 483.125983 29.45358 
L 484.290726 33.861067 
L 485.455469 34.495478 
L 486.620212 30.555451 
L 487.784955 33.794287 
L 488.949698 38.602454 
L 490.114441 41.240269 
L 491.279184 45.247075 
L 492.443927 45.747926 
L 493.60867 44.813004 
L 494.773413 49.854903 
L 495.938156 51.891696 
L 497.102899 54.830021 
L 498.267642 53.928489 
L 499.432385 53.327468 
L 501.761871 62.910414 
L 502.926614 64.045676 
L 504.091357 70.356396 
L 505.2561 72.393189 
L 506.420843 81.208163 
L 511.079815 92.226881 
L 512.244558 97.035049 
L 513.409301 94.230284 
L 514.574044 93.495703 
L 515.738787 96.868099 
L 516.903529 99.071842 
L 518.068272 101.008465 
L 519.233015 103.67967 
L 520.397758 102.544408 
L 521.562501 109.055468 
L 522.727244 110.858531 
L 525.05673 113.897026 
L 526.221473 116.701791 
L 527.386216 116.801961 
L 528.550959 117.169251 
L 529.715702 118.638414 
L 530.880445 119.105875 
L 532.045188 122.979121 
L 533.209931 124.782184 
L 535.539417 128.82238 
L 536.70416 131.193074 
L 537.868903 128.78899 
L 539.033646 130.224763 
L 540.198389 129.757302 
L 541.363132 129.556962 
L 542.527875 129.824082 
L 543.692618 130.658833 
L 544.857361 130.157982 
L 546.022104 135.467001 
L 548.35159 136.702433 
L 549.516333 138.305156 
L 550.681076 138.906177 
L 551.845819 138.505496 
L 553.010562 139.407027 
L 554.175305 137.169894 
L 555.340048 137.637355 
L 556.504791 139.073127 
L 557.669534 138.171595 
L 558.834277 138.472106 
L 561.163763 138.672446 
L 562.328506 139.907878 
L 563.493249 140.642459 
L 564.657992 140.141609 
L 565.822735 141.744331 
L 566.987478 141.677551 
L 568.152221 142.612473 
L 569.316964 143.213494 
L 570.481707 139.941268 
L 571.64645 140.442119 
L 572.811193 139.874488 
L 573.975936 139.707538 
L 575.140679 139.707538 
L 576.305422 139.039737 
L 577.470165 137.871085 
L 578.634908 140.94297 
L 579.799651 140.074829 
L 580.964394 140.074829 
L 582.129137 139.674148 
L 583.29388 141.510601 
L 584.458623 138.538886 
L 585.623366 138.972957 
L 586.788109 139.039737 
L 587.952852 137.670745 
L 589.117595 138.806006 
L 590.282338 139.206687 
L 591.447081 136.669043 
L 592.611824 139.707538 
L 593.776567 139.774318 
L 594.94131 139.306857 
L 596.106053 141.777721 
L 597.270796 139.373637 
L 598.435539 139.974658 
L 599.600282 140.442119 
L 600.765025 141.577381 
L 601.929768 138.572276 
L 603.094511 137.403624 
L 604.259254 135.500391 
L 605.423997 136.568873 
L 606.58874 134.63225 
L 607.753483 136.368533 
L 608.918226 132.094606 
L 610.082969 134.164789 
L 611.247712 134.59886 
L 612.412455 135.600561 
L 613.577198 134.064619 
L 614.741941 134.298349 
L 615.906684 133.797498 
L 617.071427 133.129697 
L 618.23617 131.293244 
L 619.400913 130.358323 
L 620.565656 128.38831 
L 621.730399 128.88916 
L 622.895142 127.319828 
L 624.059885 126.985927 
L 625.224628 126.418296 
L 626.389371 126.818977 
L 627.554114 125.750495 
L 628.718857 125.216254 
L 629.8836 124.247943 
L 631.048343 124.815574 
L 632.213086 122.74539 
L 633.377829 125.616935 
L 634.542572 125.550155 
L 635.707315 127.019317 
L 636.872058 127.086098 
L 638.036801 128.48848 
L 639.201544 131.460195 
L 640.366287 131.693925 
L 641.531029 131.426805 
L 642.695772 131.760705 
L 643.860515 132.562066 
L 645.025258 134.264959 
L 647.354744 139.473808 
L 647.354744 139.473808 
" style="fill:none;stroke:#1f77b4;stroke-linecap:square;stroke-width:1.5;"/>
   </g>
   <g id="patch_8">
    <path d="M 360.827969 179.298125 
L 360.827969 22.318125 
" style="fill:none;stroke:#000000;stroke-linecap:square;stroke-linejoin:miter;stroke-width:0.8;"/>
   </g>
   <g id="patch_9">
    <path d="M 610.082969 179.298125 
L 610.082969 22.318125 
" style="fill:none;stroke:#000000;stroke-linecap:square;stroke-linejoin:miter;stroke-width:0.8;"/>
   </g>
   <g id="patch_10">
    <path d="M 360.827969 179.298125 
L 610.082969 179.298125 
" style="fill:none;stroke:#000000;stroke-linecap:square;stroke-linejoin:miter;stroke-width:0.8;"/>
   </g>
   <g id="patch_11">
    <path d="M 360.827969 22.318125 
L 610.082969 22.318125 
" style="fill:none;stroke:#000000;stroke-linecap:square;stroke-linejoin:miter;stroke-width:0.8;"/>
   </g>
   <g id="text_34">
    <!-- COVID-19 Hospitalizations -->
    <g transform="translate(406.854531 16.318125)scale(0.12 -0.12)">
     <defs>
      <path d="M 9.8125 72.90625 
L 19.671875 72.90625 
L 19.671875 43.015625 
L 55.515625 43.015625 
L 55.515625 72.90625 
L 65.375 72.90625 
L 65.375 0 
L 55.515625 0 
L 55.515625 34.71875 
L 19.671875 34.71875 
L 19.671875 0 
L 9.8125 0 
z
" id="DejaVuSans-72"/>
      <path d="M 18.109375 8.203125 
L 18.109375 -20.796875 
L 9.078125 -20.796875 
L 9.078125 54.6875 
L 18.109375 54.6875 
L 18.109375 46.390625 
Q 20.953125 51.265625 25.265625 53.625 
Q 29.59375 56 35.59375 56 
Q 45.5625 56 51.78125 48.09375 
Q 58.015625 40.1875 58.015625 27.296875 
Q 58.015625 14.40625 51.78125 6.484375 
Q 45.5625 -1.421875 35.59375 -1.421875 
Q 29.59375 -1.421875 25.265625 0.953125 
Q 20.953125 3.328125 18.109375 8.203125 
z
M 48.6875 27.296875 
Q 48.6875 37.203125 44.609375 42.84375 
Q 40.53125 48.484375 33.40625 48.484375 
Q 26.265625 48.484375 22.1875 42.84375 
Q 18.109375 37.203125 18.109375 27.296875 
Q 18.109375 17.390625 22.1875 11.75 
Q 26.265625 6.109375 33.40625 6.109375 
Q 40.53125 6.109375 44.609375 11.75 
Q 48.6875 17.390625 48.6875 27.296875 
z
" id="DejaVuSans-112"/>
      <path d="M 9.421875 75.984375 
L 18.40625 75.984375 
L 18.40625 0 
L 9.421875 0 
z
" id="DejaVuSans-108"/>
      <path d="M 5.515625 54.6875 
L 48.1875 54.6875 
L 48.1875 46.484375 
L 14.40625 7.171875 
L 48.1875 7.171875 
L 48.1875 0 
L 4.296875 0 
L 4.296875 8.203125 
L 38.09375 47.515625 
L 5.515625 47.515625 
z
" id="DejaVuSans-122"/>
     </defs>
     <use xlink:href="#DejaVuSans-67"/>
     <use x="69.824219" xlink:href="#DejaVuSans-79"/>
     <use x="146.785156" xlink:href="#DejaVuSans-86"/>
     <use x="215.193359" xlink:href="#DejaVuSans-73"/>
     <use x="244.685547" xlink:href="#DejaVuSans-68"/>
     <use x="321.6875" xlink:href="#DejaVuSans-45"/>
     <use x="357.771484" xlink:href="#DejaVuSans-49"/>
     <use x="421.394531" xlink:href="#DejaVuSans-57"/>
     <use x="485.017578" xlink:href="#DejaVuSans-32"/>
     <use x="516.804688" xlink:href="#DejaVuSans-72"/>
     <use x="592" xlink:href="#DejaVuSans-111"/>
     <use x="653.181641" xlink:href="#DejaVuSans-115"/>
     <use x="705.28125" xlink:href="#DejaVuSans-112"/>
     <use x="768.757812" xlink:href="#DejaVuSans-105"/>
     <use x="796.541016" xlink:href="#DejaVuSans-116"/>
     <use x="835.75" xlink:href="#DejaVuSans-97"/>
     <use x="897.029297" xlink:href="#DejaVuSans-108"/>
     <use x="924.8125" xlink:href="#DejaVuSans-105"/>
     <use x="952.595703" xlink:href="#DejaVuSans-122"/>
     <use x="1005.085938" xlink:href="#DejaVuSans-97"/>
     <use x="1066.365234" xlink:href="#DejaVuSans-116"/>
     <use x="1105.574219" xlink:href="#DejaVuSans-105"/>
     <use x="1133.357422" xlink:href="#DejaVuSans-111"/>
     <use x="1194.539062" xlink:href="#DejaVuSans-110"/>
     <use x="1257.917969" xlink:href="#DejaVuSans-115"/>
    </g>
   </g>
  </g>
  <g id="axes_3">
   <g id="patch_12">
    <path d="M 658.922969 179.298125 
L 908.177969 179.298125 
L 908.177969 22.318125 
L 658.922969 22.318125 
z
" style="fill:#ffffff;"/>
   </g>
   <g id="matplotlib.axis_5">
    <g id="xtick_75">
     <g id="line2d_91">
      <g>
       <use style="stroke:#000000;stroke-width:0.8;" x="658.922969" xlink:href="#mc1251b09fe" y="179.298125"/>
      </g>
     </g>
     <g id="text_35">
      <!-- 2020-04 -->
      <g transform="translate(619.836907 215.143563)rotate(-30)scale(0.105 -0.105)">
       <use xlink:href="#DejaVuSans-50"/>
       <use x="63.623047" xlink:href="#DejaVuSans-48"/>
       <use x="127.246094" xlink:href="#DejaVuSans-50"/>
       <use x="190.869141" xlink:href="#DejaVuSans-48"/>
       <use x="254.492188" xlink:href="#DejaVuSans-45"/>
       <use x="290.576172" xlink:href="#DejaVuSans-48"/>
       <use x="354.199219" xlink:href="#DejaVuSans-52"/>
      </g>
     </g>
    </g>
    <g id="xtick_76">
     <g id="line2d_92">
      <g>
       <use style="stroke:#000000;stroke-width:0.8;" x="693.865258" xlink:href="#mc1251b09fe" y="179.298125"/>
      </g>
     </g>
     <g id="text_36">
      <!-- 2020-05 -->
      <g transform="translate(654.779197 215.143563)rotate(-30)scale(0.105 -0.105)">
       <use xlink:href="#DejaVuSans-50"/>
       <use x="63.623047" xlink:href="#DejaVuSans-48"/>
       <use x="127.246094" xlink:href="#DejaVuSans-50"/>
       <use x="190.869141" xlink:href="#DejaVuSans-48"/>
       <use x="254.492188" xlink:href="#DejaVuSans-45"/>
       <use x="290.576172" xlink:href="#DejaVuSans-48"/>
       <use x="354.199219" xlink:href="#DejaVuSans-53"/>
      </g>
     </g>
    </g>
    <g id="xtick_77">
     <g id="line2d_93">
      <g>
       <use style="stroke:#000000;stroke-width:0.8;" x="729.972291" xlink:href="#mc1251b09fe" y="179.298125"/>
      </g>
     </g>
     <g id="text_37">
      <!-- 2020-06 -->
      <g transform="translate(690.886229 215.143563)rotate(-30)scale(0.105 -0.105)">
       <use xlink:href="#DejaVuSans-50"/>
       <use x="63.623047" xlink:href="#DejaVuSans-48"/>
       <use x="127.246094" xlink:href="#DejaVuSans-50"/>
       <use x="190.869141" xlink:href="#DejaVuSans-48"/>
       <use x="254.492188" xlink:href="#DejaVuSans-45"/>
       <use x="290.576172" xlink:href="#DejaVuSans-48"/>
       <use x="354.199219" xlink:href="#DejaVuSans-54"/>
      </g>
     </g>
    </g>
    <g id="xtick_78">
     <g id="line2d_94">
      <g>
       <use style="stroke:#000000;stroke-width:0.8;" x="764.914581" xlink:href="#mc1251b09fe" y="179.298125"/>
      </g>
     </g>
     <g id="text_38">
      <!-- 2020-07 -->
      <g transform="translate(725.828519 215.143563)rotate(-30)scale(0.105 -0.105)">
       <use xlink:href="#DejaVuSans-50"/>
       <use x="63.623047" xlink:href="#DejaVuSans-48"/>
       <use x="127.246094" xlink:href="#DejaVuSans-50"/>
       <use x="190.869141" xlink:href="#DejaVuSans-48"/>
       <use x="254.492188" xlink:href="#DejaVuSans-45"/>
       <use x="290.576172" xlink:href="#DejaVuSans-48"/>
       <use x="354.199219" xlink:href="#DejaVuSans-55"/>
      </g>
     </g>
    </g>
    <g id="xtick_79">
     <g id="line2d_95">
      <g>
       <use style="stroke:#000000;stroke-width:0.8;" x="801.021614" xlink:href="#mc1251b09fe" y="179.298125"/>
      </g>
     </g>
     <g id="text_39">
      <!-- 2020-08 -->
      <g transform="translate(761.935552 215.143563)rotate(-30)scale(0.105 -0.105)">
       <use xlink:href="#DejaVuSans-50"/>
       <use x="63.623047" xlink:href="#DejaVuSans-48"/>
       <use x="127.246094" xlink:href="#DejaVuSans-50"/>
       <use x="190.869141" xlink:href="#DejaVuSans-48"/>
       <use x="254.492188" xlink:href="#DejaVuSans-45"/>
       <use x="290.576172" xlink:href="#DejaVuSans-48"/>
       <use x="354.199219" xlink:href="#DejaVuSans-56"/>
      </g>
     </g>
    </g>
    <g id="xtick_80">
     <g id="line2d_96">
      <g>
       <use style="stroke:#000000;stroke-width:0.8;" x="837.128646" xlink:href="#mc1251b09fe" y="179.298125"/>
      </g>
     </g>
     <g id="text_40">
      <!-- 2020-09 -->
      <g transform="translate(798.042584 215.143563)rotate(-30)scale(0.105 -0.105)">
       <use xlink:href="#DejaVuSans-50"/>
       <use x="63.623047" xlink:href="#DejaVuSans-48"/>
       <use x="127.246094" xlink:href="#DejaVuSans-50"/>
       <use x="190.869141" xlink:href="#DejaVuSans-48"/>
       <use x="254.492188" xlink:href="#DejaVuSans-45"/>
       <use x="290.576172" xlink:href="#DejaVuSans-48"/>
       <use x="354.199219" xlink:href="#DejaVuSans-57"/>
      </g>
     </g>
    </g>
    <g id="xtick_81">
     <g id="line2d_97">
      <g>
       <use style="stroke:#000000;stroke-width:0.8;" x="872.070936" xlink:href="#mc1251b09fe" y="179.298125"/>
      </g>
     </g>
     <g id="text_41">
      <!-- 2020-10 -->
      <g transform="translate(832.984874 215.143563)rotate(-30)scale(0.105 -0.105)">
       <use xlink:href="#DejaVuSans-50"/>
       <use x="63.623047" xlink:href="#DejaVuSans-48"/>
       <use x="127.246094" xlink:href="#DejaVuSans-50"/>
       <use x="190.869141" xlink:href="#DejaVuSans-48"/>
       <use x="254.492188" xlink:href="#DejaVuSans-45"/>
       <use x="290.576172" xlink:href="#DejaVuSans-49"/>
       <use x="354.199219" xlink:href="#DejaVuSans-48"/>
      </g>
     </g>
    </g>
    <g id="xtick_82">
     <g id="line2d_98">
      <g>
       <use style="stroke:#000000;stroke-width:0.8;" x="908.177969" xlink:href="#mc1251b09fe" y="179.298125"/>
      </g>
     </g>
     <g id="text_42">
      <!-- 2020-11 -->
      <g transform="translate(869.091907 215.143563)rotate(-30)scale(0.105 -0.105)">
       <use xlink:href="#DejaVuSans-50"/>
       <use x="63.623047" xlink:href="#DejaVuSans-48"/>
       <use x="127.246094" xlink:href="#DejaVuSans-50"/>
       <use x="190.869141" xlink:href="#DejaVuSans-48"/>
       <use x="254.492188" xlink:href="#DejaVuSans-45"/>
       <use x="290.576172" xlink:href="#DejaVuSans-49"/>
       <use x="354.199219" xlink:href="#DejaVuSans-49"/>
      </g>
     </g>
    </g>
    <g id="xtick_83">
     <g id="line2d_99">
      <g>
       <use style="stroke:#000000;stroke-width:0.6;" x="664.746684" xlink:href="#mfc2b24dfbb" y="179.298125"/>
      </g>
     </g>
    </g>
    <g id="xtick_84">
     <g id="line2d_100">
      <g>
       <use style="stroke:#000000;stroke-width:0.6;" x="672.899885" xlink:href="#mfc2b24dfbb" y="179.298125"/>
      </g>
     </g>
    </g>
    <g id="xtick_85">
     <g id="line2d_101">
      <g>
       <use style="stroke:#000000;stroke-width:0.6;" x="681.053086" xlink:href="#mfc2b24dfbb" y="179.298125"/>
      </g>
     </g>
    </g>
    <g id="xtick_86">
     <g id="line2d_102">
      <g>
       <use style="stroke:#000000;stroke-width:0.6;" x="689.206287" xlink:href="#mfc2b24dfbb" y="179.298125"/>
      </g>
     </g>
    </g>
    <g id="xtick_87">
     <g id="line2d_103">
      <g>
       <use style="stroke:#000000;stroke-width:0.6;" x="697.359487" xlink:href="#mfc2b24dfbb" y="179.298125"/>
      </g>
     </g>
    </g>
    <g id="xtick_88">
     <g id="line2d_104">
      <g>
       <use style="stroke:#000000;stroke-width:0.6;" x="705.512688" xlink:href="#mfc2b24dfbb" y="179.298125"/>
      </g>
     </g>
    </g>
    <g id="xtick_89">
     <g id="line2d_105">
      <g>
       <use style="stroke:#000000;stroke-width:0.6;" x="713.665889" xlink:href="#mfc2b24dfbb" y="179.298125"/>
      </g>
     </g>
    </g>
    <g id="xtick_90">
     <g id="line2d_106">
      <g>
       <use style="stroke:#000000;stroke-width:0.6;" x="721.81909" xlink:href="#mfc2b24dfbb" y="179.298125"/>
      </g>
     </g>
    </g>
    <g id="xtick_91">
     <g id="line2d_107">
      <g>
       <use style="stroke:#000000;stroke-width:0.6;" x="738.125492" xlink:href="#mfc2b24dfbb" y="179.298125"/>
      </g>
     </g>
    </g>
    <g id="xtick_92">
     <g id="line2d_108">
      <g>
       <use style="stroke:#000000;stroke-width:0.6;" x="746.278693" xlink:href="#mfc2b24dfbb" y="179.298125"/>
      </g>
     </g>
    </g>
    <g id="xtick_93">
     <g id="line2d_109">
      <g>
       <use style="stroke:#000000;stroke-width:0.6;" x="754.431894" xlink:href="#mfc2b24dfbb" y="179.298125"/>
      </g>
     </g>
    </g>
    <g id="xtick_94">
     <g id="line2d_110">
      <g>
       <use style="stroke:#000000;stroke-width:0.6;" x="762.585095" xlink:href="#mfc2b24dfbb" y="179.298125"/>
      </g>
     </g>
    </g>
    <g id="xtick_95">
     <g id="line2d_111">
      <g>
       <use style="stroke:#000000;stroke-width:0.6;" x="770.738296" xlink:href="#mfc2b24dfbb" y="179.298125"/>
      </g>
     </g>
    </g>
    <g id="xtick_96">
     <g id="line2d_112">
      <g>
       <use style="stroke:#000000;stroke-width:0.6;" x="778.891497" xlink:href="#mfc2b24dfbb" y="179.298125"/>
      </g>
     </g>
    </g>
    <g id="xtick_97">
     <g id="line2d_113">
      <g>
       <use style="stroke:#000000;stroke-width:0.6;" x="787.044698" xlink:href="#mfc2b24dfbb" y="179.298125"/>
      </g>
     </g>
    </g>
    <g id="xtick_98">
     <g id="line2d_114">
      <g>
       <use style="stroke:#000000;stroke-width:0.6;" x="795.197899" xlink:href="#mfc2b24dfbb" y="179.298125"/>
      </g>
     </g>
    </g>
    <g id="xtick_99">
     <g id="line2d_115">
      <g>
       <use style="stroke:#000000;stroke-width:0.6;" x="803.3511" xlink:href="#mfc2b24dfbb" y="179.298125"/>
      </g>
     </g>
    </g>
    <g id="xtick_100">
     <g id="line2d_116">
      <g>
       <use style="stroke:#000000;stroke-width:0.6;" x="811.504301" xlink:href="#mfc2b24dfbb" y="179.298125"/>
      </g>
     </g>
    </g>
    <g id="xtick_101">
     <g id="line2d_117">
      <g>
       <use style="stroke:#000000;stroke-width:0.6;" x="819.657501" xlink:href="#mfc2b24dfbb" y="179.298125"/>
      </g>
     </g>
    </g>
    <g id="xtick_102">
     <g id="line2d_118">
      <g>
       <use style="stroke:#000000;stroke-width:0.6;" x="827.810702" xlink:href="#mfc2b24dfbb" y="179.298125"/>
      </g>
     </g>
    </g>
    <g id="xtick_103">
     <g id="line2d_119">
      <g>
       <use style="stroke:#000000;stroke-width:0.6;" x="835.963903" xlink:href="#mfc2b24dfbb" y="179.298125"/>
      </g>
     </g>
    </g>
    <g id="xtick_104">
     <g id="line2d_120">
      <g>
       <use style="stroke:#000000;stroke-width:0.6;" x="844.117104" xlink:href="#mfc2b24dfbb" y="179.298125"/>
      </g>
     </g>
    </g>
    <g id="xtick_105">
     <g id="line2d_121">
      <g>
       <use style="stroke:#000000;stroke-width:0.6;" x="852.270305" xlink:href="#mfc2b24dfbb" y="179.298125"/>
      </g>
     </g>
    </g>
    <g id="xtick_106">
     <g id="line2d_122">
      <g>
       <use style="stroke:#000000;stroke-width:0.6;" x="860.423506" xlink:href="#mfc2b24dfbb" y="179.298125"/>
      </g>
     </g>
    </g>
    <g id="xtick_107">
     <g id="line2d_123">
      <g>
       <use style="stroke:#000000;stroke-width:0.6;" x="868.576707" xlink:href="#mfc2b24dfbb" y="179.298125"/>
      </g>
     </g>
    </g>
    <g id="xtick_108">
     <g id="line2d_124">
      <g>
       <use style="stroke:#000000;stroke-width:0.6;" x="876.729908" xlink:href="#mfc2b24dfbb" y="179.298125"/>
      </g>
     </g>
    </g>
    <g id="xtick_109">
     <g id="line2d_125">
      <g>
       <use style="stroke:#000000;stroke-width:0.6;" x="884.883109" xlink:href="#mfc2b24dfbb" y="179.298125"/>
      </g>
     </g>
    </g>
    <g id="xtick_110">
     <g id="line2d_126">
      <g>
       <use style="stroke:#000000;stroke-width:0.6;" x="893.03631" xlink:href="#mfc2b24dfbb" y="179.298125"/>
      </g>
     </g>
    </g>
    <g id="xtick_111">
     <g id="line2d_127">
      <g>
       <use style="stroke:#000000;stroke-width:0.6;" x="901.189511" xlink:href="#mfc2b24dfbb" y="179.298125"/>
      </g>
     </g>
    </g>
   </g>
   <g id="matplotlib.axis_6">
    <g id="ytick_15">
     <g id="line2d_128">
      <g>
       <use style="stroke:#000000;stroke-width:0.8;" x="658.922969" xlink:href="#m841d915838" y="172.16267"/>
      </g>
     </g>
     <g id="text_43">
      <!-- 0 -->
      <g transform="translate(645.242344 176.15185)scale(0.105 -0.105)">
       <use xlink:href="#DejaVuSans-48"/>
      </g>
     </g>
    </g>
    <g id="ytick_16">
     <g id="line2d_129">
      <g>
       <use style="stroke:#000000;stroke-width:0.8;" x="658.922969" xlink:href="#m841d915838" y="145.438122"/>
      </g>
     </g>
     <g id="text_44">
      <!-- 50 -->
      <g transform="translate(638.561719 149.427301)scale(0.105 -0.105)">
       <use xlink:href="#DejaVuSans-53"/>
       <use x="63.623047" xlink:href="#DejaVuSans-48"/>
      </g>
     </g>
    </g>
    <g id="ytick_17">
     <g id="line2d_130">
      <g>
       <use style="stroke:#000000;stroke-width:0.8;" x="658.922969" xlink:href="#m841d915838" y="118.713573"/>
      </g>
     </g>
     <g id="text_45">
      <!-- 100 -->
      <g transform="translate(631.881094 122.702752)scale(0.105 -0.105)">
       <use xlink:href="#DejaVuSans-49"/>
       <use x="63.623047" xlink:href="#DejaVuSans-48"/>
       <use x="127.246094" xlink:href="#DejaVuSans-48"/>
      </g>
     </g>
    </g>
    <g id="ytick_18">
     <g id="line2d_131">
      <g>
       <use style="stroke:#000000;stroke-width:0.8;" x="658.922969" xlink:href="#m841d915838" y="91.989024"/>
      </g>
     </g>
     <g id="text_46">
      <!-- 150 -->
      <g transform="translate(631.881094 95.978204)scale(0.105 -0.105)">
       <use xlink:href="#DejaVuSans-49"/>
       <use x="63.623047" xlink:href="#DejaVuSans-53"/>
       <use x="127.246094" xlink:href="#DejaVuSans-48"/>
      </g>
     </g>
    </g>
    <g id="ytick_19">
     <g id="line2d_132">
      <g>
       <use style="stroke:#000000;stroke-width:0.8;" x="658.922969" xlink:href="#m841d915838" y="65.264475"/>
      </g>
     </g>
     <g id="text_47">
      <!-- 200 -->
      <g transform="translate(631.881094 69.253655)scale(0.105 -0.105)">
       <use xlink:href="#DejaVuSans-50"/>
       <use x="63.623047" xlink:href="#DejaVuSans-48"/>
       <use x="127.246094" xlink:href="#DejaVuSans-48"/>
      </g>
     </g>
    </g>
    <g id="ytick_20">
     <g id="line2d_133">
      <g>
       <use style="stroke:#000000;stroke-width:0.8;" x="658.922969" xlink:href="#m841d915838" y="38.539926"/>
      </g>
     </g>
     <g id="text_48">
      <!-- 250 -->
      <g transform="translate(631.881094 42.529106)scale(0.105 -0.105)">
       <use xlink:href="#DejaVuSans-50"/>
       <use x="63.623047" xlink:href="#DejaVuSans-53"/>
       <use x="127.246094" xlink:href="#DejaVuSans-48"/>
      </g>
     </g>
    </g>
   </g>
   <g id="line2d_134">
    <path clip-path="url(#p7ba59d3d84)" d="M 623.980679 172.16267 
L 628.639651 172.086315 
L 630.969137 172.009959 
L 635.628109 172.009959 
L 636.792852 171.628179 
L 637.957595 171.551824 
L 641.451824 170.635553 
L 642.616567 170.101062 
L 644.946053 169.41386 
L 648.440282 166.512337 
L 649.605025 165.290644 
L 650.769768 163.305391 
L 651.934511 161.625563 
L 653.099254 157.960482 
L 654.263997 155.822518 
L 656.593483 149.790405 
L 657.758226 148.110576 
L 658.922969 145.667189 
L 660.087712 142.918378 
L 662.417198 141.085838 
L 663.581941 142.307532 
L 664.746684 142.078464 
L 665.911427 141.009482 
L 667.07617 140.704059 
L 668.240913 139.864144 
L 669.405656 140.627703 
L 670.570399 140.474991 
L 671.735142 138.795162 
L 672.899885 138.795162 
L 674.064628 138.413383 
L 675.229371 139.02423 
L 676.394114 138.184315 
L 679.888343 138.566095 
L 681.053086 138.337027 
L 682.217829 138.566095 
L 683.382572 138.413383 
L 684.547315 138.871518 
L 686.876801 141.085838 
L 688.041544 142.918378 
L 689.206287 142.689311 
L 690.371029 144.140072 
L 691.535772 144.750919 
L 692.700515 147.423374 
L 693.865258 147.347018 
L 695.030001 146.812527 
L 696.194744 147.11795 
L 697.359487 148.034221 
L 698.52423 147.728797 
L 699.688973 149.561338 
L 700.853716 150.935743 
L 702.018459 151.775657 
L 703.183202 152.081081 
L 704.347945 152.615572 
L 705.512688 153.608198 
L 706.677431 152.844639 
L 707.842174 151.393878 
L 709.006917 148.568712 
L 710.17166 148.416 
L 711.336403 147.805153 
L 712.501146 147.347018 
L 713.665889 148.339644 
L 714.830632 150.095829 
L 715.995375 149.103203 
L 717.160118 150.935743 
L 718.324861 151.088455 
L 719.489604 152.691928 
L 720.654347 152.997351 
L 721.81909 153.073707 
L 722.983833 153.455486 
L 724.148576 155.669806 
L 726.478062 156.051585 
L 728.807548 156.8915 
L 729.972291 156.8915 
L 731.137034 156.586076 
L 732.301777 155.669806 
L 733.46652 155.898874 
L 734.631263 155.669806 
L 735.796006 155.058959 
L 736.960749 154.982603 
L 738.125492 154.142689 
L 739.290235 153.455486 
L 740.454978 152.920995 
L 741.619721 152.844639 
L 742.784464 151.317522 
L 743.949207 150.935743 
L 745.11395 150.706676 
L 746.278693 149.026847 
L 748.608179 147.957865 
L 749.772922 146.583459 
L 750.937665 145.667189 
L 752.102408 144.216428 
L 753.267151 142.002108 
L 754.431894 138.260671 
L 756.76138 134.366523 
L 757.926123 128.028987 
L 759.090866 122.607721 
L 760.255609 114.132222 
L 761.420352 110.314429 
L 762.585095 108.481888 
L 763.749838 105.274942 
L 764.914581 96.341308 
L 766.079324 91.072754 
L 767.244067 89.621992 
L 768.40881 89.774704 
L 769.573553 90.538263 
L 771.903039 71.449299 
L 773.067782 70.914808 
L 775.397268 52.360336 
L 776.562011 48.695255 
L 777.726754 34.645778 
L 778.891497 35.71476 
L 780.05624 35.256624 
L 781.220983 30.064426 
L 782.385726 32.049679 
L 783.550469 32.813237 
L 784.715212 29.45358 
L 785.879955 34.874845 
L 787.044698 37.700012 
L 788.209441 37.5473 
L 789.374184 41.746872 
L 790.538927 46.633647 
L 791.70367 47.015426 
L 792.868413 55.41457 
L 794.033156 56.712619 
L 795.197899 60.301345 
L 796.362642 61.828462 
L 797.527385 63.813714 
L 798.692128 66.867948 
L 799.856871 72.594637 
L 801.021614 72.90006 
L 802.186357 78.321326 
L 803.3511 78.703105 
L 804.515843 86.338691 
L 805.680586 84.735218 
L 808.010072 90.461907 
L 809.174815 93.058006 
L 810.339558 97.715713 
L 811.504301 95.501393 
L 812.669044 93.821564 
L 813.833787 99.777321 
L 814.998529 101.380794 
L 816.163272 100.846303 
L 817.328015 102.220708 
L 818.492758 100.693591 
L 819.657501 106.42028 
L 820.822244 110.085361 
L 821.986987 110.543496 
L 823.15173 111.994258 
L 824.316473 117.186456 
L 825.481216 118.94264 
L 827.810702 124.28755 
L 828.975445 125.356532 
L 830.140188 129.937883 
L 831.304931 131.617712 
L 832.469674 132.839406 
L 833.634417 134.748302 
L 834.79916 134.824658 
L 835.963903 132.075847 
L 837.128646 133.373897 
L 838.293389 134.442879 
L 839.458132 136.199063 
L 840.622875 136.580843 
L 841.787618 136.504487 
L 842.952361 135.89364 
L 844.117104 140.933126 
L 845.281847 141.085838 
L 847.611333 140.85677 
L 848.776076 141.849396 
L 849.940819 142.383887 
L 851.105562 143.98736 
L 852.270305 142.078464 
L 854.599791 144.674563 
L 856.929277 143.529225 
L 858.09402 143.834649 
L 859.258763 143.911005 
L 860.423506 144.979986 
L 861.588249 145.896257 
L 862.752992 145.819901 
L 865.082478 149.866761 
L 866.247221 150.095829 
L 867.411964 151.088455 
L 868.576707 149.408626 
L 869.74145 149.255914 
L 870.906193 147.423374 
L 872.070936 148.416 
L 873.235679 147.805153 
L 874.400422 147.957865 
L 875.565165 147.11795 
L 876.729908 149.103203 
L 877.894651 147.805153 
L 879.059394 149.484982 
L 880.224137 148.950491 
L 881.38888 150.095829 
L 882.553623 147.423374 
L 883.718366 147.270662 
L 886.047852 149.026847 
L 887.212595 149.33227 
L 888.377338 150.24854 
L 889.542081 148.416 
L 890.706824 151.622946 
L 891.871567 152.157437 
L 893.03631 151.317522 
L 894.201053 152.844639 
L 895.365796 151.393878 
L 896.530539 150.401252 
L 897.695282 152.157437 
L 898.860025 152.157437 
L 900.024768 150.24854 
L 901.189511 149.561338 
L 902.354254 147.652441 
L 903.518997 149.255914 
L 904.68374 149.179558 
L 905.848483 150.24854 
L 907.013226 148.416 
L 908.177969 150.401252 
L 910.507455 152.157437 
L 911.672198 150.63032 
L 912.836941 151.393878 
L 914.001684 151.012099 
L 915.166427 151.470234 
L 916.377969 150.563168 
L 916.377969 150.563168 
" style="fill:none;stroke:#1f77b4;stroke-linecap:square;stroke-width:1.5;"/>
   </g>
   <g id="patch_13">
    <path d="M 658.922969 179.298125 
L 658.922969 22.318125 
" style="fill:none;stroke:#000000;stroke-linecap:square;stroke-linejoin:miter;stroke-width:0.8;"/>
   </g>
   <g id="patch_14">
    <path d="M 908.177969 179.298125 
L 908.177969 22.318125 
" style="fill:none;stroke:#000000;stroke-linecap:square;stroke-linejoin:miter;stroke-width:0.8;"/>
   </g>
   <g id="patch_15">
    <path d="M 658.922969 179.298125 
L 908.177969 179.298125 
" style="fill:none;stroke:#000000;stroke-linecap:square;stroke-linejoin:miter;stroke-width:0.8;"/>
   </g>
   <g id="patch_16">
    <path d="M 658.922969 22.318125 
L 908.177969 22.318125 
" style="fill:none;stroke:#000000;stroke-linecap:square;stroke-linejoin:miter;stroke-width:0.8;"/>
   </g>
   <g id="text_49">
    <!-- COVID-19 Deaths -->
    <g transform="translate(731.272656 16.318125)scale(0.12 -0.12)">
     <defs>
      <path d="M 54.890625 33.015625 
L 54.890625 0 
L 45.90625 0 
L 45.90625 32.71875 
Q 45.90625 40.484375 42.875 44.328125 
Q 39.84375 48.1875 33.796875 48.1875 
Q 26.515625 48.1875 22.3125 43.546875 
Q 18.109375 38.921875 18.109375 30.90625 
L 18.109375 0 
L 9.078125 0 
L 9.078125 75.984375 
L 18.109375 75.984375 
L 18.109375 46.1875 
Q 21.34375 51.125 25.703125 53.5625 
Q 30.078125 56 35.796875 56 
Q 45.21875 56 50.046875 50.171875 
Q 54.890625 44.34375 54.890625 33.015625 
z
" id="DejaVuSans-104"/>
     </defs>
     <use xlink:href="#DejaVuSans-67"/>
     <use x="69.824219" xlink:href="#DejaVuSans-79"/>
     <use x="146.785156" xlink:href="#DejaVuSans-86"/>
     <use x="215.193359" xlink:href="#DejaVuSans-73"/>
     <use x="244.685547" xlink:href="#DejaVuSans-68"/>
     <use x="321.6875" xlink:href="#DejaVuSans-45"/>
     <use x="357.771484" xlink:href="#DejaVuSans-49"/>
     <use x="421.394531" xlink:href="#DejaVuSans-57"/>
     <use x="485.017578" xlink:href="#DejaVuSans-32"/>
     <use x="516.804688" xlink:href="#DejaVuSans-68"/>
     <use x="593.806641" xlink:href="#DejaVuSans-101"/>
     <use x="655.330078" xlink:href="#DejaVuSans-97"/>
     <use x="716.609375" xlink:href="#DejaVuSans-116"/>
     <use x="755.818359" xlink:href="#DejaVuSans-104"/>
     <use x="819.197266" xlink:href="#DejaVuSans-115"/>
    </g>
   </g>
  </g>
 </g>
 <defs>
  <clipPath id="p83a9453c0f">
   <rect height="156.98" width="249.255" x="62.732969" y="22.318125"/>
  </clipPath>
  <clipPath id="p6c0a564a68">
   <rect height="156.98" width="249.255" x="360.827969" y="22.318125"/>
  </clipPath>
  <clipPath id="p7ba59d3d84">
   <rect height="156.98" width="249.255" x="658.922969" y="22.318125"/>
  </clipPath>
 </defs>
</svg>
