<?xml version="1.0" encoding="utf-8" standalone="no"?>
<!DOCTYPE svg PUBLIC "-//W3C//DTD SVG 1.1//EN"
  "http://www.w3.org/Graphics/SVG/1.1/DTD/svg11.dtd">
<!-- Created with matplotlib (https://matplotlib.org/) -->
<svg height="239.364523pt" version="1.1" viewBox="0 0 915.252969 239.364523" width="915.252969pt" xmlns="http://www.w3.org/2000/svg" xmlns:xlink="http://www.w3.org/1999/xlink">
 <metadata>
  <rdf:RDF xmlns:cc="http://creativecommons.org/ns#" xmlns:dc="http://purl.org/dc/elements/1.1/" xmlns:rdf="http://www.w3.org/1999/02/22-rdf-syntax-ns#">
   <cc:Work>
    <dc:type rdf:resource="http://purl.org/dc/dcmitype/StillImage"/>
    <dc:date>2020-12-11T22:07:12.269673</dc:date>
    <dc:format>image/svg+xml</dc:format>
    <dc:creator>
     <cc:Agent>
      <dc:title>Matplotlib v3.3.1, https://matplotlib.org/</dc:title>
     </cc:Agent>
    </dc:creator>
   </cc:Work>
  </rdf:RDF>
 </metadata>
 <defs>
  <style type="text/css">*{stroke-linecap:butt;stroke-linejoin:round;}</style>
 </defs>
 <g id="figure_1">
  <g id="patch_1">
   <path d="M 0 239.364523 
L 915.252969 239.364523 
L 915.252969 0 
L 0 0 
z
" style="fill:none;"/>
  </g>
  <g id="axes_1">
   <g id="patch_2">
    <path d="M 62.732969 179.298125 
L 307.446302 179.298125 
L 307.446302 22.318125 
L 62.732969 22.318125 
z
" style="fill:#ffffff;"/>
   </g>
   <g id="matplotlib.axis_1">
    <g id="xtick_1">
     <g id="line2d_1">
      <defs>
       <path d="M 0 0 
L 0 3.5 
" id="m40de754a99" style="stroke:#000000;stroke-width:0.8;"/>
      </defs>
      <g>
       <use style="stroke:#000000;stroke-width:0.8;" x="62.732969" xlink:href="#m40de754a99" y="179.298125"/>
      </g>
     </g>
     <g id="text_1">
      <!-- 2020-04 -->
      <g transform="translate(23.646907 215.143563)rotate(-30)scale(0.105 -0.105)">
       <defs>
        <path d="M 19.1875 8.296875 
L 53.609375 8.296875 
L 53.609375 0 
L 7.328125 0 
L 7.328125 8.296875 
Q 12.9375 14.109375 22.625 23.890625 
Q 32.328125 33.6875 34.8125 36.53125 
Q 39.546875 41.84375 41.421875 45.53125 
Q 43.3125 49.21875 43.3125 52.78125 
Q 43.3125 58.59375 39.234375 62.25 
Q 35.15625 65.921875 28.609375 65.921875 
Q 23.96875 65.921875 18.8125 64.3125 
Q 13.671875 62.703125 7.8125 59.421875 
L 7.8125 69.390625 
Q 13.765625 71.78125 18.9375 73 
Q 24.125 74.21875 28.421875 74.21875 
Q 39.75 74.21875 46.484375 68.546875 
Q 53.21875 62.890625 53.21875 53.421875 
Q 53.21875 48.921875 51.53125 44.890625 
Q 49.859375 40.875 45.40625 35.40625 
Q 44.1875 33.984375 37.640625 27.21875 
Q 31.109375 20.453125 19.1875 8.296875 
z
" id="DejaVuSans-50"/>
        <path d="M 31.78125 66.40625 
Q 24.171875 66.40625 20.328125 58.90625 
Q 16.5 51.421875 16.5 36.375 
Q 16.5 21.390625 20.328125 13.890625 
Q 24.171875 6.390625 31.78125 6.390625 
Q 39.453125 6.390625 43.28125 13.890625 
Q 47.125 21.390625 47.125 36.375 
Q 47.125 51.421875 43.28125 58.90625 
Q 39.453125 66.40625 31.78125 66.40625 
z
M 31.78125 74.21875 
Q 44.046875 74.21875 50.515625 64.515625 
Q 56.984375 54.828125 56.984375 36.375 
Q 56.984375 17.96875 50.515625 8.265625 
Q 44.046875 -1.421875 31.78125 -1.421875 
Q 19.53125 -1.421875 13.0625 8.265625 
Q 6.59375 17.96875 6.59375 36.375 
Q 6.59375 54.828125 13.0625 64.515625 
Q 19.53125 74.21875 31.78125 74.21875 
z
" id="DejaVuSans-48"/>
        <path d="M 4.890625 31.390625 
L 31.203125 31.390625 
L 31.203125 23.390625 
L 4.890625 23.390625 
z
" id="DejaVuSans-45"/>
        <path d="M 37.796875 64.3125 
L 12.890625 25.390625 
L 37.796875 25.390625 
z
M 35.203125 72.90625 
L 47.609375 72.90625 
L 47.609375 25.390625 
L 58.015625 25.390625 
L 58.015625 17.1875 
L 47.609375 17.1875 
L 47.609375 0 
L 37.796875 0 
L 37.796875 17.1875 
L 4.890625 17.1875 
L 4.890625 26.703125 
z
" id="DejaVuSans-52"/>
       </defs>
       <use xlink:href="#DejaVuSans-50"/>
       <use x="63.623047" xlink:href="#DejaVuSans-48"/>
       <use x="127.246094" xlink:href="#DejaVuSans-50"/>
       <use x="190.869141" xlink:href="#DejaVuSans-48"/>
       <use x="254.492188" xlink:href="#DejaVuSans-45"/>
       <use x="290.576172" xlink:href="#DejaVuSans-48"/>
       <use x="354.199219" xlink:href="#DejaVuSans-52"/>
      </g>
     </g>
    </g>
    <g id="xtick_2">
     <g id="line2d_2">
      <g>
       <use style="stroke:#000000;stroke-width:0.8;" x="97.038576" xlink:href="#m40de754a99" y="179.298125"/>
      </g>
     </g>
     <g id="text_2">
      <!-- 2020-05 -->
      <g transform="translate(57.952514 215.143563)rotate(-30)scale(0.105 -0.105)">
       <defs>
        <path d="M 10.796875 72.90625 
L 49.515625 72.90625 
L 49.515625 64.59375 
L 19.828125 64.59375 
L 19.828125 46.734375 
Q 21.96875 47.46875 24.109375 47.828125 
Q 26.265625 48.1875 28.421875 48.1875 
Q 40.625 48.1875 47.75 41.5 
Q 54.890625 34.8125 54.890625 23.390625 
Q 54.890625 11.625 47.5625 5.09375 
Q 40.234375 -1.421875 26.90625 -1.421875 
Q 22.3125 -1.421875 17.546875 -0.640625 
Q 12.796875 0.140625 7.71875 1.703125 
L 7.71875 11.625 
Q 12.109375 9.234375 16.796875 8.0625 
Q 21.484375 6.890625 26.703125 6.890625 
Q 35.15625 6.890625 40.078125 11.328125 
Q 45.015625 15.765625 45.015625 23.390625 
Q 45.015625 31 40.078125 35.4375 
Q 35.15625 39.890625 26.703125 39.890625 
Q 22.75 39.890625 18.8125 39.015625 
Q 14.890625 38.140625 10.796875 36.28125 
z
" id="DejaVuSans-53"/>
       </defs>
       <use xlink:href="#DejaVuSans-50"/>
       <use x="63.623047" xlink:href="#DejaVuSans-48"/>
       <use x="127.246094" xlink:href="#DejaVuSans-50"/>
       <use x="190.869141" xlink:href="#DejaVuSans-48"/>
       <use x="254.492188" xlink:href="#DejaVuSans-45"/>
       <use x="290.576172" xlink:href="#DejaVuSans-48"/>
       <use x="354.199219" xlink:href="#DejaVuSans-53"/>
      </g>
     </g>
    </g>
    <g id="xtick_3">
     <g id="line2d_3">
      <g>
       <use style="stroke:#000000;stroke-width:0.8;" x="132.487704" xlink:href="#m40de754a99" y="179.298125"/>
      </g>
     </g>
     <g id="text_3">
      <!-- 2020-06 -->
      <g transform="translate(93.401642 215.143563)rotate(-30)scale(0.105 -0.105)">
       <defs>
        <path d="M 33.015625 40.375 
Q 26.375 40.375 22.484375 35.828125 
Q 18.609375 31.296875 18.609375 23.390625 
Q 18.609375 15.53125 22.484375 10.953125 
Q 26.375 6.390625 33.015625 6.390625 
Q 39.65625 6.390625 43.53125 10.953125 
Q 47.40625 15.53125 47.40625 23.390625 
Q 47.40625 31.296875 43.53125 35.828125 
Q 39.65625 40.375 33.015625 40.375 
z
M 52.59375 71.296875 
L 52.59375 62.3125 
Q 48.875 64.0625 45.09375 64.984375 
Q 41.3125 65.921875 37.59375 65.921875 
Q 27.828125 65.921875 22.671875 59.328125 
Q 17.53125 52.734375 16.796875 39.40625 
Q 19.671875 43.65625 24.015625 45.921875 
Q 28.375 48.1875 33.59375 48.1875 
Q 44.578125 48.1875 50.953125 41.515625 
Q 57.328125 34.859375 57.328125 23.390625 
Q 57.328125 12.15625 50.6875 5.359375 
Q 44.046875 -1.421875 33.015625 -1.421875 
Q 20.359375 -1.421875 13.671875 8.265625 
Q 6.984375 17.96875 6.984375 36.375 
Q 6.984375 53.65625 15.1875 63.9375 
Q 23.390625 74.21875 37.203125 74.21875 
Q 40.921875 74.21875 44.703125 73.484375 
Q 48.484375 72.75 52.59375 71.296875 
z
" id="DejaVuSans-54"/>
       </defs>
       <use xlink:href="#DejaVuSans-50"/>
       <use x="63.623047" xlink:href="#DejaVuSans-48"/>
       <use x="127.246094" xlink:href="#DejaVuSans-50"/>
       <use x="190.869141" xlink:href="#DejaVuSans-48"/>
       <use x="254.492188" xlink:href="#DejaVuSans-45"/>
       <use x="290.576172" xlink:href="#DejaVuSans-48"/>
       <use x="354.199219" xlink:href="#DejaVuSans-54"/>
      </g>
     </g>
    </g>
    <g id="xtick_4">
     <g id="line2d_4">
      <g>
       <use style="stroke:#000000;stroke-width:0.8;" x="166.793311" xlink:href="#m40de754a99" y="179.298125"/>
      </g>
     </g>
     <g id="text_4">
      <!-- 2020-07 -->
      <g transform="translate(127.70725 215.143563)rotate(-30)scale(0.105 -0.105)">
       <defs>
        <path d="M 8.203125 72.90625 
L 55.078125 72.90625 
L 55.078125 68.703125 
L 28.609375 0 
L 18.3125 0 
L 43.21875 64.59375 
L 8.203125 64.59375 
z
" id="DejaVuSans-55"/>
       </defs>
       <use xlink:href="#DejaVuSans-50"/>
       <use x="63.623047" xlink:href="#DejaVuSans-48"/>
       <use x="127.246094" xlink:href="#DejaVuSans-50"/>
       <use x="190.869141" xlink:href="#DejaVuSans-48"/>
       <use x="254.492188" xlink:href="#DejaVuSans-45"/>
       <use x="290.576172" xlink:href="#DejaVuSans-48"/>
       <use x="354.199219" xlink:href="#DejaVuSans-55"/>
      </g>
     </g>
    </g>
    <g id="xtick_5">
     <g id="line2d_5">
      <g>
       <use style="stroke:#000000;stroke-width:0.8;" x="202.242439" xlink:href="#m40de754a99" y="179.298125"/>
      </g>
     </g>
     <g id="text_5">
      <!-- 2020-08 -->
      <g transform="translate(163.156377 215.143563)rotate(-30)scale(0.105 -0.105)">
       <defs>
        <path d="M 31.78125 34.625 
Q 24.75 34.625 20.71875 30.859375 
Q 16.703125 27.09375 16.703125 20.515625 
Q 16.703125 13.921875 20.71875 10.15625 
Q 24.75 6.390625 31.78125 6.390625 
Q 38.8125 6.390625 42.859375 10.171875 
Q 46.921875 13.96875 46.921875 20.515625 
Q 46.921875 27.09375 42.890625 30.859375 
Q 38.875 34.625 31.78125 34.625 
z
M 21.921875 38.8125 
Q 15.578125 40.375 12.03125 44.71875 
Q 8.5 49.078125 8.5 55.328125 
Q 8.5 64.0625 14.71875 69.140625 
Q 20.953125 74.21875 31.78125 74.21875 
Q 42.671875 74.21875 48.875 69.140625 
Q 55.078125 64.0625 55.078125 55.328125 
Q 55.078125 49.078125 51.53125 44.71875 
Q 48 40.375 41.703125 38.8125 
Q 48.828125 37.15625 52.796875 32.3125 
Q 56.78125 27.484375 56.78125 20.515625 
Q 56.78125 9.90625 50.3125 4.234375 
Q 43.84375 -1.421875 31.78125 -1.421875 
Q 19.734375 -1.421875 13.25 4.234375 
Q 6.78125 9.90625 6.78125 20.515625 
Q 6.78125 27.484375 10.78125 32.3125 
Q 14.796875 37.15625 21.921875 38.8125 
z
M 18.3125 54.390625 
Q 18.3125 48.734375 21.84375 45.5625 
Q 25.390625 42.390625 31.78125 42.390625 
Q 38.140625 42.390625 41.71875 45.5625 
Q 45.3125 48.734375 45.3125 54.390625 
Q 45.3125 60.0625 41.71875 63.234375 
Q 38.140625 66.40625 31.78125 66.40625 
Q 25.390625 66.40625 21.84375 63.234375 
Q 18.3125 60.0625 18.3125 54.390625 
z
" id="DejaVuSans-56"/>
       </defs>
       <use xlink:href="#DejaVuSans-50"/>
       <use x="63.623047" xlink:href="#DejaVuSans-48"/>
       <use x="127.246094" xlink:href="#DejaVuSans-50"/>
       <use x="190.869141" xlink:href="#DejaVuSans-48"/>
       <use x="254.492188" xlink:href="#DejaVuSans-45"/>
       <use x="290.576172" xlink:href="#DejaVuSans-48"/>
       <use x="354.199219" xlink:href="#DejaVuSans-56"/>
      </g>
     </g>
    </g>
    <g id="xtick_6">
     <g id="line2d_6">
      <g>
       <use style="stroke:#000000;stroke-width:0.8;" x="237.691567" xlink:href="#m40de754a99" y="179.298125"/>
      </g>
     </g>
     <g id="text_6">
      <!-- 2020-09 -->
      <g transform="translate(198.605505 215.143563)rotate(-30)scale(0.105 -0.105)">
       <defs>
        <path d="M 10.984375 1.515625 
L 10.984375 10.5 
Q 14.703125 8.734375 18.5 7.8125 
Q 22.3125 6.890625 25.984375 6.890625 
Q 35.75 6.890625 40.890625 13.453125 
Q 46.046875 20.015625 46.78125 33.40625 
Q 43.953125 29.203125 39.59375 26.953125 
Q 35.25 24.703125 29.984375 24.703125 
Q 19.046875 24.703125 12.671875 31.3125 
Q 6.296875 37.9375 6.296875 49.421875 
Q 6.296875 60.640625 12.9375 67.421875 
Q 19.578125 74.21875 30.609375 74.21875 
Q 43.265625 74.21875 49.921875 64.515625 
Q 56.59375 54.828125 56.59375 36.375 
Q 56.59375 19.140625 48.40625 8.859375 
Q 40.234375 -1.421875 26.421875 -1.421875 
Q 22.703125 -1.421875 18.890625 -0.6875 
Q 15.09375 0.046875 10.984375 1.515625 
z
M 30.609375 32.421875 
Q 37.25 32.421875 41.125 36.953125 
Q 45.015625 41.5 45.015625 49.421875 
Q 45.015625 57.28125 41.125 61.84375 
Q 37.25 66.40625 30.609375 66.40625 
Q 23.96875 66.40625 20.09375 61.84375 
Q 16.21875 57.28125 16.21875 49.421875 
Q 16.21875 41.5 20.09375 36.953125 
Q 23.96875 32.421875 30.609375 32.421875 
z
" id="DejaVuSans-57"/>
       </defs>
       <use xlink:href="#DejaVuSans-50"/>
       <use x="63.623047" xlink:href="#DejaVuSans-48"/>
       <use x="127.246094" xlink:href="#DejaVuSans-50"/>
       <use x="190.869141" xlink:href="#DejaVuSans-48"/>
       <use x="254.492188" xlink:href="#DejaVuSans-45"/>
       <use x="290.576172" xlink:href="#DejaVuSans-48"/>
       <use x="354.199219" xlink:href="#DejaVuSans-57"/>
      </g>
     </g>
    </g>
    <g id="xtick_7">
     <g id="line2d_7">
      <g>
       <use style="stroke:#000000;stroke-width:0.8;" x="271.997174" xlink:href="#m40de754a99" y="179.298125"/>
      </g>
     </g>
     <g id="text_7">
      <!-- 2020-10 -->
      <g transform="translate(232.911113 215.143563)rotate(-30)scale(0.105 -0.105)">
       <defs>
        <path d="M 12.40625 8.296875 
L 28.515625 8.296875 
L 28.515625 63.921875 
L 10.984375 60.40625 
L 10.984375 69.390625 
L 28.421875 72.90625 
L 38.28125 72.90625 
L 38.28125 8.296875 
L 54.390625 8.296875 
L 54.390625 0 
L 12.40625 0 
z
" id="DejaVuSans-49"/>
       </defs>
       <use xlink:href="#DejaVuSans-50"/>
       <use x="63.623047" xlink:href="#DejaVuSans-48"/>
       <use x="127.246094" xlink:href="#DejaVuSans-50"/>
       <use x="190.869141" xlink:href="#DejaVuSans-48"/>
       <use x="254.492188" xlink:href="#DejaVuSans-45"/>
       <use x="290.576172" xlink:href="#DejaVuSans-49"/>
       <use x="354.199219" xlink:href="#DejaVuSans-48"/>
      </g>
     </g>
    </g>
    <g id="xtick_8">
     <g id="line2d_8">
      <g>
       <use style="stroke:#000000;stroke-width:0.8;" x="307.446302" xlink:href="#m40de754a99" y="179.298125"/>
      </g>
     </g>
     <g id="text_8">
      <!-- 2020-11 -->
      <g transform="translate(268.36024 215.143563)rotate(-30)scale(0.105 -0.105)">
       <use xlink:href="#DejaVuSans-50"/>
       <use x="63.623047" xlink:href="#DejaVuSans-48"/>
       <use x="127.246094" xlink:href="#DejaVuSans-50"/>
       <use x="190.869141" xlink:href="#DejaVuSans-48"/>
       <use x="254.492188" xlink:href="#DejaVuSans-45"/>
       <use x="290.576172" xlink:href="#DejaVuSans-49"/>
       <use x="354.199219" xlink:href="#DejaVuSans-49"/>
      </g>
     </g>
    </g>
    <g id="xtick_9">
     <g id="line2d_9">
      <defs>
       <path d="M 0 0 
L 0 2 
" id="mbb6cfdbc26" style="stroke:#000000;stroke-width:0.6;"/>
      </defs>
      <g>
       <use style="stroke:#000000;stroke-width:0.6;" x="68.45057" xlink:href="#mbb6cfdbc26" y="179.298125"/>
      </g>
     </g>
    </g>
    <g id="xtick_10">
     <g id="line2d_10">
      <g>
       <use style="stroke:#000000;stroke-width:0.6;" x="76.455212" xlink:href="#mbb6cfdbc26" y="179.298125"/>
      </g>
     </g>
    </g>
    <g id="xtick_11">
     <g id="line2d_11">
      <g>
       <use style="stroke:#000000;stroke-width:0.6;" x="84.459853" xlink:href="#mbb6cfdbc26" y="179.298125"/>
      </g>
     </g>
    </g>
    <g id="xtick_12">
     <g id="line2d_12">
      <g>
       <use style="stroke:#000000;stroke-width:0.6;" x="92.464495" xlink:href="#mbb6cfdbc26" y="179.298125"/>
      </g>
     </g>
    </g>
    <g id="xtick_13">
     <g id="line2d_13">
      <g>
       <use style="stroke:#000000;stroke-width:0.6;" x="100.469137" xlink:href="#mbb6cfdbc26" y="179.298125"/>
      </g>
     </g>
    </g>
    <g id="xtick_14">
     <g id="line2d_14">
      <g>
       <use style="stroke:#000000;stroke-width:0.6;" x="108.473779" xlink:href="#mbb6cfdbc26" y="179.298125"/>
      </g>
     </g>
    </g>
    <g id="xtick_15">
     <g id="line2d_15">
      <g>
       <use style="stroke:#000000;stroke-width:0.6;" x="116.47842" xlink:href="#mbb6cfdbc26" y="179.298125"/>
      </g>
     </g>
    </g>
    <g id="xtick_16">
     <g id="line2d_16">
      <g>
       <use style="stroke:#000000;stroke-width:0.6;" x="124.483062" xlink:href="#mbb6cfdbc26" y="179.298125"/>
      </g>
     </g>
    </g>
    <g id="xtick_17">
     <g id="line2d_17">
      <g>
       <use style="stroke:#000000;stroke-width:0.6;" x="140.492346" xlink:href="#mbb6cfdbc26" y="179.298125"/>
      </g>
     </g>
    </g>
    <g id="xtick_18">
     <g id="line2d_18">
      <g>
       <use style="stroke:#000000;stroke-width:0.6;" x="148.496987" xlink:href="#mbb6cfdbc26" y="179.298125"/>
      </g>
     </g>
    </g>
    <g id="xtick_19">
     <g id="line2d_19">
      <g>
       <use style="stroke:#000000;stroke-width:0.6;" x="156.501629" xlink:href="#mbb6cfdbc26" y="179.298125"/>
      </g>
     </g>
    </g>
    <g id="xtick_20">
     <g id="line2d_20">
      <g>
       <use style="stroke:#000000;stroke-width:0.6;" x="164.506271" xlink:href="#mbb6cfdbc26" y="179.298125"/>
      </g>
     </g>
    </g>
    <g id="xtick_21">
     <g id="line2d_21">
      <g>
       <use style="stroke:#000000;stroke-width:0.6;" x="172.510913" xlink:href="#mbb6cfdbc26" y="179.298125"/>
      </g>
     </g>
    </g>
    <g id="xtick_22">
     <g id="line2d_22">
      <g>
       <use style="stroke:#000000;stroke-width:0.6;" x="180.515554" xlink:href="#mbb6cfdbc26" y="179.298125"/>
      </g>
     </g>
    </g>
    <g id="xtick_23">
     <g id="line2d_23">
      <g>
       <use style="stroke:#000000;stroke-width:0.6;" x="188.520196" xlink:href="#mbb6cfdbc26" y="179.298125"/>
      </g>
     </g>
    </g>
    <g id="xtick_24">
     <g id="line2d_24">
      <g>
       <use style="stroke:#000000;stroke-width:0.6;" x="196.524838" xlink:href="#mbb6cfdbc26" y="179.298125"/>
      </g>
     </g>
    </g>
    <g id="xtick_25">
     <g id="line2d_25">
      <g>
       <use style="stroke:#000000;stroke-width:0.6;" x="204.52948" xlink:href="#mbb6cfdbc26" y="179.298125"/>
      </g>
     </g>
    </g>
    <g id="xtick_26">
     <g id="line2d_26">
      <g>
       <use style="stroke:#000000;stroke-width:0.6;" x="212.534121" xlink:href="#mbb6cfdbc26" y="179.298125"/>
      </g>
     </g>
    </g>
    <g id="xtick_27">
     <g id="line2d_27">
      <g>
       <use style="stroke:#000000;stroke-width:0.6;" x="220.538763" xlink:href="#mbb6cfdbc26" y="179.298125"/>
      </g>
     </g>
    </g>
    <g id="xtick_28">
     <g id="line2d_28">
      <g>
       <use style="stroke:#000000;stroke-width:0.6;" x="228.543405" xlink:href="#mbb6cfdbc26" y="179.298125"/>
      </g>
     </g>
    </g>
    <g id="xtick_29">
     <g id="line2d_29">
      <g>
       <use style="stroke:#000000;stroke-width:0.6;" x="236.548047" xlink:href="#mbb6cfdbc26" y="179.298125"/>
      </g>
     </g>
    </g>
    <g id="xtick_30">
     <g id="line2d_30">
      <g>
       <use style="stroke:#000000;stroke-width:0.6;" x="244.552688" xlink:href="#mbb6cfdbc26" y="179.298125"/>
      </g>
     </g>
    </g>
    <g id="xtick_31">
     <g id="line2d_31">
      <g>
       <use style="stroke:#000000;stroke-width:0.6;" x="252.55733" xlink:href="#mbb6cfdbc26" y="179.298125"/>
      </g>
     </g>
    </g>
    <g id="xtick_32">
     <g id="line2d_32">
      <g>
       <use style="stroke:#000000;stroke-width:0.6;" x="260.561972" xlink:href="#mbb6cfdbc26" y="179.298125"/>
      </g>
     </g>
    </g>
    <g id="xtick_33">
     <g id="line2d_33">
      <g>
       <use style="stroke:#000000;stroke-width:0.6;" x="268.566614" xlink:href="#mbb6cfdbc26" y="179.298125"/>
      </g>
     </g>
    </g>
    <g id="xtick_34">
     <g id="line2d_34">
      <g>
       <use style="stroke:#000000;stroke-width:0.6;" x="276.571255" xlink:href="#mbb6cfdbc26" y="179.298125"/>
      </g>
     </g>
    </g>
    <g id="xtick_35">
     <g id="line2d_35">
      <g>
       <use style="stroke:#000000;stroke-width:0.6;" x="284.575897" xlink:href="#mbb6cfdbc26" y="179.298125"/>
      </g>
     </g>
    </g>
    <g id="xtick_36">
     <g id="line2d_36">
      <g>
       <use style="stroke:#000000;stroke-width:0.6;" x="292.580539" xlink:href="#mbb6cfdbc26" y="179.298125"/>
      </g>
     </g>
    </g>
    <g id="xtick_37">
     <g id="line2d_37">
      <g>
       <use style="stroke:#000000;stroke-width:0.6;" x="300.585181" xlink:href="#mbb6cfdbc26" y="179.298125"/>
      </g>
     </g>
    </g>
   </g>
   <g id="matplotlib.axis_2">
    <g id="ytick_1">
     <g id="line2d_38">
      <defs>
       <path d="M 0 0 
L -3.5 0 
" id="mf021bf3d3a" style="stroke:#000000;stroke-width:0.8;"/>
      </defs>
      <g>
       <use style="stroke:#000000;stroke-width:0.8;" x="62.732969" xlink:href="#mf021bf3d3a" y="172.163371"/>
      </g>
     </g>
     <g id="text_9">
      <!-- 0 -->
      <g transform="translate(49.052344 176.152551)scale(0.105 -0.105)">
       <use xlink:href="#DejaVuSans-48"/>
      </g>
     </g>
    </g>
    <g id="ytick_2">
     <g id="line2d_39">
      <g>
       <use style="stroke:#000000;stroke-width:0.8;" x="62.732969" xlink:href="#mf021bf3d3a" y="139.479957"/>
      </g>
     </g>
     <g id="text_10">
      <!-- 20000 -->
      <g transform="translate(22.329844 143.469137)scale(0.105 -0.105)">
       <use xlink:href="#DejaVuSans-50"/>
       <use x="63.623047" xlink:href="#DejaVuSans-48"/>
       <use x="127.246094" xlink:href="#DejaVuSans-48"/>
       <use x="190.869141" xlink:href="#DejaVuSans-48"/>
       <use x="254.492188" xlink:href="#DejaVuSans-48"/>
      </g>
     </g>
    </g>
    <g id="ytick_3">
     <g id="line2d_40">
      <g>
       <use style="stroke:#000000;stroke-width:0.8;" x="62.732969" xlink:href="#mf021bf3d3a" y="106.796543"/>
      </g>
     </g>
     <g id="text_11">
      <!-- 40000 -->
      <g transform="translate(22.329844 110.785723)scale(0.105 -0.105)">
       <use xlink:href="#DejaVuSans-52"/>
       <use x="63.623047" xlink:href="#DejaVuSans-48"/>
       <use x="127.246094" xlink:href="#DejaVuSans-48"/>
       <use x="190.869141" xlink:href="#DejaVuSans-48"/>
       <use x="254.492188" xlink:href="#DejaVuSans-48"/>
      </g>
     </g>
    </g>
    <g id="ytick_4">
     <g id="line2d_41">
      <g>
       <use style="stroke:#000000;stroke-width:0.8;" x="62.732969" xlink:href="#mf021bf3d3a" y="74.11313"/>
      </g>
     </g>
     <g id="text_12">
      <!-- 60000 -->
      <g transform="translate(22.329844 78.102309)scale(0.105 -0.105)">
       <use xlink:href="#DejaVuSans-54"/>
       <use x="63.623047" xlink:href="#DejaVuSans-48"/>
       <use x="127.246094" xlink:href="#DejaVuSans-48"/>
       <use x="190.869141" xlink:href="#DejaVuSans-48"/>
       <use x="254.492188" xlink:href="#DejaVuSans-48"/>
      </g>
     </g>
    </g>
    <g id="ytick_5">
     <g id="line2d_42">
      <g>
       <use style="stroke:#000000;stroke-width:0.8;" x="62.732969" xlink:href="#mf021bf3d3a" y="41.429716"/>
      </g>
     </g>
     <g id="text_13">
      <!-- 80000 -->
      <g transform="translate(22.329844 45.418896)scale(0.105 -0.105)">
       <use xlink:href="#DejaVuSans-56"/>
       <use x="63.623047" xlink:href="#DejaVuSans-48"/>
       <use x="127.246094" xlink:href="#DejaVuSans-48"/>
       <use x="190.869141" xlink:href="#DejaVuSans-48"/>
       <use x="254.492188" xlink:href="#DejaVuSans-48"/>
      </g>
     </g>
    </g>
    <g id="text_14">
     <!-- Count -->
     <g transform="translate(15.938203 117.883828)rotate(-90)scale(0.115 -0.115)">
      <defs>
       <path d="M 64.40625 67.28125 
L 64.40625 56.890625 
Q 59.421875 61.53125 53.78125 63.8125 
Q 48.140625 66.109375 41.796875 66.109375 
Q 29.296875 66.109375 22.65625 58.46875 
Q 16.015625 50.828125 16.015625 36.375 
Q 16.015625 21.96875 22.65625 14.328125 
Q 29.296875 6.6875 41.796875 6.6875 
Q 48.140625 6.6875 53.78125 8.984375 
Q 59.421875 11.28125 64.40625 15.921875 
L 64.40625 5.609375 
Q 59.234375 2.09375 53.4375 0.328125 
Q 47.65625 -1.421875 41.21875 -1.421875 
Q 24.65625 -1.421875 15.125 8.703125 
Q 5.609375 18.84375 5.609375 36.375 
Q 5.609375 53.953125 15.125 64.078125 
Q 24.65625 74.21875 41.21875 74.21875 
Q 47.75 74.21875 53.53125 72.484375 
Q 59.328125 70.75 64.40625 67.28125 
z
" id="DejaVuSans-67"/>
       <path d="M 30.609375 48.390625 
Q 23.390625 48.390625 19.1875 42.75 
Q 14.984375 37.109375 14.984375 27.296875 
Q 14.984375 17.484375 19.15625 11.84375 
Q 23.34375 6.203125 30.609375 6.203125 
Q 37.796875 6.203125 41.984375 11.859375 
Q 46.1875 17.53125 46.1875 27.296875 
Q 46.1875 37.015625 41.984375 42.703125 
Q 37.796875 48.390625 30.609375 48.390625 
z
M 30.609375 56 
Q 42.328125 56 49.015625 48.375 
Q 55.71875 40.765625 55.71875 27.296875 
Q 55.71875 13.875 49.015625 6.21875 
Q 42.328125 -1.421875 30.609375 -1.421875 
Q 18.84375 -1.421875 12.171875 6.21875 
Q 5.515625 13.875 5.515625 27.296875 
Q 5.515625 40.765625 12.171875 48.375 
Q 18.84375 56 30.609375 56 
z
" id="DejaVuSans-111"/>
       <path d="M 8.5 21.578125 
L 8.5 54.6875 
L 17.484375 54.6875 
L 17.484375 21.921875 
Q 17.484375 14.15625 20.5 10.265625 
Q 23.53125 6.390625 29.59375 6.390625 
Q 36.859375 6.390625 41.078125 11.03125 
Q 45.3125 15.671875 45.3125 23.6875 
L 45.3125 54.6875 
L 54.296875 54.6875 
L 54.296875 0 
L 45.3125 0 
L 45.3125 8.40625 
Q 42.046875 3.421875 37.71875 1 
Q 33.40625 -1.421875 27.6875 -1.421875 
Q 18.265625 -1.421875 13.375 4.4375 
Q 8.5 10.296875 8.5 21.578125 
z
M 31.109375 56 
z
" id="DejaVuSans-117"/>
       <path d="M 54.890625 33.015625 
L 54.890625 0 
L 45.90625 0 
L 45.90625 32.71875 
Q 45.90625 40.484375 42.875 44.328125 
Q 39.84375 48.1875 33.796875 48.1875 
Q 26.515625 48.1875 22.3125 43.546875 
Q 18.109375 38.921875 18.109375 30.90625 
L 18.109375 0 
L 9.078125 0 
L 9.078125 54.6875 
L 18.109375 54.6875 
L 18.109375 46.1875 
Q 21.34375 51.125 25.703125 53.5625 
Q 30.078125 56 35.796875 56 
Q 45.21875 56 50.046875 50.171875 
Q 54.890625 44.34375 54.890625 33.015625 
z
" id="DejaVuSans-110"/>
       <path d="M 18.3125 70.21875 
L 18.3125 54.6875 
L 36.8125 54.6875 
L 36.8125 47.703125 
L 18.3125 47.703125 
L 18.3125 18.015625 
Q 18.3125 11.328125 20.140625 9.421875 
Q 21.96875 7.515625 27.59375 7.515625 
L 36.8125 7.515625 
L 36.8125 0 
L 27.59375 0 
Q 17.1875 0 13.234375 3.875 
Q 9.28125 7.765625 9.28125 18.015625 
L 9.28125 47.703125 
L 2.6875 47.703125 
L 2.6875 54.6875 
L 9.28125 54.6875 
L 9.28125 70.21875 
z
" id="DejaVuSans-116"/>
      </defs>
      <use xlink:href="#DejaVuSans-67"/>
      <use x="69.824219" xlink:href="#DejaVuSans-111"/>
      <use x="131.005859" xlink:href="#DejaVuSans-117"/>
      <use x="194.384766" xlink:href="#DejaVuSans-110"/>
      <use x="257.763672" xlink:href="#DejaVuSans-116"/>
     </g>
    </g>
   </g>
   <g id="line2d_43">
    <path clip-path="url(#p14e4232c5a)" d="M -1 172.132788 
L 26.140321 172.048279 
L 36.432003 171.554759 
L 39.862564 170.895021 
L 42.149604 170.1384 
L 43.293125 169.563405 
L 49.010726 164.748905 
L 50.154246 164.207994 
L 51.297766 163.896101 
L 52.441287 163.063608 
L 53.584807 160.045762 
L 54.728327 158.667222 
L 55.871847 157.553885 
L 57.015368 156.110445 
L 58.158888 155.400281 
L 59.302408 154.522265 
L 60.445928 152.096222 
L 62.732969 152.800549 
L 65.020009 152.553089 
L 66.163529 151.085837 
L 67.30705 146.7198 
L 68.45057 146.844231 
L 69.59409 145.059249 
L 71.881131 142.807129 
L 73.024651 143.158709 
L 74.168171 142.865492 
L 75.311691 144.692962 
L 76.455212 145.402425 
L 77.598732 143.861169 
L 78.742252 143.620245 
L 81.029293 144.634832 
L 82.172813 143.150071 
L 83.316333 140.405832 
L 84.459853 139.379105 
L 85.603374 141.046426 
L 86.746894 141.900631 
L 87.890414 141.927011 
L 89.033934 140.602399 
L 90.177455 143.468267 
L 91.320975 144.747123 
L 92.464495 143.917664 
L 93.608015 146.015706 
L 95.895056 145.153331 
L 97.038576 145.47783 
L 98.182096 144.33181 
L 99.325617 145.32095 
L 100.469137 146.562453 
L 101.612657 146.893489 
L 102.756177 146.971929 
L 103.899698 146.208772 
L 107.330258 147.651044 
L 108.473779 147.616026 
L 109.617299 148.025969 
L 110.760819 144.209014 
L 111.904339 145.601327 
L 113.04786 144.099991 
L 114.19138 144.684557 
L 115.3349 144.139912 
L 116.47842 143.228745 
L 117.621941 143.255125 
L 118.765461 147.106165 
L 119.908981 145.982789 
L 121.052501 147.545523 
L 122.196022 147.251606 
L 123.339542 148.675202 
L 124.483062 150.521815 
L 125.626582 149.143275 
L 126.770103 148.610536 
L 127.913623 148.939471 
L 129.057143 147.657347 
L 130.200663 147.171298 
L 131.344184 148.530928 
L 132.487704 147.303199 
L 133.631224 147.41619 
L 134.774744 147.810259 
L 135.918265 147.950564 
L 137.061785 149.186698 
L 138.205305 149.40591 
L 139.348825 150.093429 
L 140.492346 150.646245 
L 141.635866 150.707644 
L 142.779386 150.272954 
L 143.922906 150.727487 
L 145.066427 147.963171 
L 146.209947 147.943561 
L 147.353467 146.603074 
L 148.496987 145.576581 
L 149.640508 145.743733 
L 150.784028 144.763464 
L 151.927548 143.205399 
L 153.071068 144.127072 
L 155.358109 143.242985 
L 156.501629 142.790087 
L 157.645149 141.141675 
L 158.78867 140.722394 
L 159.93219 140.466763 
L 161.07571 140.637183 
L 162.21923 140.278833 
L 163.362751 138.377125 
L 164.506271 135.708058 
L 165.649791 135.628217 
L 166.793311 135.416008 
L 167.936832 129.248414 
L 169.080352 129.136591 
L 170.223872 127.78303 
L 171.367392 129.342496 
L 172.510913 129.893445 
L 173.654433 128.915977 
L 174.797953 127.674241 
L 175.941473 131.603955 
L 178.228514 127.251224 
L 179.372034 125.028986 
L 180.515554 115.996924 
L 181.659075 113.044211 
L 182.802595 113.443183 
L 183.946115 114.148911 
L 185.089635 112.975109 
L 186.233156 111.601706 
L 187.376676 107.139486 
L 188.520196 112.889432 
L 189.663716 114.311161 
L 190.807237 114.461037 
L 191.950757 114.038254 
L 193.094277 115.514844 
L 194.237797 118.146793 
L 195.381318 123.211321 
L 196.524838 123.968642 
L 197.668358 125.819691 
L 198.811878 123.472555 
L 199.955399 124.072996 
L 201.098919 120.820763 
L 202.242439 121.259187 
L 204.52948 123.295598 
L 205.673 121.800798 
L 206.81652 124.779658 
L 207.96004 125.352552 
L 209.103561 128.983679 
L 210.247081 129.834148 
L 211.390601 128.476852 
L 212.534121 129.620539 
L 213.677642 132.509285 
L 214.821162 131.677259 
L 215.964682 128.401214 
L 217.108202 122.30529 
L 218.251723 122.587535 
L 219.395243 124.444653 
L 221.682283 122.393535 
L 223.969324 116.429513 
L 225.112844 117.957462 
L 226.256364 116.136763 
L 227.399885 116.632617 
L 228.543405 114.500258 
L 229.686925 115.237969 
L 231.973966 121.31685 
L 233.117486 127.187492 
L 234.261006 129.451985 
L 235.404526 129.42864 
L 236.548047 134.603825 
L 237.691567 134.625069 
L 238.835087 135.68051 
L 239.978607 139.268215 
L 241.122128 138.636959 
L 242.265648 115.926889 
L 243.409168 116.582424 
L 244.552688 119.334368 
L 246.839729 115.586514 
L 247.983249 115.523248 
L 249.126769 116.846927 
L 250.27029 139.376537 
L 251.41381 139.088923 
L 252.55733 136.762098 
L 253.70085 134.784985 
L 254.844371 132.432713 
L 255.987891 129.285767 
L 257.131411 127.751514 
L 258.274931 127.722333 
L 259.418452 127.450126 
L 260.561972 124.575854 
L 261.705492 124.62091 
L 262.849012 127.897189 
L 263.992533 128.324641 
L 265.136053 122.649867 
L 266.279573 120.940524 
L 267.423093 120.175732 
L 268.566614 122.298287 
L 269.710134 124.954047 
L 270.853654 121.633646 
L 271.997174 113.258521 
L 273.140695 117.969135 
L 274.284215 119.278106 
L 275.427735 118.803262 
L 276.571255 117.511334 
L 277.714776 117.182632 
L 278.858296 121.561042 
L 280.001816 131.406687 
L 281.145336 132.014832 
L 282.288857 131.09993 
L 283.432377 127.157376 
L 284.575897 126.735994 
L 285.719417 121.113279 
L 286.862938 119.321528 
L 288.006458 115.492199 
L 289.149978 109.321804 
L 290.293498 106.719737 
L 291.437019 109.666147 
L 292.580539 109.666147 
L 293.724059 111.423581 
L 294.867579 106.44403 
L 296.0111 107.105402 
L 297.15462 97.048949 
L 298.29814 97.593128 
L 299.44166 95.324665 
L 300.585181 91.188579 
L 301.728701 89.289906 
L 302.872221 86.04491 
L 304.015741 86.356103 
L 305.159262 98.085246 
L 306.302782 96.395514 
L 307.446302 97.092838 
L 309.733343 97.993266 
L 310.876863 95.4582 
L 313.163903 92.639723 
L 314.307424 91.453315 
L 315.450944 86.74737 
L 316.594464 80.420095 
L 317.737984 70.386287 
L 318.881505 74.20371 
L 321.168545 62.226406 
L 322.312065 48.246776 
L 323.455586 45.755132 
L 324.599106 44.857039 
L 325.742626 36.911701 
L 326.886146 32.458119 
L 328.029667 29.45358 
L 328.029667 29.45358 
" style="fill:none;stroke:#1f77b4;stroke-linecap:square;stroke-width:1.5;"/>
   </g>
   <g id="patch_3">
    <path d="M 62.732969 179.298125 
L 62.732969 22.318125 
" style="fill:none;stroke:#000000;stroke-linecap:square;stroke-linejoin:miter;stroke-width:0.8;"/>
   </g>
   <g id="patch_4">
    <path d="M 307.446302 179.298125 
L 307.446302 22.318125 
" style="fill:none;stroke:#000000;stroke-linecap:square;stroke-linejoin:miter;stroke-width:0.8;"/>
   </g>
   <g id="patch_5">
    <path d="M 62.732969 179.298125 
L 307.446302 179.298125 
" style="fill:none;stroke:#000000;stroke-linecap:square;stroke-linejoin:miter;stroke-width:0.8;"/>
   </g>
   <g id="patch_6">
    <path d="M 62.732969 22.318125 
L 307.446302 22.318125 
" style="fill:none;stroke:#000000;stroke-linecap:square;stroke-linejoin:miter;stroke-width:0.8;"/>
   </g>
   <g id="text_15">
    <!-- COVID-19 Cases -->
    <g transform="translate(136.271198 16.318125)scale(0.12 -0.12)">
     <defs>
      <path d="M 39.40625 66.21875 
Q 28.65625 66.21875 22.328125 58.203125 
Q 16.015625 50.203125 16.015625 36.375 
Q 16.015625 22.609375 22.328125 14.59375 
Q 28.65625 6.59375 39.40625 6.59375 
Q 50.140625 6.59375 56.421875 14.59375 
Q 62.703125 22.609375 62.703125 36.375 
Q 62.703125 50.203125 56.421875 58.203125 
Q 50.140625 66.21875 39.40625 66.21875 
z
M 39.40625 74.21875 
Q 54.734375 74.21875 63.90625 63.9375 
Q 73.09375 53.65625 73.09375 36.375 
Q 73.09375 19.140625 63.90625 8.859375 
Q 54.734375 -1.421875 39.40625 -1.421875 
Q 24.03125 -1.421875 14.8125 8.828125 
Q 5.609375 19.09375 5.609375 36.375 
Q 5.609375 53.65625 14.8125 63.9375 
Q 24.03125 74.21875 39.40625 74.21875 
z
" id="DejaVuSans-79"/>
      <path d="M 28.609375 0 
L 0.78125 72.90625 
L 11.078125 72.90625 
L 34.1875 11.53125 
L 57.328125 72.90625 
L 67.578125 72.90625 
L 39.796875 0 
z
" id="DejaVuSans-86"/>
      <path d="M 9.8125 72.90625 
L 19.671875 72.90625 
L 19.671875 0 
L 9.8125 0 
z
" id="DejaVuSans-73"/>
      <path d="M 19.671875 64.796875 
L 19.671875 8.109375 
L 31.59375 8.109375 
Q 46.6875 8.109375 53.6875 14.9375 
Q 60.6875 21.78125 60.6875 36.53125 
Q 60.6875 51.171875 53.6875 57.984375 
Q 46.6875 64.796875 31.59375 64.796875 
z
M 9.8125 72.90625 
L 30.078125 72.90625 
Q 51.265625 72.90625 61.171875 64.09375 
Q 71.09375 55.28125 71.09375 36.53125 
Q 71.09375 17.671875 61.125 8.828125 
Q 51.171875 0 30.078125 0 
L 9.8125 0 
z
" id="DejaVuSans-68"/>
      <path id="DejaVuSans-32"/>
      <path d="M 34.28125 27.484375 
Q 23.390625 27.484375 19.1875 25 
Q 14.984375 22.515625 14.984375 16.5 
Q 14.984375 11.71875 18.140625 8.90625 
Q 21.296875 6.109375 26.703125 6.109375 
Q 34.1875 6.109375 38.703125 11.40625 
Q 43.21875 16.703125 43.21875 25.484375 
L 43.21875 27.484375 
z
M 52.203125 31.203125 
L 52.203125 0 
L 43.21875 0 
L 43.21875 8.296875 
Q 40.140625 3.328125 35.546875 0.953125 
Q 30.953125 -1.421875 24.3125 -1.421875 
Q 15.921875 -1.421875 10.953125 3.296875 
Q 6 8.015625 6 15.921875 
Q 6 25.140625 12.171875 29.828125 
Q 18.359375 34.515625 30.609375 34.515625 
L 43.21875 34.515625 
L 43.21875 35.40625 
Q 43.21875 41.609375 39.140625 45 
Q 35.0625 48.390625 27.6875 48.390625 
Q 23 48.390625 18.546875 47.265625 
Q 14.109375 46.140625 10.015625 43.890625 
L 10.015625 52.203125 
Q 14.9375 54.109375 19.578125 55.046875 
Q 24.21875 56 28.609375 56 
Q 40.484375 56 46.34375 49.84375 
Q 52.203125 43.703125 52.203125 31.203125 
z
" id="DejaVuSans-97"/>
      <path d="M 44.28125 53.078125 
L 44.28125 44.578125 
Q 40.484375 46.53125 36.375 47.5 
Q 32.28125 48.484375 27.875 48.484375 
Q 21.1875 48.484375 17.84375 46.4375 
Q 14.5 44.390625 14.5 40.28125 
Q 14.5 37.15625 16.890625 35.375 
Q 19.28125 33.59375 26.515625 31.984375 
L 29.59375 31.296875 
Q 39.15625 29.25 43.1875 25.515625 
Q 47.21875 21.78125 47.21875 15.09375 
Q 47.21875 7.46875 41.1875 3.015625 
Q 35.15625 -1.421875 24.609375 -1.421875 
Q 20.21875 -1.421875 15.453125 -0.5625 
Q 10.6875 0.296875 5.421875 2 
L 5.421875 11.28125 
Q 10.40625 8.6875 15.234375 7.390625 
Q 20.0625 6.109375 24.8125 6.109375 
Q 31.15625 6.109375 34.5625 8.28125 
Q 37.984375 10.453125 37.984375 14.40625 
Q 37.984375 18.0625 35.515625 20.015625 
Q 33.0625 21.96875 24.703125 23.78125 
L 21.578125 24.515625 
Q 13.234375 26.265625 9.515625 29.90625 
Q 5.8125 33.546875 5.8125 39.890625 
Q 5.8125 47.609375 11.28125 51.796875 
Q 16.75 56 26.8125 56 
Q 31.78125 56 36.171875 55.265625 
Q 40.578125 54.546875 44.28125 53.078125 
z
" id="DejaVuSans-115"/>
      <path d="M 56.203125 29.59375 
L 56.203125 25.203125 
L 14.890625 25.203125 
Q 15.484375 15.921875 20.484375 11.0625 
Q 25.484375 6.203125 34.421875 6.203125 
Q 39.59375 6.203125 44.453125 7.46875 
Q 49.3125 8.734375 54.109375 11.28125 
L 54.109375 2.78125 
Q 49.265625 0.734375 44.1875 -0.34375 
Q 39.109375 -1.421875 33.890625 -1.421875 
Q 20.796875 -1.421875 13.15625 6.1875 
Q 5.515625 13.8125 5.515625 26.8125 
Q 5.515625 40.234375 12.765625 48.109375 
Q 20.015625 56 32.328125 56 
Q 43.359375 56 49.78125 48.890625 
Q 56.203125 41.796875 56.203125 29.59375 
z
M 47.21875 32.234375 
Q 47.125 39.59375 43.09375 43.984375 
Q 39.0625 48.390625 32.421875 48.390625 
Q 24.90625 48.390625 20.390625 44.140625 
Q 15.875 39.890625 15.1875 32.171875 
z
" id="DejaVuSans-101"/>
     </defs>
     <use xlink:href="#DejaVuSans-67"/>
     <use x="69.824219" xlink:href="#DejaVuSans-79"/>
     <use x="146.785156" xlink:href="#DejaVuSans-86"/>
     <use x="215.193359" xlink:href="#DejaVuSans-73"/>
     <use x="244.685547" xlink:href="#DejaVuSans-68"/>
     <use x="321.6875" xlink:href="#DejaVuSans-45"/>
     <use x="357.771484" xlink:href="#DejaVuSans-49"/>
     <use x="421.394531" xlink:href="#DejaVuSans-57"/>
     <use x="485.017578" xlink:href="#DejaVuSans-32"/>
     <use x="516.804688" xlink:href="#DejaVuSans-67"/>
     <use x="586.628906" xlink:href="#DejaVuSans-97"/>
     <use x="647.908203" xlink:href="#DejaVuSans-115"/>
     <use x="700.007812" xlink:href="#DejaVuSans-101"/>
     <use x="761.53125" xlink:href="#DejaVuSans-115"/>
    </g>
   </g>
  </g>
  <g id="axes_2">
   <g id="patch_7">
    <path d="M 363.036302 179.298125 
L 607.749635 179.298125 
L 607.749635 22.318125 
L 363.036302 22.318125 
z
" style="fill:#ffffff;"/>
   </g>
   <g id="matplotlib.axis_3">
    <g id="xtick_38">
     <g id="line2d_44">
      <g>
       <use style="stroke:#000000;stroke-width:0.8;" x="363.036302" xlink:href="#m40de754a99" y="179.298125"/>
      </g>
     </g>
     <g id="text_16">
      <!-- 2020-04 -->
      <g transform="translate(323.95024 215.143563)rotate(-30)scale(0.105 -0.105)">
       <use xlink:href="#DejaVuSans-50"/>
       <use x="63.623047" xlink:href="#DejaVuSans-48"/>
       <use x="127.246094" xlink:href="#DejaVuSans-50"/>
       <use x="190.869141" xlink:href="#DejaVuSans-48"/>
       <use x="254.492188" xlink:href="#DejaVuSans-45"/>
       <use x="290.576172" xlink:href="#DejaVuSans-48"/>
       <use x="354.199219" xlink:href="#DejaVuSans-52"/>
      </g>
     </g>
    </g>
    <g id="xtick_39">
     <g id="line2d_45">
      <g>
       <use style="stroke:#000000;stroke-width:0.8;" x="397.34191" xlink:href="#m40de754a99" y="179.298125"/>
      </g>
     </g>
     <g id="text_17">
      <!-- 2020-05 -->
      <g transform="translate(358.255848 215.143563)rotate(-30)scale(0.105 -0.105)">
       <use xlink:href="#DejaVuSans-50"/>
       <use x="63.623047" xlink:href="#DejaVuSans-48"/>
       <use x="127.246094" xlink:href="#DejaVuSans-50"/>
       <use x="190.869141" xlink:href="#DejaVuSans-48"/>
       <use x="254.492188" xlink:href="#DejaVuSans-45"/>
       <use x="290.576172" xlink:href="#DejaVuSans-48"/>
       <use x="354.199219" xlink:href="#DejaVuSans-53"/>
      </g>
     </g>
    </g>
    <g id="xtick_40">
     <g id="line2d_46">
      <g>
       <use style="stroke:#000000;stroke-width:0.8;" x="432.791037" xlink:href="#m40de754a99" y="179.298125"/>
      </g>
     </g>
     <g id="text_18">
      <!-- 2020-06 -->
      <g transform="translate(393.704975 215.143563)rotate(-30)scale(0.105 -0.105)">
       <use xlink:href="#DejaVuSans-50"/>
       <use x="63.623047" xlink:href="#DejaVuSans-48"/>
       <use x="127.246094" xlink:href="#DejaVuSans-50"/>
       <use x="190.869141" xlink:href="#DejaVuSans-48"/>
       <use x="254.492188" xlink:href="#DejaVuSans-45"/>
       <use x="290.576172" xlink:href="#DejaVuSans-48"/>
       <use x="354.199219" xlink:href="#DejaVuSans-54"/>
      </g>
     </g>
    </g>
    <g id="xtick_41">
     <g id="line2d_47">
      <g>
       <use style="stroke:#000000;stroke-width:0.8;" x="467.096645" xlink:href="#m40de754a99" y="179.298125"/>
      </g>
     </g>
     <g id="text_19">
      <!-- 2020-07 -->
      <g transform="translate(428.010583 215.143563)rotate(-30)scale(0.105 -0.105)">
       <use xlink:href="#DejaVuSans-50"/>
       <use x="63.623047" xlink:href="#DejaVuSans-48"/>
       <use x="127.246094" xlink:href="#DejaVuSans-50"/>
       <use x="190.869141" xlink:href="#DejaVuSans-48"/>
       <use x="254.492188" xlink:href="#DejaVuSans-45"/>
       <use x="290.576172" xlink:href="#DejaVuSans-48"/>
       <use x="354.199219" xlink:href="#DejaVuSans-55"/>
      </g>
     </g>
    </g>
    <g id="xtick_42">
     <g id="line2d_48">
      <g>
       <use style="stroke:#000000;stroke-width:0.8;" x="502.545772" xlink:href="#m40de754a99" y="179.298125"/>
      </g>
     </g>
     <g id="text_20">
      <!-- 2020-08 -->
      <g transform="translate(463.459711 215.143563)rotate(-30)scale(0.105 -0.105)">
       <use xlink:href="#DejaVuSans-50"/>
       <use x="63.623047" xlink:href="#DejaVuSans-48"/>
       <use x="127.246094" xlink:href="#DejaVuSans-50"/>
       <use x="190.869141" xlink:href="#DejaVuSans-48"/>
       <use x="254.492188" xlink:href="#DejaVuSans-45"/>
       <use x="290.576172" xlink:href="#DejaVuSans-48"/>
       <use x="354.199219" xlink:href="#DejaVuSans-56"/>
      </g>
     </g>
    </g>
    <g id="xtick_43">
     <g id="line2d_49">
      <g>
       <use style="stroke:#000000;stroke-width:0.8;" x="537.9949" xlink:href="#m40de754a99" y="179.298125"/>
      </g>
     </g>
     <g id="text_21">
      <!-- 2020-09 -->
      <g transform="translate(498.908838 215.143563)rotate(-30)scale(0.105 -0.105)">
       <use xlink:href="#DejaVuSans-50"/>
       <use x="63.623047" xlink:href="#DejaVuSans-48"/>
       <use x="127.246094" xlink:href="#DejaVuSans-50"/>
       <use x="190.869141" xlink:href="#DejaVuSans-48"/>
       <use x="254.492188" xlink:href="#DejaVuSans-45"/>
       <use x="290.576172" xlink:href="#DejaVuSans-48"/>
       <use x="354.199219" xlink:href="#DejaVuSans-57"/>
      </g>
     </g>
    </g>
    <g id="xtick_44">
     <g id="line2d_50">
      <g>
       <use style="stroke:#000000;stroke-width:0.8;" x="572.300508" xlink:href="#m40de754a99" y="179.298125"/>
      </g>
     </g>
     <g id="text_22">
      <!-- 2020-10 -->
      <g transform="translate(533.214446 215.143563)rotate(-30)scale(0.105 -0.105)">
       <use xlink:href="#DejaVuSans-50"/>
       <use x="63.623047" xlink:href="#DejaVuSans-48"/>
       <use x="127.246094" xlink:href="#DejaVuSans-50"/>
       <use x="190.869141" xlink:href="#DejaVuSans-48"/>
       <use x="254.492188" xlink:href="#DejaVuSans-45"/>
       <use x="290.576172" xlink:href="#DejaVuSans-49"/>
       <use x="354.199219" xlink:href="#DejaVuSans-48"/>
      </g>
     </g>
    </g>
    <g id="xtick_45">
     <g id="line2d_51">
      <g>
       <use style="stroke:#000000;stroke-width:0.8;" x="607.749635" xlink:href="#m40de754a99" y="179.298125"/>
      </g>
     </g>
     <g id="text_23">
      <!-- 2020-11 -->
      <g transform="translate(568.663574 215.143563)rotate(-30)scale(0.105 -0.105)">
       <use xlink:href="#DejaVuSans-50"/>
       <use x="63.623047" xlink:href="#DejaVuSans-48"/>
       <use x="127.246094" xlink:href="#DejaVuSans-50"/>
       <use x="190.869141" xlink:href="#DejaVuSans-48"/>
       <use x="254.492188" xlink:href="#DejaVuSans-45"/>
       <use x="290.576172" xlink:href="#DejaVuSans-49"/>
       <use x="354.199219" xlink:href="#DejaVuSans-49"/>
      </g>
     </g>
    </g>
    <g id="xtick_46">
     <g id="line2d_52">
      <g>
       <use style="stroke:#000000;stroke-width:0.6;" x="368.753903" xlink:href="#mbb6cfdbc26" y="179.298125"/>
      </g>
     </g>
    </g>
    <g id="xtick_47">
     <g id="line2d_53">
      <g>
       <use style="stroke:#000000;stroke-width:0.6;" x="376.758545" xlink:href="#mbb6cfdbc26" y="179.298125"/>
      </g>
     </g>
    </g>
    <g id="xtick_48">
     <g id="line2d_54">
      <g>
       <use style="stroke:#000000;stroke-width:0.6;" x="384.763187" xlink:href="#mbb6cfdbc26" y="179.298125"/>
      </g>
     </g>
    </g>
    <g id="xtick_49">
     <g id="line2d_55">
      <g>
       <use style="stroke:#000000;stroke-width:0.6;" x="392.767829" xlink:href="#mbb6cfdbc26" y="179.298125"/>
      </g>
     </g>
    </g>
    <g id="xtick_50">
     <g id="line2d_56">
      <g>
       <use style="stroke:#000000;stroke-width:0.6;" x="400.77247" xlink:href="#mbb6cfdbc26" y="179.298125"/>
      </g>
     </g>
    </g>
    <g id="xtick_51">
     <g id="line2d_57">
      <g>
       <use style="stroke:#000000;stroke-width:0.6;" x="408.777112" xlink:href="#mbb6cfdbc26" y="179.298125"/>
      </g>
     </g>
    </g>
    <g id="xtick_52">
     <g id="line2d_58">
      <g>
       <use style="stroke:#000000;stroke-width:0.6;" x="416.781754" xlink:href="#mbb6cfdbc26" y="179.298125"/>
      </g>
     </g>
    </g>
    <g id="xtick_53">
     <g id="line2d_59">
      <g>
       <use style="stroke:#000000;stroke-width:0.6;" x="424.786396" xlink:href="#mbb6cfdbc26" y="179.298125"/>
      </g>
     </g>
    </g>
    <g id="xtick_54">
     <g id="line2d_60">
      <g>
       <use style="stroke:#000000;stroke-width:0.6;" x="440.795679" xlink:href="#mbb6cfdbc26" y="179.298125"/>
      </g>
     </g>
    </g>
    <g id="xtick_55">
     <g id="line2d_61">
      <g>
       <use style="stroke:#000000;stroke-width:0.6;" x="448.800321" xlink:href="#mbb6cfdbc26" y="179.298125"/>
      </g>
     </g>
    </g>
    <g id="xtick_56">
     <g id="line2d_62">
      <g>
       <use style="stroke:#000000;stroke-width:0.6;" x="456.804963" xlink:href="#mbb6cfdbc26" y="179.298125"/>
      </g>
     </g>
    </g>
    <g id="xtick_57">
     <g id="line2d_63">
      <g>
       <use style="stroke:#000000;stroke-width:0.6;" x="464.809604" xlink:href="#mbb6cfdbc26" y="179.298125"/>
      </g>
     </g>
    </g>
    <g id="xtick_58">
     <g id="line2d_64">
      <g>
       <use style="stroke:#000000;stroke-width:0.6;" x="472.814246" xlink:href="#mbb6cfdbc26" y="179.298125"/>
      </g>
     </g>
    </g>
    <g id="xtick_59">
     <g id="line2d_65">
      <g>
       <use style="stroke:#000000;stroke-width:0.6;" x="480.818888" xlink:href="#mbb6cfdbc26" y="179.298125"/>
      </g>
     </g>
    </g>
    <g id="xtick_60">
     <g id="line2d_66">
      <g>
       <use style="stroke:#000000;stroke-width:0.6;" x="488.823529" xlink:href="#mbb6cfdbc26" y="179.298125"/>
      </g>
     </g>
    </g>
    <g id="xtick_61">
     <g id="line2d_67">
      <g>
       <use style="stroke:#000000;stroke-width:0.6;" x="496.828171" xlink:href="#mbb6cfdbc26" y="179.298125"/>
      </g>
     </g>
    </g>
    <g id="xtick_62">
     <g id="line2d_68">
      <g>
       <use style="stroke:#000000;stroke-width:0.6;" x="504.832813" xlink:href="#mbb6cfdbc26" y="179.298125"/>
      </g>
     </g>
    </g>
    <g id="xtick_63">
     <g id="line2d_69">
      <g>
       <use style="stroke:#000000;stroke-width:0.6;" x="512.837455" xlink:href="#mbb6cfdbc26" y="179.298125"/>
      </g>
     </g>
    </g>
    <g id="xtick_64">
     <g id="line2d_70">
      <g>
       <use style="stroke:#000000;stroke-width:0.6;" x="520.842096" xlink:href="#mbb6cfdbc26" y="179.298125"/>
      </g>
     </g>
    </g>
    <g id="xtick_65">
     <g id="line2d_71">
      <g>
       <use style="stroke:#000000;stroke-width:0.6;" x="528.846738" xlink:href="#mbb6cfdbc26" y="179.298125"/>
      </g>
     </g>
    </g>
    <g id="xtick_66">
     <g id="line2d_72">
      <g>
       <use style="stroke:#000000;stroke-width:0.6;" x="536.85138" xlink:href="#mbb6cfdbc26" y="179.298125"/>
      </g>
     </g>
    </g>
    <g id="xtick_67">
     <g id="line2d_73">
      <g>
       <use style="stroke:#000000;stroke-width:0.6;" x="544.856022" xlink:href="#mbb6cfdbc26" y="179.298125"/>
      </g>
     </g>
    </g>
    <g id="xtick_68">
     <g id="line2d_74">
      <g>
       <use style="stroke:#000000;stroke-width:0.6;" x="552.860663" xlink:href="#mbb6cfdbc26" y="179.298125"/>
      </g>
     </g>
    </g>
    <g id="xtick_69">
     <g id="line2d_75">
      <g>
       <use style="stroke:#000000;stroke-width:0.6;" x="560.865305" xlink:href="#mbb6cfdbc26" y="179.298125"/>
      </g>
     </g>
    </g>
    <g id="xtick_70">
     <g id="line2d_76">
      <g>
       <use style="stroke:#000000;stroke-width:0.6;" x="568.869947" xlink:href="#mbb6cfdbc26" y="179.298125"/>
      </g>
     </g>
    </g>
    <g id="xtick_71">
     <g id="line2d_77">
      <g>
       <use style="stroke:#000000;stroke-width:0.6;" x="576.874589" xlink:href="#mbb6cfdbc26" y="179.298125"/>
      </g>
     </g>
    </g>
    <g id="xtick_72">
     <g id="line2d_78">
      <g>
       <use style="stroke:#000000;stroke-width:0.6;" x="584.87923" xlink:href="#mbb6cfdbc26" y="179.298125"/>
      </g>
     </g>
    </g>
    <g id="xtick_73">
     <g id="line2d_79">
      <g>
       <use style="stroke:#000000;stroke-width:0.6;" x="592.883872" xlink:href="#mbb6cfdbc26" y="179.298125"/>
      </g>
     </g>
    </g>
    <g id="xtick_74">
     <g id="line2d_80">
      <g>
       <use style="stroke:#000000;stroke-width:0.6;" x="600.888514" xlink:href="#mbb6cfdbc26" y="179.298125"/>
      </g>
     </g>
    </g>
    <g id="text_24">
     <!-- CDC Report Date -->
     <g transform="translate(436.475742 229.772882)scale(0.115 -0.115)">
      <defs>
       <path d="M 44.390625 34.1875 
Q 47.5625 33.109375 50.5625 29.59375 
Q 53.5625 26.078125 56.59375 19.921875 
L 66.609375 0 
L 56 0 
L 46.6875 18.703125 
Q 43.0625 26.03125 39.671875 28.421875 
Q 36.28125 30.8125 30.421875 30.8125 
L 19.671875 30.8125 
L 19.671875 0 
L 9.8125 0 
L 9.8125 72.90625 
L 32.078125 72.90625 
Q 44.578125 72.90625 50.734375 67.671875 
Q 56.890625 62.453125 56.890625 51.90625 
Q 56.890625 45.015625 53.6875 40.46875 
Q 50.484375 35.9375 44.390625 34.1875 
z
M 19.671875 64.796875 
L 19.671875 38.921875 
L 32.078125 38.921875 
Q 39.203125 38.921875 42.84375 42.21875 
Q 46.484375 45.515625 46.484375 51.90625 
Q 46.484375 58.296875 42.84375 61.546875 
Q 39.203125 64.796875 32.078125 64.796875 
z
" id="DejaVuSans-82"/>
       <path d="M 18.109375 8.203125 
L 18.109375 -20.796875 
L 9.078125 -20.796875 
L 9.078125 54.6875 
L 18.109375 54.6875 
L 18.109375 46.390625 
Q 20.953125 51.265625 25.265625 53.625 
Q 29.59375 56 35.59375 56 
Q 45.5625 56 51.78125 48.09375 
Q 58.015625 40.1875 58.015625 27.296875 
Q 58.015625 14.40625 51.78125 6.484375 
Q 45.5625 -1.421875 35.59375 -1.421875 
Q 29.59375 -1.421875 25.265625 0.953125 
Q 20.953125 3.328125 18.109375 8.203125 
z
M 48.6875 27.296875 
Q 48.6875 37.203125 44.609375 42.84375 
Q 40.53125 48.484375 33.40625 48.484375 
Q 26.265625 48.484375 22.1875 42.84375 
Q 18.109375 37.203125 18.109375 27.296875 
Q 18.109375 17.390625 22.1875 11.75 
Q 26.265625 6.109375 33.40625 6.109375 
Q 40.53125 6.109375 44.609375 11.75 
Q 48.6875 17.390625 48.6875 27.296875 
z
" id="DejaVuSans-112"/>
       <path d="M 41.109375 46.296875 
Q 39.59375 47.171875 37.8125 47.578125 
Q 36.03125 48 33.890625 48 
Q 26.265625 48 22.1875 43.046875 
Q 18.109375 38.09375 18.109375 28.8125 
L 18.109375 0 
L 9.078125 0 
L 9.078125 54.6875 
L 18.109375 54.6875 
L 18.109375 46.1875 
Q 20.953125 51.171875 25.484375 53.578125 
Q 30.03125 56 36.53125 56 
Q 37.453125 56 38.578125 55.875 
Q 39.703125 55.765625 41.0625 55.515625 
z
" id="DejaVuSans-114"/>
      </defs>
      <use xlink:href="#DejaVuSans-67"/>
      <use x="69.824219" xlink:href="#DejaVuSans-68"/>
      <use x="146.826172" xlink:href="#DejaVuSans-67"/>
      <use x="216.650391" xlink:href="#DejaVuSans-32"/>
      <use x="248.4375" xlink:href="#DejaVuSans-82"/>
      <use x="313.419922" xlink:href="#DejaVuSans-101"/>
      <use x="374.943359" xlink:href="#DejaVuSans-112"/>
      <use x="438.419922" xlink:href="#DejaVuSans-111"/>
      <use x="499.601562" xlink:href="#DejaVuSans-114"/>
      <use x="540.714844" xlink:href="#DejaVuSans-116"/>
      <use x="579.923828" xlink:href="#DejaVuSans-32"/>
      <use x="611.710938" xlink:href="#DejaVuSans-68"/>
      <use x="688.712891" xlink:href="#DejaVuSans-97"/>
      <use x="749.992188" xlink:href="#DejaVuSans-116"/>
      <use x="789.201172" xlink:href="#DejaVuSans-101"/>
     </g>
    </g>
   </g>
   <g id="matplotlib.axis_4">
    <g id="ytick_6">
     <g id="line2d_81">
      <g>
       <use style="stroke:#000000;stroke-width:0.8;" x="363.036302" xlink:href="#mf021bf3d3a" y="172.16267"/>
      </g>
     </g>
     <g id="text_25">
      <!-- 0 -->
      <g transform="translate(349.355677 176.15185)scale(0.105 -0.105)">
       <use xlink:href="#DejaVuSans-48"/>
      </g>
     </g>
    </g>
    <g id="ytick_7">
     <g id="line2d_82">
      <g>
       <use style="stroke:#000000;stroke-width:0.8;" x="363.036302" xlink:href="#mf021bf3d3a" y="134.105463"/>
      </g>
     </g>
     <g id="text_26">
      <!-- 1000 -->
      <g transform="translate(329.313802 138.094643)scale(0.105 -0.105)">
       <use xlink:href="#DejaVuSans-49"/>
       <use x="63.623047" xlink:href="#DejaVuSans-48"/>
       <use x="127.246094" xlink:href="#DejaVuSans-48"/>
       <use x="190.869141" xlink:href="#DejaVuSans-48"/>
      </g>
     </g>
    </g>
    <g id="ytick_8">
     <g id="line2d_83">
      <g>
       <use style="stroke:#000000;stroke-width:0.8;" x="363.036302" xlink:href="#mf021bf3d3a" y="96.048256"/>
      </g>
     </g>
     <g id="text_27">
      <!-- 2000 -->
      <g transform="translate(329.313802 100.037435)scale(0.105 -0.105)">
       <use xlink:href="#DejaVuSans-50"/>
       <use x="63.623047" xlink:href="#DejaVuSans-48"/>
       <use x="127.246094" xlink:href="#DejaVuSans-48"/>
       <use x="190.869141" xlink:href="#DejaVuSans-48"/>
      </g>
     </g>
    </g>
    <g id="ytick_9">
     <g id="line2d_84">
      <g>
       <use style="stroke:#000000;stroke-width:0.8;" x="363.036302" xlink:href="#mf021bf3d3a" y="57.991048"/>
      </g>
     </g>
     <g id="text_28">
      <!-- 3000 -->
      <g transform="translate(329.313802 61.980228)scale(0.105 -0.105)">
       <defs>
        <path d="M 40.578125 39.3125 
Q 47.65625 37.796875 51.625 33 
Q 55.609375 28.21875 55.609375 21.1875 
Q 55.609375 10.40625 48.1875 4.484375 
Q 40.765625 -1.421875 27.09375 -1.421875 
Q 22.515625 -1.421875 17.65625 -0.515625 
Q 12.796875 0.390625 7.625 2.203125 
L 7.625 11.71875 
Q 11.71875 9.328125 16.59375 8.109375 
Q 21.484375 6.890625 26.8125 6.890625 
Q 36.078125 6.890625 40.9375 10.546875 
Q 45.796875 14.203125 45.796875 21.1875 
Q 45.796875 27.640625 41.28125 31.265625 
Q 36.765625 34.90625 28.71875 34.90625 
L 20.21875 34.90625 
L 20.21875 43.015625 
L 29.109375 43.015625 
Q 36.375 43.015625 40.234375 45.921875 
Q 44.09375 48.828125 44.09375 54.296875 
Q 44.09375 59.90625 40.109375 62.90625 
Q 36.140625 65.921875 28.71875 65.921875 
Q 24.65625 65.921875 20.015625 65.03125 
Q 15.375 64.15625 9.8125 62.3125 
L 9.8125 71.09375 
Q 15.4375 72.65625 20.34375 73.4375 
Q 25.25 74.21875 29.59375 74.21875 
Q 40.828125 74.21875 47.359375 69.109375 
Q 53.90625 64.015625 53.90625 55.328125 
Q 53.90625 49.265625 50.4375 45.09375 
Q 46.96875 40.921875 40.578125 39.3125 
z
" id="DejaVuSans-51"/>
       </defs>
       <use xlink:href="#DejaVuSans-51"/>
       <use x="63.623047" xlink:href="#DejaVuSans-48"/>
       <use x="127.246094" xlink:href="#DejaVuSans-48"/>
       <use x="190.869141" xlink:href="#DejaVuSans-48"/>
      </g>
     </g>
    </g>
   </g>
   <g id="line2d_85">
    <path clip-path="url(#p19498769ae)" d="M 258.975959 172.157234 
L 311.577891 172.048499 
L 325.300134 171.483077 
L 326.443654 171.390653 
L 327.587174 171.059011 
L 329.874215 170.689313 
L 331.017735 170.47728 
L 333.304776 169.754193 
L 334.448296 169.373621 
L 335.591816 169.156151 
L 336.735336 168.340639 
L 337.878857 167.079315 
L 339.022377 166.117011 
L 340.165897 164.763262 
L 342.452938 161.158701 
L 343.596458 158.494696 
L 344.739978 153.645121 
L 345.883498 150.1058 
L 347.027019 145.239915 
L 348.170539 141.803892 
L 349.314059 139.199692 
L 350.457579 137.030431 
L 351.6011 135.660372 
L 352.74462 131.811157 
L 353.88814 112.869541 
L 355.03166 100.745602 
L 357.318701 83.875386 
L 358.462221 78.237483 
L 360.749262 65.776466 
L 361.892782 65.542686 
L 363.036302 73.85003 
L 364.179822 78.514757 
L 365.323343 85.392238 
L 366.466863 78.732226 
L 367.610383 52.701097 
L 368.753903 50.678628 
L 369.897424 37.847912 
L 371.040944 35.792823 
L 372.184464 38.407897 
L 373.327984 29.45358 
L 374.471505 29.632992 
L 375.615025 44.236086 
L 376.758545 39.125547 
L 377.902065 47.56881 
L 379.045586 48.949743 
L 380.189106 48.797514 
L 381.332626 57.512615 
L 382.476146 46.563013 
L 383.619667 44.056674 
L 384.763187 50.189321 
L 385.906707 54.179891 
L 387.050227 56.327405 
L 388.193748 55.147631 
L 389.337268 55.609754 
L 390.480788 78.085254 
L 391.624308 85.044286 
L 392.767829 88.420504 
L 393.911349 101.566551 
L 395.054869 101.137048 
L 396.198389 99.989895 
L 397.34191 97.652095 
L 398.48543 93.677835 
L 399.62895 101.153358 
L 400.77247 102.626716 
L 401.915991 107.307752 
L 403.059511 108.362481 
L 404.203031 106.535735 
L 405.346551 108.514709 
L 406.490072 111.417931 
L 407.633592 112.701002 
L 408.777112 113.451273 
L 409.920632 113.668743 
L 411.064153 103.703191 
L 412.207673 108.7648 
L 413.351193 109.988067 
L 414.494713 111.749572 
L 415.638234 112.641198 
L 416.781754 112.951093 
L 417.925274 114.978998 
L 419.068794 124.808631 
L 420.212315 122.633933 
L 421.355835 122.481705 
L 422.499355 121.535711 
L 423.642875 123.144987 
L 424.786396 127.472636 
L 425.929916 124.161658 
L 427.073436 122.242488 
L 428.216956 123.019942 
L 430.503997 121.312805 
L 431.647517 124.694459 
L 432.791037 120.9866 
L 433.934558 121.008347 
L 435.078078 123.944189 
L 436.221598 124.531357 
L 437.365118 126.200437 
L 438.508639 127.005076 
L 439.652159 127.31497 
L 441.939199 131.300103 
L 443.08272 130.332363 
L 444.22624 131.936202 
L 445.36976 130.892347 
L 446.51328 131.202242 
L 448.800321 129.696264 
L 449.943841 129.283071 
L 451.087361 130.941278 
L 452.230882 128.375135 
L 453.374402 127.869518 
L 455.661442 127.374774 
L 456.804963 127.78253 
L 457.948483 126.896341 
L 459.092003 125.113089 
L 460.235523 125.71113 
L 461.379044 125.172893 
L 462.522564 125.058721 
L 463.666084 121.43785 
L 464.809604 119.067429 
L 467.096645 119.10005 
L 468.240165 110.548052 
L 469.383685 111.575596 
L 470.527206 109.368278 
L 471.670726 111.662584 
L 472.814246 111.075416 
L 473.957766 110.618729 
L 475.101287 110.297961 
L 476.244807 117.218936 
L 479.675368 109.955447 
L 480.818888 102.066731 
L 481.962408 98.989534 
L 483.105928 98.799248 
L 484.249449 99.326612 
L 485.392969 98.668766 
L 486.536489 97.0758 
L 487.680009 90.307054 
L 488.823529 93.063483 
L 489.96705 93.090667 
L 491.11057 93.275516 
L 492.25409 93.090667 
L 493.39761 93.748513 
L 494.541131 98.608962 
L 495.684651 107.269695 
L 496.828171 109.525944 
L 497.971691 112.385671 
L 499.115212 108.422285 
L 500.258732 107.61221 
L 501.402252 94.482473 
L 503.689293 93.193965 
L 504.832813 93.123287 
L 505.976333 91.16606 
L 507.119853 95.40672 
L 508.263374 97.037743 
L 509.406894 111.167841 
L 510.550414 112.961966 
L 511.693934 113.494767 
L 512.837455 115.647718 
L 513.980975 119.197911 
L 515.124495 119.611104 
L 516.268015 116.881858 
L 517.411536 113.250113 
L 519.698576 113.875339 
L 520.842096 113.875339 
L 521.985617 112.559647 
L 523.129137 110.43388 
L 524.272657 108.699559 
L 525.416177 110.760085 
L 526.559698 110.357766 
L 527.703218 111.722388 
L 528.846738 110.259904 
L 529.990258 112.173638 
L 532.277299 116.653515 
L 533.420819 120.948543 
L 534.564339 122.862277 
L 535.70786 123.715845 
L 536.85138 130.207318 
L 537.9949 129.647333 
L 539.13842 132.517934 
L 540.281941 137.171787 
L 541.425461 136.144242 
L 542.568981 125.814429 
L 543.712501 126.233058 
L 544.856022 129.794125 
L 545.999542 128.010873 
L 547.143062 125.923163 
L 548.286582 124.846688 
L 549.430103 125.955784 
L 550.573623 136.541124 
L 551.717143 136.660733 
L 552.860663 134.322933 
L 554.004184 132.27328 
L 555.147704 128.059804 
L 556.291224 125.988404 
L 558.578265 125.727441 
L 559.721785 125.259881 
L 560.865305 121.296494 
L 562.008825 123.313526 
L 563.152346 128.005436 
L 564.295866 128.929683 
L 565.439386 125.830739 
L 566.582906 124.27583 
L 567.726427 124.248646 
L 568.869947 127.374774 
L 570.013467 127.809714 
L 571.156987 124.591161 
L 572.300508 120.26895 
L 573.444028 122.633933 
L 574.587548 123.492939 
L 575.731068 122.693738 
L 576.874589 120.056917 
L 578.018109 120.682142 
L 579.161629 124.612908 
L 580.305149 130.060526 
L 582.59219 128.222906 
L 583.73571 126.368976 
L 584.87923 127.380211 
L 586.022751 120.937669 
L 587.166271 119.241405 
L 588.309791 117.273304 
L 589.453311 113.750294 
L 590.596832 113.619812 
L 591.740352 114.62561 
L 592.883872 114.652793 
L 594.027392 115.903244 
L 595.170913 113.820972 
L 596.314433 113.831845 
L 597.457953 114.147176 
L 598.601473 113.228366 
L 599.744994 113.059827 
L 600.888514 107.487165 
L 602.032034 107.960162 
L 603.175554 105.752844 
L 604.319075 105.2581 
L 605.462595 106.503114 
L 606.606115 106.106232 
L 607.749635 105.834395 
L 608.893156 109.411772 
L 610.036676 109.868459 
L 611.180196 105.774591 
L 612.323716 105.845268 
L 613.467237 105.459259 
L 614.610757 103.936971 
L 615.754277 102.865933 
L 616.897797 102.43643 
L 618.041318 92.666601 
L 619.184838 96.461448 
L 620.328358 92.704658 
L 621.471878 89.986286 
L 622.615399 86.316484 
L 623.758919 83.690537 
L 624.902439 82.467269 
L 626.045959 79.863069 
L 627.18948 79.955494 
L 628.333 80.19471 
L 628.333 80.19471 
" style="fill:none;stroke:#1f77b4;stroke-linecap:square;stroke-width:1.5;"/>
   </g>
   <g id="patch_8">
    <path d="M 363.036302 179.298125 
L 363.036302 22.318125 
" style="fill:none;stroke:#000000;stroke-linecap:square;stroke-linejoin:miter;stroke-width:0.8;"/>
   </g>
   <g id="patch_9">
    <path d="M 607.749635 179.298125 
L 607.749635 22.318125 
" style="fill:none;stroke:#000000;stroke-linecap:square;stroke-linejoin:miter;stroke-width:0.8;"/>
   </g>
   <g id="patch_10">
    <path d="M 363.036302 179.298125 
L 607.749635 179.298125 
" style="fill:none;stroke:#000000;stroke-linecap:square;stroke-linejoin:miter;stroke-width:0.8;"/>
   </g>
   <g id="patch_11">
    <path d="M 363.036302 22.318125 
L 607.749635 22.318125 
" style="fill:none;stroke:#000000;stroke-linecap:square;stroke-linejoin:miter;stroke-width:0.8;"/>
   </g>
   <g id="text_29">
    <!-- COVID-19 Hospitalizations -->
    <g transform="translate(406.792031 16.318125)scale(0.12 -0.12)">
     <defs>
      <path d="M 9.8125 72.90625 
L 19.671875 72.90625 
L 19.671875 43.015625 
L 55.515625 43.015625 
L 55.515625 72.90625 
L 65.375 72.90625 
L 65.375 0 
L 55.515625 0 
L 55.515625 34.71875 
L 19.671875 34.71875 
L 19.671875 0 
L 9.8125 0 
z
" id="DejaVuSans-72"/>
      <path d="M 9.421875 54.6875 
L 18.40625 54.6875 
L 18.40625 0 
L 9.421875 0 
z
M 9.421875 75.984375 
L 18.40625 75.984375 
L 18.40625 64.59375 
L 9.421875 64.59375 
z
" id="DejaVuSans-105"/>
      <path d="M 9.421875 75.984375 
L 18.40625 75.984375 
L 18.40625 0 
L 9.421875 0 
z
" id="DejaVuSans-108"/>
      <path d="M 5.515625 54.6875 
L 48.1875 54.6875 
L 48.1875 46.484375 
L 14.40625 7.171875 
L 48.1875 7.171875 
L 48.1875 0 
L 4.296875 0 
L 4.296875 8.203125 
L 38.09375 47.515625 
L 5.515625 47.515625 
z
" id="DejaVuSans-122"/>
     </defs>
     <use xlink:href="#DejaVuSans-67"/>
     <use x="69.824219" xlink:href="#DejaVuSans-79"/>
     <use x="146.785156" xlink:href="#DejaVuSans-86"/>
     <use x="215.193359" xlink:href="#DejaVuSans-73"/>
     <use x="244.685547" xlink:href="#DejaVuSans-68"/>
     <use x="321.6875" xlink:href="#DejaVuSans-45"/>
     <use x="357.771484" xlink:href="#DejaVuSans-49"/>
     <use x="421.394531" xlink:href="#DejaVuSans-57"/>
     <use x="485.017578" xlink:href="#DejaVuSans-32"/>
     <use x="516.804688" xlink:href="#DejaVuSans-72"/>
     <use x="592" xlink:href="#DejaVuSans-111"/>
     <use x="653.181641" xlink:href="#DejaVuSans-115"/>
     <use x="705.28125" xlink:href="#DejaVuSans-112"/>
     <use x="768.757812" xlink:href="#DejaVuSans-105"/>
     <use x="796.541016" xlink:href="#DejaVuSans-116"/>
     <use x="835.75" xlink:href="#DejaVuSans-97"/>
     <use x="897.029297" xlink:href="#DejaVuSans-108"/>
     <use x="924.8125" xlink:href="#DejaVuSans-105"/>
     <use x="952.595703" xlink:href="#DejaVuSans-122"/>
     <use x="1005.085938" xlink:href="#DejaVuSans-97"/>
     <use x="1066.365234" xlink:href="#DejaVuSans-116"/>
     <use x="1105.574219" xlink:href="#DejaVuSans-105"/>
     <use x="1133.357422" xlink:href="#DejaVuSans-111"/>
     <use x="1194.539062" xlink:href="#DejaVuSans-110"/>
     <use x="1257.917969" xlink:href="#DejaVuSans-115"/>
    </g>
   </g>
  </g>
  <g id="axes_3">
   <g id="patch_12">
    <path d="M 663.339635 179.298125 
L 908.052969 179.298125 
L 908.052969 22.318125 
L 663.339635 22.318125 
z
" style="fill:#ffffff;"/>
   </g>
   <g id="matplotlib.axis_5">
    <g id="xtick_75">
     <g id="line2d_86">
      <g>
       <use style="stroke:#000000;stroke-width:0.8;" x="663.339635" xlink:href="#m40de754a99" y="179.298125"/>
      </g>
     </g>
     <g id="text_30">
      <!-- 2020-04 -->
      <g transform="translate(624.253574 215.143563)rotate(-30)scale(0.105 -0.105)">
       <use xlink:href="#DejaVuSans-50"/>
       <use x="63.623047" xlink:href="#DejaVuSans-48"/>
       <use x="127.246094" xlink:href="#DejaVuSans-50"/>
       <use x="190.869141" xlink:href="#DejaVuSans-48"/>
       <use x="254.492188" xlink:href="#DejaVuSans-45"/>
       <use x="290.576172" xlink:href="#DejaVuSans-48"/>
       <use x="354.199219" xlink:href="#DejaVuSans-52"/>
      </g>
     </g>
    </g>
    <g id="xtick_76">
     <g id="line2d_87">
      <g>
       <use style="stroke:#000000;stroke-width:0.8;" x="697.645243" xlink:href="#m40de754a99" y="179.298125"/>
      </g>
     </g>
     <g id="text_31">
      <!-- 2020-05 -->
      <g transform="translate(658.559181 215.143563)rotate(-30)scale(0.105 -0.105)">
       <use xlink:href="#DejaVuSans-50"/>
       <use x="63.623047" xlink:href="#DejaVuSans-48"/>
       <use x="127.246094" xlink:href="#DejaVuSans-50"/>
       <use x="190.869141" xlink:href="#DejaVuSans-48"/>
       <use x="254.492188" xlink:href="#DejaVuSans-45"/>
       <use x="290.576172" xlink:href="#DejaVuSans-48"/>
       <use x="354.199219" xlink:href="#DejaVuSans-53"/>
      </g>
     </g>
    </g>
    <g id="xtick_77">
     <g id="line2d_88">
      <g>
       <use style="stroke:#000000;stroke-width:0.8;" x="733.094371" xlink:href="#m40de754a99" y="179.298125"/>
      </g>
     </g>
     <g id="text_32">
      <!-- 2020-06 -->
      <g transform="translate(694.008309 215.143563)rotate(-30)scale(0.105 -0.105)">
       <use xlink:href="#DejaVuSans-50"/>
       <use x="63.623047" xlink:href="#DejaVuSans-48"/>
       <use x="127.246094" xlink:href="#DejaVuSans-50"/>
       <use x="190.869141" xlink:href="#DejaVuSans-48"/>
       <use x="254.492188" xlink:href="#DejaVuSans-45"/>
       <use x="290.576172" xlink:href="#DejaVuSans-48"/>
       <use x="354.199219" xlink:href="#DejaVuSans-54"/>
      </g>
     </g>
    </g>
    <g id="xtick_78">
     <g id="line2d_89">
      <g>
       <use style="stroke:#000000;stroke-width:0.8;" x="767.399978" xlink:href="#m40de754a99" y="179.298125"/>
      </g>
     </g>
     <g id="text_33">
      <!-- 2020-07 -->
      <g transform="translate(728.313916 215.143563)rotate(-30)scale(0.105 -0.105)">
       <use xlink:href="#DejaVuSans-50"/>
       <use x="63.623047" xlink:href="#DejaVuSans-48"/>
       <use x="127.246094" xlink:href="#DejaVuSans-50"/>
       <use x="190.869141" xlink:href="#DejaVuSans-48"/>
       <use x="254.492188" xlink:href="#DejaVuSans-45"/>
       <use x="290.576172" xlink:href="#DejaVuSans-48"/>
       <use x="354.199219" xlink:href="#DejaVuSans-55"/>
      </g>
     </g>
    </g>
    <g id="xtick_79">
     <g id="line2d_90">
      <g>
       <use style="stroke:#000000;stroke-width:0.8;" x="802.849106" xlink:href="#m40de754a99" y="179.298125"/>
      </g>
     </g>
     <g id="text_34">
      <!-- 2020-08 -->
      <g transform="translate(763.763044 215.143563)rotate(-30)scale(0.105 -0.105)">
       <use xlink:href="#DejaVuSans-50"/>
       <use x="63.623047" xlink:href="#DejaVuSans-48"/>
       <use x="127.246094" xlink:href="#DejaVuSans-50"/>
       <use x="190.869141" xlink:href="#DejaVuSans-48"/>
       <use x="254.492188" xlink:href="#DejaVuSans-45"/>
       <use x="290.576172" xlink:href="#DejaVuSans-48"/>
       <use x="354.199219" xlink:href="#DejaVuSans-56"/>
      </g>
     </g>
    </g>
    <g id="xtick_80">
     <g id="line2d_91">
      <g>
       <use style="stroke:#000000;stroke-width:0.8;" x="838.298234" xlink:href="#m40de754a99" y="179.298125"/>
      </g>
     </g>
     <g id="text_35">
      <!-- 2020-09 -->
      <g transform="translate(799.212172 215.143563)rotate(-30)scale(0.105 -0.105)">
       <use xlink:href="#DejaVuSans-50"/>
       <use x="63.623047" xlink:href="#DejaVuSans-48"/>
       <use x="127.246094" xlink:href="#DejaVuSans-50"/>
       <use x="190.869141" xlink:href="#DejaVuSans-48"/>
       <use x="254.492188" xlink:href="#DejaVuSans-45"/>
       <use x="290.576172" xlink:href="#DejaVuSans-48"/>
       <use x="354.199219" xlink:href="#DejaVuSans-57"/>
      </g>
     </g>
    </g>
    <g id="xtick_81">
     <g id="line2d_92">
      <g>
       <use style="stroke:#000000;stroke-width:0.8;" x="872.603841" xlink:href="#m40de754a99" y="179.298125"/>
      </g>
     </g>
     <g id="text_36">
      <!-- 2020-10 -->
      <g transform="translate(833.517779 215.143563)rotate(-30)scale(0.105 -0.105)">
       <use xlink:href="#DejaVuSans-50"/>
       <use x="63.623047" xlink:href="#DejaVuSans-48"/>
       <use x="127.246094" xlink:href="#DejaVuSans-50"/>
       <use x="190.869141" xlink:href="#DejaVuSans-48"/>
       <use x="254.492188" xlink:href="#DejaVuSans-45"/>
       <use x="290.576172" xlink:href="#DejaVuSans-49"/>
       <use x="354.199219" xlink:href="#DejaVuSans-48"/>
      </g>
     </g>
    </g>
    <g id="xtick_82">
     <g id="line2d_93">
      <g>
       <use style="stroke:#000000;stroke-width:0.8;" x="908.052969" xlink:href="#m40de754a99" y="179.298125"/>
      </g>
     </g>
     <g id="text_37">
      <!-- 2020-11 -->
      <g transform="translate(868.966907 215.143563)rotate(-30)scale(0.105 -0.105)">
       <use xlink:href="#DejaVuSans-50"/>
       <use x="63.623047" xlink:href="#DejaVuSans-48"/>
       <use x="127.246094" xlink:href="#DejaVuSans-50"/>
       <use x="190.869141" xlink:href="#DejaVuSans-48"/>
       <use x="254.492188" xlink:href="#DejaVuSans-45"/>
       <use x="290.576172" xlink:href="#DejaVuSans-49"/>
       <use x="354.199219" xlink:href="#DejaVuSans-49"/>
      </g>
     </g>
    </g>
    <g id="xtick_83">
     <g id="line2d_94">
      <g>
       <use style="stroke:#000000;stroke-width:0.6;" x="669.057237" xlink:href="#mbb6cfdbc26" y="179.298125"/>
      </g>
     </g>
    </g>
    <g id="xtick_84">
     <g id="line2d_95">
      <g>
       <use style="stroke:#000000;stroke-width:0.6;" x="677.061878" xlink:href="#mbb6cfdbc26" y="179.298125"/>
      </g>
     </g>
    </g>
    <g id="xtick_85">
     <g id="line2d_96">
      <g>
       <use style="stroke:#000000;stroke-width:0.6;" x="685.06652" xlink:href="#mbb6cfdbc26" y="179.298125"/>
      </g>
     </g>
    </g>
    <g id="xtick_86">
     <g id="line2d_97">
      <g>
       <use style="stroke:#000000;stroke-width:0.6;" x="693.071162" xlink:href="#mbb6cfdbc26" y="179.298125"/>
      </g>
     </g>
    </g>
    <g id="xtick_87">
     <g id="line2d_98">
      <g>
       <use style="stroke:#000000;stroke-width:0.6;" x="701.075804" xlink:href="#mbb6cfdbc26" y="179.298125"/>
      </g>
     </g>
    </g>
    <g id="xtick_88">
     <g id="line2d_99">
      <g>
       <use style="stroke:#000000;stroke-width:0.6;" x="709.080445" xlink:href="#mbb6cfdbc26" y="179.298125"/>
      </g>
     </g>
    </g>
    <g id="xtick_89">
     <g id="line2d_100">
      <g>
       <use style="stroke:#000000;stroke-width:0.6;" x="717.085087" xlink:href="#mbb6cfdbc26" y="179.298125"/>
      </g>
     </g>
    </g>
    <g id="xtick_90">
     <g id="line2d_101">
      <g>
       <use style="stroke:#000000;stroke-width:0.6;" x="725.089729" xlink:href="#mbb6cfdbc26" y="179.298125"/>
      </g>
     </g>
    </g>
    <g id="xtick_91">
     <g id="line2d_102">
      <g>
       <use style="stroke:#000000;stroke-width:0.6;" x="741.099012" xlink:href="#mbb6cfdbc26" y="179.298125"/>
      </g>
     </g>
    </g>
    <g id="xtick_92">
     <g id="line2d_103">
      <g>
       <use style="stroke:#000000;stroke-width:0.6;" x="749.103654" xlink:href="#mbb6cfdbc26" y="179.298125"/>
      </g>
     </g>
    </g>
    <g id="xtick_93">
     <g id="line2d_104">
      <g>
       <use style="stroke:#000000;stroke-width:0.6;" x="757.108296" xlink:href="#mbb6cfdbc26" y="179.298125"/>
      </g>
     </g>
    </g>
    <g id="xtick_94">
     <g id="line2d_105">
      <g>
       <use style="stroke:#000000;stroke-width:0.6;" x="765.112938" xlink:href="#mbb6cfdbc26" y="179.298125"/>
      </g>
     </g>
    </g>
    <g id="xtick_95">
     <g id="line2d_106">
      <g>
       <use style="stroke:#000000;stroke-width:0.6;" x="773.117579" xlink:href="#mbb6cfdbc26" y="179.298125"/>
      </g>
     </g>
    </g>
    <g id="xtick_96">
     <g id="line2d_107">
      <g>
       <use style="stroke:#000000;stroke-width:0.6;" x="781.122221" xlink:href="#mbb6cfdbc26" y="179.298125"/>
      </g>
     </g>
    </g>
    <g id="xtick_97">
     <g id="line2d_108">
      <g>
       <use style="stroke:#000000;stroke-width:0.6;" x="789.126863" xlink:href="#mbb6cfdbc26" y="179.298125"/>
      </g>
     </g>
    </g>
    <g id="xtick_98">
     <g id="line2d_109">
      <g>
       <use style="stroke:#000000;stroke-width:0.6;" x="797.131505" xlink:href="#mbb6cfdbc26" y="179.298125"/>
      </g>
     </g>
    </g>
    <g id="xtick_99">
     <g id="line2d_110">
      <g>
       <use style="stroke:#000000;stroke-width:0.6;" x="805.136146" xlink:href="#mbb6cfdbc26" y="179.298125"/>
      </g>
     </g>
    </g>
    <g id="xtick_100">
     <g id="line2d_111">
      <g>
       <use style="stroke:#000000;stroke-width:0.6;" x="813.140788" xlink:href="#mbb6cfdbc26" y="179.298125"/>
      </g>
     </g>
    </g>
    <g id="xtick_101">
     <g id="line2d_112">
      <g>
       <use style="stroke:#000000;stroke-width:0.6;" x="821.14543" xlink:href="#mbb6cfdbc26" y="179.298125"/>
      </g>
     </g>
    </g>
    <g id="xtick_102">
     <g id="line2d_113">
      <g>
       <use style="stroke:#000000;stroke-width:0.6;" x="829.150072" xlink:href="#mbb6cfdbc26" y="179.298125"/>
      </g>
     </g>
    </g>
    <g id="xtick_103">
     <g id="line2d_114">
      <g>
       <use style="stroke:#000000;stroke-width:0.6;" x="837.154713" xlink:href="#mbb6cfdbc26" y="179.298125"/>
      </g>
     </g>
    </g>
    <g id="xtick_104">
     <g id="line2d_115">
      <g>
       <use style="stroke:#000000;stroke-width:0.6;" x="845.159355" xlink:href="#mbb6cfdbc26" y="179.298125"/>
      </g>
     </g>
    </g>
    <g id="xtick_105">
     <g id="line2d_116">
      <g>
       <use style="stroke:#000000;stroke-width:0.6;" x="853.163997" xlink:href="#mbb6cfdbc26" y="179.298125"/>
      </g>
     </g>
    </g>
    <g id="xtick_106">
     <g id="line2d_117">
      <g>
       <use style="stroke:#000000;stroke-width:0.6;" x="861.168639" xlink:href="#mbb6cfdbc26" y="179.298125"/>
      </g>
     </g>
    </g>
    <g id="xtick_107">
     <g id="line2d_118">
      <g>
       <use style="stroke:#000000;stroke-width:0.6;" x="869.17328" xlink:href="#mbb6cfdbc26" y="179.298125"/>
      </g>
     </g>
    </g>
    <g id="xtick_108">
     <g id="line2d_119">
      <g>
       <use style="stroke:#000000;stroke-width:0.6;" x="877.177922" xlink:href="#mbb6cfdbc26" y="179.298125"/>
      </g>
     </g>
    </g>
    <g id="xtick_109">
     <g id="line2d_120">
      <g>
       <use style="stroke:#000000;stroke-width:0.6;" x="885.182564" xlink:href="#mbb6cfdbc26" y="179.298125"/>
      </g>
     </g>
    </g>
    <g id="xtick_110">
     <g id="line2d_121">
      <g>
       <use style="stroke:#000000;stroke-width:0.6;" x="893.187206" xlink:href="#mbb6cfdbc26" y="179.298125"/>
      </g>
     </g>
    </g>
    <g id="xtick_111">
     <g id="line2d_122">
      <g>
       <use style="stroke:#000000;stroke-width:0.6;" x="901.191847" xlink:href="#mbb6cfdbc26" y="179.298125"/>
      </g>
     </g>
    </g>
   </g>
   <g id="matplotlib.axis_6">
    <g id="ytick_10">
     <g id="line2d_123">
      <g>
       <use style="stroke:#000000;stroke-width:0.8;" x="663.339635" xlink:href="#mf021bf3d3a" y="172.16267"/>
      </g>
     </g>
     <g id="text_38">
      <!-- 0 -->
      <g transform="translate(649.65901 176.15185)scale(0.105 -0.105)">
       <use xlink:href="#DejaVuSans-48"/>
      </g>
     </g>
    </g>
    <g id="ytick_11">
     <g id="line2d_124">
      <g>
       <use style="stroke:#000000;stroke-width:0.8;" x="663.339635" xlink:href="#mf021bf3d3a" y="127.956828"/>
      </g>
     </g>
     <g id="text_39">
      <!-- 500 -->
      <g transform="translate(636.29776 131.946007)scale(0.105 -0.105)">
       <use xlink:href="#DejaVuSans-53"/>
       <use x="63.623047" xlink:href="#DejaVuSans-48"/>
       <use x="127.246094" xlink:href="#DejaVuSans-48"/>
      </g>
     </g>
    </g>
    <g id="ytick_12">
     <g id="line2d_125">
      <g>
       <use style="stroke:#000000;stroke-width:0.8;" x="663.339635" xlink:href="#mf021bf3d3a" y="83.750985"/>
      </g>
     </g>
     <g id="text_40">
      <!-- 1000 -->
      <g transform="translate(629.617135 87.740164)scale(0.105 -0.105)">
       <use xlink:href="#DejaVuSans-49"/>
       <use x="63.623047" xlink:href="#DejaVuSans-48"/>
       <use x="127.246094" xlink:href="#DejaVuSans-48"/>
       <use x="190.869141" xlink:href="#DejaVuSans-48"/>
      </g>
     </g>
    </g>
    <g id="ytick_13">
     <g id="line2d_126">
      <g>
       <use style="stroke:#000000;stroke-width:0.8;" x="663.339635" xlink:href="#mf021bf3d3a" y="39.545142"/>
      </g>
     </g>
     <g id="text_41">
      <!-- 1500 -->
      <g transform="translate(629.617135 43.534322)scale(0.105 -0.105)">
       <use xlink:href="#DejaVuSans-49"/>
       <use x="63.623047" xlink:href="#DejaVuSans-53"/>
       <use x="127.246094" xlink:href="#DejaVuSans-48"/>
       <use x="190.869141" xlink:href="#DejaVuSans-48"/>
      </g>
     </g>
    </g>
   </g>
   <g id="line2d_127">
    <path clip-path="url(#p367d30edd6)" d="M 559.279293 172.16267 
L 613.024744 172.061629 
L 626.746987 171.859545 
L 631.321068 171.354335 
L 633.608109 171.11436 
L 634.751629 170.950167 
L 635.895149 170.924907 
L 637.03867 170.697563 
L 638.18219 170.01553 
L 639.32571 169.699773 
L 640.46923 168.97985 
L 642.756271 167.350549 
L 643.899791 166.112785 
L 645.043311 163.599367 
L 646.186832 161.818503 
L 647.330352 158.711464 
L 648.473872 156.513802 
L 649.617392 154.796089 
L 650.760913 153.583586 
L 651.904433 152.787881 
L 653.047953 150.830194 
L 654.191473 139.766103 
L 655.334994 131.392253 
L 659.909075 105.841276 
L 661.052595 102.784758 
L 662.196115 96.684351 
L 664.483156 101.130196 
L 665.626676 105.323436 
L 666.770196 99.614567 
L 667.913716 77.928444 
L 669.057237 73.469969 
L 670.200757 60.220846 
L 671.344277 58.200008 
L 672.487797 59.968241 
L 673.631318 51.821736 
L 674.774838 50.280847 
L 675.918358 55.471876 
L 677.061878 49.257797 
L 678.205399 47.944252 
L 679.348919 50.419779 
L 680.492439 49.283058 
L 681.635959 55.977085 
L 682.77948 44.041508 
L 683.923 29.45358 
L 685.06652 33.318433 
L 686.21004 46.78227 
L 687.353561 47.31274 
L 688.497081 45.291902 
L 689.640601 44.496196 
L 690.784121 66.056017 
L 691.927642 77.524276 
L 693.071162 78.26946 
L 694.214682 88.550476 
L 695.358202 88.651518 
L 696.501723 89.409333 
L 697.645243 88.095788 
L 698.788763 84.950858 
L 699.932283 96.027579 
L 701.075804 98.591518 
L 702.219324 102.645825 
L 703.362844 103.214186 
L 704.506364 101.092305 
L 705.649885 103.353119 
L 706.793405 106.801174 
L 707.936925 109.870323 
L 709.080445 111.209128 
L 710.223966 111.916422 
L 711.367486 105.272915 
L 712.511006 109.895583 
L 713.654526 112.093245 
L 714.798047 113.141555 
L 715.941567 114.707705 
L 718.228607 116.589611 
L 719.372128 125.178175 
L 720.515648 123.612025 
L 721.659168 123.776218 
L 722.802688 124.167755 
L 725.089729 133.31205 
L 726.233249 131.960614 
L 727.376769 130.103969 
L 728.52029 130.647069 
L 729.66381 128.045239 
L 730.80733 126.883257 
L 731.95085 132.566866 
L 733.094371 128.689382 
L 734.237891 129.068289 
L 735.381411 131.632228 
L 736.524931 132.996294 
L 737.668452 136.419089 
L 738.811972 137.656853 
L 739.955492 137.947348 
L 741.099012 141.079648 
L 742.242533 142.607907 
L 743.386053 142.986814 
L 744.529573 145.171846 
L 745.673093 144.84346 
L 746.816614 145.37393 
L 750.247174 146.662214 
L 751.390695 147.925238 
L 752.534215 146.649584 
L 753.677735 146.599063 
L 754.821255 146.97797 
L 755.964776 146.662214 
L 757.108296 146.561172 
L 758.251816 145.702316 
L 759.395336 144.136166 
L 760.538857 144.022494 
L 761.682377 143.226789 
L 762.825897 142.78473 
L 763.969417 139.387196 
L 765.112938 138.528339 
L 766.256458 138.692532 
L 767.399978 139.778733 
L 768.543498 134.726637 
L 769.687019 136.014921 
L 770.830539 136.014921 
L 771.974059 138.705163 
L 774.2611 138.098911 
L 775.40462 137.378987 
L 776.54814 141.610118 
L 777.69166 139.61454 
L 778.835181 136.368568 
L 779.978701 134.612965 
L 781.122221 130.280792 
L 782.265741 128.62623 
L 783.409262 128.247323 
L 784.552782 128.234693 
L 785.696302 127.792634 
L 786.839822 126.49172 
L 787.983343 122.273219 
L 789.126863 123.220487 
L 790.270383 122.955252 
L 792.557424 122.740538 
L 793.700944 122.929992 
L 794.844464 126.428568 
L 795.987984 131.998505 
L 797.131505 132.061656 
L 798.275025 133.905671 
L 799.418545 131.265951 
L 800.562065 131.404883 
L 801.705586 124.9382 
L 802.849106 124.837158 
L 803.992626 125.051872 
L 805.136146 126.820106 
L 806.279667 126.428568 
L 807.423187 129.851364 
L 808.566707 130.71022 
L 809.710227 137.606332 
L 810.853748 138.288365 
L 811.997268 137.265315 
L 813.140788 137.467399 
L 814.284308 138.199953 
L 815.427829 138.490448 
L 817.714869 133.084705 
L 818.858389 134.057234 
L 820.00191 133.779369 
L 821.14543 132.390042 
L 822.28895 132.415303 
L 823.43247 128.752533 
L 824.575991 125.594973 
L 825.719511 124.862419 
L 826.863031 123.169966 
L 828.006551 124.799267 
L 829.150072 122.31111 
L 830.293592 122.917362 
L 831.437112 124.470881 
L 832.580632 126.390678 
L 833.724153 131.379623 
L 834.867673 133.514134 
L 836.011193 133.930932 
L 837.154713 140.738631 
L 838.298234 141.16806 
L 839.441754 144.186687 
L 840.585274 148.784095 
L 841.728794 147.761045 
L 842.872315 106.321225 
L 844.015835 106.851695 
L 845.159355 109.541937 
L 846.302875 108.038938 
L 847.446396 106.157032 
L 848.589916 103.378379 
L 849.733436 104.363538 
L 850.876956 145.954921 
L 852.020477 145.815988 
L 853.163997 144.174057 
L 854.307517 141.862723 
L 855.451037 138.03576 
L 856.594558 137.922088 
L 857.738078 138.275734 
L 860.025118 138.225213 
L 861.168639 135.080283 
L 862.312159 136.078072 
L 863.455679 140.271312 
L 864.599199 141.976395 
L 865.74272 138.806204 
L 866.88624 136.49487 
L 868.02976 136.078072 
L 869.17328 138.642011 
L 870.316801 139.942926 
L 871.460321 137.934718 
L 872.603841 131.291211 
L 873.747361 134.196167 
L 874.890882 135.913879 
L 876.034402 135.825468 
L 877.177922 133.741478 
L 878.321442 134.423511 
L 879.464963 138.124171 
L 880.608483 145.474972 
L 882.895523 143.959343 
L 884.039044 140.549178 
L 885.182564 141.155429 
L 886.326084 136.873778 
L 887.469604 135.800207 
L 888.613125 133.754108 
L 889.756645 130.20501 
L 890.900165 128.815684 
L 892.043685 131.682749 
L 893.187206 132.049026 
L 894.330726 133.173117 
L 895.474246 130.268162 
L 896.617766 130.609178 
L 898.904807 133.299419 
L 900.048327 132.390042 
L 901.191847 129.030398 
L 902.335368 127.881046 
L 903.478888 124.685595 
L 904.622408 125.797056 
L 905.765928 127.135862 
L 906.909449 125.746535 
L 908.052969 126.870627 
L 909.196489 129.346154 
L 910.340009 132.554235 
L 911.483529 134.221427 
L 912.62705 133.82989 
L 913.77057 134.638225 
L 914.91409 135.193956 
L 916.05761 133.690957 
L 916.252969 133.854945 
L 916.252969 133.854945 
" style="fill:none;stroke:#1f77b4;stroke-linecap:square;stroke-width:1.5;"/>
   </g>
   <g id="patch_13">
    <path d="M 663.339635 179.298125 
L 663.339635 22.318125 
" style="fill:none;stroke:#000000;stroke-linecap:square;stroke-linejoin:miter;stroke-width:0.8;"/>
   </g>
   <g id="patch_14">
    <path d="M 908.052969 179.298125 
L 908.052969 22.318125 
" style="fill:none;stroke:#000000;stroke-linecap:square;stroke-linejoin:miter;stroke-width:0.8;"/>
   </g>
   <g id="patch_15">
    <path d="M 663.339635 179.298125 
L 908.052969 179.298125 
" style="fill:none;stroke:#000000;stroke-linecap:square;stroke-linejoin:miter;stroke-width:0.8;"/>
   </g>
   <g id="patch_16">
    <path d="M 663.339635 22.318125 
L 908.052969 22.318125 
" style="fill:none;stroke:#000000;stroke-linecap:square;stroke-linejoin:miter;stroke-width:0.8;"/>
   </g>
   <g id="text_42">
    <!-- COVID-19 Deaths -->
    <g transform="translate(733.41849 16.318125)scale(0.12 -0.12)">
     <defs>
      <path d="M 54.890625 33.015625 
L 54.890625 0 
L 45.90625 0 
L 45.90625 32.71875 
Q 45.90625 40.484375 42.875 44.328125 
Q 39.84375 48.1875 33.796875 48.1875 
Q 26.515625 48.1875 22.3125 43.546875 
Q 18.109375 38.921875 18.109375 30.90625 
L 18.109375 0 
L 9.078125 0 
L 9.078125 75.984375 
L 18.109375 75.984375 
L 18.109375 46.1875 
Q 21.34375 51.125 25.703125 53.5625 
Q 30.078125 56 35.796875 56 
Q 45.21875 56 50.046875 50.171875 
Q 54.890625 44.34375 54.890625 33.015625 
z
" id="DejaVuSans-104"/>
     </defs>
     <use xlink:href="#DejaVuSans-67"/>
     <use x="69.824219" xlink:href="#DejaVuSans-79"/>
     <use x="146.785156" xlink:href="#DejaVuSans-86"/>
     <use x="215.193359" xlink:href="#DejaVuSans-73"/>
     <use x="244.685547" xlink:href="#DejaVuSans-68"/>
     <use x="321.6875" xlink:href="#DejaVuSans-45"/>
     <use x="357.771484" xlink:href="#DejaVuSans-49"/>
     <use x="421.394531" xlink:href="#DejaVuSans-57"/>
     <use x="485.017578" xlink:href="#DejaVuSans-32"/>
     <use x="516.804688" xlink:href="#DejaVuSans-68"/>
     <use x="593.806641" xlink:href="#DejaVuSans-101"/>
     <use x="655.330078" xlink:href="#DejaVuSans-97"/>
     <use x="716.609375" xlink:href="#DejaVuSans-116"/>
     <use x="755.818359" xlink:href="#DejaVuSans-104"/>
     <use x="819.197266" xlink:href="#DejaVuSans-115"/>
    </g>
   </g>
  </g>
 </g>
 <defs>
  <clipPath id="p14e4232c5a">
   <rect height="156.98" width="244.713333" x="62.732969" y="22.318125"/>
  </clipPath>
  <clipPath id="p19498769ae">
   <rect height="156.98" width="244.713333" x="363.036302" y="22.318125"/>
  </clipPath>
  <clipPath id="p367d30edd6">
   <rect height="156.98" width="244.713333" x="663.339635" y="22.318125"/>
  </clipPath>
 </defs>
</svg>
