<?xml version="1.0" encoding="utf-8" standalone="no"?>
<!DOCTYPE svg PUBLIC "-//W3C//DTD SVG 1.1//EN"
  "http://www.w3.org/Graphics/SVG/1.1/DTD/svg11.dtd">
<!-- Created with matplotlib (https://matplotlib.org/) -->
<svg height="239.364523pt" version="1.1" viewBox="0 0 915.35375 239.364523" width="915.35375pt" xmlns="http://www.w3.org/2000/svg" xmlns:xlink="http://www.w3.org/1999/xlink">
 <metadata>
  <rdf:RDF xmlns:cc="http://creativecommons.org/ns#" xmlns:dc="http://purl.org/dc/elements/1.1/" xmlns:rdf="http://www.w3.org/1999/02/22-rdf-syntax-ns#">
   <cc:Work>
    <dc:type rdf:resource="http://purl.org/dc/dcmitype/StillImage"/>
    <dc:date>2020-12-11T21:54:27.380481</dc:date>
    <dc:format>image/svg+xml</dc:format>
    <dc:creator>
     <cc:Agent>
      <dc:title>Matplotlib v3.3.1, https://matplotlib.org/</dc:title>
     </cc:Agent>
    </dc:creator>
   </cc:Work>
  </rdf:RDF>
 </metadata>
 <defs>
  <style type="text/css">*{stroke-linecap:butt;stroke-linejoin:round;}</style>
 </defs>
 <g id="figure_1">
  <g id="patch_1">
   <path d="M 0 239.364523 
L 915.35375 239.364523 
L 915.35375 0 
L 0 0 
z
" style="fill:none;"/>
  </g>
  <g id="axes_1">
   <g id="patch_2">
    <path d="M 52.70875 179.298125 
L 457.69875 179.298125 
L 457.69875 22.318125 
L 52.70875 22.318125 
z
" style="fill:#ffffff;"/>
   </g>
   <g id="matplotlib.axis_1">
    <g id="xtick_1">
     <g id="line2d_1">
      <defs>
       <path d="M 0 0 
L 0 3.5 
" id="m3678f5f739" style="stroke:#000000;stroke-width:0.8;"/>
      </defs>
      <g>
       <use style="stroke:#000000;stroke-width:0.8;" x="52.70875" xlink:href="#m3678f5f739" y="179.298125"/>
      </g>
     </g>
     <g id="text_1">
      <!-- 2020-04 -->
      <g transform="translate(13.622688 215.143563)rotate(-30)scale(0.105 -0.105)">
       <defs>
        <path d="M 19.1875 8.296875 
L 53.609375 8.296875 
L 53.609375 0 
L 7.328125 0 
L 7.328125 8.296875 
Q 12.9375 14.109375 22.625 23.890625 
Q 32.328125 33.6875 34.8125 36.53125 
Q 39.546875 41.84375 41.421875 45.53125 
Q 43.3125 49.21875 43.3125 52.78125 
Q 43.3125 58.59375 39.234375 62.25 
Q 35.15625 65.921875 28.609375 65.921875 
Q 23.96875 65.921875 18.8125 64.3125 
Q 13.671875 62.703125 7.8125 59.421875 
L 7.8125 69.390625 
Q 13.765625 71.78125 18.9375 73 
Q 24.125 74.21875 28.421875 74.21875 
Q 39.75 74.21875 46.484375 68.546875 
Q 53.21875 62.890625 53.21875 53.421875 
Q 53.21875 48.921875 51.53125 44.890625 
Q 49.859375 40.875 45.40625 35.40625 
Q 44.1875 33.984375 37.640625 27.21875 
Q 31.109375 20.453125 19.1875 8.296875 
z
" id="DejaVuSans-50"/>
        <path d="M 31.78125 66.40625 
Q 24.171875 66.40625 20.328125 58.90625 
Q 16.5 51.421875 16.5 36.375 
Q 16.5 21.390625 20.328125 13.890625 
Q 24.171875 6.390625 31.78125 6.390625 
Q 39.453125 6.390625 43.28125 13.890625 
Q 47.125 21.390625 47.125 36.375 
Q 47.125 51.421875 43.28125 58.90625 
Q 39.453125 66.40625 31.78125 66.40625 
z
M 31.78125 74.21875 
Q 44.046875 74.21875 50.515625 64.515625 
Q 56.984375 54.828125 56.984375 36.375 
Q 56.984375 17.96875 50.515625 8.265625 
Q 44.046875 -1.421875 31.78125 -1.421875 
Q 19.53125 -1.421875 13.0625 8.265625 
Q 6.59375 17.96875 6.59375 36.375 
Q 6.59375 54.828125 13.0625 64.515625 
Q 19.53125 74.21875 31.78125 74.21875 
z
" id="DejaVuSans-48"/>
        <path d="M 4.890625 31.390625 
L 31.203125 31.390625 
L 31.203125 23.390625 
L 4.890625 23.390625 
z
" id="DejaVuSans-45"/>
        <path d="M 37.796875 64.3125 
L 12.890625 25.390625 
L 37.796875 25.390625 
z
M 35.203125 72.90625 
L 47.609375 72.90625 
L 47.609375 25.390625 
L 58.015625 25.390625 
L 58.015625 17.1875 
L 47.609375 17.1875 
L 47.609375 0 
L 37.796875 0 
L 37.796875 17.1875 
L 4.890625 17.1875 
L 4.890625 26.703125 
z
" id="DejaVuSans-52"/>
       </defs>
       <use xlink:href="#DejaVuSans-50"/>
       <use x="63.623047" xlink:href="#DejaVuSans-48"/>
       <use x="127.246094" xlink:href="#DejaVuSans-50"/>
       <use x="190.869141" xlink:href="#DejaVuSans-48"/>
       <use x="254.492188" xlink:href="#DejaVuSans-45"/>
       <use x="290.576172" xlink:href="#DejaVuSans-48"/>
       <use x="354.199219" xlink:href="#DejaVuSans-52"/>
      </g>
     </g>
    </g>
    <g id="xtick_2">
     <g id="line2d_2">
      <g>
       <use style="stroke:#000000;stroke-width:0.8;" x="109.483049" xlink:href="#m3678f5f739" y="179.298125"/>
      </g>
     </g>
     <g id="text_2">
      <!-- 2020-05 -->
      <g transform="translate(70.396987 215.143563)rotate(-30)scale(0.105 -0.105)">
       <defs>
        <path d="M 10.796875 72.90625 
L 49.515625 72.90625 
L 49.515625 64.59375 
L 19.828125 64.59375 
L 19.828125 46.734375 
Q 21.96875 47.46875 24.109375 47.828125 
Q 26.265625 48.1875 28.421875 48.1875 
Q 40.625 48.1875 47.75 41.5 
Q 54.890625 34.8125 54.890625 23.390625 
Q 54.890625 11.625 47.5625 5.09375 
Q 40.234375 -1.421875 26.90625 -1.421875 
Q 22.3125 -1.421875 17.546875 -0.640625 
Q 12.796875 0.140625 7.71875 1.703125 
L 7.71875 11.625 
Q 12.109375 9.234375 16.796875 8.0625 
Q 21.484375 6.890625 26.703125 6.890625 
Q 35.15625 6.890625 40.078125 11.328125 
Q 45.015625 15.765625 45.015625 23.390625 
Q 45.015625 31 40.078125 35.4375 
Q 35.15625 39.890625 26.703125 39.890625 
Q 22.75 39.890625 18.8125 39.015625 
Q 14.890625 38.140625 10.796875 36.28125 
z
" id="DejaVuSans-53"/>
       </defs>
       <use xlink:href="#DejaVuSans-50"/>
       <use x="63.623047" xlink:href="#DejaVuSans-48"/>
       <use x="127.246094" xlink:href="#DejaVuSans-50"/>
       <use x="190.869141" xlink:href="#DejaVuSans-48"/>
       <use x="254.492188" xlink:href="#DejaVuSans-45"/>
       <use x="290.576172" xlink:href="#DejaVuSans-48"/>
       <use x="354.199219" xlink:href="#DejaVuSans-53"/>
      </g>
     </g>
    </g>
    <g id="xtick_3">
     <g id="line2d_3">
      <g>
       <use style="stroke:#000000;stroke-width:0.8;" x="168.149825" xlink:href="#m3678f5f739" y="179.298125"/>
      </g>
     </g>
     <g id="text_3">
      <!-- 2020-06 -->
      <g transform="translate(129.063763 215.143563)rotate(-30)scale(0.105 -0.105)">
       <defs>
        <path d="M 33.015625 40.375 
Q 26.375 40.375 22.484375 35.828125 
Q 18.609375 31.296875 18.609375 23.390625 
Q 18.609375 15.53125 22.484375 10.953125 
Q 26.375 6.390625 33.015625 6.390625 
Q 39.65625 6.390625 43.53125 10.953125 
Q 47.40625 15.53125 47.40625 23.390625 
Q 47.40625 31.296875 43.53125 35.828125 
Q 39.65625 40.375 33.015625 40.375 
z
M 52.59375 71.296875 
L 52.59375 62.3125 
Q 48.875 64.0625 45.09375 64.984375 
Q 41.3125 65.921875 37.59375 65.921875 
Q 27.828125 65.921875 22.671875 59.328125 
Q 17.53125 52.734375 16.796875 39.40625 
Q 19.671875 43.65625 24.015625 45.921875 
Q 28.375 48.1875 33.59375 48.1875 
Q 44.578125 48.1875 50.953125 41.515625 
Q 57.328125 34.859375 57.328125 23.390625 
Q 57.328125 12.15625 50.6875 5.359375 
Q 44.046875 -1.421875 33.015625 -1.421875 
Q 20.359375 -1.421875 13.671875 8.265625 
Q 6.984375 17.96875 6.984375 36.375 
Q 6.984375 53.65625 15.1875 63.9375 
Q 23.390625 74.21875 37.203125 74.21875 
Q 40.921875 74.21875 44.703125 73.484375 
Q 48.484375 72.75 52.59375 71.296875 
z
" id="DejaVuSans-54"/>
       </defs>
       <use xlink:href="#DejaVuSans-50"/>
       <use x="63.623047" xlink:href="#DejaVuSans-48"/>
       <use x="127.246094" xlink:href="#DejaVuSans-50"/>
       <use x="190.869141" xlink:href="#DejaVuSans-48"/>
       <use x="254.492188" xlink:href="#DejaVuSans-45"/>
       <use x="290.576172" xlink:href="#DejaVuSans-48"/>
       <use x="354.199219" xlink:href="#DejaVuSans-54"/>
      </g>
     </g>
    </g>
    <g id="xtick_4">
     <g id="line2d_4">
      <g>
       <use style="stroke:#000000;stroke-width:0.8;" x="224.924124" xlink:href="#m3678f5f739" y="179.298125"/>
      </g>
     </g>
     <g id="text_4">
      <!-- 2020-07 -->
      <g transform="translate(185.838062 215.143563)rotate(-30)scale(0.105 -0.105)">
       <defs>
        <path d="M 8.203125 72.90625 
L 55.078125 72.90625 
L 55.078125 68.703125 
L 28.609375 0 
L 18.3125 0 
L 43.21875 64.59375 
L 8.203125 64.59375 
z
" id="DejaVuSans-55"/>
       </defs>
       <use xlink:href="#DejaVuSans-50"/>
       <use x="63.623047" xlink:href="#DejaVuSans-48"/>
       <use x="127.246094" xlink:href="#DejaVuSans-50"/>
       <use x="190.869141" xlink:href="#DejaVuSans-48"/>
       <use x="254.492188" xlink:href="#DejaVuSans-45"/>
       <use x="290.576172" xlink:href="#DejaVuSans-48"/>
       <use x="354.199219" xlink:href="#DejaVuSans-55"/>
      </g>
     </g>
    </g>
    <g id="xtick_5">
     <g id="line2d_5">
      <g>
       <use style="stroke:#000000;stroke-width:0.8;" x="283.5909" xlink:href="#m3678f5f739" y="179.298125"/>
      </g>
     </g>
     <g id="text_5">
      <!-- 2020-08 -->
      <g transform="translate(244.504838 215.143563)rotate(-30)scale(0.105 -0.105)">
       <defs>
        <path d="M 31.78125 34.625 
Q 24.75 34.625 20.71875 30.859375 
Q 16.703125 27.09375 16.703125 20.515625 
Q 16.703125 13.921875 20.71875 10.15625 
Q 24.75 6.390625 31.78125 6.390625 
Q 38.8125 6.390625 42.859375 10.171875 
Q 46.921875 13.96875 46.921875 20.515625 
Q 46.921875 27.09375 42.890625 30.859375 
Q 38.875 34.625 31.78125 34.625 
z
M 21.921875 38.8125 
Q 15.578125 40.375 12.03125 44.71875 
Q 8.5 49.078125 8.5 55.328125 
Q 8.5 64.0625 14.71875 69.140625 
Q 20.953125 74.21875 31.78125 74.21875 
Q 42.671875 74.21875 48.875 69.140625 
Q 55.078125 64.0625 55.078125 55.328125 
Q 55.078125 49.078125 51.53125 44.71875 
Q 48 40.375 41.703125 38.8125 
Q 48.828125 37.15625 52.796875 32.3125 
Q 56.78125 27.484375 56.78125 20.515625 
Q 56.78125 9.90625 50.3125 4.234375 
Q 43.84375 -1.421875 31.78125 -1.421875 
Q 19.734375 -1.421875 13.25 4.234375 
Q 6.78125 9.90625 6.78125 20.515625 
Q 6.78125 27.484375 10.78125 32.3125 
Q 14.796875 37.15625 21.921875 38.8125 
z
M 18.3125 54.390625 
Q 18.3125 48.734375 21.84375 45.5625 
Q 25.390625 42.390625 31.78125 42.390625 
Q 38.140625 42.390625 41.71875 45.5625 
Q 45.3125 48.734375 45.3125 54.390625 
Q 45.3125 60.0625 41.71875 63.234375 
Q 38.140625 66.40625 31.78125 66.40625 
Q 25.390625 66.40625 21.84375 63.234375 
Q 18.3125 60.0625 18.3125 54.390625 
z
" id="DejaVuSans-56"/>
       </defs>
       <use xlink:href="#DejaVuSans-50"/>
       <use x="63.623047" xlink:href="#DejaVuSans-48"/>
       <use x="127.246094" xlink:href="#DejaVuSans-50"/>
       <use x="190.869141" xlink:href="#DejaVuSans-48"/>
       <use x="254.492188" xlink:href="#DejaVuSans-45"/>
       <use x="290.576172" xlink:href="#DejaVuSans-48"/>
       <use x="354.199219" xlink:href="#DejaVuSans-56"/>
      </g>
     </g>
    </g>
    <g id="xtick_6">
     <g id="line2d_6">
      <g>
       <use style="stroke:#000000;stroke-width:0.8;" x="342.257675" xlink:href="#m3678f5f739" y="179.298125"/>
      </g>
     </g>
     <g id="text_6">
      <!-- 2020-09 -->
      <g transform="translate(303.171613 215.143563)rotate(-30)scale(0.105 -0.105)">
       <defs>
        <path d="M 10.984375 1.515625 
L 10.984375 10.5 
Q 14.703125 8.734375 18.5 7.8125 
Q 22.3125 6.890625 25.984375 6.890625 
Q 35.75 6.890625 40.890625 13.453125 
Q 46.046875 20.015625 46.78125 33.40625 
Q 43.953125 29.203125 39.59375 26.953125 
Q 35.25 24.703125 29.984375 24.703125 
Q 19.046875 24.703125 12.671875 31.3125 
Q 6.296875 37.9375 6.296875 49.421875 
Q 6.296875 60.640625 12.9375 67.421875 
Q 19.578125 74.21875 30.609375 74.21875 
Q 43.265625 74.21875 49.921875 64.515625 
Q 56.59375 54.828125 56.59375 36.375 
Q 56.59375 19.140625 48.40625 8.859375 
Q 40.234375 -1.421875 26.421875 -1.421875 
Q 22.703125 -1.421875 18.890625 -0.6875 
Q 15.09375 0.046875 10.984375 1.515625 
z
M 30.609375 32.421875 
Q 37.25 32.421875 41.125 36.953125 
Q 45.015625 41.5 45.015625 49.421875 
Q 45.015625 57.28125 41.125 61.84375 
Q 37.25 66.40625 30.609375 66.40625 
Q 23.96875 66.40625 20.09375 61.84375 
Q 16.21875 57.28125 16.21875 49.421875 
Q 16.21875 41.5 20.09375 36.953125 
Q 23.96875 32.421875 30.609375 32.421875 
z
" id="DejaVuSans-57"/>
       </defs>
       <use xlink:href="#DejaVuSans-50"/>
       <use x="63.623047" xlink:href="#DejaVuSans-48"/>
       <use x="127.246094" xlink:href="#DejaVuSans-50"/>
       <use x="190.869141" xlink:href="#DejaVuSans-48"/>
       <use x="254.492188" xlink:href="#DejaVuSans-45"/>
       <use x="290.576172" xlink:href="#DejaVuSans-48"/>
       <use x="354.199219" xlink:href="#DejaVuSans-57"/>
      </g>
     </g>
    </g>
    <g id="xtick_7">
     <g id="line2d_7">
      <g>
       <use style="stroke:#000000;stroke-width:0.8;" x="399.031974" xlink:href="#m3678f5f739" y="179.298125"/>
      </g>
     </g>
     <g id="text_7">
      <!-- 2020-10 -->
      <g transform="translate(359.945912 215.143563)rotate(-30)scale(0.105 -0.105)">
       <defs>
        <path d="M 12.40625 8.296875 
L 28.515625 8.296875 
L 28.515625 63.921875 
L 10.984375 60.40625 
L 10.984375 69.390625 
L 28.421875 72.90625 
L 38.28125 72.90625 
L 38.28125 8.296875 
L 54.390625 8.296875 
L 54.390625 0 
L 12.40625 0 
z
" id="DejaVuSans-49"/>
       </defs>
       <use xlink:href="#DejaVuSans-50"/>
       <use x="63.623047" xlink:href="#DejaVuSans-48"/>
       <use x="127.246094" xlink:href="#DejaVuSans-50"/>
       <use x="190.869141" xlink:href="#DejaVuSans-48"/>
       <use x="254.492188" xlink:href="#DejaVuSans-45"/>
       <use x="290.576172" xlink:href="#DejaVuSans-49"/>
       <use x="354.199219" xlink:href="#DejaVuSans-48"/>
      </g>
     </g>
    </g>
    <g id="xtick_8">
     <g id="line2d_8">
      <g>
       <use style="stroke:#000000;stroke-width:0.8;" x="457.69875" xlink:href="#m3678f5f739" y="179.298125"/>
      </g>
     </g>
     <g id="text_8">
      <!-- 2020-11 -->
      <g transform="translate(418.612688 215.143563)rotate(-30)scale(0.105 -0.105)">
       <use xlink:href="#DejaVuSans-50"/>
       <use x="63.623047" xlink:href="#DejaVuSans-48"/>
       <use x="127.246094" xlink:href="#DejaVuSans-50"/>
       <use x="190.869141" xlink:href="#DejaVuSans-48"/>
       <use x="254.492188" xlink:href="#DejaVuSans-45"/>
       <use x="290.576172" xlink:href="#DejaVuSans-49"/>
       <use x="354.199219" xlink:href="#DejaVuSans-49"/>
      </g>
     </g>
    </g>
    <g id="xtick_9">
     <g id="line2d_9">
      <defs>
       <path d="M 0 0 
L 0 2 
" id="m409c177da6" style="stroke:#000000;stroke-width:0.6;"/>
      </defs>
      <g>
       <use style="stroke:#000000;stroke-width:0.6;" x="62.171133" xlink:href="#m409c177da6" y="179.298125"/>
      </g>
     </g>
    </g>
    <g id="xtick_10">
     <g id="line2d_10">
      <g>
       <use style="stroke:#000000;stroke-width:0.6;" x="75.41847" xlink:href="#m409c177da6" y="179.298125"/>
      </g>
     </g>
    </g>
    <g id="xtick_11">
     <g id="line2d_11">
      <g>
       <use style="stroke:#000000;stroke-width:0.6;" x="88.665806" xlink:href="#m409c177da6" y="179.298125"/>
      </g>
     </g>
    </g>
    <g id="xtick_12">
     <g id="line2d_12">
      <g>
       <use style="stroke:#000000;stroke-width:0.6;" x="101.913143" xlink:href="#m409c177da6" y="179.298125"/>
      </g>
     </g>
    </g>
    <g id="xtick_13">
     <g id="line2d_13">
      <g>
       <use style="stroke:#000000;stroke-width:0.6;" x="115.160479" xlink:href="#m409c177da6" y="179.298125"/>
      </g>
     </g>
    </g>
    <g id="xtick_14">
     <g id="line2d_14">
      <g>
       <use style="stroke:#000000;stroke-width:0.6;" x="128.407815" xlink:href="#m409c177da6" y="179.298125"/>
      </g>
     </g>
    </g>
    <g id="xtick_15">
     <g id="line2d_15">
      <g>
       <use style="stroke:#000000;stroke-width:0.6;" x="141.655152" xlink:href="#m409c177da6" y="179.298125"/>
      </g>
     </g>
    </g>
    <g id="xtick_16">
     <g id="line2d_16">
      <g>
       <use style="stroke:#000000;stroke-width:0.6;" x="154.902488" xlink:href="#m409c177da6" y="179.298125"/>
      </g>
     </g>
    </g>
    <g id="xtick_17">
     <g id="line2d_17">
      <g>
       <use style="stroke:#000000;stroke-width:0.6;" x="181.397161" xlink:href="#m409c177da6" y="179.298125"/>
      </g>
     </g>
    </g>
    <g id="xtick_18">
     <g id="line2d_18">
      <g>
       <use style="stroke:#000000;stroke-width:0.6;" x="194.644498" xlink:href="#m409c177da6" y="179.298125"/>
      </g>
     </g>
    </g>
    <g id="xtick_19">
     <g id="line2d_19">
      <g>
       <use style="stroke:#000000;stroke-width:0.6;" x="207.891834" xlink:href="#m409c177da6" y="179.298125"/>
      </g>
     </g>
    </g>
    <g id="xtick_20">
     <g id="line2d_20">
      <g>
       <use style="stroke:#000000;stroke-width:0.6;" x="221.139171" xlink:href="#m409c177da6" y="179.298125"/>
      </g>
     </g>
    </g>
    <g id="xtick_21">
     <g id="line2d_21">
      <g>
       <use style="stroke:#000000;stroke-width:0.6;" x="234.386507" xlink:href="#m409c177da6" y="179.298125"/>
      </g>
     </g>
    </g>
    <g id="xtick_22">
     <g id="line2d_22">
      <g>
       <use style="stroke:#000000;stroke-width:0.6;" x="247.633843" xlink:href="#m409c177da6" y="179.298125"/>
      </g>
     </g>
    </g>
    <g id="xtick_23">
     <g id="line2d_23">
      <g>
       <use style="stroke:#000000;stroke-width:0.6;" x="260.88118" xlink:href="#m409c177da6" y="179.298125"/>
      </g>
     </g>
    </g>
    <g id="xtick_24">
     <g id="line2d_24">
      <g>
       <use style="stroke:#000000;stroke-width:0.6;" x="274.128516" xlink:href="#m409c177da6" y="179.298125"/>
      </g>
     </g>
    </g>
    <g id="xtick_25">
     <g id="line2d_25">
      <g>
       <use style="stroke:#000000;stroke-width:0.6;" x="287.375853" xlink:href="#m409c177da6" y="179.298125"/>
      </g>
     </g>
    </g>
    <g id="xtick_26">
     <g id="line2d_26">
      <g>
       <use style="stroke:#000000;stroke-width:0.6;" x="300.623189" xlink:href="#m409c177da6" y="179.298125"/>
      </g>
     </g>
    </g>
    <g id="xtick_27">
     <g id="line2d_27">
      <g>
       <use style="stroke:#000000;stroke-width:0.6;" x="313.870526" xlink:href="#m409c177da6" y="179.298125"/>
      </g>
     </g>
    </g>
    <g id="xtick_28">
     <g id="line2d_28">
      <g>
       <use style="stroke:#000000;stroke-width:0.6;" x="327.117862" xlink:href="#m409c177da6" y="179.298125"/>
      </g>
     </g>
    </g>
    <g id="xtick_29">
     <g id="line2d_29">
      <g>
       <use style="stroke:#000000;stroke-width:0.6;" x="340.365199" xlink:href="#m409c177da6" y="179.298125"/>
      </g>
     </g>
    </g>
    <g id="xtick_30">
     <g id="line2d_30">
      <g>
       <use style="stroke:#000000;stroke-width:0.6;" x="353.612535" xlink:href="#m409c177da6" y="179.298125"/>
      </g>
     </g>
    </g>
    <g id="xtick_31">
     <g id="line2d_31">
      <g>
       <use style="stroke:#000000;stroke-width:0.6;" x="366.859871" xlink:href="#m409c177da6" y="179.298125"/>
      </g>
     </g>
    </g>
    <g id="xtick_32">
     <g id="line2d_32">
      <g>
       <use style="stroke:#000000;stroke-width:0.6;" x="380.107208" xlink:href="#m409c177da6" y="179.298125"/>
      </g>
     </g>
    </g>
    <g id="xtick_33">
     <g id="line2d_33">
      <g>
       <use style="stroke:#000000;stroke-width:0.6;" x="393.354544" xlink:href="#m409c177da6" y="179.298125"/>
      </g>
     </g>
    </g>
    <g id="xtick_34">
     <g id="line2d_34">
      <g>
       <use style="stroke:#000000;stroke-width:0.6;" x="406.601881" xlink:href="#m409c177da6" y="179.298125"/>
      </g>
     </g>
    </g>
    <g id="xtick_35">
     <g id="line2d_35">
      <g>
       <use style="stroke:#000000;stroke-width:0.6;" x="419.849217" xlink:href="#m409c177da6" y="179.298125"/>
      </g>
     </g>
    </g>
    <g id="xtick_36">
     <g id="line2d_36">
      <g>
       <use style="stroke:#000000;stroke-width:0.6;" x="433.096554" xlink:href="#m409c177da6" y="179.298125"/>
      </g>
     </g>
    </g>
    <g id="xtick_37">
     <g id="line2d_37">
      <g>
       <use style="stroke:#000000;stroke-width:0.6;" x="446.34389" xlink:href="#m409c177da6" y="179.298125"/>
      </g>
     </g>
    </g>
    <g id="text_9">
     <!-- CDC Report Date -->
     <g transform="translate(206.286523 229.772882)scale(0.115 -0.115)">
      <defs>
       <path d="M 64.40625 67.28125 
L 64.40625 56.890625 
Q 59.421875 61.53125 53.78125 63.8125 
Q 48.140625 66.109375 41.796875 66.109375 
Q 29.296875 66.109375 22.65625 58.46875 
Q 16.015625 50.828125 16.015625 36.375 
Q 16.015625 21.96875 22.65625 14.328125 
Q 29.296875 6.6875 41.796875 6.6875 
Q 48.140625 6.6875 53.78125 8.984375 
Q 59.421875 11.28125 64.40625 15.921875 
L 64.40625 5.609375 
Q 59.234375 2.09375 53.4375 0.328125 
Q 47.65625 -1.421875 41.21875 -1.421875 
Q 24.65625 -1.421875 15.125 8.703125 
Q 5.609375 18.84375 5.609375 36.375 
Q 5.609375 53.953125 15.125 64.078125 
Q 24.65625 74.21875 41.21875 74.21875 
Q 47.75 74.21875 53.53125 72.484375 
Q 59.328125 70.75 64.40625 67.28125 
z
" id="DejaVuSans-67"/>
       <path d="M 19.671875 64.796875 
L 19.671875 8.109375 
L 31.59375 8.109375 
Q 46.6875 8.109375 53.6875 14.9375 
Q 60.6875 21.78125 60.6875 36.53125 
Q 60.6875 51.171875 53.6875 57.984375 
Q 46.6875 64.796875 31.59375 64.796875 
z
M 9.8125 72.90625 
L 30.078125 72.90625 
Q 51.265625 72.90625 61.171875 64.09375 
Q 71.09375 55.28125 71.09375 36.53125 
Q 71.09375 17.671875 61.125 8.828125 
Q 51.171875 0 30.078125 0 
L 9.8125 0 
z
" id="DejaVuSans-68"/>
       <path id="DejaVuSans-32"/>
       <path d="M 44.390625 34.1875 
Q 47.5625 33.109375 50.5625 29.59375 
Q 53.5625 26.078125 56.59375 19.921875 
L 66.609375 0 
L 56 0 
L 46.6875 18.703125 
Q 43.0625 26.03125 39.671875 28.421875 
Q 36.28125 30.8125 30.421875 30.8125 
L 19.671875 30.8125 
L 19.671875 0 
L 9.8125 0 
L 9.8125 72.90625 
L 32.078125 72.90625 
Q 44.578125 72.90625 50.734375 67.671875 
Q 56.890625 62.453125 56.890625 51.90625 
Q 56.890625 45.015625 53.6875 40.46875 
Q 50.484375 35.9375 44.390625 34.1875 
z
M 19.671875 64.796875 
L 19.671875 38.921875 
L 32.078125 38.921875 
Q 39.203125 38.921875 42.84375 42.21875 
Q 46.484375 45.515625 46.484375 51.90625 
Q 46.484375 58.296875 42.84375 61.546875 
Q 39.203125 64.796875 32.078125 64.796875 
z
" id="DejaVuSans-82"/>
       <path d="M 56.203125 29.59375 
L 56.203125 25.203125 
L 14.890625 25.203125 
Q 15.484375 15.921875 20.484375 11.0625 
Q 25.484375 6.203125 34.421875 6.203125 
Q 39.59375 6.203125 44.453125 7.46875 
Q 49.3125 8.734375 54.109375 11.28125 
L 54.109375 2.78125 
Q 49.265625 0.734375 44.1875 -0.34375 
Q 39.109375 -1.421875 33.890625 -1.421875 
Q 20.796875 -1.421875 13.15625 6.1875 
Q 5.515625 13.8125 5.515625 26.8125 
Q 5.515625 40.234375 12.765625 48.109375 
Q 20.015625 56 32.328125 56 
Q 43.359375 56 49.78125 48.890625 
Q 56.203125 41.796875 56.203125 29.59375 
z
M 47.21875 32.234375 
Q 47.125 39.59375 43.09375 43.984375 
Q 39.0625 48.390625 32.421875 48.390625 
Q 24.90625 48.390625 20.390625 44.140625 
Q 15.875 39.890625 15.1875 32.171875 
z
" id="DejaVuSans-101"/>
       <path d="M 18.109375 8.203125 
L 18.109375 -20.796875 
L 9.078125 -20.796875 
L 9.078125 54.6875 
L 18.109375 54.6875 
L 18.109375 46.390625 
Q 20.953125 51.265625 25.265625 53.625 
Q 29.59375 56 35.59375 56 
Q 45.5625 56 51.78125 48.09375 
Q 58.015625 40.1875 58.015625 27.296875 
Q 58.015625 14.40625 51.78125 6.484375 
Q 45.5625 -1.421875 35.59375 -1.421875 
Q 29.59375 -1.421875 25.265625 0.953125 
Q 20.953125 3.328125 18.109375 8.203125 
z
M 48.6875 27.296875 
Q 48.6875 37.203125 44.609375 42.84375 
Q 40.53125 48.484375 33.40625 48.484375 
Q 26.265625 48.484375 22.1875 42.84375 
Q 18.109375 37.203125 18.109375 27.296875 
Q 18.109375 17.390625 22.1875 11.75 
Q 26.265625 6.109375 33.40625 6.109375 
Q 40.53125 6.109375 44.609375 11.75 
Q 48.6875 17.390625 48.6875 27.296875 
z
" id="DejaVuSans-112"/>
       <path d="M 30.609375 48.390625 
Q 23.390625 48.390625 19.1875 42.75 
Q 14.984375 37.109375 14.984375 27.296875 
Q 14.984375 17.484375 19.15625 11.84375 
Q 23.34375 6.203125 30.609375 6.203125 
Q 37.796875 6.203125 41.984375 11.859375 
Q 46.1875 17.53125 46.1875 27.296875 
Q 46.1875 37.015625 41.984375 42.703125 
Q 37.796875 48.390625 30.609375 48.390625 
z
M 30.609375 56 
Q 42.328125 56 49.015625 48.375 
Q 55.71875 40.765625 55.71875 27.296875 
Q 55.71875 13.875 49.015625 6.21875 
Q 42.328125 -1.421875 30.609375 -1.421875 
Q 18.84375 -1.421875 12.171875 6.21875 
Q 5.515625 13.875 5.515625 27.296875 
Q 5.515625 40.765625 12.171875 48.375 
Q 18.84375 56 30.609375 56 
z
" id="DejaVuSans-111"/>
       <path d="M 41.109375 46.296875 
Q 39.59375 47.171875 37.8125 47.578125 
Q 36.03125 48 33.890625 48 
Q 26.265625 48 22.1875 43.046875 
Q 18.109375 38.09375 18.109375 28.8125 
L 18.109375 0 
L 9.078125 0 
L 9.078125 54.6875 
L 18.109375 54.6875 
L 18.109375 46.1875 
Q 20.953125 51.171875 25.484375 53.578125 
Q 30.03125 56 36.53125 56 
Q 37.453125 56 38.578125 55.875 
Q 39.703125 55.765625 41.0625 55.515625 
z
" id="DejaVuSans-114"/>
       <path d="M 18.3125 70.21875 
L 18.3125 54.6875 
L 36.8125 54.6875 
L 36.8125 47.703125 
L 18.3125 47.703125 
L 18.3125 18.015625 
Q 18.3125 11.328125 20.140625 9.421875 
Q 21.96875 7.515625 27.59375 7.515625 
L 36.8125 7.515625 
L 36.8125 0 
L 27.59375 0 
Q 17.1875 0 13.234375 3.875 
Q 9.28125 7.765625 9.28125 18.015625 
L 9.28125 47.703125 
L 2.6875 47.703125 
L 2.6875 54.6875 
L 9.28125 54.6875 
L 9.28125 70.21875 
z
" id="DejaVuSans-116"/>
       <path d="M 34.28125 27.484375 
Q 23.390625 27.484375 19.1875 25 
Q 14.984375 22.515625 14.984375 16.5 
Q 14.984375 11.71875 18.140625 8.90625 
Q 21.296875 6.109375 26.703125 6.109375 
Q 34.1875 6.109375 38.703125 11.40625 
Q 43.21875 16.703125 43.21875 25.484375 
L 43.21875 27.484375 
z
M 52.203125 31.203125 
L 52.203125 0 
L 43.21875 0 
L 43.21875 8.296875 
Q 40.140625 3.328125 35.546875 0.953125 
Q 30.953125 -1.421875 24.3125 -1.421875 
Q 15.921875 -1.421875 10.953125 3.296875 
Q 6 8.015625 6 15.921875 
Q 6 25.140625 12.171875 29.828125 
Q 18.359375 34.515625 30.609375 34.515625 
L 43.21875 34.515625 
L 43.21875 35.40625 
Q 43.21875 41.609375 39.140625 45 
Q 35.0625 48.390625 27.6875 48.390625 
Q 23 48.390625 18.546875 47.265625 
Q 14.109375 46.140625 10.015625 43.890625 
L 10.015625 52.203125 
Q 14.9375 54.109375 19.578125 55.046875 
Q 24.21875 56 28.609375 56 
Q 40.484375 56 46.34375 49.84375 
Q 52.203125 43.703125 52.203125 31.203125 
z
" id="DejaVuSans-97"/>
      </defs>
      <use xlink:href="#DejaVuSans-67"/>
      <use x="69.824219" xlink:href="#DejaVuSans-68"/>
      <use x="146.826172" xlink:href="#DejaVuSans-67"/>
      <use x="216.650391" xlink:href="#DejaVuSans-32"/>
      <use x="248.4375" xlink:href="#DejaVuSans-82"/>
      <use x="313.419922" xlink:href="#DejaVuSans-101"/>
      <use x="374.943359" xlink:href="#DejaVuSans-112"/>
      <use x="438.419922" xlink:href="#DejaVuSans-111"/>
      <use x="499.601562" xlink:href="#DejaVuSans-114"/>
      <use x="540.714844" xlink:href="#DejaVuSans-116"/>
      <use x="579.923828" xlink:href="#DejaVuSans-32"/>
      <use x="611.710938" xlink:href="#DejaVuSans-68"/>
      <use x="688.712891" xlink:href="#DejaVuSans-97"/>
      <use x="749.992188" xlink:href="#DejaVuSans-116"/>
      <use x="789.201172" xlink:href="#DejaVuSans-101"/>
     </g>
    </g>
   </g>
   <g id="matplotlib.axis_2">
    <g id="ytick_1">
     <g id="line2d_38">
      <defs>
       <path d="M 0 0 
L -3.5 0 
" id="mbf8c619e9c" style="stroke:#000000;stroke-width:0.8;"/>
      </defs>
      <g>
       <use style="stroke:#000000;stroke-width:0.8;" x="52.70875" xlink:href="#mbf8c619e9c" y="172.16267"/>
      </g>
     </g>
     <g id="text_10">
      <!-- 0.00 -->
      <g transform="translate(22.329844 176.15185)scale(0.105 -0.105)">
       <defs>
        <path d="M 10.6875 12.40625 
L 21 12.40625 
L 21 0 
L 10.6875 0 
z
" id="DejaVuSans-46"/>
       </defs>
       <use xlink:href="#DejaVuSans-48"/>
       <use x="63.623047" xlink:href="#DejaVuSans-46"/>
       <use x="95.410156" xlink:href="#DejaVuSans-48"/>
       <use x="159.033203" xlink:href="#DejaVuSans-48"/>
      </g>
     </g>
    </g>
    <g id="ytick_2">
     <g id="line2d_39">
      <g>
       <use style="stroke:#000000;stroke-width:0.8;" x="52.70875" xlink:href="#mbf8c619e9c" y="142.907307"/>
      </g>
     </g>
     <g id="text_11">
      <!-- 0.02 -->
      <g transform="translate(22.329844 146.896487)scale(0.105 -0.105)">
       <use xlink:href="#DejaVuSans-48"/>
       <use x="63.623047" xlink:href="#DejaVuSans-46"/>
       <use x="95.410156" xlink:href="#DejaVuSans-48"/>
       <use x="159.033203" xlink:href="#DejaVuSans-50"/>
      </g>
     </g>
    </g>
    <g id="ytick_3">
     <g id="line2d_40">
      <g>
       <use style="stroke:#000000;stroke-width:0.8;" x="52.70875" xlink:href="#mbf8c619e9c" y="113.651943"/>
      </g>
     </g>
     <g id="text_12">
      <!-- 0.04 -->
      <g transform="translate(22.329844 117.641123)scale(0.105 -0.105)">
       <use xlink:href="#DejaVuSans-48"/>
       <use x="63.623047" xlink:href="#DejaVuSans-46"/>
       <use x="95.410156" xlink:href="#DejaVuSans-48"/>
       <use x="159.033203" xlink:href="#DejaVuSans-52"/>
      </g>
     </g>
    </g>
    <g id="ytick_4">
     <g id="line2d_41">
      <g>
       <use style="stroke:#000000;stroke-width:0.8;" x="52.70875" xlink:href="#mbf8c619e9c" y="84.39658"/>
      </g>
     </g>
     <g id="text_13">
      <!-- 0.06 -->
      <g transform="translate(22.329844 88.385759)scale(0.105 -0.105)">
       <use xlink:href="#DejaVuSans-48"/>
       <use x="63.623047" xlink:href="#DejaVuSans-46"/>
       <use x="95.410156" xlink:href="#DejaVuSans-48"/>
       <use x="159.033203" xlink:href="#DejaVuSans-54"/>
      </g>
     </g>
    </g>
    <g id="ytick_5">
     <g id="line2d_42">
      <g>
       <use style="stroke:#000000;stroke-width:0.8;" x="52.70875" xlink:href="#mbf8c619e9c" y="55.141216"/>
      </g>
     </g>
     <g id="text_14">
      <!-- 0.08 -->
      <g transform="translate(22.329844 59.130396)scale(0.105 -0.105)">
       <use xlink:href="#DejaVuSans-48"/>
       <use x="63.623047" xlink:href="#DejaVuSans-46"/>
       <use x="95.410156" xlink:href="#DejaVuSans-48"/>
       <use x="159.033203" xlink:href="#DejaVuSans-56"/>
      </g>
     </g>
    </g>
    <g id="ytick_6">
     <g id="line2d_43">
      <g>
       <use style="stroke:#000000;stroke-width:0.8;" x="52.70875" xlink:href="#mbf8c619e9c" y="25.885852"/>
      </g>
     </g>
     <g id="text_15">
      <!-- 0.10 -->
      <g transform="translate(22.329844 29.875032)scale(0.105 -0.105)">
       <use xlink:href="#DejaVuSans-48"/>
       <use x="63.623047" xlink:href="#DejaVuSans-46"/>
       <use x="95.410156" xlink:href="#DejaVuSans-49"/>
       <use x="159.033203" xlink:href="#DejaVuSans-48"/>
      </g>
     </g>
    </g>
    <g id="text_16">
     <!-- Ratio -->
     <g transform="translate(15.938203 115.567656)rotate(-90)scale(0.115 -0.115)">
      <defs>
       <path d="M 9.421875 54.6875 
L 18.40625 54.6875 
L 18.40625 0 
L 9.421875 0 
z
M 9.421875 75.984375 
L 18.40625 75.984375 
L 18.40625 64.59375 
L 9.421875 64.59375 
z
" id="DejaVuSans-105"/>
      </defs>
      <use xlink:href="#DejaVuSans-82"/>
      <use x="67.232422" xlink:href="#DejaVuSans-97"/>
      <use x="128.511719" xlink:href="#DejaVuSans-116"/>
      <use x="167.720703" xlink:href="#DejaVuSans-105"/>
      <use x="195.503906" xlink:href="#DejaVuSans-111"/>
     </g>
    </g>
   </g>
   <g id="line2d_44">
    <path clip-path="url(#p46b0757f0b)" d="M -1 83.185552 
L -0.280596 83.257482 
L 1.611881 89.474342 
L 3.504357 91.384388 
L 5.396834 92.46588 
L 7.289311 99.432441 
L 9.181787 107.075939 
L 11.074264 99.515697 
L 12.966741 105.189251 
L 14.859217 104.314781 
L 16.751694 105.42751 
L 18.644171 107.911497 
L 20.536647 109.249322 
L 22.429124 106.932677 
L 24.3216 108.452442 
L 26.214077 105.405381 
L 28.106554 105.094996 
L 29.99903 108.834388 
L 31.891507 109.019436 
L 33.783984 108.799318 
L 35.67646 108.779427 
L 39.461414 90.485901 
L 41.35389 84.929515 
L 43.246367 81.669006 
L 47.03132 70.516484 
L 48.923797 78.686954 
L 50.816273 68.766774 
L 52.70875 69.766605 
L 54.601227 73.418093 
L 56.493703 80.009372 
L 58.38618 79.101283 
L 60.278657 72.025835 
L 62.171133 66.772688 
L 64.06361 60.496842 
L 65.956086 63.20345 
L 67.848563 68.83085 
L 69.74104 59.984379 
L 71.633516 59.685078 
L 73.525993 57.311687 
L 75.41847 47.988606 
L 77.310946 53.495929 
L 79.203423 56.842485 
L 81.0959 53.442105 
L 82.988376 58.050403 
L 84.880853 52.767435 
L 86.773329 50.664974 
L 88.665806 57.657354 
L 90.558283 63.220516 
L 92.450759 60.619417 
L 94.343236 58.715069 
L 96.235713 62.794803 
L 98.128189 72.186138 
L 100.020666 78.832386 
L 103.805619 85.70571 
L 105.698096 87.236445 
L 107.590572 89.325827 
L 109.483049 86.987661 
L 111.375526 87.439734 
L 113.268002 95.474841 
L 115.160479 94.463699 
L 117.052956 97.783711 
L 118.945432 98.162119 
L 120.837909 98.127604 
L 122.730386 99.020234 
L 124.622862 100.990939 
L 126.515339 103.453705 
L 128.407815 105.026328 
L 130.300292 104.67837 
L 132.192769 107.467279 
L 134.085245 108.781492 
L 135.977722 114.289569 
L 137.870199 114.089881 
L 141.655152 119.348551 
L 143.547629 120.186316 
L 145.440105 121.46533 
L 147.332582 122.023289 
L 149.225058 119.020786 
L 151.117535 120.072716 
L 153.010012 122.32399 
L 156.794965 124.945017 
L 158.687442 123.881708 
L 160.579918 123.830151 
L 164.364871 123.177822 
L 166.257348 126.862085 
L 168.149825 124.882218 
L 170.042301 125.080316 
L 171.934778 127.164989 
L 173.827255 128.427431 
L 175.719731 130.102196 
L 177.612208 131.167588 
L 179.504685 130.246394 
L 181.397161 133.105368 
L 183.289638 134.919427 
L 185.182114 136.126981 
L 187.074591 138.118872 
L 188.967068 141.640709 
L 190.859544 142.257601 
L 192.752021 144.240108 
L 194.644498 145.780567 
L 196.536974 146.066045 
L 198.429451 148.245997 
L 200.321928 148.341773 
L 202.214404 147.509958 
L 204.106881 148.216332 
L 205.999357 148.322623 
L 207.891834 148.5972 
L 209.784311 149.100861 
L 211.676787 148.06161 
L 213.569264 148.159021 
L 215.461741 147.346857 
L 217.354217 147.250907 
L 219.246694 145.93424 
L 221.139171 147.217572 
L 223.031647 147.393594 
L 224.924124 148.335815 
L 226.8166 148.577208 
L 228.709077 149.448041 
L 230.601554 150.140816 
L 232.49403 151.037447 
L 234.386507 150.552053 
L 236.278984 150.866776 
L 238.17146 151.023648 
L 240.063937 151.796046 
L 241.956414 151.539562 
L 243.84889 150.614475 
L 245.741367 150.623353 
L 247.633843 152.001653 
L 249.52632 152.251907 
L 253.311273 151.690297 
L 255.20375 151.894365 
L 257.096227 151.773221 
L 258.988703 151.418357 
L 260.88118 149.838116 
L 262.773657 149.165528 
L 264.666133 149.070287 
L 266.55861 149.173628 
L 268.451086 148.664822 
L 272.23604 149.979117 
L 274.128516 149.665957 
L 276.020993 149.843213 
L 277.91347 149.453322 
L 279.805946 149.247891 
L 281.698423 147.294008 
L 283.5909 147.026154 
L 285.483376 146.63646 
L 291.160806 148.019706 
L 293.053283 148.220296 
L 294.945759 150.524954 
L 298.730713 150.564929 
L 300.623189 150.112744 
L 302.515666 149.005913 
L 304.408143 149.675803 
L 306.300619 149.626851 
L 308.193096 150.971271 
L 310.085572 151.381015 
L 311.978049 150.414796 
L 313.870526 150.118522 
L 315.763002 150.570047 
L 317.655479 149.945943 
L 319.547956 149.572011 
L 321.440432 148.569838 
L 323.332909 148.519793 
L 325.225386 149.101966 
L 327.117862 148.788085 
L 329.010339 148.773113 
L 332.795292 147.823721 
L 334.687769 147.6459 
L 336.580245 147.697252 
L 338.472722 147.974316 
L 340.365199 149.542028 
L 342.257675 149.838526 
L 346.042629 152.947274 
L 347.935105 152.484038 
L 349.827582 140.507514 
L 351.720058 140.392212 
L 353.612535 140.114076 
L 355.505012 140.497998 
L 357.397488 140.619491 
L 359.289965 139.328327 
L 361.182442 139.024149 
L 363.074918 150.550743 
L 366.859871 150.786704 
L 368.752348 150.245495 
L 370.644825 148.938807 
L 372.537301 150.571614 
L 374.429778 151.532794 
L 378.214731 151.6413 
L 380.107208 151.093963 
L 381.999685 151.641437 
L 383.892161 152.683781 
L 385.784638 153.545451 
L 387.677114 153.948071 
L 389.569591 153.335898 
L 391.462068 153.396095 
L 393.354544 153.987469 
L 395.247021 153.710071 
L 397.139498 153.848079 
L 399.031974 153.402692 
L 400.924451 153.221328 
L 402.816928 153.630679 
L 404.709404 153.750795 
L 406.601881 153.155051 
L 412.279311 154.458502 
L 414.171787 153.671488 
L 416.064264 153.592826 
L 417.956741 153.170904 
L 419.849217 153.707897 
L 421.741694 153.472866 
L 423.634171 153.557289 
L 427.419124 154.11058 
L 429.3116 154.254354 
L 431.204077 154.650411 
L 433.096554 154.808868 
L 434.98903 154.807127 
L 436.881507 154.927041 
L 438.773984 154.893548 
L 440.66646 157.705654 
L 442.558937 158.071833 
L 444.451414 158.167845 
L 446.34389 157.760904 
L 448.236367 157.715883 
L 450.128843 157.257019 
L 452.02132 157.553176 
L 453.913797 155.728627 
L 455.806273 155.599357 
L 457.69875 155.850353 
L 459.591227 156.649745 
L 463.37618 158.789014 
L 465.268657 158.898073 
L 467.161133 159.40471 
L 469.05361 159.778413 
L 470.946086 159.984963 
L 472.838563 161.107713 
L 474.73104 161.056793 
L 476.623516 161.812731 
L 482.300946 163.211879 
L 484.193423 163.523382 
L 486.0859 163.702355 
L 487.978376 164.444263 
L 489.870853 164.72209 
L 491.763329 165.122814 
L 491.763329 165.122814 
" style="fill:none;stroke:#1f77b4;stroke-linecap:square;stroke-width:1.5;"/>
   </g>
   <g id="line2d_45">
    <path clip-path="url(#p46b0757f0b)" d="M -1 120.900287 
L -0.280596 121.903336 
L 1.611881 121.711923 
L 3.504357 123.068612 
L 5.396834 125.52941 
L 7.289311 125.820843 
L 9.181787 127.195661 
L 11.074264 126.414554 
L 12.966741 127.813338 
L 14.859217 128.844501 
L 18.644171 129.460008 
L 20.536647 130.301252 
L 22.429124 129.310077 
L 24.3216 129.953721 
L 26.214077 129.219369 
L 29.99903 129.902382 
L 31.891507 129.801206 
L 33.783984 129.339294 
L 35.67646 127.924919 
L 37.568937 127.719544 
L 39.461414 126.295811 
L 41.35389 125.052511 
L 43.246367 124.394794 
L 45.138843 123.500466 
L 47.03132 122.480141 
L 48.923797 123.151321 
L 50.816273 120.745458 
L 52.70875 120.542191 
L 54.601227 119.988072 
L 56.493703 120.37992 
L 58.38618 120.142112 
L 60.278657 118.822372 
L 62.171133 117.908979 
L 64.06361 115.852369 
L 65.956086 115.371103 
L 67.848563 116.250763 
L 69.74104 114.029402 
L 71.633516 113.751085 
L 75.41847 108.882749 
L 77.310946 109.811292 
L 79.203423 109.980936 
L 81.0959 109.085022 
L 82.988376 109.512203 
L 84.880853 108.318738 
L 86.773329 106.455714 
L 88.665806 107.333702 
L 90.558283 106.88814 
L 92.450759 106.167039 
L 94.343236 105.9772 
L 96.235713 107.247072 
L 98.128189 108.104878 
L 100.020666 108.827963 
L 101.913143 110.085864 
L 105.698096 110.972684 
L 107.590572 111.159701 
L 109.483049 110.772884 
L 111.375526 111.434642 
L 113.268002 114.088153 
L 115.160479 113.460347 
L 118.945432 114.459771 
L 122.730386 114.2777 
L 124.622862 114.593797 
L 126.515339 115.162723 
L 130.300292 115.096576 
L 132.192769 117.397403 
L 134.085245 118.409234 
L 135.977722 117.843289 
L 137.870199 117.80913 
L 139.762675 117.972481 
L 141.655152 119.267567 
L 143.547629 119.499097 
L 145.440105 118.756394 
L 147.332582 118.75442 
L 149.225058 120.682241 
L 151.117535 121.248357 
L 153.010012 124.279157 
L 154.902488 126.191802 
L 156.794965 126.700499 
L 158.687442 125.943905 
L 160.579918 126.812158 
L 162.472395 127.224201 
L 164.364871 127.324264 
L 166.257348 128.140939 
L 168.149825 127.496649 
L 170.042301 128.03071 
L 171.934778 129.69665 
L 173.827255 130.280789 
L 175.719731 131.147117 
L 177.612208 131.646048 
L 179.504685 132.319476 
L 181.397161 133.921497 
L 183.289638 136.059176 
L 185.182114 136.931509 
L 187.074591 138.13727 
L 188.967068 138.352209 
L 190.859544 138.984392 
L 192.752021 139.173388 
L 194.644498 139.845864 
L 196.536974 140.213084 
L 198.429451 141.109834 
L 200.321928 141.332986 
L 202.214404 142.432751 
L 204.106881 142.639471 
L 207.891834 143.554271 
L 213.569264 143.84446 
L 215.461741 143.62988 
L 219.246694 143.920681 
L 221.139171 144.528895 
L 223.031647 144.906833 
L 224.924124 145.550727 
L 226.8166 145.576969 
L 230.601554 146.381661 
L 232.49403 146.766479 
L 238.17146 146.237998 
L 240.063937 146.428958 
L 245.741367 145.428252 
L 247.633843 144.912061 
L 253.311273 144.474717 
L 255.20375 144.421164 
L 268.451086 143.034532 
L 270.343563 143.042214 
L 272.23604 143.220666 
L 276.020993 143.035026 
L 277.91347 142.409035 
L 279.805946 142.298421 
L 281.698423 141.476548 
L 285.483376 140.597847 
L 287.375853 140.232663 
L 291.160806 140.263947 
L 293.053283 140.05767 
L 298.730713 141.024537 
L 300.623189 140.506092 
L 302.515666 139.8406 
L 304.408143 140.140732 
L 306.300619 140.267372 
L 308.193096 141.083549 
L 310.085572 141.017621 
L 311.978049 140.517674 
L 313.870526 140.34523 
L 315.763002 140.74324 
L 319.547956 140.491883 
L 321.440432 139.719247 
L 323.332909 139.631252 
L 327.117862 139.862212 
L 329.010339 139.799749 
L 332.795292 139.355328 
L 336.580245 139.792189 
L 338.472722 140.181951 
L 340.365199 140.427824 
L 342.257675 140.785956 
L 346.042629 142.115207 
L 347.935105 141.952926 
L 349.827582 136.563562 
L 351.720058 136.413207 
L 359.289965 136.590319 
L 361.182442 136.423281 
L 363.074918 141.853773 
L 364.967395 141.796621 
L 366.859871 141.999837 
L 368.752348 141.36168 
L 370.644825 140.532034 
L 372.537301 140.220218 
L 374.429778 140.708687 
L 378.214731 140.603362 
L 380.107208 140.006502 
L 381.999685 139.941122 
L 383.892161 140.125384 
L 385.784638 140.440732 
L 389.569591 139.75488 
L 391.462068 139.841889 
L 393.354544 140.061431 
L 395.247021 139.995634 
L 400.924451 138.903436 
L 402.816928 139.026472 
L 404.709404 138.923719 
L 406.601881 138.170068 
L 408.494357 138.240376 
L 410.386834 138.466931 
L 416.064264 137.821337 
L 417.956741 136.956082 
L 419.849217 137.186702 
L 421.741694 136.910034 
L 423.634171 136.855574 
L 425.526647 137.048536 
L 427.419124 137.10913 
L 429.3116 136.916998 
L 431.204077 137.530845 
L 433.096554 137.772872 
L 434.98903 137.326497 
L 436.881507 137.285978 
L 438.773984 136.971621 
L 442.558937 137.770533 
L 444.451414 137.590261 
L 446.34389 136.928596 
L 448.236367 137.579728 
L 450.128843 137.65533 
L 452.02132 137.979871 
L 453.913797 138.060526 
L 455.806273 137.881857 
L 457.69875 138.210339 
L 459.591227 138.747194 
L 461.483703 138.885388 
L 463.37618 138.597088 
L 467.161133 138.615247 
L 469.05361 138.946187 
L 470.946086 139.136085 
L 472.838563 140.198908 
L 474.73104 139.84652 
L 476.623516 140.809737 
L 478.515993 140.894699 
L 480.40847 141.17285 
L 482.300946 141.030623 
L 484.193423 141.101317 
L 486.0859 140.481915 
L 489.870853 139.803365 
L 491.763329 139.654 
L 491.763329 139.654 
" style="fill:none;stroke:#ff7f0e;stroke-dasharray:5.55,2.4;stroke-dashoffset:0;stroke-width:1.5;"/>
   </g>
   <g id="patch_3">
    <path d="M 52.70875 179.298125 
L 52.70875 22.318125 
" style="fill:none;stroke:#000000;stroke-linecap:square;stroke-linejoin:miter;stroke-width:0.8;"/>
   </g>
   <g id="patch_4">
    <path d="M 457.69875 179.298125 
L 457.69875 22.318125 
" style="fill:none;stroke:#000000;stroke-linecap:square;stroke-linejoin:miter;stroke-width:0.8;"/>
   </g>
   <g id="patch_5">
    <path d="M 52.70875 179.298125 
L 457.69875 179.298125 
" style="fill:none;stroke:#000000;stroke-linecap:square;stroke-linejoin:miter;stroke-width:0.8;"/>
   </g>
   <g id="patch_6">
    <path d="M 52.70875 22.318125 
L 457.69875 22.318125 
" style="fill:none;stroke:#000000;stroke-linecap:square;stroke-linejoin:miter;stroke-width:0.8;"/>
   </g>
   <g id="text_17">
    <!-- CFR -->
    <g transform="translate(243.394063 16.318125)scale(0.12 -0.12)">
     <defs>
      <path d="M 9.8125 72.90625 
L 51.703125 72.90625 
L 51.703125 64.59375 
L 19.671875 64.59375 
L 19.671875 43.109375 
L 48.578125 43.109375 
L 48.578125 34.8125 
L 19.671875 34.8125 
L 19.671875 0 
L 9.8125 0 
z
" id="DejaVuSans-70"/>
     </defs>
     <use xlink:href="#DejaVuSans-67"/>
     <use x="69.824219" xlink:href="#DejaVuSans-70"/>
     <use x="127.34375" xlink:href="#DejaVuSans-82"/>
    </g>
   </g>
  </g>
  <g id="axes_2">
   <g id="patch_7">
    <path d="M 503.16375 179.298125 
L 908.15375 179.298125 
L 908.15375 22.318125 
L 503.16375 22.318125 
z
" style="fill:#ffffff;"/>
   </g>
   <g id="matplotlib.axis_3">
    <g id="xtick_38">
     <g id="line2d_46">
      <g>
       <use style="stroke:#000000;stroke-width:0.8;" x="503.16375" xlink:href="#m3678f5f739" y="179.298125"/>
      </g>
     </g>
     <g id="text_18">
      <!-- 2020-04 -->
      <g transform="translate(464.077688 215.143563)rotate(-30)scale(0.105 -0.105)">
       <use xlink:href="#DejaVuSans-50"/>
       <use x="63.623047" xlink:href="#DejaVuSans-48"/>
       <use x="127.246094" xlink:href="#DejaVuSans-50"/>
       <use x="190.869141" xlink:href="#DejaVuSans-48"/>
       <use x="254.492188" xlink:href="#DejaVuSans-45"/>
       <use x="290.576172" xlink:href="#DejaVuSans-48"/>
       <use x="354.199219" xlink:href="#DejaVuSans-52"/>
      </g>
     </g>
    </g>
    <g id="xtick_39">
     <g id="line2d_47">
      <g>
       <use style="stroke:#000000;stroke-width:0.8;" x="559.938049" xlink:href="#m3678f5f739" y="179.298125"/>
      </g>
     </g>
     <g id="text_19">
      <!-- 2020-05 -->
      <g transform="translate(520.851987 215.143563)rotate(-30)scale(0.105 -0.105)">
       <use xlink:href="#DejaVuSans-50"/>
       <use x="63.623047" xlink:href="#DejaVuSans-48"/>
       <use x="127.246094" xlink:href="#DejaVuSans-50"/>
       <use x="190.869141" xlink:href="#DejaVuSans-48"/>
       <use x="254.492188" xlink:href="#DejaVuSans-45"/>
       <use x="290.576172" xlink:href="#DejaVuSans-48"/>
       <use x="354.199219" xlink:href="#DejaVuSans-53"/>
      </g>
     </g>
    </g>
    <g id="xtick_40">
     <g id="line2d_48">
      <g>
       <use style="stroke:#000000;stroke-width:0.8;" x="618.604825" xlink:href="#m3678f5f739" y="179.298125"/>
      </g>
     </g>
     <g id="text_20">
      <!-- 2020-06 -->
      <g transform="translate(579.518763 215.143563)rotate(-30)scale(0.105 -0.105)">
       <use xlink:href="#DejaVuSans-50"/>
       <use x="63.623047" xlink:href="#DejaVuSans-48"/>
       <use x="127.246094" xlink:href="#DejaVuSans-50"/>
       <use x="190.869141" xlink:href="#DejaVuSans-48"/>
       <use x="254.492188" xlink:href="#DejaVuSans-45"/>
       <use x="290.576172" xlink:href="#DejaVuSans-48"/>
       <use x="354.199219" xlink:href="#DejaVuSans-54"/>
      </g>
     </g>
    </g>
    <g id="xtick_41">
     <g id="line2d_49">
      <g>
       <use style="stroke:#000000;stroke-width:0.8;" x="675.379124" xlink:href="#m3678f5f739" y="179.298125"/>
      </g>
     </g>
     <g id="text_21">
      <!-- 2020-07 -->
      <g transform="translate(636.293062 215.143563)rotate(-30)scale(0.105 -0.105)">
       <use xlink:href="#DejaVuSans-50"/>
       <use x="63.623047" xlink:href="#DejaVuSans-48"/>
       <use x="127.246094" xlink:href="#DejaVuSans-50"/>
       <use x="190.869141" xlink:href="#DejaVuSans-48"/>
       <use x="254.492188" xlink:href="#DejaVuSans-45"/>
       <use x="290.576172" xlink:href="#DejaVuSans-48"/>
       <use x="354.199219" xlink:href="#DejaVuSans-55"/>
      </g>
     </g>
    </g>
    <g id="xtick_42">
     <g id="line2d_50">
      <g>
       <use style="stroke:#000000;stroke-width:0.8;" x="734.0459" xlink:href="#m3678f5f739" y="179.298125"/>
      </g>
     </g>
     <g id="text_22">
      <!-- 2020-08 -->
      <g transform="translate(694.959838 215.143563)rotate(-30)scale(0.105 -0.105)">
       <use xlink:href="#DejaVuSans-50"/>
       <use x="63.623047" xlink:href="#DejaVuSans-48"/>
       <use x="127.246094" xlink:href="#DejaVuSans-50"/>
       <use x="190.869141" xlink:href="#DejaVuSans-48"/>
       <use x="254.492188" xlink:href="#DejaVuSans-45"/>
       <use x="290.576172" xlink:href="#DejaVuSans-48"/>
       <use x="354.199219" xlink:href="#DejaVuSans-56"/>
      </g>
     </g>
    </g>
    <g id="xtick_43">
     <g id="line2d_51">
      <g>
       <use style="stroke:#000000;stroke-width:0.8;" x="792.712675" xlink:href="#m3678f5f739" y="179.298125"/>
      </g>
     </g>
     <g id="text_23">
      <!-- 2020-09 -->
      <g transform="translate(753.626613 215.143563)rotate(-30)scale(0.105 -0.105)">
       <use xlink:href="#DejaVuSans-50"/>
       <use x="63.623047" xlink:href="#DejaVuSans-48"/>
       <use x="127.246094" xlink:href="#DejaVuSans-50"/>
       <use x="190.869141" xlink:href="#DejaVuSans-48"/>
       <use x="254.492188" xlink:href="#DejaVuSans-45"/>
       <use x="290.576172" xlink:href="#DejaVuSans-48"/>
       <use x="354.199219" xlink:href="#DejaVuSans-57"/>
      </g>
     </g>
    </g>
    <g id="xtick_44">
     <g id="line2d_52">
      <g>
       <use style="stroke:#000000;stroke-width:0.8;" x="849.486974" xlink:href="#m3678f5f739" y="179.298125"/>
      </g>
     </g>
     <g id="text_24">
      <!-- 2020-10 -->
      <g transform="translate(810.400912 215.143563)rotate(-30)scale(0.105 -0.105)">
       <use xlink:href="#DejaVuSans-50"/>
       <use x="63.623047" xlink:href="#DejaVuSans-48"/>
       <use x="127.246094" xlink:href="#DejaVuSans-50"/>
       <use x="190.869141" xlink:href="#DejaVuSans-48"/>
       <use x="254.492188" xlink:href="#DejaVuSans-45"/>
       <use x="290.576172" xlink:href="#DejaVuSans-49"/>
       <use x="354.199219" xlink:href="#DejaVuSans-48"/>
      </g>
     </g>
    </g>
    <g id="xtick_45">
     <g id="line2d_53">
      <g>
       <use style="stroke:#000000;stroke-width:0.8;" x="908.15375" xlink:href="#m3678f5f739" y="179.298125"/>
      </g>
     </g>
     <g id="text_25">
      <!-- 2020-11 -->
      <g transform="translate(869.067688 215.143563)rotate(-30)scale(0.105 -0.105)">
       <use xlink:href="#DejaVuSans-50"/>
       <use x="63.623047" xlink:href="#DejaVuSans-48"/>
       <use x="127.246094" xlink:href="#DejaVuSans-50"/>
       <use x="190.869141" xlink:href="#DejaVuSans-48"/>
       <use x="254.492188" xlink:href="#DejaVuSans-45"/>
       <use x="290.576172" xlink:href="#DejaVuSans-49"/>
       <use x="354.199219" xlink:href="#DejaVuSans-49"/>
      </g>
     </g>
    </g>
    <g id="xtick_46">
     <g id="line2d_54">
      <g>
       <use style="stroke:#000000;stroke-width:0.6;" x="512.626133" xlink:href="#m409c177da6" y="179.298125"/>
      </g>
     </g>
    </g>
    <g id="xtick_47">
     <g id="line2d_55">
      <g>
       <use style="stroke:#000000;stroke-width:0.6;" x="525.87347" xlink:href="#m409c177da6" y="179.298125"/>
      </g>
     </g>
    </g>
    <g id="xtick_48">
     <g id="line2d_56">
      <g>
       <use style="stroke:#000000;stroke-width:0.6;" x="539.120806" xlink:href="#m409c177da6" y="179.298125"/>
      </g>
     </g>
    </g>
    <g id="xtick_49">
     <g id="line2d_57">
      <g>
       <use style="stroke:#000000;stroke-width:0.6;" x="552.368143" xlink:href="#m409c177da6" y="179.298125"/>
      </g>
     </g>
    </g>
    <g id="xtick_50">
     <g id="line2d_58">
      <g>
       <use style="stroke:#000000;stroke-width:0.6;" x="565.615479" xlink:href="#m409c177da6" y="179.298125"/>
      </g>
     </g>
    </g>
    <g id="xtick_51">
     <g id="line2d_59">
      <g>
       <use style="stroke:#000000;stroke-width:0.6;" x="578.862815" xlink:href="#m409c177da6" y="179.298125"/>
      </g>
     </g>
    </g>
    <g id="xtick_52">
     <g id="line2d_60">
      <g>
       <use style="stroke:#000000;stroke-width:0.6;" x="592.110152" xlink:href="#m409c177da6" y="179.298125"/>
      </g>
     </g>
    </g>
    <g id="xtick_53">
     <g id="line2d_61">
      <g>
       <use style="stroke:#000000;stroke-width:0.6;" x="605.357488" xlink:href="#m409c177da6" y="179.298125"/>
      </g>
     </g>
    </g>
    <g id="xtick_54">
     <g id="line2d_62">
      <g>
       <use style="stroke:#000000;stroke-width:0.6;" x="631.852161" xlink:href="#m409c177da6" y="179.298125"/>
      </g>
     </g>
    </g>
    <g id="xtick_55">
     <g id="line2d_63">
      <g>
       <use style="stroke:#000000;stroke-width:0.6;" x="645.099498" xlink:href="#m409c177da6" y="179.298125"/>
      </g>
     </g>
    </g>
    <g id="xtick_56">
     <g id="line2d_64">
      <g>
       <use style="stroke:#000000;stroke-width:0.6;" x="658.346834" xlink:href="#m409c177da6" y="179.298125"/>
      </g>
     </g>
    </g>
    <g id="xtick_57">
     <g id="line2d_65">
      <g>
       <use style="stroke:#000000;stroke-width:0.6;" x="671.594171" xlink:href="#m409c177da6" y="179.298125"/>
      </g>
     </g>
    </g>
    <g id="xtick_58">
     <g id="line2d_66">
      <g>
       <use style="stroke:#000000;stroke-width:0.6;" x="684.841507" xlink:href="#m409c177da6" y="179.298125"/>
      </g>
     </g>
    </g>
    <g id="xtick_59">
     <g id="line2d_67">
      <g>
       <use style="stroke:#000000;stroke-width:0.6;" x="698.088843" xlink:href="#m409c177da6" y="179.298125"/>
      </g>
     </g>
    </g>
    <g id="xtick_60">
     <g id="line2d_68">
      <g>
       <use style="stroke:#000000;stroke-width:0.6;" x="711.33618" xlink:href="#m409c177da6" y="179.298125"/>
      </g>
     </g>
    </g>
    <g id="xtick_61">
     <g id="line2d_69">
      <g>
       <use style="stroke:#000000;stroke-width:0.6;" x="724.583516" xlink:href="#m409c177da6" y="179.298125"/>
      </g>
     </g>
    </g>
    <g id="xtick_62">
     <g id="line2d_70">
      <g>
       <use style="stroke:#000000;stroke-width:0.6;" x="737.830853" xlink:href="#m409c177da6" y="179.298125"/>
      </g>
     </g>
    </g>
    <g id="xtick_63">
     <g id="line2d_71">
      <g>
       <use style="stroke:#000000;stroke-width:0.6;" x="751.078189" xlink:href="#m409c177da6" y="179.298125"/>
      </g>
     </g>
    </g>
    <g id="xtick_64">
     <g id="line2d_72">
      <g>
       <use style="stroke:#000000;stroke-width:0.6;" x="764.325526" xlink:href="#m409c177da6" y="179.298125"/>
      </g>
     </g>
    </g>
    <g id="xtick_65">
     <g id="line2d_73">
      <g>
       <use style="stroke:#000000;stroke-width:0.6;" x="777.572862" xlink:href="#m409c177da6" y="179.298125"/>
      </g>
     </g>
    </g>
    <g id="xtick_66">
     <g id="line2d_74">
      <g>
       <use style="stroke:#000000;stroke-width:0.6;" x="790.820199" xlink:href="#m409c177da6" y="179.298125"/>
      </g>
     </g>
    </g>
    <g id="xtick_67">
     <g id="line2d_75">
      <g>
       <use style="stroke:#000000;stroke-width:0.6;" x="804.067535" xlink:href="#m409c177da6" y="179.298125"/>
      </g>
     </g>
    </g>
    <g id="xtick_68">
     <g id="line2d_76">
      <g>
       <use style="stroke:#000000;stroke-width:0.6;" x="817.314871" xlink:href="#m409c177da6" y="179.298125"/>
      </g>
     </g>
    </g>
    <g id="xtick_69">
     <g id="line2d_77">
      <g>
       <use style="stroke:#000000;stroke-width:0.6;" x="830.562208" xlink:href="#m409c177da6" y="179.298125"/>
      </g>
     </g>
    </g>
    <g id="xtick_70">
     <g id="line2d_78">
      <g>
       <use style="stroke:#000000;stroke-width:0.6;" x="843.809544" xlink:href="#m409c177da6" y="179.298125"/>
      </g>
     </g>
    </g>
    <g id="xtick_71">
     <g id="line2d_79">
      <g>
       <use style="stroke:#000000;stroke-width:0.6;" x="857.056881" xlink:href="#m409c177da6" y="179.298125"/>
      </g>
     </g>
    </g>
    <g id="xtick_72">
     <g id="line2d_80">
      <g>
       <use style="stroke:#000000;stroke-width:0.6;" x="870.304217" xlink:href="#m409c177da6" y="179.298125"/>
      </g>
     </g>
    </g>
    <g id="xtick_73">
     <g id="line2d_81">
      <g>
       <use style="stroke:#000000;stroke-width:0.6;" x="883.551554" xlink:href="#m409c177da6" y="179.298125"/>
      </g>
     </g>
    </g>
    <g id="xtick_74">
     <g id="line2d_82">
      <g>
       <use style="stroke:#000000;stroke-width:0.6;" x="896.79889" xlink:href="#m409c177da6" y="179.298125"/>
      </g>
     </g>
    </g>
    <g id="text_26">
     <!-- CDC Report Date -->
     <g transform="translate(656.741523 229.772882)scale(0.115 -0.115)">
      <use xlink:href="#DejaVuSans-67"/>
      <use x="69.824219" xlink:href="#DejaVuSans-68"/>
      <use x="146.826172" xlink:href="#DejaVuSans-67"/>
      <use x="216.650391" xlink:href="#DejaVuSans-32"/>
      <use x="248.4375" xlink:href="#DejaVuSans-82"/>
      <use x="313.419922" xlink:href="#DejaVuSans-101"/>
      <use x="374.943359" xlink:href="#DejaVuSans-112"/>
      <use x="438.419922" xlink:href="#DejaVuSans-111"/>
      <use x="499.601562" xlink:href="#DejaVuSans-114"/>
      <use x="540.714844" xlink:href="#DejaVuSans-116"/>
      <use x="579.923828" xlink:href="#DejaVuSans-32"/>
      <use x="611.710938" xlink:href="#DejaVuSans-68"/>
      <use x="688.712891" xlink:href="#DejaVuSans-97"/>
      <use x="749.992188" xlink:href="#DejaVuSans-116"/>
      <use x="789.201172" xlink:href="#DejaVuSans-101"/>
     </g>
    </g>
   </g>
   <g id="matplotlib.axis_4">
    <g id="ytick_7">
     <g id="line2d_83">
      <g>
       <use style="stroke:#000000;stroke-width:0.8;" x="503.16375" xlink:href="#mbf8c619e9c" y="172.16267"/>
      </g>
     </g>
     <g id="text_27">
      <!-- 0.0 -->
      <g transform="translate(479.465469 176.15185)scale(0.105 -0.105)">
       <use xlink:href="#DejaVuSans-48"/>
       <use x="63.623047" xlink:href="#DejaVuSans-46"/>
       <use x="95.410156" xlink:href="#DejaVuSans-48"/>
      </g>
     </g>
    </g>
    <g id="ytick_8">
     <g id="line2d_84">
      <g>
       <use style="stroke:#000000;stroke-width:0.8;" x="503.16375" xlink:href="#mbf8c619e9c" y="136.485398"/>
      </g>
     </g>
     <g id="text_28">
      <!-- 0.1 -->
      <g transform="translate(479.465469 140.474577)scale(0.105 -0.105)">
       <use xlink:href="#DejaVuSans-48"/>
       <use x="63.623047" xlink:href="#DejaVuSans-46"/>
       <use x="95.410156" xlink:href="#DejaVuSans-49"/>
      </g>
     </g>
    </g>
    <g id="ytick_9">
     <g id="line2d_85">
      <g>
       <use style="stroke:#000000;stroke-width:0.8;" x="503.16375" xlink:href="#mbf8c619e9c" y="100.808125"/>
      </g>
     </g>
     <g id="text_29">
      <!-- 0.2 -->
      <g transform="translate(479.465469 104.797305)scale(0.105 -0.105)">
       <use xlink:href="#DejaVuSans-48"/>
       <use x="63.623047" xlink:href="#DejaVuSans-46"/>
       <use x="95.410156" xlink:href="#DejaVuSans-50"/>
      </g>
     </g>
    </g>
    <g id="ytick_10">
     <g id="line2d_86">
      <g>
       <use style="stroke:#000000;stroke-width:0.8;" x="503.16375" xlink:href="#mbf8c619e9c" y="65.130852"/>
      </g>
     </g>
     <g id="text_30">
      <!-- 0.3 -->
      <g transform="translate(479.465469 69.120032)scale(0.105 -0.105)">
       <defs>
        <path d="M 40.578125 39.3125 
Q 47.65625 37.796875 51.625 33 
Q 55.609375 28.21875 55.609375 21.1875 
Q 55.609375 10.40625 48.1875 4.484375 
Q 40.765625 -1.421875 27.09375 -1.421875 
Q 22.515625 -1.421875 17.65625 -0.515625 
Q 12.796875 0.390625 7.625 2.203125 
L 7.625 11.71875 
Q 11.71875 9.328125 16.59375 8.109375 
Q 21.484375 6.890625 26.8125 6.890625 
Q 36.078125 6.890625 40.9375 10.546875 
Q 45.796875 14.203125 45.796875 21.1875 
Q 45.796875 27.640625 41.28125 31.265625 
Q 36.765625 34.90625 28.71875 34.90625 
L 20.21875 34.90625 
L 20.21875 43.015625 
L 29.109375 43.015625 
Q 36.375 43.015625 40.234375 45.921875 
Q 44.09375 48.828125 44.09375 54.296875 
Q 44.09375 59.90625 40.109375 62.90625 
Q 36.140625 65.921875 28.71875 65.921875 
Q 24.65625 65.921875 20.015625 65.03125 
Q 15.375 64.15625 9.8125 62.3125 
L 9.8125 71.09375 
Q 15.4375 72.65625 20.34375 73.4375 
Q 25.25 74.21875 29.59375 74.21875 
Q 40.828125 74.21875 47.359375 69.109375 
Q 53.90625 64.015625 53.90625 55.328125 
Q 53.90625 49.265625 50.4375 45.09375 
Q 46.96875 40.921875 40.578125 39.3125 
z
" id="DejaVuSans-51"/>
       </defs>
       <use xlink:href="#DejaVuSans-48"/>
       <use x="63.623047" xlink:href="#DejaVuSans-46"/>
       <use x="95.410156" xlink:href="#DejaVuSans-51"/>
      </g>
     </g>
    </g>
    <g id="ytick_11">
     <g id="line2d_87">
      <g>
       <use style="stroke:#000000;stroke-width:0.8;" x="503.16375" xlink:href="#mbf8c619e9c" y="29.45358"/>
      </g>
     </g>
     <g id="text_31">
      <!-- 0.4 -->
      <g transform="translate(479.465469 33.442759)scale(0.105 -0.105)">
       <use xlink:href="#DejaVuSans-48"/>
       <use x="63.623047" xlink:href="#DejaVuSans-46"/>
       <use x="95.410156" xlink:href="#DejaVuSans-52"/>
      </g>
     </g>
    </g>
   </g>
   <g id="line2d_88">
    <path clip-path="url(#pd1cd332ffe)" d="M 330.948376 172.16267 
L 342.303236 172.16267 
M 349.873143 172.16267 
L 397.185058 172.16267 
L 399.077535 144.718615 
L 400.970012 112.700549 
L 402.862488 74.861018 
L 404.754965 74.861018 
L 406.647442 60.671193 
L 408.539918 53.238428 
L 410.432395 29.45358 
L 412.324871 29.45358 
L 414.217348 40.720087 
L 416.109825 70.227606 
L 418.002301 53.238428 
L 419.894778 82.969489 
L 421.787255 90.614619 
L 423.679731 97.052623 
L 425.572208 86.847453 
L 427.464685 86.27294 
L 429.357161 81.347794 
L 431.249638 97.355486 
L 433.142114 104.94462 
L 435.034591 100.808125 
L 436.927068 102.207234 
L 438.819544 113.844052 
L 440.712021 117.933216 
L 444.496974 110.650131 
L 446.389451 104.20596 
L 448.281928 105.020939 
L 450.174404 106.562524 
L 452.066881 110.450631 
L 453.959357 110.955611 
L 455.851834 110.961891 
L 457.744311 114.098393 
L 459.636787 116.845135 
L 461.529264 110.729078 
L 463.421741 112.165818 
L 465.314217 109.511178 
L 467.206694 109.570964 
L 469.099171 110.467782 
L 470.991647 110.571834 
L 472.884124 108.161456 
L 474.7766 107.790564 
L 476.669077 103.286514 
L 478.561554 101.306482 
L 480.45403 99.960768 
L 482.346507 99.560359 
L 484.238984 99.309616 
L 486.13146 100.346657 
L 488.023937 97.052623 
L 489.916414 93.344579 
L 491.80889 90.989716 
L 493.701367 88.236824 
L 495.593843 84.931367 
L 497.48632 81.308823 
L 499.378797 83.206511 
L 501.271273 75.560601 
L 503.16375 70.909691 
L 505.056227 70.526457 
L 506.948703 71.457085 
L 508.84118 71.224119 
L 510.733657 70.763422 
L 512.626133 67.94895 
L 514.51861 65.398017 
L 516.411086 66.580246 
L 518.303563 66.90877 
L 520.19604 65.16755 
L 522.088516 63.753625 
L 523.980993 60.24854 
L 525.87347 58.11787 
L 527.765946 56.850213 
L 529.658423 58.7693 
L 531.5509 58.453254 
L 533.443376 59.216221 
L 537.228329 53.42517 
L 539.120806 55.295152 
L 541.013283 61.666864 
L 542.905759 60.455599 
L 544.798236 58.730725 
L 546.690713 58.330902 
L 548.583189 64.186551 
L 550.475666 68.764484 
L 552.368143 67.120515 
L 554.260619 66.243621 
L 556.153096 68.304229 
L 558.045572 72.051303 
L 559.938049 73.96882 
L 561.830526 75.308118 
L 563.723002 78.742356 
L 565.615479 79.580287 
L 567.507956 80.105796 
L 569.400432 80.894522 
L 571.292909 80.213374 
L 573.185386 78.878198 
L 575.077862 78.986011 
L 576.970339 81.248746 
L 578.862815 81.243276 
L 580.755292 82.397472 
L 582.647769 83.366155 
L 584.540245 83.191305 
L 586.432722 85.028513 
L 588.325199 84.157447 
L 590.217675 84.957353 
L 592.110152 86.20439 
L 594.002629 84.750299 
L 595.895105 84.587459 
L 597.787582 86.39623 
L 599.680058 85.68296 
L 601.572535 86.609245 
L 603.465012 88.746864 
L 605.357488 89.783761 
L 607.249965 92.435341 
L 609.142442 92.353132 
L 611.034918 92.393041 
L 612.927395 90.605758 
L 614.819871 90.417353 
L 616.712348 94.646021 
L 618.604825 94.008483 
L 620.497301 94.089013 
L 622.389778 94.041954 
L 624.282255 95.277964 
L 626.174731 98.436392 
L 628.067208 98.626081 
L 629.959685 98.550453 
L 631.852161 100.409496 
L 633.744638 101.434708 
L 635.637114 104.36936 
L 639.422068 107.162449 
L 641.314544 107.570422 
L 643.207021 108.808765 
L 645.099498 110.54618 
L 646.991974 111.004216 
L 648.884451 111.74376 
L 650.776928 112.80391 
L 652.669404 112.474291 
L 654.561881 114.080349 
L 658.346834 113.596524 
L 660.239311 112.429163 
L 662.131787 110.611748 
L 664.024264 109.401738 
L 665.916741 108.675866 
L 667.809217 107.635562 
L 669.701694 105.090927 
L 671.594171 106.185654 
L 673.486647 106.614355 
L 675.379124 108.228705 
L 677.2716 109.326849 
L 679.164077 109.989964 
L 681.056554 111.959203 
L 682.94903 114.132599 
L 686.733984 113.383418 
L 688.62646 112.684872 
L 690.518937 111.759134 
L 692.411414 110.654795 
L 694.30389 107.121427 
L 696.196367 106.433173 
L 698.088843 108.572837 
L 699.98132 108.569701 
L 701.873797 108.681766 
L 703.766273 108.914538 
L 705.65875 108.873648 
L 709.443703 110.409899 
L 711.33618 108.208909 
L 713.228657 107.818964 
L 715.121133 106.95514 
L 717.01361 106.837741 
L 718.906086 107.031797 
L 720.798563 107.079139 
L 724.583516 105.614229 
L 726.475993 106.973365 
L 728.36847 108.135903 
L 730.260946 108.789161 
L 732.153423 108.713657 
L 734.0459 109.577045 
L 735.938376 110.80513 
L 737.830853 113.338607 
L 741.615806 114.873835 
L 743.508283 114.817742 
L 745.400759 116.034329 
L 747.293236 114.726488 
L 752.970666 108.586664 
L 754.863143 108.418981 
L 756.755619 107.109893 
L 758.648096 107.564286 
L 760.540572 109.457762 
L 762.433049 108.801485 
L 764.325526 107.004476 
L 766.218002 107.726841 
L 770.002956 105.686128 
L 771.895432 104.466198 
L 773.787909 103.525975 
L 775.680386 104.543696 
L 777.572862 102.694452 
L 779.465339 102.741695 
L 781.357815 100.151036 
L 783.250292 98.64163 
L 785.142769 99.444662 
L 787.035245 99.415342 
L 788.927722 98.173668 
L 790.820199 101.566331 
L 792.712675 101.811833 
L 796.497629 108.690829 
L 798.390105 107.593538 
L 800.282582 105.955696 
L 802.175058 107.083744 
L 804.067535 106.375116 
L 805.960012 106.923476 
L 807.852488 105.674161 
L 809.744965 99.520906 
L 811.637442 99.372471 
L 813.529918 98.869616 
L 815.422395 97.256789 
L 817.314871 97.014852 
L 819.207348 94.603382 
L 821.099825 92.469354 
L 822.992301 98.354866 
L 824.884778 98.780912 
L 828.669731 100.121626 
L 830.562208 102.074142 
L 832.454685 101.364031 
L 836.239638 107.645671 
L 838.132114 107.146472 
L 840.024591 106.26017 
L 843.809544 106.420864 
L 845.702021 108.793746 
L 847.594498 109.003704 
L 849.486974 110.040484 
L 851.379451 111.342907 
L 853.271928 111.425222 
L 855.164404 112.171213 
L 857.056881 110.777213 
L 858.949357 112.179337 
L 860.841834 114.073903 
L 862.734311 111.48735 
L 864.626787 112.444766 
L 866.519264 112.39154 
L 868.411741 111.126282 
L 870.304217 110.830853 
L 874.089171 111.503243 
L 875.981647 112.052685 
L 877.874124 111.095559 
L 879.7666 111.629259 
L 881.659077 112.829778 
L 883.551554 113.813567 
L 885.44403 114.171587 
L 887.336507 113.681333 
L 891.12146 115.09107 
L 893.013937 116.11249 
L 894.906414 116.10823 
L 896.79889 117.1892 
L 898.691367 115.122539 
L 900.583843 114.448147 
L 902.47632 115.16485 
L 904.368797 115.502068 
L 906.261273 115.284582 
L 908.15375 116.014831 
L 910.046227 116.492277 
L 911.938703 119.446993 
L 913.83118 123.720349 
L 915.723657 124.107449 
L 916.35375 124.771266 
L 916.35375 124.771266 
" style="fill:none;stroke:#1f77b4;stroke-linecap:square;stroke-width:1.5;"/>
   </g>
   <g id="line2d_89">
    <path clip-path="url(#pd1cd332ffe)" d="M 330.948376 148.234719 
L 342.303236 148.234719 
L 344.195713 172.16267 
L 347.980666 172.16267 
L 349.873143 113.158639 
L 351.765619 124.850666 
L 353.658096 125.98217 
L 355.550572 105.087153 
L 361.228002 105.087153 
L 363.120479 101.858558 
L 365.012956 90.264518 
L 366.905432 94.979027 
L 368.797909 154.018365 
L 372.582862 154.018365 
L 374.475339 157.9727 
L 378.260292 157.9727 
L 380.152769 151.686688 
L 382.045245 147.629026 
L 383.937722 126.932444 
L 385.830199 126.932444 
L 387.722675 116.257061 
L 389.615152 117.026259 
L 391.507629 115.064368 
L 393.400105 113.633137 
L 395.292582 112.400258 
L 397.185058 108.768351 
L 399.077535 102.399435 
L 400.970012 89.81695 
L 402.862488 79.924594 
L 404.754965 86.897955 
L 406.647442 82.885275 
L 408.539918 79.785847 
L 410.432395 82.240521 
L 412.324871 88.34562 
L 414.217348 100.143547 
L 416.109825 95.672516 
L 418.002301 86.114442 
L 419.894778 88.480666 
L 421.787255 89.217952 
L 423.679731 90.66755 
L 425.572208 89.124547 
L 427.464685 88.1333 
L 429.357161 91.120443 
L 431.249638 98.543268 
L 433.142114 103.806995 
L 435.034591 97.808944 
L 436.927068 98.166082 
L 438.819544 100.343473 
L 440.712021 100.772417 
L 442.604498 98.383125 
L 444.496974 97.715675 
L 446.389451 97.740759 
L 448.281928 99.005875 
L 450.174404 100.549648 
L 452.066881 100.396724 
L 453.959357 100.981029 
L 455.851834 102.422437 
L 457.744311 102.123395 
L 459.636787 103.023983 
L 461.529264 102.449843 
L 463.421741 102.825914 
L 465.314217 103.327831 
L 467.206694 104.012096 
L 469.099171 103.633455 
L 470.991647 104.017636 
L 472.884124 101.386801 
L 474.7766 102.262005 
L 476.669077 101.359382 
L 478.561554 101.288536 
L 480.45403 100.642179 
L 482.346507 100.469743 
L 484.238984 99.865722 
L 486.13146 99.45656 
L 488.023937 100.446475 
L 489.916414 100.41257 
L 493.701367 99.420766 
L 497.48632 98.647818 
L 499.378797 98.628463 
L 501.271273 96.550649 
L 503.16375 95.180491 
L 505.056227 94.506246 
L 506.948703 94.099737 
L 508.84118 93.545155 
L 510.733657 92.367416 
L 512.626133 91.898095 
L 514.51861 90.428047 
L 516.411086 90.117896 
L 518.303563 90.019997 
L 520.19604 89.381623 
L 522.088516 88.579787 
L 523.980993 86.820657 
L 527.765946 84.995661 
L 529.658423 85.141771 
L 531.5509 85.043062 
L 533.443376 85.082304 
L 535.335853 84.467425 
L 537.228329 83.406871 
L 539.120806 83.536049 
L 541.013283 84.137097 
L 542.905759 83.997898 
L 544.798236 83.722975 
L 546.690713 83.921393 
L 548.583189 84.584005 
L 550.475666 86.127115 
L 552.368143 86.19516 
L 554.260619 85.904934 
L 556.153096 85.993799 
L 558.045572 86.56288 
L 559.938049 86.99302 
L 563.723002 88.956492 
L 565.615479 89.288151 
L 567.507956 89.458205 
L 569.400432 90.418869 
L 575.077862 89.707885 
L 576.970339 90.714157 
L 578.862815 91.268825 
L 580.755292 92.041007 
L 582.647769 91.785615 
L 584.540245 92.554005 
L 586.432722 93.193183 
L 588.325199 92.993087 
L 592.110152 93.337584 
L 594.002629 93.019611 
L 595.895105 93.94279 
L 597.787582 93.784741 
L 599.680058 93.412456 
L 603.465012 94.404652 
L 607.249965 95.822057 
L 609.142442 93.97056 
L 611.034918 94.286696 
L 614.819871 94.311996 
L 616.712348 95.570967 
L 618.604825 95.57922 
L 620.497301 94.701186 
L 622.389778 96.364186 
L 624.282255 97.001249 
L 626.174731 97.845452 
L 628.067208 98.090935 
L 629.959685 97.981685 
L 631.852161 98.793029 
L 633.744638 100.595699 
L 635.637114 101.326362 
L 637.529591 101.902592 
L 641.314544 102.178509 
L 645.099498 103.379116 
L 646.991974 103.712782 
L 648.884451 104.839447 
L 650.776928 105.135316 
L 658.346834 105.842848 
L 662.131787 104.610906 
L 667.809217 104.02494 
L 669.701694 102.876473 
L 671.594171 102.993571 
L 673.486647 103.510885 
L 675.379124 104.329422 
L 677.2716 104.173581 
L 679.164077 104.339779 
L 681.056554 104.99022 
L 682.94903 105.859757 
L 684.841507 105.286446 
L 688.62646 104.450579 
L 690.518937 104.583116 
L 692.411414 104.0895 
L 694.30389 102.464445 
L 696.196367 101.879378 
L 699.98132 101.612634 
L 701.873797 101.054724 
L 705.65875 100.468297 
L 707.551227 100.670237 
L 709.443703 100.38395 
L 711.33618 99.836885 
L 713.228657 99.759575 
L 715.121133 99.897663 
L 717.01361 99.711452 
L 718.906086 99.86377 
L 720.798563 99.865067 
L 722.69104 100.180081 
L 726.475993 99.948786 
L 728.36847 100.450534 
L 730.260946 101.417546 
L 732.153423 101.413114 
L 735.938376 102.397686 
L 737.830853 103.324791 
L 739.723329 103.740062 
L 747.293236 102.646266 
L 749.185713 101.65536 
L 751.078189 99.997116 
L 752.970666 98.682422 
L 754.863143 98.539593 
L 756.755619 96.876532 
L 758.648096 96.845783 
L 760.540572 96.686269 
L 764.325526 95.392424 
L 766.218002 95.971402 
L 768.110479 95.434415 
L 770.002956 95.51817 
L 771.895432 94.892276 
L 773.787909 94.565113 
L 775.680386 94.870156 
L 777.572862 94.069598 
L 781.357815 93.055971 
L 783.250292 92.388354 
L 785.142769 92.726084 
L 787.035245 92.61788 
L 788.927722 92.386615 
L 790.820199 92.913816 
L 792.712675 93.221215 
L 794.605152 93.402059 
L 796.497629 94.109075 
L 798.390105 93.517115 
L 802.175058 93.923859 
L 804.067535 94.692624 
L 807.852488 93.290253 
L 809.744965 92.724029 
L 811.637442 92.604289 
L 813.529918 92.064188 
L 817.314871 91.80529 
L 819.207348 90.765453 
L 821.099825 90.505994 
L 822.992301 90.705196 
L 824.884778 91.202359 
L 826.777255 90.915459 
L 828.669731 90.887586 
L 830.562208 90.599466 
L 834.347161 91.017531 
L 836.239638 91.398492 
L 838.132114 90.180436 
L 841.917068 89.592346 
L 843.809544 89.576149 
L 845.702021 88.853943 
L 847.594498 88.383118 
L 849.486974 88.490903 
L 853.271928 89.249888 
L 855.164404 89.176833 
L 857.056881 88.02098 
L 858.949357 88.704741 
L 860.841834 89.253565 
L 862.734311 88.267785 
L 864.626787 88.330548 
L 866.519264 87.877144 
L 870.304217 88.40208 
L 872.196694 88.371947 
L 874.089171 88.474411 
L 875.981647 89.000985 
L 877.874124 88.73687 
L 879.7666 88.877025 
L 883.551554 89.551475 
L 885.44403 88.778902 
L 889.228984 88.218038 
L 891.12146 88.558086 
L 893.013937 88.673405 
L 896.79889 87.496521 
L 898.691367 88.038821 
L 900.583843 87.938467 
L 902.47632 88.096927 
L 904.368797 88.047192 
L 906.261273 87.710209 
L 908.15375 88.001292 
L 910.046227 88.040314 
L 911.938703 87.658168 
L 913.83118 87.037716 
L 916.35375 86.666861 
L 916.35375 86.666861 
" style="fill:none;stroke:#ff7f0e;stroke-dasharray:5.55,2.4;stroke-dashoffset:0;stroke-width:1.5;"/>
   </g>
   <g id="patch_8">
    <path d="M 503.16375 179.298125 
L 503.16375 22.318125 
" style="fill:none;stroke:#000000;stroke-linecap:square;stroke-linejoin:miter;stroke-width:0.8;"/>
   </g>
   <g id="patch_9">
    <path d="M 908.15375 179.298125 
L 908.15375 22.318125 
" style="fill:none;stroke:#000000;stroke-linecap:square;stroke-linejoin:miter;stroke-width:0.8;"/>
   </g>
   <g id="patch_10">
    <path d="M 503.16375 179.298125 
L 908.15375 179.298125 
" style="fill:none;stroke:#000000;stroke-linecap:square;stroke-linejoin:miter;stroke-width:0.8;"/>
   </g>
   <g id="patch_11">
    <path d="M 503.16375 22.318125 
L 908.15375 22.318125 
" style="fill:none;stroke:#000000;stroke-linecap:square;stroke-linejoin:miter;stroke-width:0.8;"/>
   </g>
   <g id="text_32">
    <!-- HFR -->
    <g transform="translate(693.526563 16.318125)scale(0.12 -0.12)">
     <defs>
      <path d="M 9.8125 72.90625 
L 19.671875 72.90625 
L 19.671875 43.015625 
L 55.515625 43.015625 
L 55.515625 72.90625 
L 65.375 72.90625 
L 65.375 0 
L 55.515625 0 
L 55.515625 34.71875 
L 19.671875 34.71875 
L 19.671875 0 
L 9.8125 0 
z
" id="DejaVuSans-72"/>
     </defs>
     <use xlink:href="#DejaVuSans-72"/>
     <use x="75.195312" xlink:href="#DejaVuSans-70"/>
     <use x="132.714844" xlink:href="#DejaVuSans-82"/>
    </g>
   </g>
  </g>
  <g id="legend_1">
   <g id="patch_12">
    <path d="M 824.947656 61.855156 
L 880.84375 61.855156 
Q 882.94375 61.855156 882.94375 59.755156 
L 882.94375 31.638125 
Q 882.94375 29.538125 880.84375 29.538125 
L 824.947656 29.538125 
Q 822.847656 29.538125 822.847656 31.638125 
L 822.847656 59.755156 
Q 822.847656 61.855156 824.947656 61.855156 
z
" style="fill:#ffffff;opacity:0.8;stroke:#cccccc;stroke-linejoin:miter;"/>
   </g>
   <g id="line2d_90">
    <path d="M 827.047656 38.041484 
L 848.047656 38.041484 
" style="fill:none;stroke:#1f77b4;stroke-linecap:square;stroke-width:1.5;"/>
   </g>
   <g id="line2d_91"/>
   <g id="text_33">
    <!-- True -->
    <g transform="translate(856.447656 41.716484)scale(0.105 -0.105)">
     <defs>
      <path d="M -0.296875 72.90625 
L 61.375 72.90625 
L 61.375 64.59375 
L 35.5 64.59375 
L 35.5 0 
L 25.59375 0 
L 25.59375 64.59375 
L -0.296875 64.59375 
z
" id="DejaVuSans-84"/>
      <path d="M 8.5 21.578125 
L 8.5 54.6875 
L 17.484375 54.6875 
L 17.484375 21.921875 
Q 17.484375 14.15625 20.5 10.265625 
Q 23.53125 6.390625 29.59375 6.390625 
Q 36.859375 6.390625 41.078125 11.03125 
Q 45.3125 15.671875 45.3125 23.6875 
L 45.3125 54.6875 
L 54.296875 54.6875 
L 54.296875 0 
L 45.3125 0 
L 45.3125 8.40625 
Q 42.046875 3.421875 37.71875 1 
Q 33.40625 -1.421875 27.6875 -1.421875 
Q 18.265625 -1.421875 13.375 4.4375 
Q 8.5 10.296875 8.5 21.578125 
z
M 31.109375 56 
z
" id="DejaVuSans-117"/>
     </defs>
     <use xlink:href="#DejaVuSans-84"/>
     <use x="46.333984" xlink:href="#DejaVuSans-114"/>
     <use x="87.447266" xlink:href="#DejaVuSans-117"/>
     <use x="150.826172" xlink:href="#DejaVuSans-101"/>
    </g>
   </g>
   <g id="line2d_92">
    <path d="M 827.047656 51.796484 
L 848.047656 51.796484 
" style="fill:none;stroke:#ff7f0e;stroke-dasharray:5.55,2.4;stroke-dashoffset:0;stroke-width:1.5;"/>
   </g>
   <g id="line2d_93"/>
   <g id="text_34">
    <!-- $\hat{f}(t)$ -->
    <g transform="translate(856.447656 55.471484)scale(0.105 -0.105)">
     <defs>
      <path d="M -28.609375 79.984375 
L -21.390625 79.984375 
L -9.421875 61.625 
L -16.21875 61.625 
L -25 73.578125 
L -33.796875 61.625 
L -40.578125 61.625 
z
M -25 56 
z
" id="DejaVuSans-770"/>
      <path d="M 47.796875 75.984375 
L 46.390625 68.5 
L 37.796875 68.5 
Q 32.90625 68.5 30.6875 66.578125 
Q 28.46875 64.65625 27.390625 59.515625 
L 26.421875 54.6875 
L 41.21875 54.6875 
L 39.890625 47.703125 
L 25.09375 47.703125 
L 15.828125 0 
L 6.78125 0 
L 16.109375 47.703125 
L 7.515625 47.703125 
L 8.796875 54.6875 
L 17.390625 54.6875 
L 18.109375 58.5 
Q 19.96875 68.171875 24.625 72.078125 
Q 29.296875 75.984375 39.3125 75.984375 
z
" id="DejaVuSans-Oblique-102"/>
      <path d="M 31 75.875 
Q 24.46875 64.65625 21.28125 53.65625 
Q 18.109375 42.671875 18.109375 31.390625 
Q 18.109375 20.125 21.3125 9.0625 
Q 24.515625 -2 31 -13.1875 
L 23.1875 -13.1875 
Q 15.875 -1.703125 12.234375 9.375 
Q 8.59375 20.453125 8.59375 31.390625 
Q 8.59375 42.28125 12.203125 53.3125 
Q 15.828125 64.359375 23.1875 75.875 
z
" id="DejaVuSans-40"/>
      <path d="M 42.28125 54.6875 
L 40.921875 47.703125 
L 23 47.703125 
L 17.1875 18.015625 
Q 16.890625 16.359375 16.75 15.234375 
Q 16.609375 14.109375 16.609375 13.484375 
Q 16.609375 10.359375 18.484375 8.9375 
Q 20.359375 7.515625 24.515625 7.515625 
L 33.59375 7.515625 
L 32.078125 0 
L 23.484375 0 
Q 15.484375 0 11.546875 3.125 
Q 7.625 6.25 7.625 12.59375 
Q 7.625 13.71875 7.765625 15.0625 
Q 7.90625 16.40625 8.203125 18.015625 
L 14.015625 47.703125 
L 6.390625 47.703125 
L 7.8125 54.6875 
L 15.28125 54.6875 
L 18.3125 70.21875 
L 27.296875 70.21875 
L 24.3125 54.6875 
z
" id="DejaVuSans-Oblique-116"/>
      <path d="M 8.015625 75.875 
L 15.828125 75.875 
Q 23.140625 64.359375 26.78125 53.3125 
Q 30.421875 42.28125 30.421875 31.390625 
Q 30.421875 20.453125 26.78125 9.375 
Q 23.140625 -1.703125 15.828125 -13.1875 
L 8.015625 -13.1875 
Q 14.5 -2 17.703125 9.0625 
Q 20.90625 20.125 20.90625 31.390625 
Q 20.90625 42.671875 17.703125 53.65625 
Q 14.5 64.65625 8.015625 75.875 
z
" id="DejaVuSans-41"/>
     </defs>
     <use transform="translate(47.379395 33.015625)" xlink:href="#DejaVuSans-770"/>
     <use transform="translate(0 0.53125)" xlink:href="#DejaVuSans-Oblique-102"/>
     <use transform="translate(35.205078 0.53125)" xlink:href="#DejaVuSans-40"/>
     <use transform="translate(74.21875 0.53125)" xlink:href="#DejaVuSans-Oblique-116"/>
     <use transform="translate(113.427734 0.53125)" xlink:href="#DejaVuSans-41"/>
    </g>
   </g>
  </g>
 </g>
 <defs>
  <clipPath id="p46b0757f0b">
   <rect height="156.98" width="404.99" x="52.70875" y="22.318125"/>
  </clipPath>
  <clipPath id="pd1cd332ffe">
   <rect height="156.98" width="404.99" x="503.16375" y="22.318125"/>
  </clipPath>
 </defs>
</svg>
