<?xml version="1.0" encoding="utf-8" standalone="no"?>
<!DOCTYPE svg PUBLIC "-//W3C//DTD SVG 1.1//EN"
  "http://www.w3.org/Graphics/SVG/1.1/DTD/svg11.dtd">
<!-- Created with matplotlib (https://matplotlib.org/) -->
<svg height="206.954679pt" version="1.1" viewBox="0 0 920.881245 206.954679" width="920.881245pt" xmlns="http://www.w3.org/2000/svg" xmlns:xlink="http://www.w3.org/1999/xlink">
 <metadata>
  <rdf:RDF xmlns:cc="http://creativecommons.org/ns#" xmlns:dc="http://purl.org/dc/elements/1.1/" xmlns:rdf="http://www.w3.org/1999/02/22-rdf-syntax-ns#">
   <cc:Work>
    <dc:type rdf:resource="http://purl.org/dc/dcmitype/StillImage"/>
    <dc:date>2020-12-11T19:10:58.883668</dc:date>
    <dc:format>image/svg+xml</dc:format>
    <dc:creator>
     <cc:Agent>
      <dc:title>Matplotlib v3.3.1, https://matplotlib.org/</dc:title>
     </cc:Agent>
    </dc:creator>
   </cc:Work>
  </rdf:RDF>
 </metadata>
 <defs>
  <style type="text/css">*{stroke-linecap:butt;stroke-linejoin:round;}</style>
 </defs>
 <g id="figure_1">
  <g id="patch_1">
   <path d="M 0 206.954679 
L 920.881245 206.954679 
L 920.881245 0 
L 0 0 
z
" style="fill:none;"/>
  </g>
  <g id="axes_1">
   <g id="patch_2">
    <path d="M 69.413594 162.018125 
L 306.241245 162.018125 
L 306.241245 22.318125 
L 69.413594 22.318125 
z
" style="fill:#ffffff;"/>
   </g>
   <g id="patch_3">
    <path clip-path="url(#p7acc47213b)" d="M 273.54489 162.018125 
L 273.54489 22.318125 
L 306.241245 22.318125 
L 306.241245 162.018125 
z
" style="fill:#808080;opacity:0.5;"/>
   </g>
   <g id="patch_4">
    <path clip-path="url(#p7acc47213b)" d="M 69.413594 162.018125 
L 69.413594 22.318125 
L 83.552558 22.318125 
L 83.552558 162.018125 
z
" style="fill:#808080;opacity:0.5;"/>
   </g>
   <g id="matplotlib.axis_1">
    <g id="xtick_1">
     <g id="line2d_1">
      <defs>
       <path d="M 0 0 
L 0 3.5 
" id="m4d8e62e1d1" style="stroke:#000000;stroke-width:0.8;"/>
      </defs>
      <g>
       <use style="stroke:#000000;stroke-width:0.8;" x="84.436243" xlink:href="#m4d8e62e1d1" y="162.018125"/>
      </g>
     </g>
     <g id="text_1">
      <!-- 2020-04 -->
      <g transform="translate(45.350181 197.863563)rotate(-30)scale(0.105 -0.105)">
       <defs>
        <path d="M 19.1875 8.296875 
L 53.609375 8.296875 
L 53.609375 0 
L 7.328125 0 
L 7.328125 8.296875 
Q 12.9375 14.109375 22.625 23.890625 
Q 32.328125 33.6875 34.8125 36.53125 
Q 39.546875 41.84375 41.421875 45.53125 
Q 43.3125 49.21875 43.3125 52.78125 
Q 43.3125 58.59375 39.234375 62.25 
Q 35.15625 65.921875 28.609375 65.921875 
Q 23.96875 65.921875 18.8125 64.3125 
Q 13.671875 62.703125 7.8125 59.421875 
L 7.8125 69.390625 
Q 13.765625 71.78125 18.9375 73 
Q 24.125 74.21875 28.421875 74.21875 
Q 39.75 74.21875 46.484375 68.546875 
Q 53.21875 62.890625 53.21875 53.421875 
Q 53.21875 48.921875 51.53125 44.890625 
Q 49.859375 40.875 45.40625 35.40625 
Q 44.1875 33.984375 37.640625 27.21875 
Q 31.109375 20.453125 19.1875 8.296875 
z
" id="DejaVuSans-50"/>
        <path d="M 31.78125 66.40625 
Q 24.171875 66.40625 20.328125 58.90625 
Q 16.5 51.421875 16.5 36.375 
Q 16.5 21.390625 20.328125 13.890625 
Q 24.171875 6.390625 31.78125 6.390625 
Q 39.453125 6.390625 43.28125 13.890625 
Q 47.125 21.390625 47.125 36.375 
Q 47.125 51.421875 43.28125 58.90625 
Q 39.453125 66.40625 31.78125 66.40625 
z
M 31.78125 74.21875 
Q 44.046875 74.21875 50.515625 64.515625 
Q 56.984375 54.828125 56.984375 36.375 
Q 56.984375 17.96875 50.515625 8.265625 
Q 44.046875 -1.421875 31.78125 -1.421875 
Q 19.53125 -1.421875 13.0625 8.265625 
Q 6.59375 17.96875 6.59375 36.375 
Q 6.59375 54.828125 13.0625 64.515625 
Q 19.53125 74.21875 31.78125 74.21875 
z
" id="DejaVuSans-48"/>
        <path d="M 4.890625 31.390625 
L 31.203125 31.390625 
L 31.203125 23.390625 
L 4.890625 23.390625 
z
" id="DejaVuSans-45"/>
        <path d="M 37.796875 64.3125 
L 12.890625 25.390625 
L 37.796875 25.390625 
z
M 35.203125 72.90625 
L 47.609375 72.90625 
L 47.609375 25.390625 
L 58.015625 25.390625 
L 58.015625 17.1875 
L 47.609375 17.1875 
L 47.609375 0 
L 37.796875 0 
L 37.796875 17.1875 
L 4.890625 17.1875 
L 4.890625 26.703125 
z
" id="DejaVuSans-52"/>
       </defs>
       <use xlink:href="#DejaVuSans-50"/>
       <use x="63.623047" xlink:href="#DejaVuSans-48"/>
       <use x="127.246094" xlink:href="#DejaVuSans-50"/>
       <use x="190.869141" xlink:href="#DejaVuSans-48"/>
       <use x="254.492188" xlink:href="#DejaVuSans-45"/>
       <use x="290.576172" xlink:href="#DejaVuSans-48"/>
       <use x="354.199219" xlink:href="#DejaVuSans-52"/>
      </g>
     </g>
    </g>
    <g id="xtick_2">
     <g id="line2d_2">
      <g>
       <use style="stroke:#000000;stroke-width:0.8;" x="110.946801" xlink:href="#m4d8e62e1d1" y="162.018125"/>
      </g>
     </g>
     <g id="text_2">
      <!-- 2020-05 -->
      <g transform="translate(71.860739 197.863563)rotate(-30)scale(0.105 -0.105)">
       <defs>
        <path d="M 10.796875 72.90625 
L 49.515625 72.90625 
L 49.515625 64.59375 
L 19.828125 64.59375 
L 19.828125 46.734375 
Q 21.96875 47.46875 24.109375 47.828125 
Q 26.265625 48.1875 28.421875 48.1875 
Q 40.625 48.1875 47.75 41.5 
Q 54.890625 34.8125 54.890625 23.390625 
Q 54.890625 11.625 47.5625 5.09375 
Q 40.234375 -1.421875 26.90625 -1.421875 
Q 22.3125 -1.421875 17.546875 -0.640625 
Q 12.796875 0.140625 7.71875 1.703125 
L 7.71875 11.625 
Q 12.109375 9.234375 16.796875 8.0625 
Q 21.484375 6.890625 26.703125 6.890625 
Q 35.15625 6.890625 40.078125 11.328125 
Q 45.015625 15.765625 45.015625 23.390625 
Q 45.015625 31 40.078125 35.4375 
Q 35.15625 39.890625 26.703125 39.890625 
Q 22.75 39.890625 18.8125 39.015625 
Q 14.890625 38.140625 10.796875 36.28125 
z
" id="DejaVuSans-53"/>
       </defs>
       <use xlink:href="#DejaVuSans-50"/>
       <use x="63.623047" xlink:href="#DejaVuSans-48"/>
       <use x="127.246094" xlink:href="#DejaVuSans-50"/>
       <use x="190.869141" xlink:href="#DejaVuSans-48"/>
       <use x="254.492188" xlink:href="#DejaVuSans-45"/>
       <use x="290.576172" xlink:href="#DejaVuSans-48"/>
       <use x="354.199219" xlink:href="#DejaVuSans-53"/>
      </g>
     </g>
    </g>
    <g id="xtick_3">
     <g id="line2d_3">
      <g>
       <use style="stroke:#000000;stroke-width:0.8;" x="138.341045" xlink:href="#m4d8e62e1d1" y="162.018125"/>
      </g>
     </g>
     <g id="text_3">
      <!-- 2020-06 -->
      <g transform="translate(99.254983 197.863563)rotate(-30)scale(0.105 -0.105)">
       <defs>
        <path d="M 33.015625 40.375 
Q 26.375 40.375 22.484375 35.828125 
Q 18.609375 31.296875 18.609375 23.390625 
Q 18.609375 15.53125 22.484375 10.953125 
Q 26.375 6.390625 33.015625 6.390625 
Q 39.65625 6.390625 43.53125 10.953125 
Q 47.40625 15.53125 47.40625 23.390625 
Q 47.40625 31.296875 43.53125 35.828125 
Q 39.65625 40.375 33.015625 40.375 
z
M 52.59375 71.296875 
L 52.59375 62.3125 
Q 48.875 64.0625 45.09375 64.984375 
Q 41.3125 65.921875 37.59375 65.921875 
Q 27.828125 65.921875 22.671875 59.328125 
Q 17.53125 52.734375 16.796875 39.40625 
Q 19.671875 43.65625 24.015625 45.921875 
Q 28.375 48.1875 33.59375 48.1875 
Q 44.578125 48.1875 50.953125 41.515625 
Q 57.328125 34.859375 57.328125 23.390625 
Q 57.328125 12.15625 50.6875 5.359375 
Q 44.046875 -1.421875 33.015625 -1.421875 
Q 20.359375 -1.421875 13.671875 8.265625 
Q 6.984375 17.96875 6.984375 36.375 
Q 6.984375 53.65625 15.1875 63.9375 
Q 23.390625 74.21875 37.203125 74.21875 
Q 40.921875 74.21875 44.703125 73.484375 
Q 48.484375 72.75 52.59375 71.296875 
z
" id="DejaVuSans-54"/>
       </defs>
       <use xlink:href="#DejaVuSans-50"/>
       <use x="63.623047" xlink:href="#DejaVuSans-48"/>
       <use x="127.246094" xlink:href="#DejaVuSans-50"/>
       <use x="190.869141" xlink:href="#DejaVuSans-48"/>
       <use x="254.492188" xlink:href="#DejaVuSans-45"/>
       <use x="290.576172" xlink:href="#DejaVuSans-48"/>
       <use x="354.199219" xlink:href="#DejaVuSans-54"/>
      </g>
     </g>
    </g>
    <g id="xtick_4">
     <g id="line2d_4">
      <g>
       <use style="stroke:#000000;stroke-width:0.8;" x="164.851603" xlink:href="#m4d8e62e1d1" y="162.018125"/>
      </g>
     </g>
     <g id="text_4">
      <!-- 2020-07 -->
      <g transform="translate(125.765541 197.863563)rotate(-30)scale(0.105 -0.105)">
       <defs>
        <path d="M 8.203125 72.90625 
L 55.078125 72.90625 
L 55.078125 68.703125 
L 28.609375 0 
L 18.3125 0 
L 43.21875 64.59375 
L 8.203125 64.59375 
z
" id="DejaVuSans-55"/>
       </defs>
       <use xlink:href="#DejaVuSans-50"/>
       <use x="63.623047" xlink:href="#DejaVuSans-48"/>
       <use x="127.246094" xlink:href="#DejaVuSans-50"/>
       <use x="190.869141" xlink:href="#DejaVuSans-48"/>
       <use x="254.492188" xlink:href="#DejaVuSans-45"/>
       <use x="290.576172" xlink:href="#DejaVuSans-48"/>
       <use x="354.199219" xlink:href="#DejaVuSans-55"/>
      </g>
     </g>
    </g>
    <g id="xtick_5">
     <g id="line2d_5">
      <g>
       <use style="stroke:#000000;stroke-width:0.8;" x="192.245846" xlink:href="#m4d8e62e1d1" y="162.018125"/>
      </g>
     </g>
     <g id="text_5">
      <!-- 2020-08 -->
      <g transform="translate(153.159784 197.863563)rotate(-30)scale(0.105 -0.105)">
       <defs>
        <path d="M 31.78125 34.625 
Q 24.75 34.625 20.71875 30.859375 
Q 16.703125 27.09375 16.703125 20.515625 
Q 16.703125 13.921875 20.71875 10.15625 
Q 24.75 6.390625 31.78125 6.390625 
Q 38.8125 6.390625 42.859375 10.171875 
Q 46.921875 13.96875 46.921875 20.515625 
Q 46.921875 27.09375 42.890625 30.859375 
Q 38.875 34.625 31.78125 34.625 
z
M 21.921875 38.8125 
Q 15.578125 40.375 12.03125 44.71875 
Q 8.5 49.078125 8.5 55.328125 
Q 8.5 64.0625 14.71875 69.140625 
Q 20.953125 74.21875 31.78125 74.21875 
Q 42.671875 74.21875 48.875 69.140625 
Q 55.078125 64.0625 55.078125 55.328125 
Q 55.078125 49.078125 51.53125 44.71875 
Q 48 40.375 41.703125 38.8125 
Q 48.828125 37.15625 52.796875 32.3125 
Q 56.78125 27.484375 56.78125 20.515625 
Q 56.78125 9.90625 50.3125 4.234375 
Q 43.84375 -1.421875 31.78125 -1.421875 
Q 19.734375 -1.421875 13.25 4.234375 
Q 6.78125 9.90625 6.78125 20.515625 
Q 6.78125 27.484375 10.78125 32.3125 
Q 14.796875 37.15625 21.921875 38.8125 
z
M 18.3125 54.390625 
Q 18.3125 48.734375 21.84375 45.5625 
Q 25.390625 42.390625 31.78125 42.390625 
Q 38.140625 42.390625 41.71875 45.5625 
Q 45.3125 48.734375 45.3125 54.390625 
Q 45.3125 60.0625 41.71875 63.234375 
Q 38.140625 66.40625 31.78125 66.40625 
Q 25.390625 66.40625 21.84375 63.234375 
Q 18.3125 60.0625 18.3125 54.390625 
z
" id="DejaVuSans-56"/>
       </defs>
       <use xlink:href="#DejaVuSans-50"/>
       <use x="63.623047" xlink:href="#DejaVuSans-48"/>
       <use x="127.246094" xlink:href="#DejaVuSans-50"/>
       <use x="190.869141" xlink:href="#DejaVuSans-48"/>
       <use x="254.492188" xlink:href="#DejaVuSans-45"/>
       <use x="290.576172" xlink:href="#DejaVuSans-48"/>
       <use x="354.199219" xlink:href="#DejaVuSans-56"/>
      </g>
     </g>
    </g>
    <g id="xtick_6">
     <g id="line2d_6">
      <g>
       <use style="stroke:#000000;stroke-width:0.8;" x="219.640089" xlink:href="#m4d8e62e1d1" y="162.018125"/>
      </g>
     </g>
     <g id="text_6">
      <!-- 2020-09 -->
      <g transform="translate(180.554027 197.863563)rotate(-30)scale(0.105 -0.105)">
       <defs>
        <path d="M 10.984375 1.515625 
L 10.984375 10.5 
Q 14.703125 8.734375 18.5 7.8125 
Q 22.3125 6.890625 25.984375 6.890625 
Q 35.75 6.890625 40.890625 13.453125 
Q 46.046875 20.015625 46.78125 33.40625 
Q 43.953125 29.203125 39.59375 26.953125 
Q 35.25 24.703125 29.984375 24.703125 
Q 19.046875 24.703125 12.671875 31.3125 
Q 6.296875 37.9375 6.296875 49.421875 
Q 6.296875 60.640625 12.9375 67.421875 
Q 19.578125 74.21875 30.609375 74.21875 
Q 43.265625 74.21875 49.921875 64.515625 
Q 56.59375 54.828125 56.59375 36.375 
Q 56.59375 19.140625 48.40625 8.859375 
Q 40.234375 -1.421875 26.421875 -1.421875 
Q 22.703125 -1.421875 18.890625 -0.6875 
Q 15.09375 0.046875 10.984375 1.515625 
z
M 30.609375 32.421875 
Q 37.25 32.421875 41.125 36.953125 
Q 45.015625 41.5 45.015625 49.421875 
Q 45.015625 57.28125 41.125 61.84375 
Q 37.25 66.40625 30.609375 66.40625 
Q 23.96875 66.40625 20.09375 61.84375 
Q 16.21875 57.28125 16.21875 49.421875 
Q 16.21875 41.5 20.09375 36.953125 
Q 23.96875 32.421875 30.609375 32.421875 
z
" id="DejaVuSans-57"/>
       </defs>
       <use xlink:href="#DejaVuSans-50"/>
       <use x="63.623047" xlink:href="#DejaVuSans-48"/>
       <use x="127.246094" xlink:href="#DejaVuSans-50"/>
       <use x="190.869141" xlink:href="#DejaVuSans-48"/>
       <use x="254.492188" xlink:href="#DejaVuSans-45"/>
       <use x="290.576172" xlink:href="#DejaVuSans-48"/>
       <use x="354.199219" xlink:href="#DejaVuSans-57"/>
      </g>
     </g>
    </g>
    <g id="xtick_7">
     <g id="line2d_7">
      <g>
       <use style="stroke:#000000;stroke-width:0.8;" x="246.150647" xlink:href="#m4d8e62e1d1" y="162.018125"/>
      </g>
     </g>
     <g id="text_7">
      <!-- 2020-10 -->
      <g transform="translate(207.064585 197.863563)rotate(-30)scale(0.105 -0.105)">
       <defs>
        <path d="M 12.40625 8.296875 
L 28.515625 8.296875 
L 28.515625 63.921875 
L 10.984375 60.40625 
L 10.984375 69.390625 
L 28.421875 72.90625 
L 38.28125 72.90625 
L 38.28125 8.296875 
L 54.390625 8.296875 
L 54.390625 0 
L 12.40625 0 
z
" id="DejaVuSans-49"/>
       </defs>
       <use xlink:href="#DejaVuSans-50"/>
       <use x="63.623047" xlink:href="#DejaVuSans-48"/>
       <use x="127.246094" xlink:href="#DejaVuSans-50"/>
       <use x="190.869141" xlink:href="#DejaVuSans-48"/>
       <use x="254.492188" xlink:href="#DejaVuSans-45"/>
       <use x="290.576172" xlink:href="#DejaVuSans-49"/>
       <use x="354.199219" xlink:href="#DejaVuSans-48"/>
      </g>
     </g>
    </g>
    <g id="xtick_8">
     <g id="line2d_8">
      <g>
       <use style="stroke:#000000;stroke-width:0.8;" x="273.54489" xlink:href="#m4d8e62e1d1" y="162.018125"/>
      </g>
     </g>
     <g id="text_8">
      <!-- 2020-11 -->
      <g transform="translate(234.458828 197.863563)rotate(-30)scale(0.105 -0.105)">
       <use xlink:href="#DejaVuSans-50"/>
       <use x="63.623047" xlink:href="#DejaVuSans-48"/>
       <use x="127.246094" xlink:href="#DejaVuSans-50"/>
       <use x="190.869141" xlink:href="#DejaVuSans-48"/>
       <use x="254.492188" xlink:href="#DejaVuSans-45"/>
       <use x="290.576172" xlink:href="#DejaVuSans-49"/>
       <use x="354.199219" xlink:href="#DejaVuSans-49"/>
      </g>
     </g>
    </g>
    <g id="xtick_9">
     <g id="line2d_9">
      <g>
       <use style="stroke:#000000;stroke-width:0.8;" x="300.055448" xlink:href="#m4d8e62e1d1" y="162.018125"/>
      </g>
     </g>
     <g id="text_9">
      <!-- 2020-12 -->
      <g transform="translate(260.969386 197.863563)rotate(-30)scale(0.105 -0.105)">
       <use xlink:href="#DejaVuSans-50"/>
       <use x="63.623047" xlink:href="#DejaVuSans-48"/>
       <use x="127.246094" xlink:href="#DejaVuSans-50"/>
       <use x="190.869141" xlink:href="#DejaVuSans-48"/>
       <use x="254.492188" xlink:href="#DejaVuSans-45"/>
       <use x="290.576172" xlink:href="#DejaVuSans-49"/>
       <use x="354.199219" xlink:href="#DejaVuSans-50"/>
      </g>
     </g>
    </g>
    <g id="xtick_10">
     <g id="line2d_10">
      <defs>
       <path d="M 0 0 
L 0 2 
" id="macbd1c5754" style="stroke:#000000;stroke-width:0.6;"/>
      </defs>
      <g>
       <use style="stroke:#000000;stroke-width:0.6;" x="70.297279" xlink:href="#macbd1c5754" y="162.018125"/>
      </g>
     </g>
    </g>
    <g id="xtick_11">
     <g id="line2d_11">
      <g>
       <use style="stroke:#000000;stroke-width:0.6;" x="76.483076" xlink:href="#macbd1c5754" y="162.018125"/>
      </g>
     </g>
    </g>
    <g id="xtick_12">
     <g id="line2d_12">
      <g>
       <use style="stroke:#000000;stroke-width:0.6;" x="82.668873" xlink:href="#macbd1c5754" y="162.018125"/>
      </g>
     </g>
    </g>
    <g id="xtick_13">
     <g id="line2d_13">
      <g>
       <use style="stroke:#000000;stroke-width:0.6;" x="88.85467" xlink:href="#macbd1c5754" y="162.018125"/>
      </g>
     </g>
    </g>
    <g id="xtick_14">
     <g id="line2d_14">
      <g>
       <use style="stroke:#000000;stroke-width:0.6;" x="95.040466" xlink:href="#macbd1c5754" y="162.018125"/>
      </g>
     </g>
    </g>
    <g id="xtick_15">
     <g id="line2d_15">
      <g>
       <use style="stroke:#000000;stroke-width:0.6;" x="101.226263" xlink:href="#macbd1c5754" y="162.018125"/>
      </g>
     </g>
    </g>
    <g id="xtick_16">
     <g id="line2d_16">
      <g>
       <use style="stroke:#000000;stroke-width:0.6;" x="107.41206" xlink:href="#macbd1c5754" y="162.018125"/>
      </g>
     </g>
    </g>
    <g id="xtick_17">
     <g id="line2d_17">
      <g>
       <use style="stroke:#000000;stroke-width:0.6;" x="113.597857" xlink:href="#macbd1c5754" y="162.018125"/>
      </g>
     </g>
    </g>
    <g id="xtick_18">
     <g id="line2d_18">
      <g>
       <use style="stroke:#000000;stroke-width:0.6;" x="119.783654" xlink:href="#macbd1c5754" y="162.018125"/>
      </g>
     </g>
    </g>
    <g id="xtick_19">
     <g id="line2d_19">
      <g>
       <use style="stroke:#000000;stroke-width:0.6;" x="125.969451" xlink:href="#macbd1c5754" y="162.018125"/>
      </g>
     </g>
    </g>
    <g id="xtick_20">
     <g id="line2d_20">
      <g>
       <use style="stroke:#000000;stroke-width:0.6;" x="132.155248" xlink:href="#macbd1c5754" y="162.018125"/>
      </g>
     </g>
    </g>
    <g id="xtick_21">
     <g id="line2d_21">
      <g>
       <use style="stroke:#000000;stroke-width:0.6;" x="144.526841" xlink:href="#macbd1c5754" y="162.018125"/>
      </g>
     </g>
    </g>
    <g id="xtick_22">
     <g id="line2d_22">
      <g>
       <use style="stroke:#000000;stroke-width:0.6;" x="150.712638" xlink:href="#macbd1c5754" y="162.018125"/>
      </g>
     </g>
    </g>
    <g id="xtick_23">
     <g id="line2d_23">
      <g>
       <use style="stroke:#000000;stroke-width:0.6;" x="156.898435" xlink:href="#macbd1c5754" y="162.018125"/>
      </g>
     </g>
    </g>
    <g id="xtick_24">
     <g id="line2d_24">
      <g>
       <use style="stroke:#000000;stroke-width:0.6;" x="163.084232" xlink:href="#macbd1c5754" y="162.018125"/>
      </g>
     </g>
    </g>
    <g id="xtick_25">
     <g id="line2d_25">
      <g>
       <use style="stroke:#000000;stroke-width:0.6;" x="169.270029" xlink:href="#macbd1c5754" y="162.018125"/>
      </g>
     </g>
    </g>
    <g id="xtick_26">
     <g id="line2d_26">
      <g>
       <use style="stroke:#000000;stroke-width:0.6;" x="175.455826" xlink:href="#macbd1c5754" y="162.018125"/>
      </g>
     </g>
    </g>
    <g id="xtick_27">
     <g id="line2d_27">
      <g>
       <use style="stroke:#000000;stroke-width:0.6;" x="181.641623" xlink:href="#macbd1c5754" y="162.018125"/>
      </g>
     </g>
    </g>
    <g id="xtick_28">
     <g id="line2d_28">
      <g>
       <use style="stroke:#000000;stroke-width:0.6;" x="187.827419" xlink:href="#macbd1c5754" y="162.018125"/>
      </g>
     </g>
    </g>
    <g id="xtick_29">
     <g id="line2d_29">
      <g>
       <use style="stroke:#000000;stroke-width:0.6;" x="194.013216" xlink:href="#macbd1c5754" y="162.018125"/>
      </g>
     </g>
    </g>
    <g id="xtick_30">
     <g id="line2d_30">
      <g>
       <use style="stroke:#000000;stroke-width:0.6;" x="200.199013" xlink:href="#macbd1c5754" y="162.018125"/>
      </g>
     </g>
    </g>
    <g id="xtick_31">
     <g id="line2d_31">
      <g>
       <use style="stroke:#000000;stroke-width:0.6;" x="206.38481" xlink:href="#macbd1c5754" y="162.018125"/>
      </g>
     </g>
    </g>
    <g id="xtick_32">
     <g id="line2d_32">
      <g>
       <use style="stroke:#000000;stroke-width:0.6;" x="212.570607" xlink:href="#macbd1c5754" y="162.018125"/>
      </g>
     </g>
    </g>
    <g id="xtick_33">
     <g id="line2d_33">
      <g>
       <use style="stroke:#000000;stroke-width:0.6;" x="218.756404" xlink:href="#macbd1c5754" y="162.018125"/>
      </g>
     </g>
    </g>
    <g id="xtick_34">
     <g id="line2d_34">
      <g>
       <use style="stroke:#000000;stroke-width:0.6;" x="224.942201" xlink:href="#macbd1c5754" y="162.018125"/>
      </g>
     </g>
    </g>
    <g id="xtick_35">
     <g id="line2d_35">
      <g>
       <use style="stroke:#000000;stroke-width:0.6;" x="231.127998" xlink:href="#macbd1c5754" y="162.018125"/>
      </g>
     </g>
    </g>
    <g id="xtick_36">
     <g id="line2d_36">
      <g>
       <use style="stroke:#000000;stroke-width:0.6;" x="237.313794" xlink:href="#macbd1c5754" y="162.018125"/>
      </g>
     </g>
    </g>
    <g id="xtick_37">
     <g id="line2d_37">
      <g>
       <use style="stroke:#000000;stroke-width:0.6;" x="243.499591" xlink:href="#macbd1c5754" y="162.018125"/>
      </g>
     </g>
    </g>
    <g id="xtick_38">
     <g id="line2d_38">
      <g>
       <use style="stroke:#000000;stroke-width:0.6;" x="249.685388" xlink:href="#macbd1c5754" y="162.018125"/>
      </g>
     </g>
    </g>
    <g id="xtick_39">
     <g id="line2d_39">
      <g>
       <use style="stroke:#000000;stroke-width:0.6;" x="255.871185" xlink:href="#macbd1c5754" y="162.018125"/>
      </g>
     </g>
    </g>
    <g id="xtick_40">
     <g id="line2d_40">
      <g>
       <use style="stroke:#000000;stroke-width:0.6;" x="262.056982" xlink:href="#macbd1c5754" y="162.018125"/>
      </g>
     </g>
    </g>
    <g id="xtick_41">
     <g id="line2d_41">
      <g>
       <use style="stroke:#000000;stroke-width:0.6;" x="268.242779" xlink:href="#macbd1c5754" y="162.018125"/>
      </g>
     </g>
    </g>
    <g id="xtick_42">
     <g id="line2d_42">
      <g>
       <use style="stroke:#000000;stroke-width:0.6;" x="274.428576" xlink:href="#macbd1c5754" y="162.018125"/>
      </g>
     </g>
    </g>
    <g id="xtick_43">
     <g id="line2d_43">
      <g>
       <use style="stroke:#000000;stroke-width:0.6;" x="280.614372" xlink:href="#macbd1c5754" y="162.018125"/>
      </g>
     </g>
    </g>
    <g id="xtick_44">
     <g id="line2d_44">
      <g>
       <use style="stroke:#000000;stroke-width:0.6;" x="286.800169" xlink:href="#macbd1c5754" y="162.018125"/>
      </g>
     </g>
    </g>
    <g id="xtick_45">
     <g id="line2d_45">
      <g>
       <use style="stroke:#000000;stroke-width:0.6;" x="292.985966" xlink:href="#macbd1c5754" y="162.018125"/>
      </g>
     </g>
    </g>
    <g id="xtick_46">
     <g id="line2d_46">
      <g>
       <use style="stroke:#000000;stroke-width:0.6;" x="299.171763" xlink:href="#macbd1c5754" y="162.018125"/>
      </g>
     </g>
    </g>
    <g id="xtick_47">
     <g id="line2d_47">
      <g>
       <use style="stroke:#000000;stroke-width:0.6;" x="305.35756" xlink:href="#macbd1c5754" y="162.018125"/>
      </g>
     </g>
    </g>
   </g>
   <g id="matplotlib.axis_2">
    <g id="ytick_1">
     <g id="line2d_48">
      <defs>
       <path d="M 0 0 
L -3.5 0 
" id="m5ec898dc4e" style="stroke:#000000;stroke-width:0.8;"/>
      </defs>
      <g>
       <use style="stroke:#000000;stroke-width:0.8;" x="69.413594" xlink:href="#m5ec898dc4e" y="155.990192"/>
      </g>
     </g>
     <g id="text_10">
      <!-- 0 -->
      <g transform="translate(55.732969 159.979372)scale(0.105 -0.105)">
       <use xlink:href="#DejaVuSans-48"/>
      </g>
     </g>
    </g>
    <g id="ytick_2">
     <g id="line2d_49">
      <g>
       <use style="stroke:#000000;stroke-width:0.8;" x="69.413594" xlink:href="#m5ec898dc4e" y="121.591838"/>
      </g>
     </g>
     <g id="text_11">
      <!-- 50000 -->
      <g transform="translate(29.010469 125.581018)scale(0.105 -0.105)">
       <use xlink:href="#DejaVuSans-53"/>
       <use x="63.623047" xlink:href="#DejaVuSans-48"/>
       <use x="127.246094" xlink:href="#DejaVuSans-48"/>
       <use x="190.869141" xlink:href="#DejaVuSans-48"/>
       <use x="254.492188" xlink:href="#DejaVuSans-48"/>
      </g>
     </g>
    </g>
    <g id="ytick_3">
     <g id="line2d_50">
      <g>
       <use style="stroke:#000000;stroke-width:0.8;" x="69.413594" xlink:href="#m5ec898dc4e" y="87.193484"/>
      </g>
     </g>
     <g id="text_12">
      <!-- 100000 -->
      <g transform="translate(22.329844 91.182664)scale(0.105 -0.105)">
       <use xlink:href="#DejaVuSans-49"/>
       <use x="63.623047" xlink:href="#DejaVuSans-48"/>
       <use x="127.246094" xlink:href="#DejaVuSans-48"/>
       <use x="190.869141" xlink:href="#DejaVuSans-48"/>
       <use x="254.492188" xlink:href="#DejaVuSans-48"/>
       <use x="318.115234" xlink:href="#DejaVuSans-48"/>
      </g>
     </g>
    </g>
    <g id="ytick_4">
     <g id="line2d_51">
      <g>
       <use style="stroke:#000000;stroke-width:0.8;" x="69.413594" xlink:href="#m5ec898dc4e" y="52.79513"/>
      </g>
     </g>
     <g id="text_13">
      <!-- 150000 -->
      <g transform="translate(22.329844 56.78431)scale(0.105 -0.105)">
       <use xlink:href="#DejaVuSans-49"/>
       <use x="63.623047" xlink:href="#DejaVuSans-53"/>
       <use x="127.246094" xlink:href="#DejaVuSans-48"/>
       <use x="190.869141" xlink:href="#DejaVuSans-48"/>
       <use x="254.492188" xlink:href="#DejaVuSans-48"/>
       <use x="318.115234" xlink:href="#DejaVuSans-48"/>
      </g>
     </g>
    </g>
    <g id="text_14">
     <!-- Count -->
     <g transform="translate(15.938203 109.243828)rotate(-90)scale(0.115 -0.115)">
      <defs>
       <path d="M 64.40625 67.28125 
L 64.40625 56.890625 
Q 59.421875 61.53125 53.78125 63.8125 
Q 48.140625 66.109375 41.796875 66.109375 
Q 29.296875 66.109375 22.65625 58.46875 
Q 16.015625 50.828125 16.015625 36.375 
Q 16.015625 21.96875 22.65625 14.328125 
Q 29.296875 6.6875 41.796875 6.6875 
Q 48.140625 6.6875 53.78125 8.984375 
Q 59.421875 11.28125 64.40625 15.921875 
L 64.40625 5.609375 
Q 59.234375 2.09375 53.4375 0.328125 
Q 47.65625 -1.421875 41.21875 -1.421875 
Q 24.65625 -1.421875 15.125 8.703125 
Q 5.609375 18.84375 5.609375 36.375 
Q 5.609375 53.953125 15.125 64.078125 
Q 24.65625 74.21875 41.21875 74.21875 
Q 47.75 74.21875 53.53125 72.484375 
Q 59.328125 70.75 64.40625 67.28125 
z
" id="DejaVuSans-67"/>
       <path d="M 30.609375 48.390625 
Q 23.390625 48.390625 19.1875 42.75 
Q 14.984375 37.109375 14.984375 27.296875 
Q 14.984375 17.484375 19.15625 11.84375 
Q 23.34375 6.203125 30.609375 6.203125 
Q 37.796875 6.203125 41.984375 11.859375 
Q 46.1875 17.53125 46.1875 27.296875 
Q 46.1875 37.015625 41.984375 42.703125 
Q 37.796875 48.390625 30.609375 48.390625 
z
M 30.609375 56 
Q 42.328125 56 49.015625 48.375 
Q 55.71875 40.765625 55.71875 27.296875 
Q 55.71875 13.875 49.015625 6.21875 
Q 42.328125 -1.421875 30.609375 -1.421875 
Q 18.84375 -1.421875 12.171875 6.21875 
Q 5.515625 13.875 5.515625 27.296875 
Q 5.515625 40.765625 12.171875 48.375 
Q 18.84375 56 30.609375 56 
z
" id="DejaVuSans-111"/>
       <path d="M 8.5 21.578125 
L 8.5 54.6875 
L 17.484375 54.6875 
L 17.484375 21.921875 
Q 17.484375 14.15625 20.5 10.265625 
Q 23.53125 6.390625 29.59375 6.390625 
Q 36.859375 6.390625 41.078125 11.03125 
Q 45.3125 15.671875 45.3125 23.6875 
L 45.3125 54.6875 
L 54.296875 54.6875 
L 54.296875 0 
L 45.3125 0 
L 45.3125 8.40625 
Q 42.046875 3.421875 37.71875 1 
Q 33.40625 -1.421875 27.6875 -1.421875 
Q 18.265625 -1.421875 13.375 4.4375 
Q 8.5 10.296875 8.5 21.578125 
z
M 31.109375 56 
z
" id="DejaVuSans-117"/>
       <path d="M 54.890625 33.015625 
L 54.890625 0 
L 45.90625 0 
L 45.90625 32.71875 
Q 45.90625 40.484375 42.875 44.328125 
Q 39.84375 48.1875 33.796875 48.1875 
Q 26.515625 48.1875 22.3125 43.546875 
Q 18.109375 38.921875 18.109375 30.90625 
L 18.109375 0 
L 9.078125 0 
L 9.078125 54.6875 
L 18.109375 54.6875 
L 18.109375 46.1875 
Q 21.34375 51.125 25.703125 53.5625 
Q 30.078125 56 35.796875 56 
Q 45.21875 56 50.046875 50.171875 
Q 54.890625 44.34375 54.890625 33.015625 
z
" id="DejaVuSans-110"/>
       <path d="M 18.3125 70.21875 
L 18.3125 54.6875 
L 36.8125 54.6875 
L 36.8125 47.703125 
L 18.3125 47.703125 
L 18.3125 18.015625 
Q 18.3125 11.328125 20.140625 9.421875 
Q 21.96875 7.515625 27.59375 7.515625 
L 36.8125 7.515625 
L 36.8125 0 
L 27.59375 0 
Q 17.1875 0 13.234375 3.875 
Q 9.28125 7.765625 9.28125 18.015625 
L 9.28125 47.703125 
L 2.6875 47.703125 
L 2.6875 54.6875 
L 9.28125 54.6875 
L 9.28125 70.21875 
z
" id="DejaVuSans-116"/>
      </defs>
      <use xlink:href="#DejaVuSans-67"/>
      <use x="69.824219" xlink:href="#DejaVuSans-111"/>
      <use x="131.005859" xlink:href="#DejaVuSans-117"/>
      <use x="194.384766" xlink:href="#DejaVuSans-110"/>
      <use x="257.763672" xlink:href="#DejaVuSans-116"/>
     </g>
    </g>
   </g>
   <g id="line2d_52">
    <path clip-path="url(#p7acc47213b)" d="M 69.413594 155.668125 
L 71.180964 155.472644 
L 72.06465 155.214165 
L 73.83202 154.335533 
L 75.599391 153.043039 
L 77.366761 151.313392 
L 82.668873 144.212589 
L 84.436243 141.783672 
L 85.319929 140.581597 
L 86.203614 138.843595 
L 87.087299 137.537736 
L 87.970984 136.956502 
L 89.738355 135.465186 
L 91.505725 134.349401 
L 93.273096 134.807489 
L 94.156781 134.557659 
L 95.924152 135.524252 
L 96.807837 135.769365 
L 98.575208 136.114233 
L 100.342578 136.651634 
L 101.226263 136.497922 
L 102.109949 136.486817 
L 103.877319 136.709718 
L 105.64469 135.460075 
L 106.528375 135.424497 
L 107.41206 135.791085 
L 110.063116 136.271286 
L 111.830487 137.089476 
L 114.481542 137.227659 
L 115.365228 137.647319 
L 116.248913 137.781374 
L 118.016283 138.773914 
L 119.783654 139.650384 
L 121.551024 140.204492 
L 122.43471 140.28754 
L 123.318395 140.531277 
L 125.085766 140.79408 
L 125.969451 140.415207 
L 126.853136 140.501203 
L 127.736821 140.361546 
L 129.504192 140.558501 
L 130.387877 140.7815 
L 131.271562 140.564496 
L 134.806303 141.615808 
L 136.573674 141.45561 
L 137.457359 141.598117 
L 139.22473 141.134133 
L 140.9921 141.264551 
L 141.875786 140.855899 
L 142.759471 140.86268 
L 143.643156 140.989561 
L 144.526841 141.413742 
L 145.410527 141.598314 
L 147.177897 141.426322 
L 148.061582 141.724113 
L 149.828953 141.201258 
L 150.712638 141.04224 
L 151.596324 140.463266 
L 153.363694 139.611563 
L 155.131065 138.504133 
L 156.01475 137.872481 
L 159.549491 133.544578 
L 160.433176 132.073704 
L 161.316861 131.038412 
L 162.200547 129.742086 
L 163.084232 128.800848 
L 163.967917 127.660297 
L 164.851603 126.26913 
L 165.735288 124.653292 
L 166.618973 123.891221 
L 167.502658 123.596672 
L 168.386344 123.436376 
L 169.270029 122.019852 
L 171.037399 120.250597 
L 171.921085 119.600665 
L 174.57214 115.053596 
L 175.455826 114.844159 
L 176.339511 113.686114 
L 177.223196 112.939866 
L 178.106882 111.139751 
L 178.990567 111.228105 
L 179.874252 110.535421 
L 181.641623 109.91173 
L 183.408993 109.849419 
L 184.292678 111.029578 
L 185.176364 110.49375 
L 186.060049 110.671344 
L 186.943734 111.308008 
L 187.827419 111.35705 
L 188.711105 111.744572 
L 189.59479 111.829684 
L 190.478475 111.627814 
L 191.362161 112.388411 
L 192.245846 112.766203 
L 193.129531 113.972504 
L 194.013216 114.796001 
L 195.780587 117.028356 
L 196.664272 118.40714 
L 197.547957 118.876727 
L 198.431643 119.727742 
L 199.315328 119.13727 
L 200.199013 119.827006 
L 201.082698 119.45688 
L 201.966384 119.436044 
L 203.733754 120.255315 
L 204.61744 120.425341 
L 205.501125 121.397045 
L 206.38481 121.608153 
L 207.268495 123.092982 
L 209.919551 125.778118 
L 210.803236 126.278073 
L 211.686922 126.938423 
L 213.454292 127.560051 
L 214.337977 127.557692 
L 215.221663 127.327714 
L 216.989033 127.803886 
L 217.872719 127.607815 
L 218.756404 127.756416 
L 219.640089 127.437199 
L 220.523774 128.004084 
L 221.40746 128.329886 
L 222.291145 127.850176 
L 223.17483 127.774008 
L 224.058515 128.013421 
L 224.942201 128.9523 
L 225.825886 130.767943 
L 226.709571 131.230355 
L 227.593256 131.926185 
L 228.476942 132.274984 
L 229.360627 132.758723 
L 230.244312 132.420735 
L 231.127998 131.632914 
L 232.011683 129.854814 
L 232.895368 129.277806 
L 233.779053 128.440747 
L 234.662739 128.199369 
L 235.546424 127.808407 
L 236.430109 127.791011 
L 237.313794 127.432777 
L 238.19748 126.642204 
L 239.96485 126.968792 
L 240.848535 126.225198 
L 241.732221 125.91463 
L 242.615906 125.931141 
L 243.499591 126.467068 
L 244.383277 127.681133 
L 245.266962 126.984419 
L 246.150647 126.568199 
L 247.034332 127.413219 
L 247.918018 126.863042 
L 248.801703 126.712082 
L 251.452759 125.506469 
L 253.220129 123.716673 
L 254.103814 123.516966 
L 255.871185 122.20521 
L 259.405926 118.637707 
L 260.289611 118.020208 
L 261.173297 117.671507 
L 262.056982 116.203876 
L 262.940667 115.271583 
L 263.824352 114.969958 
L 264.708038 113.880808 
L 265.591723 112.051995 
L 266.475408 110.954884 
L 267.359093 109.384059 
L 269.126464 107.259911 
L 270.010149 105.690953 
L 270.893835 104.54254 
L 271.77752 103.144099 
L 272.661205 102.920018 
L 275.312261 97.16999 
L 277.079631 91.482861 
L 278.847002 84.037878 
L 279.730687 81.849356 
L 282.381743 69.142899 
L 283.265428 66.470147 
L 285.032799 56.546811 
L 286.800169 51.333888 
L 287.683855 50.939487 
L 288.56754 49.509596 
L 289.451225 44.869258 
L 290.33491 45.636243 
L 291.218596 41.425786 
L 292.102281 40.885831 
L 292.985966 39.294268 
L 293.869651 36.433406 
L 294.753337 34.174515 
L 295.637022 42.332724 
L 296.520707 41.603479 
L 297.404393 44.75712 
L 298.288078 46.867803 
L 299.171763 48.339561 
L 300.055448 47.115471 
L 300.939134 45.385037 
L 301.822819 35.78141 
L 302.706504 31.82039 
L 303.590189 28.668125 
L 303.590189 28.668125 
" style="fill:none;stroke:#1f77b4;stroke-linecap:square;stroke-width:1.5;"/>
   </g>
   <g id="patch_5">
    <path d="M 69.413594 162.018125 
L 69.413594 22.318125 
" style="fill:none;stroke:#000000;stroke-linecap:square;stroke-linejoin:miter;stroke-width:0.8;"/>
   </g>
   <g id="patch_6">
    <path d="M 306.241245 162.018125 
L 306.241245 22.318125 
" style="fill:none;stroke:#000000;stroke-linecap:square;stroke-linejoin:miter;stroke-width:0.8;"/>
   </g>
   <g id="patch_7">
    <path d="M 69.413594 162.018125 
L 306.241245 162.018125 
" style="fill:none;stroke:#000000;stroke-linecap:square;stroke-linejoin:miter;stroke-width:0.8;"/>
   </g>
   <g id="patch_8">
    <path d="M 69.413594 22.318125 
L 306.241245 22.318125 
" style="fill:none;stroke:#000000;stroke-linecap:square;stroke-linejoin:miter;stroke-width:0.8;"/>
   </g>
   <g id="text_15">
    <!-- COVID-19 Cases -->
    <g transform="translate(139.008982 16.318125)scale(0.12 -0.12)">
     <defs>
      <path d="M 39.40625 66.21875 
Q 28.65625 66.21875 22.328125 58.203125 
Q 16.015625 50.203125 16.015625 36.375 
Q 16.015625 22.609375 22.328125 14.59375 
Q 28.65625 6.59375 39.40625 6.59375 
Q 50.140625 6.59375 56.421875 14.59375 
Q 62.703125 22.609375 62.703125 36.375 
Q 62.703125 50.203125 56.421875 58.203125 
Q 50.140625 66.21875 39.40625 66.21875 
z
M 39.40625 74.21875 
Q 54.734375 74.21875 63.90625 63.9375 
Q 73.09375 53.65625 73.09375 36.375 
Q 73.09375 19.140625 63.90625 8.859375 
Q 54.734375 -1.421875 39.40625 -1.421875 
Q 24.03125 -1.421875 14.8125 8.828125 
Q 5.609375 19.09375 5.609375 36.375 
Q 5.609375 53.65625 14.8125 63.9375 
Q 24.03125 74.21875 39.40625 74.21875 
z
" id="DejaVuSans-79"/>
      <path d="M 28.609375 0 
L 0.78125 72.90625 
L 11.078125 72.90625 
L 34.1875 11.53125 
L 57.328125 72.90625 
L 67.578125 72.90625 
L 39.796875 0 
z
" id="DejaVuSans-86"/>
      <path d="M 9.8125 72.90625 
L 19.671875 72.90625 
L 19.671875 0 
L 9.8125 0 
z
" id="DejaVuSans-73"/>
      <path d="M 19.671875 64.796875 
L 19.671875 8.109375 
L 31.59375 8.109375 
Q 46.6875 8.109375 53.6875 14.9375 
Q 60.6875 21.78125 60.6875 36.53125 
Q 60.6875 51.171875 53.6875 57.984375 
Q 46.6875 64.796875 31.59375 64.796875 
z
M 9.8125 72.90625 
L 30.078125 72.90625 
Q 51.265625 72.90625 61.171875 64.09375 
Q 71.09375 55.28125 71.09375 36.53125 
Q 71.09375 17.671875 61.125 8.828125 
Q 51.171875 0 30.078125 0 
L 9.8125 0 
z
" id="DejaVuSans-68"/>
      <path id="DejaVuSans-32"/>
      <path d="M 34.28125 27.484375 
Q 23.390625 27.484375 19.1875 25 
Q 14.984375 22.515625 14.984375 16.5 
Q 14.984375 11.71875 18.140625 8.90625 
Q 21.296875 6.109375 26.703125 6.109375 
Q 34.1875 6.109375 38.703125 11.40625 
Q 43.21875 16.703125 43.21875 25.484375 
L 43.21875 27.484375 
z
M 52.203125 31.203125 
L 52.203125 0 
L 43.21875 0 
L 43.21875 8.296875 
Q 40.140625 3.328125 35.546875 0.953125 
Q 30.953125 -1.421875 24.3125 -1.421875 
Q 15.921875 -1.421875 10.953125 3.296875 
Q 6 8.015625 6 15.921875 
Q 6 25.140625 12.171875 29.828125 
Q 18.359375 34.515625 30.609375 34.515625 
L 43.21875 34.515625 
L 43.21875 35.40625 
Q 43.21875 41.609375 39.140625 45 
Q 35.0625 48.390625 27.6875 48.390625 
Q 23 48.390625 18.546875 47.265625 
Q 14.109375 46.140625 10.015625 43.890625 
L 10.015625 52.203125 
Q 14.9375 54.109375 19.578125 55.046875 
Q 24.21875 56 28.609375 56 
Q 40.484375 56 46.34375 49.84375 
Q 52.203125 43.703125 52.203125 31.203125 
z
" id="DejaVuSans-97"/>
      <path d="M 44.28125 53.078125 
L 44.28125 44.578125 
Q 40.484375 46.53125 36.375 47.5 
Q 32.28125 48.484375 27.875 48.484375 
Q 21.1875 48.484375 17.84375 46.4375 
Q 14.5 44.390625 14.5 40.28125 
Q 14.5 37.15625 16.890625 35.375 
Q 19.28125 33.59375 26.515625 31.984375 
L 29.59375 31.296875 
Q 39.15625 29.25 43.1875 25.515625 
Q 47.21875 21.78125 47.21875 15.09375 
Q 47.21875 7.46875 41.1875 3.015625 
Q 35.15625 -1.421875 24.609375 -1.421875 
Q 20.21875 -1.421875 15.453125 -0.5625 
Q 10.6875 0.296875 5.421875 2 
L 5.421875 11.28125 
Q 10.40625 8.6875 15.234375 7.390625 
Q 20.0625 6.109375 24.8125 6.109375 
Q 31.15625 6.109375 34.5625 8.28125 
Q 37.984375 10.453125 37.984375 14.40625 
Q 37.984375 18.0625 35.515625 20.015625 
Q 33.0625 21.96875 24.703125 23.78125 
L 21.578125 24.515625 
Q 13.234375 26.265625 9.515625 29.90625 
Q 5.8125 33.546875 5.8125 39.890625 
Q 5.8125 47.609375 11.28125 51.796875 
Q 16.75 56 26.8125 56 
Q 31.78125 56 36.171875 55.265625 
Q 40.578125 54.546875 44.28125 53.078125 
z
" id="DejaVuSans-115"/>
      <path d="M 56.203125 29.59375 
L 56.203125 25.203125 
L 14.890625 25.203125 
Q 15.484375 15.921875 20.484375 11.0625 
Q 25.484375 6.203125 34.421875 6.203125 
Q 39.59375 6.203125 44.453125 7.46875 
Q 49.3125 8.734375 54.109375 11.28125 
L 54.109375 2.78125 
Q 49.265625 0.734375 44.1875 -0.34375 
Q 39.109375 -1.421875 33.890625 -1.421875 
Q 20.796875 -1.421875 13.15625 6.1875 
Q 5.515625 13.8125 5.515625 26.8125 
Q 5.515625 40.234375 12.765625 48.109375 
Q 20.015625 56 32.328125 56 
Q 43.359375 56 49.78125 48.890625 
Q 56.203125 41.796875 56.203125 29.59375 
z
M 47.21875 32.234375 
Q 47.125 39.59375 43.09375 43.984375 
Q 39.0625 48.390625 32.421875 48.390625 
Q 24.90625 48.390625 20.390625 44.140625 
Q 15.875 39.890625 15.1875 32.171875 
z
" id="DejaVuSans-101"/>
     </defs>
     <use xlink:href="#DejaVuSans-67"/>
     <use x="69.824219" xlink:href="#DejaVuSans-79"/>
     <use x="146.785156" xlink:href="#DejaVuSans-86"/>
     <use x="215.193359" xlink:href="#DejaVuSans-73"/>
     <use x="244.685547" xlink:href="#DejaVuSans-68"/>
     <use x="321.6875" xlink:href="#DejaVuSans-45"/>
     <use x="357.771484" xlink:href="#DejaVuSans-49"/>
     <use x="421.394531" xlink:href="#DejaVuSans-57"/>
     <use x="485.017578" xlink:href="#DejaVuSans-32"/>
     <use x="516.804688" xlink:href="#DejaVuSans-67"/>
     <use x="586.628906" xlink:href="#DejaVuSans-97"/>
     <use x="647.908203" xlink:href="#DejaVuSans-115"/>
     <use x="700.007812" xlink:href="#DejaVuSans-101"/>
     <use x="761.53125" xlink:href="#DejaVuSans-115"/>
    </g>
   </g>
  </g>
  <g id="axes_2">
   <g id="patch_9">
    <path d="M 373.133594 162.018125 
L 609.961245 162.018125 
L 609.961245 22.318125 
L 373.133594 22.318125 
z
" style="fill:#ffffff;"/>
   </g>
   <g id="patch_10">
    <path clip-path="url(#pdaa33b5ce4)" d="M 577.26489 162.018125 
L 577.26489 22.318125 
L 609.961245 22.318125 
L 609.961245 162.018125 
z
" style="fill:#808080;opacity:0.5;"/>
   </g>
   <g id="patch_11">
    <path clip-path="url(#pdaa33b5ce4)" d="M 373.133594 162.018125 
L 373.133594 22.318125 
L 387.272558 22.318125 
L 387.272558 162.018125 
z
" style="fill:#808080;opacity:0.5;"/>
   </g>
   <g id="matplotlib.axis_3">
    <g id="xtick_48">
     <g id="line2d_53">
      <g>
       <use style="stroke:#000000;stroke-width:0.8;" x="388.156243" xlink:href="#m4d8e62e1d1" y="162.018125"/>
      </g>
     </g>
     <g id="text_16">
      <!-- 2020-04 -->
      <g transform="translate(349.070181 197.863563)rotate(-30)scale(0.105 -0.105)">
       <use xlink:href="#DejaVuSans-50"/>
       <use x="63.623047" xlink:href="#DejaVuSans-48"/>
       <use x="127.246094" xlink:href="#DejaVuSans-50"/>
       <use x="190.869141" xlink:href="#DejaVuSans-48"/>
       <use x="254.492188" xlink:href="#DejaVuSans-45"/>
       <use x="290.576172" xlink:href="#DejaVuSans-48"/>
       <use x="354.199219" xlink:href="#DejaVuSans-52"/>
      </g>
     </g>
    </g>
    <g id="xtick_49">
     <g id="line2d_54">
      <g>
       <use style="stroke:#000000;stroke-width:0.8;" x="414.666801" xlink:href="#m4d8e62e1d1" y="162.018125"/>
      </g>
     </g>
     <g id="text_17">
      <!-- 2020-05 -->
      <g transform="translate(375.580739 197.863563)rotate(-30)scale(0.105 -0.105)">
       <use xlink:href="#DejaVuSans-50"/>
       <use x="63.623047" xlink:href="#DejaVuSans-48"/>
       <use x="127.246094" xlink:href="#DejaVuSans-50"/>
       <use x="190.869141" xlink:href="#DejaVuSans-48"/>
       <use x="254.492188" xlink:href="#DejaVuSans-45"/>
       <use x="290.576172" xlink:href="#DejaVuSans-48"/>
       <use x="354.199219" xlink:href="#DejaVuSans-53"/>
      </g>
     </g>
    </g>
    <g id="xtick_50">
     <g id="line2d_55">
      <g>
       <use style="stroke:#000000;stroke-width:0.8;" x="442.061045" xlink:href="#m4d8e62e1d1" y="162.018125"/>
      </g>
     </g>
     <g id="text_18">
      <!-- 2020-06 -->
      <g transform="translate(402.974983 197.863563)rotate(-30)scale(0.105 -0.105)">
       <use xlink:href="#DejaVuSans-50"/>
       <use x="63.623047" xlink:href="#DejaVuSans-48"/>
       <use x="127.246094" xlink:href="#DejaVuSans-50"/>
       <use x="190.869141" xlink:href="#DejaVuSans-48"/>
       <use x="254.492188" xlink:href="#DejaVuSans-45"/>
       <use x="290.576172" xlink:href="#DejaVuSans-48"/>
       <use x="354.199219" xlink:href="#DejaVuSans-54"/>
      </g>
     </g>
    </g>
    <g id="xtick_51">
     <g id="line2d_56">
      <g>
       <use style="stroke:#000000;stroke-width:0.8;" x="468.571603" xlink:href="#m4d8e62e1d1" y="162.018125"/>
      </g>
     </g>
     <g id="text_19">
      <!-- 2020-07 -->
      <g transform="translate(429.485541 197.863563)rotate(-30)scale(0.105 -0.105)">
       <use xlink:href="#DejaVuSans-50"/>
       <use x="63.623047" xlink:href="#DejaVuSans-48"/>
       <use x="127.246094" xlink:href="#DejaVuSans-50"/>
       <use x="190.869141" xlink:href="#DejaVuSans-48"/>
       <use x="254.492188" xlink:href="#DejaVuSans-45"/>
       <use x="290.576172" xlink:href="#DejaVuSans-48"/>
       <use x="354.199219" xlink:href="#DejaVuSans-55"/>
      </g>
     </g>
    </g>
    <g id="xtick_52">
     <g id="line2d_57">
      <g>
       <use style="stroke:#000000;stroke-width:0.8;" x="495.965846" xlink:href="#m4d8e62e1d1" y="162.018125"/>
      </g>
     </g>
     <g id="text_20">
      <!-- 2020-08 -->
      <g transform="translate(456.879784 197.863563)rotate(-30)scale(0.105 -0.105)">
       <use xlink:href="#DejaVuSans-50"/>
       <use x="63.623047" xlink:href="#DejaVuSans-48"/>
       <use x="127.246094" xlink:href="#DejaVuSans-50"/>
       <use x="190.869141" xlink:href="#DejaVuSans-48"/>
       <use x="254.492188" xlink:href="#DejaVuSans-45"/>
       <use x="290.576172" xlink:href="#DejaVuSans-48"/>
       <use x="354.199219" xlink:href="#DejaVuSans-56"/>
      </g>
     </g>
    </g>
    <g id="xtick_53">
     <g id="line2d_58">
      <g>
       <use style="stroke:#000000;stroke-width:0.8;" x="523.360089" xlink:href="#m4d8e62e1d1" y="162.018125"/>
      </g>
     </g>
     <g id="text_21">
      <!-- 2020-09 -->
      <g transform="translate(484.274027 197.863563)rotate(-30)scale(0.105 -0.105)">
       <use xlink:href="#DejaVuSans-50"/>
       <use x="63.623047" xlink:href="#DejaVuSans-48"/>
       <use x="127.246094" xlink:href="#DejaVuSans-50"/>
       <use x="190.869141" xlink:href="#DejaVuSans-48"/>
       <use x="254.492188" xlink:href="#DejaVuSans-45"/>
       <use x="290.576172" xlink:href="#DejaVuSans-48"/>
       <use x="354.199219" xlink:href="#DejaVuSans-57"/>
      </g>
     </g>
    </g>
    <g id="xtick_54">
     <g id="line2d_59">
      <g>
       <use style="stroke:#000000;stroke-width:0.8;" x="549.870647" xlink:href="#m4d8e62e1d1" y="162.018125"/>
      </g>
     </g>
     <g id="text_22">
      <!-- 2020-10 -->
      <g transform="translate(510.784585 197.863563)rotate(-30)scale(0.105 -0.105)">
       <use xlink:href="#DejaVuSans-50"/>
       <use x="63.623047" xlink:href="#DejaVuSans-48"/>
       <use x="127.246094" xlink:href="#DejaVuSans-50"/>
       <use x="190.869141" xlink:href="#DejaVuSans-48"/>
       <use x="254.492188" xlink:href="#DejaVuSans-45"/>
       <use x="290.576172" xlink:href="#DejaVuSans-49"/>
       <use x="354.199219" xlink:href="#DejaVuSans-48"/>
      </g>
     </g>
    </g>
    <g id="xtick_55">
     <g id="line2d_60">
      <g>
       <use style="stroke:#000000;stroke-width:0.8;" x="577.26489" xlink:href="#m4d8e62e1d1" y="162.018125"/>
      </g>
     </g>
     <g id="text_23">
      <!-- 2020-11 -->
      <g transform="translate(538.178828 197.863563)rotate(-30)scale(0.105 -0.105)">
       <use xlink:href="#DejaVuSans-50"/>
       <use x="63.623047" xlink:href="#DejaVuSans-48"/>
       <use x="127.246094" xlink:href="#DejaVuSans-50"/>
       <use x="190.869141" xlink:href="#DejaVuSans-48"/>
       <use x="254.492188" xlink:href="#DejaVuSans-45"/>
       <use x="290.576172" xlink:href="#DejaVuSans-49"/>
       <use x="354.199219" xlink:href="#DejaVuSans-49"/>
      </g>
     </g>
    </g>
    <g id="xtick_56">
     <g id="line2d_61">
      <g>
       <use style="stroke:#000000;stroke-width:0.8;" x="603.775448" xlink:href="#m4d8e62e1d1" y="162.018125"/>
      </g>
     </g>
     <g id="text_24">
      <!-- 2020-12 -->
      <g transform="translate(564.689386 197.863563)rotate(-30)scale(0.105 -0.105)">
       <use xlink:href="#DejaVuSans-50"/>
       <use x="63.623047" xlink:href="#DejaVuSans-48"/>
       <use x="127.246094" xlink:href="#DejaVuSans-50"/>
       <use x="190.869141" xlink:href="#DejaVuSans-48"/>
       <use x="254.492188" xlink:href="#DejaVuSans-45"/>
       <use x="290.576172" xlink:href="#DejaVuSans-49"/>
       <use x="354.199219" xlink:href="#DejaVuSans-50"/>
      </g>
     </g>
    </g>
    <g id="xtick_57">
     <g id="line2d_62">
      <g>
       <use style="stroke:#000000;stroke-width:0.6;" x="374.017279" xlink:href="#macbd1c5754" y="162.018125"/>
      </g>
     </g>
    </g>
    <g id="xtick_58">
     <g id="line2d_63">
      <g>
       <use style="stroke:#000000;stroke-width:0.6;" x="380.203076" xlink:href="#macbd1c5754" y="162.018125"/>
      </g>
     </g>
    </g>
    <g id="xtick_59">
     <g id="line2d_64">
      <g>
       <use style="stroke:#000000;stroke-width:0.6;" x="386.388873" xlink:href="#macbd1c5754" y="162.018125"/>
      </g>
     </g>
    </g>
    <g id="xtick_60">
     <g id="line2d_65">
      <g>
       <use style="stroke:#000000;stroke-width:0.6;" x="392.57467" xlink:href="#macbd1c5754" y="162.018125"/>
      </g>
     </g>
    </g>
    <g id="xtick_61">
     <g id="line2d_66">
      <g>
       <use style="stroke:#000000;stroke-width:0.6;" x="398.760466" xlink:href="#macbd1c5754" y="162.018125"/>
      </g>
     </g>
    </g>
    <g id="xtick_62">
     <g id="line2d_67">
      <g>
       <use style="stroke:#000000;stroke-width:0.6;" x="404.946263" xlink:href="#macbd1c5754" y="162.018125"/>
      </g>
     </g>
    </g>
    <g id="xtick_63">
     <g id="line2d_68">
      <g>
       <use style="stroke:#000000;stroke-width:0.6;" x="411.13206" xlink:href="#macbd1c5754" y="162.018125"/>
      </g>
     </g>
    </g>
    <g id="xtick_64">
     <g id="line2d_69">
      <g>
       <use style="stroke:#000000;stroke-width:0.6;" x="417.317857" xlink:href="#macbd1c5754" y="162.018125"/>
      </g>
     </g>
    </g>
    <g id="xtick_65">
     <g id="line2d_70">
      <g>
       <use style="stroke:#000000;stroke-width:0.6;" x="423.503654" xlink:href="#macbd1c5754" y="162.018125"/>
      </g>
     </g>
    </g>
    <g id="xtick_66">
     <g id="line2d_71">
      <g>
       <use style="stroke:#000000;stroke-width:0.6;" x="429.689451" xlink:href="#macbd1c5754" y="162.018125"/>
      </g>
     </g>
    </g>
    <g id="xtick_67">
     <g id="line2d_72">
      <g>
       <use style="stroke:#000000;stroke-width:0.6;" x="435.875248" xlink:href="#macbd1c5754" y="162.018125"/>
      </g>
     </g>
    </g>
    <g id="xtick_68">
     <g id="line2d_73">
      <g>
       <use style="stroke:#000000;stroke-width:0.6;" x="448.246841" xlink:href="#macbd1c5754" y="162.018125"/>
      </g>
     </g>
    </g>
    <g id="xtick_69">
     <g id="line2d_74">
      <g>
       <use style="stroke:#000000;stroke-width:0.6;" x="454.432638" xlink:href="#macbd1c5754" y="162.018125"/>
      </g>
     </g>
    </g>
    <g id="xtick_70">
     <g id="line2d_75">
      <g>
       <use style="stroke:#000000;stroke-width:0.6;" x="460.618435" xlink:href="#macbd1c5754" y="162.018125"/>
      </g>
     </g>
    </g>
    <g id="xtick_71">
     <g id="line2d_76">
      <g>
       <use style="stroke:#000000;stroke-width:0.6;" x="466.804232" xlink:href="#macbd1c5754" y="162.018125"/>
      </g>
     </g>
    </g>
    <g id="xtick_72">
     <g id="line2d_77">
      <g>
       <use style="stroke:#000000;stroke-width:0.6;" x="472.990029" xlink:href="#macbd1c5754" y="162.018125"/>
      </g>
     </g>
    </g>
    <g id="xtick_73">
     <g id="line2d_78">
      <g>
       <use style="stroke:#000000;stroke-width:0.6;" x="479.175826" xlink:href="#macbd1c5754" y="162.018125"/>
      </g>
     </g>
    </g>
    <g id="xtick_74">
     <g id="line2d_79">
      <g>
       <use style="stroke:#000000;stroke-width:0.6;" x="485.361623" xlink:href="#macbd1c5754" y="162.018125"/>
      </g>
     </g>
    </g>
    <g id="xtick_75">
     <g id="line2d_80">
      <g>
       <use style="stroke:#000000;stroke-width:0.6;" x="491.547419" xlink:href="#macbd1c5754" y="162.018125"/>
      </g>
     </g>
    </g>
    <g id="xtick_76">
     <g id="line2d_81">
      <g>
       <use style="stroke:#000000;stroke-width:0.6;" x="497.733216" xlink:href="#macbd1c5754" y="162.018125"/>
      </g>
     </g>
    </g>
    <g id="xtick_77">
     <g id="line2d_82">
      <g>
       <use style="stroke:#000000;stroke-width:0.6;" x="503.919013" xlink:href="#macbd1c5754" y="162.018125"/>
      </g>
     </g>
    </g>
    <g id="xtick_78">
     <g id="line2d_83">
      <g>
       <use style="stroke:#000000;stroke-width:0.6;" x="510.10481" xlink:href="#macbd1c5754" y="162.018125"/>
      </g>
     </g>
    </g>
    <g id="xtick_79">
     <g id="line2d_84">
      <g>
       <use style="stroke:#000000;stroke-width:0.6;" x="516.290607" xlink:href="#macbd1c5754" y="162.018125"/>
      </g>
     </g>
    </g>
    <g id="xtick_80">
     <g id="line2d_85">
      <g>
       <use style="stroke:#000000;stroke-width:0.6;" x="522.476404" xlink:href="#macbd1c5754" y="162.018125"/>
      </g>
     </g>
    </g>
    <g id="xtick_81">
     <g id="line2d_86">
      <g>
       <use style="stroke:#000000;stroke-width:0.6;" x="528.662201" xlink:href="#macbd1c5754" y="162.018125"/>
      </g>
     </g>
    </g>
    <g id="xtick_82">
     <g id="line2d_87">
      <g>
       <use style="stroke:#000000;stroke-width:0.6;" x="534.847998" xlink:href="#macbd1c5754" y="162.018125"/>
      </g>
     </g>
    </g>
    <g id="xtick_83">
     <g id="line2d_88">
      <g>
       <use style="stroke:#000000;stroke-width:0.6;" x="541.033794" xlink:href="#macbd1c5754" y="162.018125"/>
      </g>
     </g>
    </g>
    <g id="xtick_84">
     <g id="line2d_89">
      <g>
       <use style="stroke:#000000;stroke-width:0.6;" x="547.219591" xlink:href="#macbd1c5754" y="162.018125"/>
      </g>
     </g>
    </g>
    <g id="xtick_85">
     <g id="line2d_90">
      <g>
       <use style="stroke:#000000;stroke-width:0.6;" x="553.405388" xlink:href="#macbd1c5754" y="162.018125"/>
      </g>
     </g>
    </g>
    <g id="xtick_86">
     <g id="line2d_91">
      <g>
       <use style="stroke:#000000;stroke-width:0.6;" x="559.591185" xlink:href="#macbd1c5754" y="162.018125"/>
      </g>
     </g>
    </g>
    <g id="xtick_87">
     <g id="line2d_92">
      <g>
       <use style="stroke:#000000;stroke-width:0.6;" x="565.776982" xlink:href="#macbd1c5754" y="162.018125"/>
      </g>
     </g>
    </g>
    <g id="xtick_88">
     <g id="line2d_93">
      <g>
       <use style="stroke:#000000;stroke-width:0.6;" x="571.962779" xlink:href="#macbd1c5754" y="162.018125"/>
      </g>
     </g>
    </g>
    <g id="xtick_89">
     <g id="line2d_94">
      <g>
       <use style="stroke:#000000;stroke-width:0.6;" x="578.148576" xlink:href="#macbd1c5754" y="162.018125"/>
      </g>
     </g>
    </g>
    <g id="xtick_90">
     <g id="line2d_95">
      <g>
       <use style="stroke:#000000;stroke-width:0.6;" x="584.334372" xlink:href="#macbd1c5754" y="162.018125"/>
      </g>
     </g>
    </g>
    <g id="xtick_91">
     <g id="line2d_96">
      <g>
       <use style="stroke:#000000;stroke-width:0.6;" x="590.520169" xlink:href="#macbd1c5754" y="162.018125"/>
      </g>
     </g>
    </g>
    <g id="xtick_92">
     <g id="line2d_97">
      <g>
       <use style="stroke:#000000;stroke-width:0.6;" x="596.705966" xlink:href="#macbd1c5754" y="162.018125"/>
      </g>
     </g>
    </g>
    <g id="xtick_93">
     <g id="line2d_98">
      <g>
       <use style="stroke:#000000;stroke-width:0.6;" x="602.891763" xlink:href="#macbd1c5754" y="162.018125"/>
      </g>
     </g>
    </g>
    <g id="xtick_94">
     <g id="line2d_99">
      <g>
       <use style="stroke:#000000;stroke-width:0.6;" x="609.07756" xlink:href="#macbd1c5754" y="162.018125"/>
      </g>
     </g>
    </g>
   </g>
   <g id="matplotlib.axis_4">
    <g id="ytick_5">
     <g id="line2d_100">
      <g>
       <use style="stroke:#000000;stroke-width:0.8;" x="373.133594" xlink:href="#m5ec898dc4e" y="156.017249"/>
      </g>
     </g>
     <g id="text_25">
      <!-- 0 -->
      <g transform="translate(359.452969 160.006429)scale(0.105 -0.105)">
       <use xlink:href="#DejaVuSans-48"/>
      </g>
     </g>
    </g>
    <g id="ytick_6">
     <g id="line2d_101">
      <g>
       <use style="stroke:#000000;stroke-width:0.8;" x="373.133594" xlink:href="#m5ec898dc4e" y="127.600167"/>
      </g>
     </g>
     <g id="text_26">
      <!-- 500 -->
      <g transform="translate(346.091719 131.589347)scale(0.105 -0.105)">
       <use xlink:href="#DejaVuSans-53"/>
       <use x="63.623047" xlink:href="#DejaVuSans-48"/>
       <use x="127.246094" xlink:href="#DejaVuSans-48"/>
      </g>
     </g>
    </g>
    <g id="ytick_7">
     <g id="line2d_102">
      <g>
       <use style="stroke:#000000;stroke-width:0.8;" x="373.133594" xlink:href="#m5ec898dc4e" y="99.183085"/>
      </g>
     </g>
     <g id="text_27">
      <!-- 1000 -->
      <g transform="translate(339.411094 103.172264)scale(0.105 -0.105)">
       <use xlink:href="#DejaVuSans-49"/>
       <use x="63.623047" xlink:href="#DejaVuSans-48"/>
       <use x="127.246094" xlink:href="#DejaVuSans-48"/>
       <use x="190.869141" xlink:href="#DejaVuSans-48"/>
      </g>
     </g>
    </g>
    <g id="ytick_8">
     <g id="line2d_103">
      <g>
       <use style="stroke:#000000;stroke-width:0.8;" x="373.133594" xlink:href="#m5ec898dc4e" y="70.766003"/>
      </g>
     </g>
     <g id="text_28">
      <!-- 1500 -->
      <g transform="translate(339.411094 74.755182)scale(0.105 -0.105)">
       <use xlink:href="#DejaVuSans-49"/>
       <use x="63.623047" xlink:href="#DejaVuSans-53"/>
       <use x="127.246094" xlink:href="#DejaVuSans-48"/>
       <use x="190.869141" xlink:href="#DejaVuSans-48"/>
      </g>
     </g>
    </g>
    <g id="ytick_9">
     <g id="line2d_104">
      <g>
       <use style="stroke:#000000;stroke-width:0.8;" x="373.133594" xlink:href="#m5ec898dc4e" y="42.34892"/>
      </g>
     </g>
     <g id="text_29">
      <!-- 2000 -->
      <g transform="translate(339.411094 46.3381)scale(0.105 -0.105)">
       <use xlink:href="#DejaVuSans-50"/>
       <use x="63.623047" xlink:href="#DejaVuSans-48"/>
       <use x="127.246094" xlink:href="#DejaVuSans-48"/>
       <use x="190.869141" xlink:href="#DejaVuSans-48"/>
      </g>
     </g>
    </g>
    <g id="text_30">
     <!-- Count -->
     <g transform="translate(333.019453 109.243828)rotate(-90)scale(0.115 -0.115)">
      <use xlink:href="#DejaVuSans-67"/>
      <use x="69.824219" xlink:href="#DejaVuSans-111"/>
      <use x="131.005859" xlink:href="#DejaVuSans-117"/>
      <use x="194.384766" xlink:href="#DejaVuSans-110"/>
      <use x="257.763672" xlink:href="#DejaVuSans-116"/>
     </g>
    </g>
   </g>
   <g id="line2d_105">
    <path clip-path="url(#pdaa33b5ce4)" d="M 373.133594 155.668125 
L 375.78465 155.03483 
L 376.668335 154.572038 
L 377.55202 154.295986 
L 378.435705 153.711406 
L 380.203076 152.071334 
L 381.086761 150.496216 
L 382.854132 146.574659 
L 383.737817 143.676116 
L 384.621502 139.876346 
L 385.505187 137.253856 
L 386.388873 133.153677 
L 388.156243 121.088596 
L 389.923614 105.540392 
L 390.807299 98.728411 
L 391.690984 89.97595 
L 392.57467 82.6687 
L 393.458355 72.730841 
L 394.34204 64.319384 
L 395.225725 58.554776 
L 396.109411 49.193378 
L 396.993096 46.262358 
L 397.876781 44.800909 
L 398.760466 48.186601 
L 399.644152 40.132388 
L 400.527837 37.168892 
L 401.411522 34.879287 
L 402.295208 39.117492 
L 403.178893 41.098569 
L 404.062578 34.262231 
L 404.946263 28.668125 
L 406.713634 35.228411 
L 407.597319 38.84956 
L 408.481004 33.10119 
L 409.36469 29.333897 
L 410.248375 40.6033 
L 411.13206 44.143256 
L 412.015745 48.284031 
L 412.899431 43.753536 
L 413.783116 41.28531 
L 414.666801 48.373342 
L 415.550487 51.612889 
L 416.434172 49.615574 
L 417.317857 52.757692 
L 418.201542 50.890283 
L 419.085228 50.874045 
L 419.968913 51.515459 
L 420.852598 52.708977 
L 421.736283 53.204246 
L 422.619969 57.328782 
L 423.503654 57.775336 
L 425.271024 71.659111 
L 426.15471 73.745737 
L 427.038395 75.320855 
L 427.92208 78.276231 
L 428.805766 78.933884 
L 429.689451 78.178801 
L 430.573136 79.080029 
L 431.456821 80.752577 
L 432.340507 84.316891 
L 433.224192 86.297968 
L 434.107877 86.671449 
L 434.991562 87.824371 
L 435.875248 90.739152 
L 436.758933 97.859661 
L 437.642618 98.74465 
L 438.526303 100.100551 
L 439.409989 100.003121 
L 440.293674 102.05727 
L 441.177359 102.528181 
L 442.061045 102.723041 
L 442.94473 97.591728 
L 443.828415 100.831275 
L 444.7121 102.455109 
L 445.595786 103.664865 
L 446.479471 104.241325 
L 447.363156 105.767729 
L 448.246841 106.547169 
L 449.130527 109.250851 
L 450.897897 110.793493 
L 451.781582 113.424102 
L 452.665268 113.789465 
L 453.548953 114.341568 
L 454.432638 115.567562 
L 455.316324 117.158919 
L 456.200009 118.190053 
L 457.083694 119.643384 
L 457.967379 119.822006 
L 458.851065 121.202264 
L 459.73475 121.786844 
L 460.618435 122.087253 
L 461.50212 121.681295 
L 462.385806 121.908631 
L 463.269491 122.582522 
L 464.153176 123.508107 
L 465.036861 108.779939 
L 465.920547 108.812416 
L 466.804232 109.185898 
L 467.687917 105.239983 
L 468.571603 105.645941 
L 469.455288 104.915216 
L 470.338973 105.548511 
L 471.222658 122.728667 
L 472.106344 123.053434 
L 472.990029 122.59876 
L 473.873714 125.765235 
L 474.757399 124.54736 
L 476.52477 120.089938 
L 477.408455 116.842272 
L 478.29214 114.893672 
L 479.175826 115.210319 
L 480.059511 115.291511 
L 480.943196 114.966744 
L 481.826882 115.49449 
L 482.710567 115.234677 
L 483.594252 113.204885 
L 484.477937 113.724512 
L 485.361623 113.026263 
L 487.128993 111.166974 
L 488.012678 109.802954 
L 488.896364 106.945008 
L 489.780049 108.926084 
L 490.663734 108.641914 
L 491.547419 98.630981 
L 492.431105 104.225087 
L 493.31479 93.97058 
L 494.198475 92.533487 
L 495.082161 90.649841 
L 495.965846 86.915024 
L 496.849531 87.377817 
L 497.733216 96.089682 
L 498.616902 87.905563 
L 499.500587 95.894822 
L 500.384272 95.894822 
L 501.267957 96.69862 
L 502.151643 97.932733 
L 503.035328 95.62689 
L 503.919013 96.625547 
L 504.802698 96.049087 
L 505.686384 94.733782 
L 506.570069 95.302123 
L 507.453754 96.812288 
L 508.33744 95.391434 
L 509.221125 96.178993 
L 510.10481 95.951657 
L 511.872181 98.225023 
L 512.755866 98.74465 
L 513.639551 98.874556 
L 515.406922 100.912467 
L 516.290607 101.302187 
L 517.174292 102.000435 
L 518.057977 100.87999 
L 518.941663 100.904348 
L 519.825348 102.162819 
L 520.709033 102.73116 
L 521.592719 103.02345 
L 522.476404 102.706803 
L 523.360089 103.5106 
L 524.243774 106.888174 
L 525.12746 107.391562 
L 526.011145 107.748805 
L 526.89483 108.495769 
L 527.778515 108.650033 
L 528.662201 110.549918 
L 529.545886 116.192738 
L 530.429571 115.194081 
L 531.313256 115.169723 
L 532.196942 113.984325 
L 533.080627 115.315868 
L 533.964312 115.372702 
L 534.847998 113.943729 
L 535.731683 108.18724 
L 536.615368 108.455173 
L 537.499053 110.217032 
L 538.382739 111.613528 
L 539.266424 111.540456 
L 541.033794 113.464698 
L 541.91748 114.901791 
L 542.801165 114.926148 
L 543.68485 114.260377 
L 544.568535 114.430879 
L 545.452221 114.171066 
L 546.335906 114.438998 
L 547.219591 114.236019 
L 548.103277 114.861195 
L 548.986962 115.673112 
L 549.870647 115.867972 
L 550.754332 116.671769 
L 551.638018 116.785437 
L 552.521703 116.208977 
L 553.405388 118.019551 
L 554.289073 117.093966 
L 555.172759 117.978955 
L 556.056444 117.938359 
L 556.940129 117.069608 
L 557.823814 118.076385 
L 559.591185 115.023578 
L 560.47487 116.541862 
L 561.358556 118.620369 
L 562.242241 116.736722 
L 563.125926 117.386256 
L 564.009611 116.704246 
L 564.893297 117.816571 
L 565.776982 115.851733 
L 566.660667 114.309092 
L 567.544352 109.892265 
L 568.428038 111.451145 
L 569.311723 109.989695 
L 570.195408 111.296881 
L 571.079093 111.321238 
L 571.962779 110.314462 
L 572.846464 110.436249 
L 573.730149 112.774569 
L 574.613835 112.287419 
L 575.49752 112.693378 
L 576.381205 110.858446 
L 577.26489 110.444368 
L 578.148576 111.329358 
L 579.032261 108.617556 
L 579.915946 106.766386 
L 580.799631 105.881397 
L 581.683317 104.233206 
L 582.567002 102.950378 
L 583.450687 102.714922 
L 584.334372 99.735188 
L 585.218058 99.589043 
L 586.101743 96.658024 
L 586.985428 99.402302 
L 587.869114 96.276423 
L 588.752799 93.962461 
L 589.636484 92.728347 
L 590.520169 94.238512 
L 591.403855 93.19114 
L 592.28754 90.276359 
L 593.171225 78.665951 
L 594.05491 78.065133 
L 594.938596 79.900065 
L 596.705966 68.192227 
L 597.589651 64.181359 
L 598.473337 61.380246 
L 599.357022 69.337029 
L 600.240707 72.812032 
L 601.124393 70.514308 
L 602.008078 75.426404 
L 602.891763 75.296497 
L 603.775448 72.519742 
L 604.659134 68.728092 
L 606.426504 45.742732 
L 607.310189 37.907736 
L 607.310189 37.907736 
" style="fill:none;stroke:#1f77b4;stroke-linecap:square;stroke-width:1.5;"/>
   </g>
   <g id="patch_12">
    <path d="M 373.133594 162.018125 
L 373.133594 22.318125 
" style="fill:none;stroke:#000000;stroke-linecap:square;stroke-linejoin:miter;stroke-width:0.8;"/>
   </g>
   <g id="patch_13">
    <path d="M 609.961245 162.018125 
L 609.961245 22.318125 
" style="fill:none;stroke:#000000;stroke-linecap:square;stroke-linejoin:miter;stroke-width:0.8;"/>
   </g>
   <g id="patch_14">
    <path d="M 373.133594 162.018125 
L 609.961245 162.018125 
" style="fill:none;stroke:#000000;stroke-linecap:square;stroke-linejoin:miter;stroke-width:0.8;"/>
   </g>
   <g id="patch_15">
    <path d="M 373.133594 22.318125 
L 609.961245 22.318125 
" style="fill:none;stroke:#000000;stroke-linecap:square;stroke-linejoin:miter;stroke-width:0.8;"/>
   </g>
   <g id="text_31">
    <!-- COVID-19 Deaths -->
    <g transform="translate(439.269607 16.318125)scale(0.12 -0.12)">
     <defs>
      <path d="M 54.890625 33.015625 
L 54.890625 0 
L 45.90625 0 
L 45.90625 32.71875 
Q 45.90625 40.484375 42.875 44.328125 
Q 39.84375 48.1875 33.796875 48.1875 
Q 26.515625 48.1875 22.3125 43.546875 
Q 18.109375 38.921875 18.109375 30.90625 
L 18.109375 0 
L 9.078125 0 
L 9.078125 75.984375 
L 18.109375 75.984375 
L 18.109375 46.1875 
Q 21.34375 51.125 25.703125 53.5625 
Q 30.078125 56 35.796875 56 
Q 45.21875 56 50.046875 50.171875 
Q 54.890625 44.34375 54.890625 33.015625 
z
" id="DejaVuSans-104"/>
     </defs>
     <use xlink:href="#DejaVuSans-67"/>
     <use x="69.824219" xlink:href="#DejaVuSans-79"/>
     <use x="146.785156" xlink:href="#DejaVuSans-86"/>
     <use x="215.193359" xlink:href="#DejaVuSans-73"/>
     <use x="244.685547" xlink:href="#DejaVuSans-68"/>
     <use x="321.6875" xlink:href="#DejaVuSans-45"/>
     <use x="357.771484" xlink:href="#DejaVuSans-49"/>
     <use x="421.394531" xlink:href="#DejaVuSans-57"/>
     <use x="485.017578" xlink:href="#DejaVuSans-32"/>
     <use x="516.804688" xlink:href="#DejaVuSans-68"/>
     <use x="593.806641" xlink:href="#DejaVuSans-101"/>
     <use x="655.330078" xlink:href="#DejaVuSans-97"/>
     <use x="716.609375" xlink:href="#DejaVuSans-116"/>
     <use x="755.818359" xlink:href="#DejaVuSans-104"/>
     <use x="819.197266" xlink:href="#DejaVuSans-115"/>
    </g>
   </g>
  </g>
  <g id="axes_3">
   <g id="patch_16">
    <path d="M 676.853594 162.018125 
L 913.681245 162.018125 
L 913.681245 22.318125 
L 676.853594 22.318125 
z
" style="fill:#ffffff;"/>
   </g>
   <g id="patch_17">
    <path clip-path="url(#p904216afe9)" d="M 880.98489 162.018125 
L 880.98489 22.318125 
L 913.681245 22.318125 
L 913.681245 162.018125 
z
" style="fill:#808080;opacity:0.5;"/>
   </g>
   <g id="patch_18">
    <path clip-path="url(#p904216afe9)" d="M 676.853594 162.018125 
L 676.853594 22.318125 
L 690.992558 22.318125 
L 690.992558 162.018125 
z
" style="fill:#808080;opacity:0.5;"/>
   </g>
   <g id="matplotlib.axis_5">
    <g id="xtick_95">
     <g id="line2d_106">
      <g>
       <use style="stroke:#000000;stroke-width:0.8;" x="691.876243" xlink:href="#m4d8e62e1d1" y="162.018125"/>
      </g>
     </g>
     <g id="text_32">
      <!-- 2020-04 -->
      <g transform="translate(652.790181 197.863563)rotate(-30)scale(0.105 -0.105)">
       <use xlink:href="#DejaVuSans-50"/>
       <use x="63.623047" xlink:href="#DejaVuSans-48"/>
       <use x="127.246094" xlink:href="#DejaVuSans-50"/>
       <use x="190.869141" xlink:href="#DejaVuSans-48"/>
       <use x="254.492188" xlink:href="#DejaVuSans-45"/>
       <use x="290.576172" xlink:href="#DejaVuSans-48"/>
       <use x="354.199219" xlink:href="#DejaVuSans-52"/>
      </g>
     </g>
    </g>
    <g id="xtick_96">
     <g id="line2d_107">
      <g>
       <use style="stroke:#000000;stroke-width:0.8;" x="718.386801" xlink:href="#m4d8e62e1d1" y="162.018125"/>
      </g>
     </g>
     <g id="text_33">
      <!-- 2020-05 -->
      <g transform="translate(679.300739 197.863563)rotate(-30)scale(0.105 -0.105)">
       <use xlink:href="#DejaVuSans-50"/>
       <use x="63.623047" xlink:href="#DejaVuSans-48"/>
       <use x="127.246094" xlink:href="#DejaVuSans-50"/>
       <use x="190.869141" xlink:href="#DejaVuSans-48"/>
       <use x="254.492188" xlink:href="#DejaVuSans-45"/>
       <use x="290.576172" xlink:href="#DejaVuSans-48"/>
       <use x="354.199219" xlink:href="#DejaVuSans-53"/>
      </g>
     </g>
    </g>
    <g id="xtick_97">
     <g id="line2d_108">
      <g>
       <use style="stroke:#000000;stroke-width:0.8;" x="745.781045" xlink:href="#m4d8e62e1d1" y="162.018125"/>
      </g>
     </g>
     <g id="text_34">
      <!-- 2020-06 -->
      <g transform="translate(706.694983 197.863563)rotate(-30)scale(0.105 -0.105)">
       <use xlink:href="#DejaVuSans-50"/>
       <use x="63.623047" xlink:href="#DejaVuSans-48"/>
       <use x="127.246094" xlink:href="#DejaVuSans-50"/>
       <use x="190.869141" xlink:href="#DejaVuSans-48"/>
       <use x="254.492188" xlink:href="#DejaVuSans-45"/>
       <use x="290.576172" xlink:href="#DejaVuSans-48"/>
       <use x="354.199219" xlink:href="#DejaVuSans-54"/>
      </g>
     </g>
    </g>
    <g id="xtick_98">
     <g id="line2d_109">
      <g>
       <use style="stroke:#000000;stroke-width:0.8;" x="772.291603" xlink:href="#m4d8e62e1d1" y="162.018125"/>
      </g>
     </g>
     <g id="text_35">
      <!-- 2020-07 -->
      <g transform="translate(733.205541 197.863563)rotate(-30)scale(0.105 -0.105)">
       <use xlink:href="#DejaVuSans-50"/>
       <use x="63.623047" xlink:href="#DejaVuSans-48"/>
       <use x="127.246094" xlink:href="#DejaVuSans-50"/>
       <use x="190.869141" xlink:href="#DejaVuSans-48"/>
       <use x="254.492188" xlink:href="#DejaVuSans-45"/>
       <use x="290.576172" xlink:href="#DejaVuSans-48"/>
       <use x="354.199219" xlink:href="#DejaVuSans-55"/>
      </g>
     </g>
    </g>
    <g id="xtick_99">
     <g id="line2d_110">
      <g>
       <use style="stroke:#000000;stroke-width:0.8;" x="799.685846" xlink:href="#m4d8e62e1d1" y="162.018125"/>
      </g>
     </g>
     <g id="text_36">
      <!-- 2020-08 -->
      <g transform="translate(760.599784 197.863563)rotate(-30)scale(0.105 -0.105)">
       <use xlink:href="#DejaVuSans-50"/>
       <use x="63.623047" xlink:href="#DejaVuSans-48"/>
       <use x="127.246094" xlink:href="#DejaVuSans-50"/>
       <use x="190.869141" xlink:href="#DejaVuSans-48"/>
       <use x="254.492188" xlink:href="#DejaVuSans-45"/>
       <use x="290.576172" xlink:href="#DejaVuSans-48"/>
       <use x="354.199219" xlink:href="#DejaVuSans-56"/>
      </g>
     </g>
    </g>
    <g id="xtick_100">
     <g id="line2d_111">
      <g>
       <use style="stroke:#000000;stroke-width:0.8;" x="827.080089" xlink:href="#m4d8e62e1d1" y="162.018125"/>
      </g>
     </g>
     <g id="text_37">
      <!-- 2020-09 -->
      <g transform="translate(787.994027 197.863563)rotate(-30)scale(0.105 -0.105)">
       <use xlink:href="#DejaVuSans-50"/>
       <use x="63.623047" xlink:href="#DejaVuSans-48"/>
       <use x="127.246094" xlink:href="#DejaVuSans-50"/>
       <use x="190.869141" xlink:href="#DejaVuSans-48"/>
       <use x="254.492188" xlink:href="#DejaVuSans-45"/>
       <use x="290.576172" xlink:href="#DejaVuSans-48"/>
       <use x="354.199219" xlink:href="#DejaVuSans-57"/>
      </g>
     </g>
    </g>
    <g id="xtick_101">
     <g id="line2d_112">
      <g>
       <use style="stroke:#000000;stroke-width:0.8;" x="853.590647" xlink:href="#m4d8e62e1d1" y="162.018125"/>
      </g>
     </g>
     <g id="text_38">
      <!-- 2020-10 -->
      <g transform="translate(814.504585 197.863563)rotate(-30)scale(0.105 -0.105)">
       <use xlink:href="#DejaVuSans-50"/>
       <use x="63.623047" xlink:href="#DejaVuSans-48"/>
       <use x="127.246094" xlink:href="#DejaVuSans-50"/>
       <use x="190.869141" xlink:href="#DejaVuSans-48"/>
       <use x="254.492188" xlink:href="#DejaVuSans-45"/>
       <use x="290.576172" xlink:href="#DejaVuSans-49"/>
       <use x="354.199219" xlink:href="#DejaVuSans-48"/>
      </g>
     </g>
    </g>
    <g id="xtick_102">
     <g id="line2d_113">
      <g>
       <use style="stroke:#000000;stroke-width:0.8;" x="880.98489" xlink:href="#m4d8e62e1d1" y="162.018125"/>
      </g>
     </g>
     <g id="text_39">
      <!-- 2020-11 -->
      <g transform="translate(841.898828 197.863563)rotate(-30)scale(0.105 -0.105)">
       <use xlink:href="#DejaVuSans-50"/>
       <use x="63.623047" xlink:href="#DejaVuSans-48"/>
       <use x="127.246094" xlink:href="#DejaVuSans-50"/>
       <use x="190.869141" xlink:href="#DejaVuSans-48"/>
       <use x="254.492188" xlink:href="#DejaVuSans-45"/>
       <use x="290.576172" xlink:href="#DejaVuSans-49"/>
       <use x="354.199219" xlink:href="#DejaVuSans-49"/>
      </g>
     </g>
    </g>
    <g id="xtick_103">
     <g id="line2d_114">
      <g>
       <use style="stroke:#000000;stroke-width:0.8;" x="907.495448" xlink:href="#m4d8e62e1d1" y="162.018125"/>
      </g>
     </g>
     <g id="text_40">
      <!-- 2020-12 -->
      <g transform="translate(868.409386 197.863563)rotate(-30)scale(0.105 -0.105)">
       <use xlink:href="#DejaVuSans-50"/>
       <use x="63.623047" xlink:href="#DejaVuSans-48"/>
       <use x="127.246094" xlink:href="#DejaVuSans-50"/>
       <use x="190.869141" xlink:href="#DejaVuSans-48"/>
       <use x="254.492188" xlink:href="#DejaVuSans-45"/>
       <use x="290.576172" xlink:href="#DejaVuSans-49"/>
       <use x="354.199219" xlink:href="#DejaVuSans-50"/>
      </g>
     </g>
    </g>
    <g id="xtick_104">
     <g id="line2d_115">
      <g>
       <use style="stroke:#000000;stroke-width:0.6;" x="677.737279" xlink:href="#macbd1c5754" y="162.018125"/>
      </g>
     </g>
    </g>
    <g id="xtick_105">
     <g id="line2d_116">
      <g>
       <use style="stroke:#000000;stroke-width:0.6;" x="683.923076" xlink:href="#macbd1c5754" y="162.018125"/>
      </g>
     </g>
    </g>
    <g id="xtick_106">
     <g id="line2d_117">
      <g>
       <use style="stroke:#000000;stroke-width:0.6;" x="690.108873" xlink:href="#macbd1c5754" y="162.018125"/>
      </g>
     </g>
    </g>
    <g id="xtick_107">
     <g id="line2d_118">
      <g>
       <use style="stroke:#000000;stroke-width:0.6;" x="696.29467" xlink:href="#macbd1c5754" y="162.018125"/>
      </g>
     </g>
    </g>
    <g id="xtick_108">
     <g id="line2d_119">
      <g>
       <use style="stroke:#000000;stroke-width:0.6;" x="702.480466" xlink:href="#macbd1c5754" y="162.018125"/>
      </g>
     </g>
    </g>
    <g id="xtick_109">
     <g id="line2d_120">
      <g>
       <use style="stroke:#000000;stroke-width:0.6;" x="708.666263" xlink:href="#macbd1c5754" y="162.018125"/>
      </g>
     </g>
    </g>
    <g id="xtick_110">
     <g id="line2d_121">
      <g>
       <use style="stroke:#000000;stroke-width:0.6;" x="714.85206" xlink:href="#macbd1c5754" y="162.018125"/>
      </g>
     </g>
    </g>
    <g id="xtick_111">
     <g id="line2d_122">
      <g>
       <use style="stroke:#000000;stroke-width:0.6;" x="721.037857" xlink:href="#macbd1c5754" y="162.018125"/>
      </g>
     </g>
    </g>
    <g id="xtick_112">
     <g id="line2d_123">
      <g>
       <use style="stroke:#000000;stroke-width:0.6;" x="727.223654" xlink:href="#macbd1c5754" y="162.018125"/>
      </g>
     </g>
    </g>
    <g id="xtick_113">
     <g id="line2d_124">
      <g>
       <use style="stroke:#000000;stroke-width:0.6;" x="733.409451" xlink:href="#macbd1c5754" y="162.018125"/>
      </g>
     </g>
    </g>
    <g id="xtick_114">
     <g id="line2d_125">
      <g>
       <use style="stroke:#000000;stroke-width:0.6;" x="739.595248" xlink:href="#macbd1c5754" y="162.018125"/>
      </g>
     </g>
    </g>
    <g id="xtick_115">
     <g id="line2d_126">
      <g>
       <use style="stroke:#000000;stroke-width:0.6;" x="751.966841" xlink:href="#macbd1c5754" y="162.018125"/>
      </g>
     </g>
    </g>
    <g id="xtick_116">
     <g id="line2d_127">
      <g>
       <use style="stroke:#000000;stroke-width:0.6;" x="758.152638" xlink:href="#macbd1c5754" y="162.018125"/>
      </g>
     </g>
    </g>
    <g id="xtick_117">
     <g id="line2d_128">
      <g>
       <use style="stroke:#000000;stroke-width:0.6;" x="764.338435" xlink:href="#macbd1c5754" y="162.018125"/>
      </g>
     </g>
    </g>
    <g id="xtick_118">
     <g id="line2d_129">
      <g>
       <use style="stroke:#000000;stroke-width:0.6;" x="770.524232" xlink:href="#macbd1c5754" y="162.018125"/>
      </g>
     </g>
    </g>
    <g id="xtick_119">
     <g id="line2d_130">
      <g>
       <use style="stroke:#000000;stroke-width:0.6;" x="776.710029" xlink:href="#macbd1c5754" y="162.018125"/>
      </g>
     </g>
    </g>
    <g id="xtick_120">
     <g id="line2d_131">
      <g>
       <use style="stroke:#000000;stroke-width:0.6;" x="782.895826" xlink:href="#macbd1c5754" y="162.018125"/>
      </g>
     </g>
    </g>
    <g id="xtick_121">
     <g id="line2d_132">
      <g>
       <use style="stroke:#000000;stroke-width:0.6;" x="789.081623" xlink:href="#macbd1c5754" y="162.018125"/>
      </g>
     </g>
    </g>
    <g id="xtick_122">
     <g id="line2d_133">
      <g>
       <use style="stroke:#000000;stroke-width:0.6;" x="795.267419" xlink:href="#macbd1c5754" y="162.018125"/>
      </g>
     </g>
    </g>
    <g id="xtick_123">
     <g id="line2d_134">
      <g>
       <use style="stroke:#000000;stroke-width:0.6;" x="801.453216" xlink:href="#macbd1c5754" y="162.018125"/>
      </g>
     </g>
    </g>
    <g id="xtick_124">
     <g id="line2d_135">
      <g>
       <use style="stroke:#000000;stroke-width:0.6;" x="807.639013" xlink:href="#macbd1c5754" y="162.018125"/>
      </g>
     </g>
    </g>
    <g id="xtick_125">
     <g id="line2d_136">
      <g>
       <use style="stroke:#000000;stroke-width:0.6;" x="813.82481" xlink:href="#macbd1c5754" y="162.018125"/>
      </g>
     </g>
    </g>
    <g id="xtick_126">
     <g id="line2d_137">
      <g>
       <use style="stroke:#000000;stroke-width:0.6;" x="820.010607" xlink:href="#macbd1c5754" y="162.018125"/>
      </g>
     </g>
    </g>
    <g id="xtick_127">
     <g id="line2d_138">
      <g>
       <use style="stroke:#000000;stroke-width:0.6;" x="826.196404" xlink:href="#macbd1c5754" y="162.018125"/>
      </g>
     </g>
    </g>
    <g id="xtick_128">
     <g id="line2d_139">
      <g>
       <use style="stroke:#000000;stroke-width:0.6;" x="832.382201" xlink:href="#macbd1c5754" y="162.018125"/>
      </g>
     </g>
    </g>
    <g id="xtick_129">
     <g id="line2d_140">
      <g>
       <use style="stroke:#000000;stroke-width:0.6;" x="838.567998" xlink:href="#macbd1c5754" y="162.018125"/>
      </g>
     </g>
    </g>
    <g id="xtick_130">
     <g id="line2d_141">
      <g>
       <use style="stroke:#000000;stroke-width:0.6;" x="844.753794" xlink:href="#macbd1c5754" y="162.018125"/>
      </g>
     </g>
    </g>
    <g id="xtick_131">
     <g id="line2d_142">
      <g>
       <use style="stroke:#000000;stroke-width:0.6;" x="850.939591" xlink:href="#macbd1c5754" y="162.018125"/>
      </g>
     </g>
    </g>
    <g id="xtick_132">
     <g id="line2d_143">
      <g>
       <use style="stroke:#000000;stroke-width:0.6;" x="857.125388" xlink:href="#macbd1c5754" y="162.018125"/>
      </g>
     </g>
    </g>
    <g id="xtick_133">
     <g id="line2d_144">
      <g>
       <use style="stroke:#000000;stroke-width:0.6;" x="863.311185" xlink:href="#macbd1c5754" y="162.018125"/>
      </g>
     </g>
    </g>
    <g id="xtick_134">
     <g id="line2d_145">
      <g>
       <use style="stroke:#000000;stroke-width:0.6;" x="869.496982" xlink:href="#macbd1c5754" y="162.018125"/>
      </g>
     </g>
    </g>
    <g id="xtick_135">
     <g id="line2d_146">
      <g>
       <use style="stroke:#000000;stroke-width:0.6;" x="875.682779" xlink:href="#macbd1c5754" y="162.018125"/>
      </g>
     </g>
    </g>
    <g id="xtick_136">
     <g id="line2d_147">
      <g>
       <use style="stroke:#000000;stroke-width:0.6;" x="881.868576" xlink:href="#macbd1c5754" y="162.018125"/>
      </g>
     </g>
    </g>
    <g id="xtick_137">
     <g id="line2d_148">
      <g>
       <use style="stroke:#000000;stroke-width:0.6;" x="888.054372" xlink:href="#macbd1c5754" y="162.018125"/>
      </g>
     </g>
    </g>
    <g id="xtick_138">
     <g id="line2d_149">
      <g>
       <use style="stroke:#000000;stroke-width:0.6;" x="894.240169" xlink:href="#macbd1c5754" y="162.018125"/>
      </g>
     </g>
    </g>
    <g id="xtick_139">
     <g id="line2d_150">
      <g>
       <use style="stroke:#000000;stroke-width:0.6;" x="900.425966" xlink:href="#macbd1c5754" y="162.018125"/>
      </g>
     </g>
    </g>
    <g id="xtick_140">
     <g id="line2d_151">
      <g>
       <use style="stroke:#000000;stroke-width:0.6;" x="906.611763" xlink:href="#macbd1c5754" y="162.018125"/>
      </g>
     </g>
    </g>
    <g id="xtick_141">
     <g id="line2d_152">
      <g>
       <use style="stroke:#000000;stroke-width:0.6;" x="912.79756" xlink:href="#macbd1c5754" y="162.018125"/>
      </g>
     </g>
    </g>
   </g>
   <g id="matplotlib.axis_6">
    <g id="ytick_10">
     <g id="line2d_153">
      <g>
       <use style="stroke:#000000;stroke-width:0.8;" x="676.853594" xlink:href="#m5ec898dc4e" y="162.018125"/>
      </g>
     </g>
     <g id="text_41">
      <!-- 0.00 -->
      <g transform="translate(646.474687 166.007305)scale(0.105 -0.105)">
       <defs>
        <path d="M 10.6875 12.40625 
L 21 12.40625 
L 21 0 
L 10.6875 0 
z
" id="DejaVuSans-46"/>
       </defs>
       <use xlink:href="#DejaVuSans-48"/>
       <use x="63.623047" xlink:href="#DejaVuSans-46"/>
       <use x="95.410156" xlink:href="#DejaVuSans-48"/>
       <use x="159.033203" xlink:href="#DejaVuSans-48"/>
      </g>
     </g>
    </g>
    <g id="ytick_11">
     <g id="line2d_154">
      <g>
       <use style="stroke:#000000;stroke-width:0.8;" x="676.853594" xlink:href="#m5ec898dc4e" y="127.093125"/>
      </g>
     </g>
     <g id="text_42">
      <!-- 0.02 -->
      <g transform="translate(646.474687 131.082305)scale(0.105 -0.105)">
       <use xlink:href="#DejaVuSans-48"/>
       <use x="63.623047" xlink:href="#DejaVuSans-46"/>
       <use x="95.410156" xlink:href="#DejaVuSans-48"/>
       <use x="159.033203" xlink:href="#DejaVuSans-50"/>
      </g>
     </g>
    </g>
    <g id="ytick_12">
     <g id="line2d_155">
      <g>
       <use style="stroke:#000000;stroke-width:0.8;" x="676.853594" xlink:href="#m5ec898dc4e" y="92.168125"/>
      </g>
     </g>
     <g id="text_43">
      <!-- 0.04 -->
      <g transform="translate(646.474687 96.157305)scale(0.105 -0.105)">
       <use xlink:href="#DejaVuSans-48"/>
       <use x="63.623047" xlink:href="#DejaVuSans-46"/>
       <use x="95.410156" xlink:href="#DejaVuSans-48"/>
       <use x="159.033203" xlink:href="#DejaVuSans-52"/>
      </g>
     </g>
    </g>
    <g id="ytick_13">
     <g id="line2d_156">
      <g>
       <use style="stroke:#000000;stroke-width:0.8;" x="676.853594" xlink:href="#m5ec898dc4e" y="57.243125"/>
      </g>
     </g>
     <g id="text_44">
      <!-- 0.06 -->
      <g transform="translate(646.474687 61.232305)scale(0.105 -0.105)">
       <use xlink:href="#DejaVuSans-48"/>
       <use x="63.623047" xlink:href="#DejaVuSans-46"/>
       <use x="95.410156" xlink:href="#DejaVuSans-48"/>
       <use x="159.033203" xlink:href="#DejaVuSans-54"/>
      </g>
     </g>
    </g>
    <g id="ytick_14">
     <g id="line2d_157">
      <g>
       <use style="stroke:#000000;stroke-width:0.8;" x="676.853594" xlink:href="#m5ec898dc4e" y="22.318125"/>
      </g>
     </g>
     <g id="text_45">
      <!-- 0.08 -->
      <g transform="translate(646.474687 26.307305)scale(0.105 -0.105)">
       <use xlink:href="#DejaVuSans-48"/>
       <use x="63.623047" xlink:href="#DejaVuSans-46"/>
       <use x="95.410156" xlink:href="#DejaVuSans-48"/>
       <use x="159.033203" xlink:href="#DejaVuSans-56"/>
      </g>
     </g>
    </g>
    <g id="text_46">
     <!-- Ratio -->
     <g transform="translate(640.083047 106.927656)rotate(-90)scale(0.115 -0.115)">
      <defs>
       <path d="M 44.390625 34.1875 
Q 47.5625 33.109375 50.5625 29.59375 
Q 53.5625 26.078125 56.59375 19.921875 
L 66.609375 0 
L 56 0 
L 46.6875 18.703125 
Q 43.0625 26.03125 39.671875 28.421875 
Q 36.28125 30.8125 30.421875 30.8125 
L 19.671875 30.8125 
L 19.671875 0 
L 9.8125 0 
L 9.8125 72.90625 
L 32.078125 72.90625 
Q 44.578125 72.90625 50.734375 67.671875 
Q 56.890625 62.453125 56.890625 51.90625 
Q 56.890625 45.015625 53.6875 40.46875 
Q 50.484375 35.9375 44.390625 34.1875 
z
M 19.671875 64.796875 
L 19.671875 38.921875 
L 32.078125 38.921875 
Q 39.203125 38.921875 42.84375 42.21875 
Q 46.484375 45.515625 46.484375 51.90625 
Q 46.484375 58.296875 42.84375 61.546875 
Q 39.203125 64.796875 32.078125 64.796875 
z
" id="DejaVuSans-82"/>
       <path d="M 9.421875 54.6875 
L 18.40625 54.6875 
L 18.40625 0 
L 9.421875 0 
z
M 9.421875 75.984375 
L 18.40625 75.984375 
L 18.40625 64.59375 
L 9.421875 64.59375 
z
" id="DejaVuSans-105"/>
      </defs>
      <use xlink:href="#DejaVuSans-82"/>
      <use x="67.232422" xlink:href="#DejaVuSans-97"/>
      <use x="128.511719" xlink:href="#DejaVuSans-116"/>
      <use x="167.720703" xlink:href="#DejaVuSans-105"/>
      <use x="195.503906" xlink:href="#DejaVuSans-111"/>
     </g>
    </g>
   </g>
   <g id="line2d_158">
    <path clip-path="url(#p904216afe9)" d="M 676.853594 139.104256 
L 677.737279 131.743942 
L 678.620964 133.831408 
L 679.50465 135.258215 
L 680.388335 137.193231 
L 681.27202 140.029232 
L 682.155705 140.915406 
L 683.039391 140.06407 
L 683.923076 140.333892 
L 684.806761 137.064357 
L 685.690446 134.929662 
L 686.574132 133.349048 
L 687.457817 130.208387 
L 688.341502 126.050274 
L 689.225187 124.661986 
L 690.108873 120.983378 
L 691.876243 110.047406 
L 692.759929 103.342361 
L 694.527299 96.391447 
L 695.410984 88.675373 
L 696.29467 83.766417 
L 697.178355 76.244171 
L 698.06204 70.31621 
L 698.945725 66.81989 
L 699.829411 56.692038 
L 700.713096 52.494678 
L 701.596781 52.32998 
L 702.480466 53.211862 
L 703.364152 42.327643 
L 704.247837 37.77886 
L 705.131522 34.5833 
L 706.015208 37.695514 
L 706.898893 37.753177 
L 707.782578 28.933655 
L 708.666263 23.916703 
L 709.549949 27.48001 
L 710.433634 30.212132 
L 711.317319 33.562018 
L 712.201004 31.573901 
L 713.08469 31.583552 
L 713.968375 43.392227 
L 714.85206 44.943823 
L 715.735745 48.514398 
L 716.619431 43.244366 
L 717.503116 39.029166 
L 718.386801 44.082714 
L 719.270487 45.255198 
L 720.154172 42.824984 
L 721.037857 45.675251 
L 721.921542 43.581164 
L 722.805228 40.852775 
L 723.688913 40.705339 
L 725.456283 35.784987 
L 726.339969 37.258856 
L 727.223654 34.927223 
L 728.991024 49.057327 
L 729.87471 51.268804 
L 730.758395 51.676414 
L 731.64208 54.991486 
L 732.525766 54.793932 
L 733.409451 56.37746 
L 734.293136 57.020853 
L 735.176821 60.22126 
L 736.060507 64.546181 
L 736.944192 66.517993 
L 737.827877 65.636798 
L 738.711562 68.572528 
L 739.595248 71.095287 
L 740.478933 79.605185 
L 742.246303 79.790666 
L 743.129989 80.143928 
L 744.013674 83.542674 
L 744.897359 83.457266 
L 745.781045 84.917572 
L 746.66473 78.887018 
L 747.548415 83.191884 
L 748.4321 85.131937 
L 749.315786 88.897663 
L 750.199471 89.670387 
L 751.083156 91.209364 
L 751.966841 90.279103 
L 752.850527 93.330097 
L 754.617897 96.380261 
L 755.501582 98.907902 
L 757.268953 102.450478 
L 758.152638 104.817857 
L 759.036324 109.117201 
L 759.920009 111.792308 
L 760.803694 115.074512 
L 761.687379 116.728007 
L 762.571065 119.932007 
L 763.45475 122.081321 
L 764.338435 124.607115 
L 765.22212 126.072469 
L 766.105806 128.135494 
L 766.989491 130.531154 
L 767.873176 133.285672 
L 768.756861 122.000784 
L 769.640547 124.003292 
L 770.524232 125.609643 
L 771.407917 124.131235 
L 772.291603 126.193348 
L 774.058973 128.783106 
L 774.942658 140.296028 
L 775.826344 140.613868 
L 776.710029 141.22348 
L 777.593714 143.709322 
L 778.477399 143.405391 
L 779.361085 142.454994 
L 780.24477 141.997355 
L 781.128455 140.970454 
L 782.01214 140.783541 
L 782.895826 141.054299 
L 783.779511 141.668738 
L 784.663196 141.862018 
L 785.546882 142.919729 
L 786.430567 142.75934 
L 787.314252 142.108901 
L 788.197937 142.48485 
L 789.081623 142.29644 
L 790.848993 141.471294 
L 792.616364 139.218744 
L 793.500049 140.053431 
L 794.383734 139.606028 
L 795.267419 134.840274 
L 796.151105 137.274783 
L 797.03479 132.318634 
L 797.918475 131.769027 
L 798.802161 130.328169 
L 799.685846 128.224733 
L 800.569531 127.487365 
L 801.453216 131.267407 
L 802.336902 126.093012 
L 803.220587 129.399798 
L 804.104272 128.203151 
L 805.871643 128.159616 
L 806.755328 127.379529 
L 808.522698 127.320776 
L 809.406384 126.579957 
L 810.290069 126.509836 
L 811.173754 126.996975 
L 812.05744 125.985061 
L 812.941125 125.454146 
L 813.82481 125.089875 
L 814.708495 124.179561 
L 815.592181 123.884851 
L 816.475866 123.18688 
L 817.359551 122.037944 
L 818.243236 122.133446 
L 820.010607 121.737244 
L 820.894292 121.856198 
L 821.777977 121.026539 
L 822.661663 121.373404 
L 823.545348 121.951723 
L 824.429033 122.056763 
L 825.312719 122.550509 
L 826.196404 122.105715 
L 827.080089 123.146986 
L 827.963774 124.910711 
L 828.84746 124.858325 
L 829.731145 125.760149 
L 830.61483 126.417609 
L 831.498515 126.229512 
L 832.382201 126.472085 
L 833.265886 128.642359 
L 834.149571 127.16646 
L 835.033256 126.137302 
L 835.916942 124.552993 
L 836.800627 124.984428 
L 837.684312 125.566466 
L 838.567998 125.505362 
L 839.451683 123.333689 
L 840.335368 124.381322 
L 841.219053 126.876707 
L 842.102739 128.244121 
L 842.986424 128.657854 
L 843.870109 129.34182 
L 844.753794 130.520972 
L 845.63748 132.404511 
L 846.521165 132.21325 
L 847.40485 131.604079 
L 848.288535 132.484972 
L 850.055906 132.779594 
L 850.939591 132.103504 
L 851.823277 131.287394 
L 852.706962 132.617228 
L 853.590647 133.173145 
L 854.474332 132.914759 
L 855.358018 133.546978 
L 856.241703 133.277587 
L 857.125388 134.984782 
L 858.009073 134.65994 
L 858.892759 135.641597 
L 859.776444 136.383072 
L 860.660129 136.508772 
L 861.543814 137.321001 
L 863.311185 136.369877 
L 864.19487 137.975502 
L 865.078556 139.845814 
L 865.962241 139.371348 
L 866.845926 140.156574 
L 867.729611 140.132427 
L 868.613297 140.945188 
L 870.380667 140.366392 
L 871.264352 138.249575 
L 872.148038 139.646868 
L 873.031723 139.874931 
L 873.915408 141.027913 
L 874.799093 141.74642 
L 875.682779 141.720314 
L 876.566464 142.246174 
L 877.450149 143.845579 
L 878.333835 144.051073 
L 879.21752 144.688907 
L 880.101205 144.031217 
L 880.98489 144.509741 
L 881.868576 145.38346 
L 882.752261 144.984244 
L 883.635946 145.144612 
L 887.170687 146.821285 
L 888.054372 146.828236 
L 888.938058 147.638409 
L 889.821743 147.570498 
L 890.705428 148.649849 
L 891.589114 148.639309 
L 893.356484 148.918813 
L 894.240169 149.540319 
L 895.123855 149.376416 
L 896.00754 148.967548 
L 896.891225 147.303936 
L 897.77491 147.086584 
L 898.658596 147.973906 
L 899.542281 146.896173 
L 900.425966 146.1097 
L 901.309651 145.781237 
L 902.193337 145.596263 
L 903.077022 145.897324 
L 903.960707 146.64226 
L 904.844393 145.769683 
L 905.728078 146.40692 
L 906.611763 146.167981 
L 908.379134 145.336071 
L 909.262819 144.595786 
L 910.146504 143.245553 
L 911.030189 142.409561 
L 911.030189 142.409561 
" style="fill:none;stroke:#1f77b4;stroke-linecap:square;stroke-width:1.5;"/>
   </g>
   <g id="patch_19">
    <path d="M 676.853594 162.018125 
L 676.853594 22.318125 
" style="fill:none;stroke:#000000;stroke-linecap:square;stroke-linejoin:miter;stroke-width:0.8;"/>
   </g>
   <g id="patch_20">
    <path d="M 913.681245 162.018125 
L 913.681245 22.318125 
" style="fill:none;stroke:#000000;stroke-linecap:square;stroke-linejoin:miter;stroke-width:0.8;"/>
   </g>
   <g id="patch_21">
    <path d="M 676.853594 162.018125 
L 913.681245 162.018125 
" style="fill:none;stroke:#000000;stroke-linecap:square;stroke-linejoin:miter;stroke-width:0.8;"/>
   </g>
   <g id="patch_22">
    <path d="M 676.853594 22.318125 
L 913.681245 22.318125 
" style="fill:none;stroke:#000000;stroke-linecap:square;stroke-linejoin:miter;stroke-width:0.8;"/>
   </g>
   <g id="text_47">
    <!-- CFR -->
    <g transform="translate(783.457732 16.318125)scale(0.12 -0.12)">
     <defs>
      <path d="M 9.8125 72.90625 
L 51.703125 72.90625 
L 51.703125 64.59375 
L 19.671875 64.59375 
L 19.671875 43.109375 
L 48.578125 43.109375 
L 48.578125 34.8125 
L 19.671875 34.8125 
L 19.671875 0 
L 9.8125 0 
z
" id="DejaVuSans-70"/>
     </defs>
     <use xlink:href="#DejaVuSans-67"/>
     <use x="69.824219" xlink:href="#DejaVuSans-70"/>
     <use x="127.34375" xlink:href="#DejaVuSans-82"/>
    </g>
   </g>
  </g>
 </g>
 <defs>
  <clipPath id="p7acc47213b">
   <rect height="139.7" width="236.827651" x="69.413594" y="22.318125"/>
  </clipPath>
  <clipPath id="pdaa33b5ce4">
   <rect height="139.7" width="236.827651" x="373.133594" y="22.318125"/>
  </clipPath>
  <clipPath id="p904216afe9">
   <rect height="139.7" width="236.827651" x="676.853594" y="22.318125"/>
  </clipPath>
 </defs>
</svg>
