<?xml version="1.0" encoding="utf-8" standalone="no"?>
<!DOCTYPE svg PUBLIC "-//W3C//DTD SVG 1.1//EN"
  "http://www.w3.org/Graphics/SVG/1.1/DTD/svg11.dtd">
<!-- Created with matplotlib (https://matplotlib.org/) -->
<svg height="206.954679pt" version="1.1" viewBox="0 0 912.246094 206.954679" width="912.246094pt" xmlns="http://www.w3.org/2000/svg" xmlns:xlink="http://www.w3.org/1999/xlink">
 <metadata>
  <rdf:RDF xmlns:cc="http://creativecommons.org/ns#" xmlns:dc="http://purl.org/dc/elements/1.1/" xmlns:rdf="http://www.w3.org/1999/02/22-rdf-syntax-ns#">
   <cc:Work>
    <dc:type rdf:resource="http://purl.org/dc/dcmitype/StillImage"/>
    <dc:date>2021-03-09T23:08:45.961509</dc:date>
    <dc:format>image/svg+xml</dc:format>
    <dc:creator>
     <cc:Agent>
      <dc:title>Matplotlib v3.3.1, https://matplotlib.org/</dc:title>
     </cc:Agent>
    </dc:creator>
   </cc:Work>
  </rdf:RDF>
 </metadata>
 <defs>
  <style type="text/css">*{stroke-linecap:butt;stroke-linejoin:round;}</style>
 </defs>
 <g id="figure_1">
  <g id="patch_1">
   <path d="M 0 206.954679 
L 912.246094 206.954679 
L 912.246094 0 
L 0 0 
z
" style="fill:none;"/>
  </g>
  <g id="axes_1">
   <g id="patch_2">
    <path d="M 69.413594 162.018125 
L 297.606094 162.018125 
L 297.606094 22.318125 
L 69.413594 22.318125 
z
" style="fill:#ffffff;"/>
   </g>
   <g id="patch_3">
    <path clip-path="url(#p895ae2d876)" d="M 273.380178 162.018125 
L 273.380178 22.318125 
L 297.606094 22.318125 
L 297.606094 162.018125 
z
" style="fill:#808080;opacity:0.5;"/>
   </g>
   <g id="patch_4">
    <path clip-path="url(#p895ae2d876)" d="M 69.413594 162.018125 
L 69.413594 22.318125 
L 81.917292 22.318125 
L 81.917292 162.018125 
z
" style="fill:#808080;opacity:0.5;"/>
   </g>
   <g id="matplotlib.axis_1">
    <g id="xtick_1">
     <g id="line2d_1">
      <defs>
       <path d="M 0 0 
L 0 3.5 
" id="m7789218508" style="stroke:#000000;stroke-width:0.8;"/>
      </defs>
      <g>
       <use style="stroke:#000000;stroke-width:0.8;" x="82.698774" xlink:href="#m7789218508" y="162.018125"/>
      </g>
     </g>
     <g id="text_1">
      <!-- 2020-04 -->
      <g transform="translate(43.612712 197.863563)rotate(-30)scale(0.105 -0.105)">
       <defs>
        <path d="M 19.1875 8.296875 
L 53.609375 8.296875 
L 53.609375 0 
L 7.328125 0 
L 7.328125 8.296875 
Q 12.9375 14.109375 22.625 23.890625 
Q 32.328125 33.6875 34.8125 36.53125 
Q 39.546875 41.84375 41.421875 45.53125 
Q 43.3125 49.21875 43.3125 52.78125 
Q 43.3125 58.59375 39.234375 62.25 
Q 35.15625 65.921875 28.609375 65.921875 
Q 23.96875 65.921875 18.8125 64.3125 
Q 13.671875 62.703125 7.8125 59.421875 
L 7.8125 69.390625 
Q 13.765625 71.78125 18.9375 73 
Q 24.125 74.21875 28.421875 74.21875 
Q 39.75 74.21875 46.484375 68.546875 
Q 53.21875 62.890625 53.21875 53.421875 
Q 53.21875 48.921875 51.53125 44.890625 
Q 49.859375 40.875 45.40625 35.40625 
Q 44.1875 33.984375 37.640625 27.21875 
Q 31.109375 20.453125 19.1875 8.296875 
z
" id="DejaVuSans-50"/>
        <path d="M 31.78125 66.40625 
Q 24.171875 66.40625 20.328125 58.90625 
Q 16.5 51.421875 16.5 36.375 
Q 16.5 21.390625 20.328125 13.890625 
Q 24.171875 6.390625 31.78125 6.390625 
Q 39.453125 6.390625 43.28125 13.890625 
Q 47.125 21.390625 47.125 36.375 
Q 47.125 51.421875 43.28125 58.90625 
Q 39.453125 66.40625 31.78125 66.40625 
z
M 31.78125 74.21875 
Q 44.046875 74.21875 50.515625 64.515625 
Q 56.984375 54.828125 56.984375 36.375 
Q 56.984375 17.96875 50.515625 8.265625 
Q 44.046875 -1.421875 31.78125 -1.421875 
Q 19.53125 -1.421875 13.0625 8.265625 
Q 6.59375 17.96875 6.59375 36.375 
Q 6.59375 54.828125 13.0625 64.515625 
Q 19.53125 74.21875 31.78125 74.21875 
z
" id="DejaVuSans-48"/>
        <path d="M 4.890625 31.390625 
L 31.203125 31.390625 
L 31.203125 23.390625 
L 4.890625 23.390625 
z
" id="DejaVuSans-45"/>
        <path d="M 37.796875 64.3125 
L 12.890625 25.390625 
L 37.796875 25.390625 
z
M 35.203125 72.90625 
L 47.609375 72.90625 
L 47.609375 25.390625 
L 58.015625 25.390625 
L 58.015625 17.1875 
L 47.609375 17.1875 
L 47.609375 0 
L 37.796875 0 
L 37.796875 17.1875 
L 4.890625 17.1875 
L 4.890625 26.703125 
z
" id="DejaVuSans-52"/>
       </defs>
       <use xlink:href="#DejaVuSans-50"/>
       <use x="63.623047" xlink:href="#DejaVuSans-48"/>
       <use x="127.246094" xlink:href="#DejaVuSans-50"/>
       <use x="190.869141" xlink:href="#DejaVuSans-48"/>
       <use x="254.492188" xlink:href="#DejaVuSans-45"/>
       <use x="290.576172" xlink:href="#DejaVuSans-48"/>
       <use x="354.199219" xlink:href="#DejaVuSans-52"/>
      </g>
     </g>
    </g>
    <g id="xtick_2">
     <g id="line2d_2">
      <g>
       <use style="stroke:#000000;stroke-width:0.8;" x="106.143208" xlink:href="#m7789218508" y="162.018125"/>
      </g>
     </g>
     <g id="text_2">
      <!-- 2020-05 -->
      <g transform="translate(67.057147 197.863563)rotate(-30)scale(0.105 -0.105)">
       <defs>
        <path d="M 10.796875 72.90625 
L 49.515625 72.90625 
L 49.515625 64.59375 
L 19.828125 64.59375 
L 19.828125 46.734375 
Q 21.96875 47.46875 24.109375 47.828125 
Q 26.265625 48.1875 28.421875 48.1875 
Q 40.625 48.1875 47.75 41.5 
Q 54.890625 34.8125 54.890625 23.390625 
Q 54.890625 11.625 47.5625 5.09375 
Q 40.234375 -1.421875 26.90625 -1.421875 
Q 22.3125 -1.421875 17.546875 -0.640625 
Q 12.796875 0.140625 7.71875 1.703125 
L 7.71875 11.625 
Q 12.109375 9.234375 16.796875 8.0625 
Q 21.484375 6.890625 26.703125 6.890625 
Q 35.15625 6.890625 40.078125 11.328125 
Q 45.015625 15.765625 45.015625 23.390625 
Q 45.015625 31 40.078125 35.4375 
Q 35.15625 39.890625 26.703125 39.890625 
Q 22.75 39.890625 18.8125 39.015625 
Q 14.890625 38.140625 10.796875 36.28125 
z
" id="DejaVuSans-53"/>
       </defs>
       <use xlink:href="#DejaVuSans-50"/>
       <use x="63.623047" xlink:href="#DejaVuSans-48"/>
       <use x="127.246094" xlink:href="#DejaVuSans-50"/>
       <use x="190.869141" xlink:href="#DejaVuSans-48"/>
       <use x="254.492188" xlink:href="#DejaVuSans-45"/>
       <use x="290.576172" xlink:href="#DejaVuSans-48"/>
       <use x="354.199219" xlink:href="#DejaVuSans-53"/>
      </g>
     </g>
    </g>
    <g id="xtick_3">
     <g id="line2d_3">
      <g>
       <use style="stroke:#000000;stroke-width:0.8;" x="130.369125" xlink:href="#m7789218508" y="162.018125"/>
      </g>
     </g>
     <g id="text_3">
      <!-- 2020-06 -->
      <g transform="translate(91.283063 197.863563)rotate(-30)scale(0.105 -0.105)">
       <defs>
        <path d="M 33.015625 40.375 
Q 26.375 40.375 22.484375 35.828125 
Q 18.609375 31.296875 18.609375 23.390625 
Q 18.609375 15.53125 22.484375 10.953125 
Q 26.375 6.390625 33.015625 6.390625 
Q 39.65625 6.390625 43.53125 10.953125 
Q 47.40625 15.53125 47.40625 23.390625 
Q 47.40625 31.296875 43.53125 35.828125 
Q 39.65625 40.375 33.015625 40.375 
z
M 52.59375 71.296875 
L 52.59375 62.3125 
Q 48.875 64.0625 45.09375 64.984375 
Q 41.3125 65.921875 37.59375 65.921875 
Q 27.828125 65.921875 22.671875 59.328125 
Q 17.53125 52.734375 16.796875 39.40625 
Q 19.671875 43.65625 24.015625 45.921875 
Q 28.375 48.1875 33.59375 48.1875 
Q 44.578125 48.1875 50.953125 41.515625 
Q 57.328125 34.859375 57.328125 23.390625 
Q 57.328125 12.15625 50.6875 5.359375 
Q 44.046875 -1.421875 33.015625 -1.421875 
Q 20.359375 -1.421875 13.671875 8.265625 
Q 6.984375 17.96875 6.984375 36.375 
Q 6.984375 53.65625 15.1875 63.9375 
Q 23.390625 74.21875 37.203125 74.21875 
Q 40.921875 74.21875 44.703125 73.484375 
Q 48.484375 72.75 52.59375 71.296875 
z
" id="DejaVuSans-54"/>
       </defs>
       <use xlink:href="#DejaVuSans-50"/>
       <use x="63.623047" xlink:href="#DejaVuSans-48"/>
       <use x="127.246094" xlink:href="#DejaVuSans-50"/>
       <use x="190.869141" xlink:href="#DejaVuSans-48"/>
       <use x="254.492188" xlink:href="#DejaVuSans-45"/>
       <use x="290.576172" xlink:href="#DejaVuSans-48"/>
       <use x="354.199219" xlink:href="#DejaVuSans-54"/>
      </g>
     </g>
    </g>
    <g id="xtick_4">
     <g id="line2d_4">
      <g>
       <use style="stroke:#000000;stroke-width:0.8;" x="153.81356" xlink:href="#m7789218508" y="162.018125"/>
      </g>
     </g>
     <g id="text_4">
      <!-- 2020-07 -->
      <g transform="translate(114.727498 197.863563)rotate(-30)scale(0.105 -0.105)">
       <defs>
        <path d="M 8.203125 72.90625 
L 55.078125 72.90625 
L 55.078125 68.703125 
L 28.609375 0 
L 18.3125 0 
L 43.21875 64.59375 
L 8.203125 64.59375 
z
" id="DejaVuSans-55"/>
       </defs>
       <use xlink:href="#DejaVuSans-50"/>
       <use x="63.623047" xlink:href="#DejaVuSans-48"/>
       <use x="127.246094" xlink:href="#DejaVuSans-50"/>
       <use x="190.869141" xlink:href="#DejaVuSans-48"/>
       <use x="254.492188" xlink:href="#DejaVuSans-45"/>
       <use x="290.576172" xlink:href="#DejaVuSans-48"/>
       <use x="354.199219" xlink:href="#DejaVuSans-55"/>
      </g>
     </g>
    </g>
    <g id="xtick_5">
     <g id="line2d_5">
      <g>
       <use style="stroke:#000000;stroke-width:0.8;" x="178.039476" xlink:href="#m7789218508" y="162.018125"/>
      </g>
     </g>
     <g id="text_5">
      <!-- 2020-08 -->
      <g transform="translate(138.953414 197.863563)rotate(-30)scale(0.105 -0.105)">
       <defs>
        <path d="M 31.78125 34.625 
Q 24.75 34.625 20.71875 30.859375 
Q 16.703125 27.09375 16.703125 20.515625 
Q 16.703125 13.921875 20.71875 10.15625 
Q 24.75 6.390625 31.78125 6.390625 
Q 38.8125 6.390625 42.859375 10.171875 
Q 46.921875 13.96875 46.921875 20.515625 
Q 46.921875 27.09375 42.890625 30.859375 
Q 38.875 34.625 31.78125 34.625 
z
M 21.921875 38.8125 
Q 15.578125 40.375 12.03125 44.71875 
Q 8.5 49.078125 8.5 55.328125 
Q 8.5 64.0625 14.71875 69.140625 
Q 20.953125 74.21875 31.78125 74.21875 
Q 42.671875 74.21875 48.875 69.140625 
Q 55.078125 64.0625 55.078125 55.328125 
Q 55.078125 49.078125 51.53125 44.71875 
Q 48 40.375 41.703125 38.8125 
Q 48.828125 37.15625 52.796875 32.3125 
Q 56.78125 27.484375 56.78125 20.515625 
Q 56.78125 9.90625 50.3125 4.234375 
Q 43.84375 -1.421875 31.78125 -1.421875 
Q 19.734375 -1.421875 13.25 4.234375 
Q 6.78125 9.90625 6.78125 20.515625 
Q 6.78125 27.484375 10.78125 32.3125 
Q 14.796875 37.15625 21.921875 38.8125 
z
M 18.3125 54.390625 
Q 18.3125 48.734375 21.84375 45.5625 
Q 25.390625 42.390625 31.78125 42.390625 
Q 38.140625 42.390625 41.71875 45.5625 
Q 45.3125 48.734375 45.3125 54.390625 
Q 45.3125 60.0625 41.71875 63.234375 
Q 38.140625 66.40625 31.78125 66.40625 
Q 25.390625 66.40625 21.84375 63.234375 
Q 18.3125 60.0625 18.3125 54.390625 
z
" id="DejaVuSans-56"/>
       </defs>
       <use xlink:href="#DejaVuSans-50"/>
       <use x="63.623047" xlink:href="#DejaVuSans-48"/>
       <use x="127.246094" xlink:href="#DejaVuSans-50"/>
       <use x="190.869141" xlink:href="#DejaVuSans-48"/>
       <use x="254.492188" xlink:href="#DejaVuSans-45"/>
       <use x="290.576172" xlink:href="#DejaVuSans-48"/>
       <use x="354.199219" xlink:href="#DejaVuSans-56"/>
      </g>
     </g>
    </g>
    <g id="xtick_6">
     <g id="line2d_6">
      <g>
       <use style="stroke:#000000;stroke-width:0.8;" x="202.265392" xlink:href="#m7789218508" y="162.018125"/>
      </g>
     </g>
     <g id="text_6">
      <!-- 2020-09 -->
      <g transform="translate(163.17933 197.863563)rotate(-30)scale(0.105 -0.105)">
       <defs>
        <path d="M 10.984375 1.515625 
L 10.984375 10.5 
Q 14.703125 8.734375 18.5 7.8125 
Q 22.3125 6.890625 25.984375 6.890625 
Q 35.75 6.890625 40.890625 13.453125 
Q 46.046875 20.015625 46.78125 33.40625 
Q 43.953125 29.203125 39.59375 26.953125 
Q 35.25 24.703125 29.984375 24.703125 
Q 19.046875 24.703125 12.671875 31.3125 
Q 6.296875 37.9375 6.296875 49.421875 
Q 6.296875 60.640625 12.9375 67.421875 
Q 19.578125 74.21875 30.609375 74.21875 
Q 43.265625 74.21875 49.921875 64.515625 
Q 56.59375 54.828125 56.59375 36.375 
Q 56.59375 19.140625 48.40625 8.859375 
Q 40.234375 -1.421875 26.421875 -1.421875 
Q 22.703125 -1.421875 18.890625 -0.6875 
Q 15.09375 0.046875 10.984375 1.515625 
z
M 30.609375 32.421875 
Q 37.25 32.421875 41.125 36.953125 
Q 45.015625 41.5 45.015625 49.421875 
Q 45.015625 57.28125 41.125 61.84375 
Q 37.25 66.40625 30.609375 66.40625 
Q 23.96875 66.40625 20.09375 61.84375 
Q 16.21875 57.28125 16.21875 49.421875 
Q 16.21875 41.5 20.09375 36.953125 
Q 23.96875 32.421875 30.609375 32.421875 
z
" id="DejaVuSans-57"/>
       </defs>
       <use xlink:href="#DejaVuSans-50"/>
       <use x="63.623047" xlink:href="#DejaVuSans-48"/>
       <use x="127.246094" xlink:href="#DejaVuSans-50"/>
       <use x="190.869141" xlink:href="#DejaVuSans-48"/>
       <use x="254.492188" xlink:href="#DejaVuSans-45"/>
       <use x="290.576172" xlink:href="#DejaVuSans-48"/>
       <use x="354.199219" xlink:href="#DejaVuSans-57"/>
      </g>
     </g>
    </g>
    <g id="xtick_7">
     <g id="line2d_7">
      <g>
       <use style="stroke:#000000;stroke-width:0.8;" x="225.709827" xlink:href="#m7789218508" y="162.018125"/>
      </g>
     </g>
     <g id="text_7">
      <!-- 2020-10 -->
      <g transform="translate(186.623765 197.863563)rotate(-30)scale(0.105 -0.105)">
       <defs>
        <path d="M 12.40625 8.296875 
L 28.515625 8.296875 
L 28.515625 63.921875 
L 10.984375 60.40625 
L 10.984375 69.390625 
L 28.421875 72.90625 
L 38.28125 72.90625 
L 38.28125 8.296875 
L 54.390625 8.296875 
L 54.390625 0 
L 12.40625 0 
z
" id="DejaVuSans-49"/>
       </defs>
       <use xlink:href="#DejaVuSans-50"/>
       <use x="63.623047" xlink:href="#DejaVuSans-48"/>
       <use x="127.246094" xlink:href="#DejaVuSans-50"/>
       <use x="190.869141" xlink:href="#DejaVuSans-48"/>
       <use x="254.492188" xlink:href="#DejaVuSans-45"/>
       <use x="290.576172" xlink:href="#DejaVuSans-49"/>
       <use x="354.199219" xlink:href="#DejaVuSans-48"/>
      </g>
     </g>
    </g>
    <g id="xtick_8">
     <g id="line2d_8">
      <g>
       <use style="stroke:#000000;stroke-width:0.8;" x="249.935743" xlink:href="#m7789218508" y="162.018125"/>
      </g>
     </g>
     <g id="text_8">
      <!-- 2020-11 -->
      <g transform="translate(210.849681 197.863563)rotate(-30)scale(0.105 -0.105)">
       <use xlink:href="#DejaVuSans-50"/>
       <use x="63.623047" xlink:href="#DejaVuSans-48"/>
       <use x="127.246094" xlink:href="#DejaVuSans-50"/>
       <use x="190.869141" xlink:href="#DejaVuSans-48"/>
       <use x="254.492188" xlink:href="#DejaVuSans-45"/>
       <use x="290.576172" xlink:href="#DejaVuSans-49"/>
       <use x="354.199219" xlink:href="#DejaVuSans-49"/>
      </g>
     </g>
    </g>
    <g id="xtick_9">
     <g id="line2d_9">
      <g>
       <use style="stroke:#000000;stroke-width:0.8;" x="273.380178" xlink:href="#m7789218508" y="162.018125"/>
      </g>
     </g>
     <g id="text_9">
      <!-- 2020-12 -->
      <g transform="translate(234.294116 197.863563)rotate(-30)scale(0.105 -0.105)">
       <use xlink:href="#DejaVuSans-50"/>
       <use x="63.623047" xlink:href="#DejaVuSans-48"/>
       <use x="127.246094" xlink:href="#DejaVuSans-50"/>
       <use x="190.869141" xlink:href="#DejaVuSans-48"/>
       <use x="254.492188" xlink:href="#DejaVuSans-45"/>
       <use x="290.576172" xlink:href="#DejaVuSans-49"/>
       <use x="354.199219" xlink:href="#DejaVuSans-50"/>
      </g>
     </g>
    </g>
    <g id="xtick_10">
     <g id="line2d_10">
      <g>
       <use style="stroke:#000000;stroke-width:0.8;" x="297.606094" xlink:href="#m7789218508" y="162.018125"/>
      </g>
     </g>
     <g id="text_10">
      <!-- 2021-01 -->
      <g transform="translate(258.520032 197.863563)rotate(-30)scale(0.105 -0.105)">
       <use xlink:href="#DejaVuSans-50"/>
       <use x="63.623047" xlink:href="#DejaVuSans-48"/>
       <use x="127.246094" xlink:href="#DejaVuSans-50"/>
       <use x="190.869141" xlink:href="#DejaVuSans-49"/>
       <use x="254.492188" xlink:href="#DejaVuSans-45"/>
       <use x="290.576172" xlink:href="#DejaVuSans-48"/>
       <use x="354.199219" xlink:href="#DejaVuSans-49"/>
      </g>
     </g>
    </g>
    <g id="xtick_11">
     <g id="line2d_11">
      <defs>
       <path d="M 0 0 
L 0 2 
" id="ma3a4a42836" style="stroke:#000000;stroke-width:0.6;"/>
      </defs>
      <g>
       <use style="stroke:#000000;stroke-width:0.6;" x="70.195075" xlink:href="#ma3a4a42836" y="162.018125"/>
      </g>
     </g>
    </g>
    <g id="xtick_12">
     <g id="line2d_12">
      <g>
       <use style="stroke:#000000;stroke-width:0.6;" x="75.665443" xlink:href="#ma3a4a42836" y="162.018125"/>
      </g>
     </g>
    </g>
    <g id="xtick_13">
     <g id="line2d_13">
      <g>
       <use style="stroke:#000000;stroke-width:0.6;" x="81.135811" xlink:href="#ma3a4a42836" y="162.018125"/>
      </g>
     </g>
    </g>
    <g id="xtick_14">
     <g id="line2d_14">
      <g>
       <use style="stroke:#000000;stroke-width:0.6;" x="86.606179" xlink:href="#ma3a4a42836" y="162.018125"/>
      </g>
     </g>
    </g>
    <g id="xtick_15">
     <g id="line2d_15">
      <g>
       <use style="stroke:#000000;stroke-width:0.6;" x="92.076548" xlink:href="#ma3a4a42836" y="162.018125"/>
      </g>
     </g>
    </g>
    <g id="xtick_16">
     <g id="line2d_16">
      <g>
       <use style="stroke:#000000;stroke-width:0.6;" x="97.546916" xlink:href="#ma3a4a42836" y="162.018125"/>
      </g>
     </g>
    </g>
    <g id="xtick_17">
     <g id="line2d_17">
      <g>
       <use style="stroke:#000000;stroke-width:0.6;" x="103.017284" xlink:href="#ma3a4a42836" y="162.018125"/>
      </g>
     </g>
    </g>
    <g id="xtick_18">
     <g id="line2d_18">
      <g>
       <use style="stroke:#000000;stroke-width:0.6;" x="108.487652" xlink:href="#ma3a4a42836" y="162.018125"/>
      </g>
     </g>
    </g>
    <g id="xtick_19">
     <g id="line2d_19">
      <g>
       <use style="stroke:#000000;stroke-width:0.6;" x="113.95802" xlink:href="#ma3a4a42836" y="162.018125"/>
      </g>
     </g>
    </g>
    <g id="xtick_20">
     <g id="line2d_20">
      <g>
       <use style="stroke:#000000;stroke-width:0.6;" x="119.428388" xlink:href="#ma3a4a42836" y="162.018125"/>
      </g>
     </g>
    </g>
    <g id="xtick_21">
     <g id="line2d_21">
      <g>
       <use style="stroke:#000000;stroke-width:0.6;" x="124.898756" xlink:href="#ma3a4a42836" y="162.018125"/>
      </g>
     </g>
    </g>
    <g id="xtick_22">
     <g id="line2d_22">
      <g>
       <use style="stroke:#000000;stroke-width:0.6;" x="135.839493" xlink:href="#ma3a4a42836" y="162.018125"/>
      </g>
     </g>
    </g>
    <g id="xtick_23">
     <g id="line2d_23">
      <g>
       <use style="stroke:#000000;stroke-width:0.6;" x="141.309861" xlink:href="#ma3a4a42836" y="162.018125"/>
      </g>
     </g>
    </g>
    <g id="xtick_24">
     <g id="line2d_24">
      <g>
       <use style="stroke:#000000;stroke-width:0.6;" x="146.780229" xlink:href="#ma3a4a42836" y="162.018125"/>
      </g>
     </g>
    </g>
    <g id="xtick_25">
     <g id="line2d_25">
      <g>
       <use style="stroke:#000000;stroke-width:0.6;" x="152.250597" xlink:href="#ma3a4a42836" y="162.018125"/>
      </g>
     </g>
    </g>
    <g id="xtick_26">
     <g id="line2d_26">
      <g>
       <use style="stroke:#000000;stroke-width:0.6;" x="157.720965" xlink:href="#ma3a4a42836" y="162.018125"/>
      </g>
     </g>
    </g>
    <g id="xtick_27">
     <g id="line2d_27">
      <g>
       <use style="stroke:#000000;stroke-width:0.6;" x="163.191333" xlink:href="#ma3a4a42836" y="162.018125"/>
      </g>
     </g>
    </g>
    <g id="xtick_28">
     <g id="line2d_28">
      <g>
       <use style="stroke:#000000;stroke-width:0.6;" x="168.661702" xlink:href="#ma3a4a42836" y="162.018125"/>
      </g>
     </g>
    </g>
    <g id="xtick_29">
     <g id="line2d_29">
      <g>
       <use style="stroke:#000000;stroke-width:0.6;" x="174.13207" xlink:href="#ma3a4a42836" y="162.018125"/>
      </g>
     </g>
    </g>
    <g id="xtick_30">
     <g id="line2d_30">
      <g>
       <use style="stroke:#000000;stroke-width:0.6;" x="179.602438" xlink:href="#ma3a4a42836" y="162.018125"/>
      </g>
     </g>
    </g>
    <g id="xtick_31">
     <g id="line2d_31">
      <g>
       <use style="stroke:#000000;stroke-width:0.6;" x="185.072806" xlink:href="#ma3a4a42836" y="162.018125"/>
      </g>
     </g>
    </g>
    <g id="xtick_32">
     <g id="line2d_32">
      <g>
       <use style="stroke:#000000;stroke-width:0.6;" x="190.543174" xlink:href="#ma3a4a42836" y="162.018125"/>
      </g>
     </g>
    </g>
    <g id="xtick_33">
     <g id="line2d_33">
      <g>
       <use style="stroke:#000000;stroke-width:0.6;" x="196.013542" xlink:href="#ma3a4a42836" y="162.018125"/>
      </g>
     </g>
    </g>
    <g id="xtick_34">
     <g id="line2d_34">
      <g>
       <use style="stroke:#000000;stroke-width:0.6;" x="201.483911" xlink:href="#ma3a4a42836" y="162.018125"/>
      </g>
     </g>
    </g>
    <g id="xtick_35">
     <g id="line2d_35">
      <g>
       <use style="stroke:#000000;stroke-width:0.6;" x="206.954279" xlink:href="#ma3a4a42836" y="162.018125"/>
      </g>
     </g>
    </g>
    <g id="xtick_36">
     <g id="line2d_36">
      <g>
       <use style="stroke:#000000;stroke-width:0.6;" x="212.424647" xlink:href="#ma3a4a42836" y="162.018125"/>
      </g>
     </g>
    </g>
    <g id="xtick_37">
     <g id="line2d_37">
      <g>
       <use style="stroke:#000000;stroke-width:0.6;" x="217.895015" xlink:href="#ma3a4a42836" y="162.018125"/>
      </g>
     </g>
    </g>
    <g id="xtick_38">
     <g id="line2d_38">
      <g>
       <use style="stroke:#000000;stroke-width:0.6;" x="223.365383" xlink:href="#ma3a4a42836" y="162.018125"/>
      </g>
     </g>
    </g>
    <g id="xtick_39">
     <g id="line2d_39">
      <g>
       <use style="stroke:#000000;stroke-width:0.6;" x="228.835751" xlink:href="#ma3a4a42836" y="162.018125"/>
      </g>
     </g>
    </g>
    <g id="xtick_40">
     <g id="line2d_40">
      <g>
       <use style="stroke:#000000;stroke-width:0.6;" x="234.306119" xlink:href="#ma3a4a42836" y="162.018125"/>
      </g>
     </g>
    </g>
    <g id="xtick_41">
     <g id="line2d_41">
      <g>
       <use style="stroke:#000000;stroke-width:0.6;" x="239.776488" xlink:href="#ma3a4a42836" y="162.018125"/>
      </g>
     </g>
    </g>
    <g id="xtick_42">
     <g id="line2d_42">
      <g>
       <use style="stroke:#000000;stroke-width:0.6;" x="245.246856" xlink:href="#ma3a4a42836" y="162.018125"/>
      </g>
     </g>
    </g>
    <g id="xtick_43">
     <g id="line2d_43">
      <g>
       <use style="stroke:#000000;stroke-width:0.6;" x="250.717224" xlink:href="#ma3a4a42836" y="162.018125"/>
      </g>
     </g>
    </g>
    <g id="xtick_44">
     <g id="line2d_44">
      <g>
       <use style="stroke:#000000;stroke-width:0.6;" x="256.187592" xlink:href="#ma3a4a42836" y="162.018125"/>
      </g>
     </g>
    </g>
    <g id="xtick_45">
     <g id="line2d_45">
      <g>
       <use style="stroke:#000000;stroke-width:0.6;" x="261.65796" xlink:href="#ma3a4a42836" y="162.018125"/>
      </g>
     </g>
    </g>
    <g id="xtick_46">
     <g id="line2d_46">
      <g>
       <use style="stroke:#000000;stroke-width:0.6;" x="267.128328" xlink:href="#ma3a4a42836" y="162.018125"/>
      </g>
     </g>
    </g>
    <g id="xtick_47">
     <g id="line2d_47">
      <g>
       <use style="stroke:#000000;stroke-width:0.6;" x="272.598696" xlink:href="#ma3a4a42836" y="162.018125"/>
      </g>
     </g>
    </g>
    <g id="xtick_48">
     <g id="line2d_48">
      <g>
       <use style="stroke:#000000;stroke-width:0.6;" x="278.069065" xlink:href="#ma3a4a42836" y="162.018125"/>
      </g>
     </g>
    </g>
    <g id="xtick_49">
     <g id="line2d_49">
      <g>
       <use style="stroke:#000000;stroke-width:0.6;" x="283.539433" xlink:href="#ma3a4a42836" y="162.018125"/>
      </g>
     </g>
    </g>
    <g id="xtick_50">
     <g id="line2d_50">
      <g>
       <use style="stroke:#000000;stroke-width:0.6;" x="289.009801" xlink:href="#ma3a4a42836" y="162.018125"/>
      </g>
     </g>
    </g>
    <g id="xtick_51">
     <g id="line2d_51">
      <g>
       <use style="stroke:#000000;stroke-width:0.6;" x="294.480169" xlink:href="#ma3a4a42836" y="162.018125"/>
      </g>
     </g>
    </g>
   </g>
   <g id="matplotlib.axis_2">
    <g id="ytick_1">
     <g id="line2d_52">
      <defs>
       <path d="M 0 0 
L -3.5 0 
" id="m75189f5569" style="stroke:#000000;stroke-width:0.8;"/>
      </defs>
      <g>
       <use style="stroke:#000000;stroke-width:0.8;" x="69.413594" xlink:href="#m75189f5569" y="155.927404"/>
      </g>
     </g>
     <g id="text_11">
      <!-- 0 -->
      <g transform="translate(55.732969 159.916584)scale(0.105 -0.105)">
       <use xlink:href="#DejaVuSans-48"/>
      </g>
     </g>
    </g>
    <g id="ytick_2">
     <g id="line2d_53">
      <g>
       <use style="stroke:#000000;stroke-width:0.8;" x="69.413594" xlink:href="#m75189f5569" y="128.235115"/>
      </g>
     </g>
     <g id="text_12">
      <!-- 50000 -->
      <g transform="translate(29.010469 132.224295)scale(0.105 -0.105)">
       <use xlink:href="#DejaVuSans-53"/>
       <use x="63.623047" xlink:href="#DejaVuSans-48"/>
       <use x="127.246094" xlink:href="#DejaVuSans-48"/>
       <use x="190.869141" xlink:href="#DejaVuSans-48"/>
       <use x="254.492188" xlink:href="#DejaVuSans-48"/>
      </g>
     </g>
    </g>
    <g id="ytick_3">
     <g id="line2d_54">
      <g>
       <use style="stroke:#000000;stroke-width:0.8;" x="69.413594" xlink:href="#m75189f5569" y="100.542827"/>
      </g>
     </g>
     <g id="text_13">
      <!-- 100000 -->
      <g transform="translate(22.329844 104.532007)scale(0.105 -0.105)">
       <use xlink:href="#DejaVuSans-49"/>
       <use x="63.623047" xlink:href="#DejaVuSans-48"/>
       <use x="127.246094" xlink:href="#DejaVuSans-48"/>
       <use x="190.869141" xlink:href="#DejaVuSans-48"/>
       <use x="254.492188" xlink:href="#DejaVuSans-48"/>
       <use x="318.115234" xlink:href="#DejaVuSans-48"/>
      </g>
     </g>
    </g>
    <g id="ytick_4">
     <g id="line2d_55">
      <g>
       <use style="stroke:#000000;stroke-width:0.8;" x="69.413594" xlink:href="#m75189f5569" y="72.850538"/>
      </g>
     </g>
     <g id="text_14">
      <!-- 150000 -->
      <g transform="translate(22.329844 76.839718)scale(0.105 -0.105)">
       <use xlink:href="#DejaVuSans-49"/>
       <use x="63.623047" xlink:href="#DejaVuSans-53"/>
       <use x="127.246094" xlink:href="#DejaVuSans-48"/>
       <use x="190.869141" xlink:href="#DejaVuSans-48"/>
       <use x="254.492188" xlink:href="#DejaVuSans-48"/>
       <use x="318.115234" xlink:href="#DejaVuSans-48"/>
      </g>
     </g>
    </g>
    <g id="ytick_5">
     <g id="line2d_56">
      <g>
       <use style="stroke:#000000;stroke-width:0.8;" x="69.413594" xlink:href="#m75189f5569" y="45.15825"/>
      </g>
     </g>
     <g id="text_15">
      <!-- 200000 -->
      <g transform="translate(22.329844 49.14743)scale(0.105 -0.105)">
       <use xlink:href="#DejaVuSans-50"/>
       <use x="63.623047" xlink:href="#DejaVuSans-48"/>
       <use x="127.246094" xlink:href="#DejaVuSans-48"/>
       <use x="190.869141" xlink:href="#DejaVuSans-48"/>
       <use x="254.492188" xlink:href="#DejaVuSans-48"/>
       <use x="318.115234" xlink:href="#DejaVuSans-48"/>
      </g>
     </g>
    </g>
    <g id="text_16">
     <!-- Count -->
     <g transform="translate(15.938203 109.243828)rotate(-90)scale(0.115 -0.115)">
      <defs>
       <path d="M 64.40625 67.28125 
L 64.40625 56.890625 
Q 59.421875 61.53125 53.78125 63.8125 
Q 48.140625 66.109375 41.796875 66.109375 
Q 29.296875 66.109375 22.65625 58.46875 
Q 16.015625 50.828125 16.015625 36.375 
Q 16.015625 21.96875 22.65625 14.328125 
Q 29.296875 6.6875 41.796875 6.6875 
Q 48.140625 6.6875 53.78125 8.984375 
Q 59.421875 11.28125 64.40625 15.921875 
L 64.40625 5.609375 
Q 59.234375 2.09375 53.4375 0.328125 
Q 47.65625 -1.421875 41.21875 -1.421875 
Q 24.65625 -1.421875 15.125 8.703125 
Q 5.609375 18.84375 5.609375 36.375 
Q 5.609375 53.953125 15.125 64.078125 
Q 24.65625 74.21875 41.21875 74.21875 
Q 47.75 74.21875 53.53125 72.484375 
Q 59.328125 70.75 64.40625 67.28125 
z
" id="DejaVuSans-67"/>
       <path d="M 30.609375 48.390625 
Q 23.390625 48.390625 19.1875 42.75 
Q 14.984375 37.109375 14.984375 27.296875 
Q 14.984375 17.484375 19.15625 11.84375 
Q 23.34375 6.203125 30.609375 6.203125 
Q 37.796875 6.203125 41.984375 11.859375 
Q 46.1875 17.53125 46.1875 27.296875 
Q 46.1875 37.015625 41.984375 42.703125 
Q 37.796875 48.390625 30.609375 48.390625 
z
M 30.609375 56 
Q 42.328125 56 49.015625 48.375 
Q 55.71875 40.765625 55.71875 27.296875 
Q 55.71875 13.875 49.015625 6.21875 
Q 42.328125 -1.421875 30.609375 -1.421875 
Q 18.84375 -1.421875 12.171875 6.21875 
Q 5.515625 13.875 5.515625 27.296875 
Q 5.515625 40.765625 12.171875 48.375 
Q 18.84375 56 30.609375 56 
z
" id="DejaVuSans-111"/>
       <path d="M 8.5 21.578125 
L 8.5 54.6875 
L 17.484375 54.6875 
L 17.484375 21.921875 
Q 17.484375 14.15625 20.5 10.265625 
Q 23.53125 6.390625 29.59375 6.390625 
Q 36.859375 6.390625 41.078125 11.03125 
Q 45.3125 15.671875 45.3125 23.6875 
L 45.3125 54.6875 
L 54.296875 54.6875 
L 54.296875 0 
L 45.3125 0 
L 45.3125 8.40625 
Q 42.046875 3.421875 37.71875 1 
Q 33.40625 -1.421875 27.6875 -1.421875 
Q 18.265625 -1.421875 13.375 4.4375 
Q 8.5 10.296875 8.5 21.578125 
z
M 31.109375 56 
z
" id="DejaVuSans-117"/>
       <path d="M 54.890625 33.015625 
L 54.890625 0 
L 45.90625 0 
L 45.90625 32.71875 
Q 45.90625 40.484375 42.875 44.328125 
Q 39.84375 48.1875 33.796875 48.1875 
Q 26.515625 48.1875 22.3125 43.546875 
Q 18.109375 38.921875 18.109375 30.90625 
L 18.109375 0 
L 9.078125 0 
L 9.078125 54.6875 
L 18.109375 54.6875 
L 18.109375 46.1875 
Q 21.34375 51.125 25.703125 53.5625 
Q 30.078125 56 35.796875 56 
Q 45.21875 56 50.046875 50.171875 
Q 54.890625 44.34375 54.890625 33.015625 
z
" id="DejaVuSans-110"/>
       <path d="M 18.3125 70.21875 
L 18.3125 54.6875 
L 36.8125 54.6875 
L 36.8125 47.703125 
L 18.3125 47.703125 
L 18.3125 18.015625 
Q 18.3125 11.328125 20.140625 9.421875 
Q 21.96875 7.515625 27.59375 7.515625 
L 36.8125 7.515625 
L 36.8125 0 
L 27.59375 0 
Q 17.1875 0 13.234375 3.875 
Q 9.28125 7.765625 9.28125 18.015625 
L 9.28125 47.703125 
L 2.6875 47.703125 
L 2.6875 54.6875 
L 9.28125 54.6875 
L 9.28125 70.21875 
z
" id="DejaVuSans-116"/>
      </defs>
      <use xlink:href="#DejaVuSans-67"/>
      <use x="69.824219" xlink:href="#DejaVuSans-111"/>
      <use x="131.005859" xlink:href="#DejaVuSans-117"/>
      <use x="194.384766" xlink:href="#DejaVuSans-110"/>
      <use x="257.763672" xlink:href="#DejaVuSans-116"/>
     </g>
    </g>
   </g>
   <g id="line2d_57">
    <path clip-path="url(#p895ae2d876)" d="M 69.413594 155.668125 
L 70.976556 155.510754 
L 71.758037 155.304327 
L 73.321 154.595326 
L 74.883962 153.554808 
L 76.446924 152.16236 
L 81.135811 146.445881 
L 83.480255 143.522762 
L 84.261736 142.123589 
L 85.043217 141.072232 
L 85.824698 140.601859 
L 87.387661 139.403732 
L 88.950623 138.505552 
L 90.513585 138.874334 
L 91.295066 138.673209 
L 92.858029 139.451442 
L 94.420991 139.751151 
L 96.765435 140.358958 
L 97.546916 140.235213 
L 98.328397 140.226272 
L 99.891359 140.403503 
L 101.454321 139.399697 
L 102.235803 139.371055 
L 103.017284 139.666176 
L 105.361727 140.054975 
L 106.92469 140.711441 
L 109.269133 140.822685 
L 110.050614 141.160531 
L 110.832095 141.268451 
L 112.395058 142.067493 
L 113.95802 142.773092 
L 115.520982 143.219175 
L 116.302464 143.286032 
L 117.865426 143.566674 
L 118.646907 143.693821 
L 119.428388 143.38881 
L 120.209869 143.458041 
L 120.991351 143.34561 
L 122.554313 143.532098 
L 123.335794 143.710674 
L 124.117275 143.539615 
L 127.2432 144.385258 
L 128.806162 144.199166 
L 129.587643 144.344432 
L 131.150606 143.966946 
L 132.713568 144.07012 
L 133.495049 143.771755 
L 135.058012 143.847632 
L 135.839493 144.191808 
L 136.620974 144.342454 
L 138.183936 144.206287 
L 138.965417 144.447368 
L 140.52838 144.026366 
L 141.309861 143.90001 
L 142.091342 143.431219 
L 143.654304 142.746824 
L 145.217267 141.858455 
L 145.998748 141.352082 
L 149.124673 137.861509 
L 149.906154 136.684903 
L 152.250597 134.048518 
L 153.032078 133.145987 
L 154.595041 130.748388 
L 155.376522 130.113286 
L 156.939484 129.705576 
L 157.720965 128.553893 
L 159.283928 127.160813 
L 160.065409 126.560602 
L 162.409852 122.783216 
L 163.191333 122.571963 
L 163.972815 121.509687 
L 164.754296 120.855753 
L 165.535777 119.793794 
L 166.317258 119.816264 
L 167.098739 119.370339 
L 167.88022 119.195007 
L 168.661702 119.175385 
L 169.443183 119.34415 
L 170.224664 119.237021 
L 171.006145 119.887394 
L 171.787626 119.53768 
L 172.569107 119.622102 
L 173.350589 119.910655 
L 174.13207 119.950532 
L 174.913551 120.250004 
L 175.695032 119.524308 
L 176.476513 120.275481 
L 177.257994 120.576457 
L 178.039476 121.001969 
L 178.820957 122.640482 
L 179.602438 122.579163 
L 180.383919 123.432561 
L 181.1654 125.258194 
L 181.946881 125.431153 
L 182.728363 126.171565 
L 183.509844 126.604831 
L 184.291325 125.709895 
L 185.072806 126.864426 
L 185.854287 126.528479 
L 186.635768 126.495169 
L 188.980212 127.366843 
L 189.761693 128.090483 
L 190.543174 128.238676 
L 191.324655 129.430235 
L 193.669099 131.581135 
L 195.232061 132.512545 
L 196.795024 133.039807 
L 197.576505 133.019473 
L 198.357986 132.814787 
L 199.139467 133.047719 
L 199.920948 133.143297 
L 200.702429 133.072325 
L 201.483911 133.196782 
L 202.265392 132.831877 
L 203.046873 133.290224 
L 203.828354 133.604255 
L 204.609835 133.230092 
L 205.391316 133.156589 
L 206.172798 133.405661 
L 206.954279 134.136659 
L 207.73576 135.618592 
L 210.861685 137.279654 
L 211.643166 136.940305 
L 212.424647 136.281308 
L 213.206128 135.459321 
L 213.987609 134.402425 
L 214.76909 133.722303 
L 215.550571 133.579806 
L 216.332053 133.182541 
L 217.113534 133.152554 
L 217.895015 132.868906 
L 218.676496 131.766911 
L 219.457977 132.4896 
L 220.239458 132.387455 
L 221.02094 131.865416 
L 221.802421 131.964555 
L 222.583902 131.702586 
L 223.365383 132.175095 
L 224.146864 133.086883 
L 224.928345 132.5904 
L 225.709827 132.467763 
L 226.491308 133.030945 
L 227.272789 132.268141 
L 228.05427 132.408897 
L 230.398714 131.382225 
L 231.961676 129.799888 
L 232.743157 129.368838 
L 233.524638 129.212099 
L 234.306119 128.703432 
L 236.650563 126.51669 
L 237.432044 125.980093 
L 238.213525 125.765675 
L 238.995006 125.188964 
L 239.776488 123.926512 
L 240.557969 123.179849 
L 241.33945 123.053255 
L 242.120931 122.028008 
L 242.902412 120.557626 
L 243.683893 121.074285 
L 244.465375 118.444705 
L 245.246856 117.716239 
L 246.028337 116.806904 
L 246.809818 115.382808 
L 247.591299 114.607898 
L 248.37278 113.485886 
L 249.154262 111.900384 
L 249.935743 111.59023 
L 250.717224 110.204904 
L 251.498705 108.56378 
L 253.061667 103.981893 
L 254.62463 97.988569 
L 255.406111 96.225441 
L 257.750554 86.044252 
L 258.532036 83.894698 
L 260.094998 75.908716 
L 261.65796 71.674566 
L 262.439441 71.357054 
L 263.220923 70.206083 
L 264.002404 66.470472 
L 264.783885 67.087852 
L 265.565366 63.698079 
L 266.346847 63.263389 
L 267.128328 61.981948 
L 267.90981 59.67882 
L 268.691291 57.860149 
L 269.472772 64.428206 
L 270.254253 63.844294 
L 271.035734 66.383677 
L 271.817215 68.083034 
L 272.598696 69.267868 
L 273.380178 68.282418 
L 274.161659 66.889417 
L 274.94314 59.158126 
L 275.724621 55.975649 
L 276.506102 53.454543 
L 278.850546 43.374392 
L 279.632027 41.660318 
L 280.413508 41.249839 
L 281.194989 40.125216 
L 281.97647 40.254737 
L 282.757952 39.383458 
L 283.539433 39.040707 
L 284.320914 41.358156 
L 285.102395 41.10758 
L 285.883876 38.994026 
L 286.665357 39.222052 
L 287.446839 40.955985 
L 288.22832 41.439492 
L 289.009801 28.668125 
L 289.791282 30.11659 
L 290.572763 29.938252 
L 291.354244 34.443075 
L 292.135726 48.927091 
L 292.917207 49.811187 
L 293.698688 53.171686 
L 294.480169 64.961322 
L 295.26165 60.562679 
L 296.043131 58.29832 
L 296.824613 56.483605 
L 297.606094 45.349248 
L 297.606094 45.349248 
" style="fill:none;stroke:#1f77b4;stroke-linecap:square;stroke-width:1.5;"/>
   </g>
   <g id="patch_5">
    <path d="M 69.413594 162.018125 
L 69.413594 22.318125 
" style="fill:none;stroke:#000000;stroke-linecap:square;stroke-linejoin:miter;stroke-width:0.8;"/>
   </g>
   <g id="patch_6">
    <path d="M 297.606094 162.018125 
L 297.606094 22.318125 
" style="fill:none;stroke:#000000;stroke-linecap:square;stroke-linejoin:miter;stroke-width:0.8;"/>
   </g>
   <g id="patch_7">
    <path d="M 69.413594 162.018125 
L 297.606094 162.018125 
" style="fill:none;stroke:#000000;stroke-linecap:square;stroke-linejoin:miter;stroke-width:0.8;"/>
   </g>
   <g id="patch_8">
    <path d="M 69.413594 22.318125 
L 297.606094 22.318125 
" style="fill:none;stroke:#000000;stroke-linecap:square;stroke-linejoin:miter;stroke-width:0.8;"/>
   </g>
   <g id="text_17">
    <!-- COVID-19 Cases -->
    <g transform="translate(134.691406 16.318125)scale(0.12 -0.12)">
     <defs>
      <path d="M 39.40625 66.21875 
Q 28.65625 66.21875 22.328125 58.203125 
Q 16.015625 50.203125 16.015625 36.375 
Q 16.015625 22.609375 22.328125 14.59375 
Q 28.65625 6.59375 39.40625 6.59375 
Q 50.140625 6.59375 56.421875 14.59375 
Q 62.703125 22.609375 62.703125 36.375 
Q 62.703125 50.203125 56.421875 58.203125 
Q 50.140625 66.21875 39.40625 66.21875 
z
M 39.40625 74.21875 
Q 54.734375 74.21875 63.90625 63.9375 
Q 73.09375 53.65625 73.09375 36.375 
Q 73.09375 19.140625 63.90625 8.859375 
Q 54.734375 -1.421875 39.40625 -1.421875 
Q 24.03125 -1.421875 14.8125 8.828125 
Q 5.609375 19.09375 5.609375 36.375 
Q 5.609375 53.65625 14.8125 63.9375 
Q 24.03125 74.21875 39.40625 74.21875 
z
" id="DejaVuSans-79"/>
      <path d="M 28.609375 0 
L 0.78125 72.90625 
L 11.078125 72.90625 
L 34.1875 11.53125 
L 57.328125 72.90625 
L 67.578125 72.90625 
L 39.796875 0 
z
" id="DejaVuSans-86"/>
      <path d="M 9.8125 72.90625 
L 19.671875 72.90625 
L 19.671875 0 
L 9.8125 0 
z
" id="DejaVuSans-73"/>
      <path d="M 19.671875 64.796875 
L 19.671875 8.109375 
L 31.59375 8.109375 
Q 46.6875 8.109375 53.6875 14.9375 
Q 60.6875 21.78125 60.6875 36.53125 
Q 60.6875 51.171875 53.6875 57.984375 
Q 46.6875 64.796875 31.59375 64.796875 
z
M 9.8125 72.90625 
L 30.078125 72.90625 
Q 51.265625 72.90625 61.171875 64.09375 
Q 71.09375 55.28125 71.09375 36.53125 
Q 71.09375 17.671875 61.125 8.828125 
Q 51.171875 0 30.078125 0 
L 9.8125 0 
z
" id="DejaVuSans-68"/>
      <path id="DejaVuSans-32"/>
      <path d="M 34.28125 27.484375 
Q 23.390625 27.484375 19.1875 25 
Q 14.984375 22.515625 14.984375 16.5 
Q 14.984375 11.71875 18.140625 8.90625 
Q 21.296875 6.109375 26.703125 6.109375 
Q 34.1875 6.109375 38.703125 11.40625 
Q 43.21875 16.703125 43.21875 25.484375 
L 43.21875 27.484375 
z
M 52.203125 31.203125 
L 52.203125 0 
L 43.21875 0 
L 43.21875 8.296875 
Q 40.140625 3.328125 35.546875 0.953125 
Q 30.953125 -1.421875 24.3125 -1.421875 
Q 15.921875 -1.421875 10.953125 3.296875 
Q 6 8.015625 6 15.921875 
Q 6 25.140625 12.171875 29.828125 
Q 18.359375 34.515625 30.609375 34.515625 
L 43.21875 34.515625 
L 43.21875 35.40625 
Q 43.21875 41.609375 39.140625 45 
Q 35.0625 48.390625 27.6875 48.390625 
Q 23 48.390625 18.546875 47.265625 
Q 14.109375 46.140625 10.015625 43.890625 
L 10.015625 52.203125 
Q 14.9375 54.109375 19.578125 55.046875 
Q 24.21875 56 28.609375 56 
Q 40.484375 56 46.34375 49.84375 
Q 52.203125 43.703125 52.203125 31.203125 
z
" id="DejaVuSans-97"/>
      <path d="M 44.28125 53.078125 
L 44.28125 44.578125 
Q 40.484375 46.53125 36.375 47.5 
Q 32.28125 48.484375 27.875 48.484375 
Q 21.1875 48.484375 17.84375 46.4375 
Q 14.5 44.390625 14.5 40.28125 
Q 14.5 37.15625 16.890625 35.375 
Q 19.28125 33.59375 26.515625 31.984375 
L 29.59375 31.296875 
Q 39.15625 29.25 43.1875 25.515625 
Q 47.21875 21.78125 47.21875 15.09375 
Q 47.21875 7.46875 41.1875 3.015625 
Q 35.15625 -1.421875 24.609375 -1.421875 
Q 20.21875 -1.421875 15.453125 -0.5625 
Q 10.6875 0.296875 5.421875 2 
L 5.421875 11.28125 
Q 10.40625 8.6875 15.234375 7.390625 
Q 20.0625 6.109375 24.8125 6.109375 
Q 31.15625 6.109375 34.5625 8.28125 
Q 37.984375 10.453125 37.984375 14.40625 
Q 37.984375 18.0625 35.515625 20.015625 
Q 33.0625 21.96875 24.703125 23.78125 
L 21.578125 24.515625 
Q 13.234375 26.265625 9.515625 29.90625 
Q 5.8125 33.546875 5.8125 39.890625 
Q 5.8125 47.609375 11.28125 51.796875 
Q 16.75 56 26.8125 56 
Q 31.78125 56 36.171875 55.265625 
Q 40.578125 54.546875 44.28125 53.078125 
z
" id="DejaVuSans-115"/>
      <path d="M 56.203125 29.59375 
L 56.203125 25.203125 
L 14.890625 25.203125 
Q 15.484375 15.921875 20.484375 11.0625 
Q 25.484375 6.203125 34.421875 6.203125 
Q 39.59375 6.203125 44.453125 7.46875 
Q 49.3125 8.734375 54.109375 11.28125 
L 54.109375 2.78125 
Q 49.265625 0.734375 44.1875 -0.34375 
Q 39.109375 -1.421875 33.890625 -1.421875 
Q 20.796875 -1.421875 13.15625 6.1875 
Q 5.515625 13.8125 5.515625 26.8125 
Q 5.515625 40.234375 12.765625 48.109375 
Q 20.015625 56 32.328125 56 
Q 43.359375 56 49.78125 48.890625 
Q 56.203125 41.796875 56.203125 29.59375 
z
M 47.21875 32.234375 
Q 47.125 39.59375 43.09375 43.984375 
Q 39.0625 48.390625 32.421875 48.390625 
Q 24.90625 48.390625 20.390625 44.140625 
Q 15.875 39.890625 15.1875 32.171875 
z
" id="DejaVuSans-101"/>
     </defs>
     <use xlink:href="#DejaVuSans-67"/>
     <use x="69.824219" xlink:href="#DejaVuSans-79"/>
     <use x="146.785156" xlink:href="#DejaVuSans-86"/>
     <use x="215.193359" xlink:href="#DejaVuSans-73"/>
     <use x="244.685547" xlink:href="#DejaVuSans-68"/>
     <use x="321.6875" xlink:href="#DejaVuSans-45"/>
     <use x="357.771484" xlink:href="#DejaVuSans-49"/>
     <use x="421.394531" xlink:href="#DejaVuSans-57"/>
     <use x="485.017578" xlink:href="#DejaVuSans-32"/>
     <use x="516.804688" xlink:href="#DejaVuSans-67"/>
     <use x="586.628906" xlink:href="#DejaVuSans-97"/>
     <use x="647.908203" xlink:href="#DejaVuSans-115"/>
     <use x="700.007812" xlink:href="#DejaVuSans-101"/>
     <use x="761.53125" xlink:href="#DejaVuSans-115"/>
    </g>
   </g>
  </g>
  <g id="axes_2">
   <g id="patch_9">
    <path d="M 373.133594 162.018125 
L 601.326094 162.018125 
L 601.326094 22.318125 
L 373.133594 22.318125 
z
" style="fill:#ffffff;"/>
   </g>
   <g id="patch_10">
    <path clip-path="url(#p0a22340219)" d="M 577.100178 162.018125 
L 577.100178 22.318125 
L 601.326094 22.318125 
L 601.326094 162.018125 
z
" style="fill:#808080;opacity:0.5;"/>
   </g>
   <g id="patch_11">
    <path clip-path="url(#p0a22340219)" d="M 373.133594 162.018125 
L 373.133594 22.318125 
L 385.637292 22.318125 
L 385.637292 162.018125 
z
" style="fill:#808080;opacity:0.5;"/>
   </g>
   <g id="matplotlib.axis_3">
    <g id="xtick_52">
     <g id="line2d_58">
      <g>
       <use style="stroke:#000000;stroke-width:0.8;" x="386.418774" xlink:href="#m7789218508" y="162.018125"/>
      </g>
     </g>
     <g id="text_18">
      <!-- 2020-04 -->
      <g transform="translate(347.332712 197.863563)rotate(-30)scale(0.105 -0.105)">
       <use xlink:href="#DejaVuSans-50"/>
       <use x="63.623047" xlink:href="#DejaVuSans-48"/>
       <use x="127.246094" xlink:href="#DejaVuSans-50"/>
       <use x="190.869141" xlink:href="#DejaVuSans-48"/>
       <use x="254.492188" xlink:href="#DejaVuSans-45"/>
       <use x="290.576172" xlink:href="#DejaVuSans-48"/>
       <use x="354.199219" xlink:href="#DejaVuSans-52"/>
      </g>
     </g>
    </g>
    <g id="xtick_53">
     <g id="line2d_59">
      <g>
       <use style="stroke:#000000;stroke-width:0.8;" x="409.863208" xlink:href="#m7789218508" y="162.018125"/>
      </g>
     </g>
     <g id="text_19">
      <!-- 2020-05 -->
      <g transform="translate(370.777147 197.863563)rotate(-30)scale(0.105 -0.105)">
       <use xlink:href="#DejaVuSans-50"/>
       <use x="63.623047" xlink:href="#DejaVuSans-48"/>
       <use x="127.246094" xlink:href="#DejaVuSans-50"/>
       <use x="190.869141" xlink:href="#DejaVuSans-48"/>
       <use x="254.492188" xlink:href="#DejaVuSans-45"/>
       <use x="290.576172" xlink:href="#DejaVuSans-48"/>
       <use x="354.199219" xlink:href="#DejaVuSans-53"/>
      </g>
     </g>
    </g>
    <g id="xtick_54">
     <g id="line2d_60">
      <g>
       <use style="stroke:#000000;stroke-width:0.8;" x="434.089125" xlink:href="#m7789218508" y="162.018125"/>
      </g>
     </g>
     <g id="text_20">
      <!-- 2020-06 -->
      <g transform="translate(395.003063 197.863563)rotate(-30)scale(0.105 -0.105)">
       <use xlink:href="#DejaVuSans-50"/>
       <use x="63.623047" xlink:href="#DejaVuSans-48"/>
       <use x="127.246094" xlink:href="#DejaVuSans-50"/>
       <use x="190.869141" xlink:href="#DejaVuSans-48"/>
       <use x="254.492188" xlink:href="#DejaVuSans-45"/>
       <use x="290.576172" xlink:href="#DejaVuSans-48"/>
       <use x="354.199219" xlink:href="#DejaVuSans-54"/>
      </g>
     </g>
    </g>
    <g id="xtick_55">
     <g id="line2d_61">
      <g>
       <use style="stroke:#000000;stroke-width:0.8;" x="457.53356" xlink:href="#m7789218508" y="162.018125"/>
      </g>
     </g>
     <g id="text_21">
      <!-- 2020-07 -->
      <g transform="translate(418.447498 197.863563)rotate(-30)scale(0.105 -0.105)">
       <use xlink:href="#DejaVuSans-50"/>
       <use x="63.623047" xlink:href="#DejaVuSans-48"/>
       <use x="127.246094" xlink:href="#DejaVuSans-50"/>
       <use x="190.869141" xlink:href="#DejaVuSans-48"/>
       <use x="254.492188" xlink:href="#DejaVuSans-45"/>
       <use x="290.576172" xlink:href="#DejaVuSans-48"/>
       <use x="354.199219" xlink:href="#DejaVuSans-55"/>
      </g>
     </g>
    </g>
    <g id="xtick_56">
     <g id="line2d_62">
      <g>
       <use style="stroke:#000000;stroke-width:0.8;" x="481.759476" xlink:href="#m7789218508" y="162.018125"/>
      </g>
     </g>
     <g id="text_22">
      <!-- 2020-08 -->
      <g transform="translate(442.673414 197.863563)rotate(-30)scale(0.105 -0.105)">
       <use xlink:href="#DejaVuSans-50"/>
       <use x="63.623047" xlink:href="#DejaVuSans-48"/>
       <use x="127.246094" xlink:href="#DejaVuSans-50"/>
       <use x="190.869141" xlink:href="#DejaVuSans-48"/>
       <use x="254.492188" xlink:href="#DejaVuSans-45"/>
       <use x="290.576172" xlink:href="#DejaVuSans-48"/>
       <use x="354.199219" xlink:href="#DejaVuSans-56"/>
      </g>
     </g>
    </g>
    <g id="xtick_57">
     <g id="line2d_63">
      <g>
       <use style="stroke:#000000;stroke-width:0.8;" x="505.985392" xlink:href="#m7789218508" y="162.018125"/>
      </g>
     </g>
     <g id="text_23">
      <!-- 2020-09 -->
      <g transform="translate(466.89933 197.863563)rotate(-30)scale(0.105 -0.105)">
       <use xlink:href="#DejaVuSans-50"/>
       <use x="63.623047" xlink:href="#DejaVuSans-48"/>
       <use x="127.246094" xlink:href="#DejaVuSans-50"/>
       <use x="190.869141" xlink:href="#DejaVuSans-48"/>
       <use x="254.492188" xlink:href="#DejaVuSans-45"/>
       <use x="290.576172" xlink:href="#DejaVuSans-48"/>
       <use x="354.199219" xlink:href="#DejaVuSans-57"/>
      </g>
     </g>
    </g>
    <g id="xtick_58">
     <g id="line2d_64">
      <g>
       <use style="stroke:#000000;stroke-width:0.8;" x="529.429827" xlink:href="#m7789218508" y="162.018125"/>
      </g>
     </g>
     <g id="text_24">
      <!-- 2020-10 -->
      <g transform="translate(490.343765 197.863563)rotate(-30)scale(0.105 -0.105)">
       <use xlink:href="#DejaVuSans-50"/>
       <use x="63.623047" xlink:href="#DejaVuSans-48"/>
       <use x="127.246094" xlink:href="#DejaVuSans-50"/>
       <use x="190.869141" xlink:href="#DejaVuSans-48"/>
       <use x="254.492188" xlink:href="#DejaVuSans-45"/>
       <use x="290.576172" xlink:href="#DejaVuSans-49"/>
       <use x="354.199219" xlink:href="#DejaVuSans-48"/>
      </g>
     </g>
    </g>
    <g id="xtick_59">
     <g id="line2d_65">
      <g>
       <use style="stroke:#000000;stroke-width:0.8;" x="553.655743" xlink:href="#m7789218508" y="162.018125"/>
      </g>
     </g>
     <g id="text_25">
      <!-- 2020-11 -->
      <g transform="translate(514.569681 197.863563)rotate(-30)scale(0.105 -0.105)">
       <use xlink:href="#DejaVuSans-50"/>
       <use x="63.623047" xlink:href="#DejaVuSans-48"/>
       <use x="127.246094" xlink:href="#DejaVuSans-50"/>
       <use x="190.869141" xlink:href="#DejaVuSans-48"/>
       <use x="254.492188" xlink:href="#DejaVuSans-45"/>
       <use x="290.576172" xlink:href="#DejaVuSans-49"/>
       <use x="354.199219" xlink:href="#DejaVuSans-49"/>
      </g>
     </g>
    </g>
    <g id="xtick_60">
     <g id="line2d_66">
      <g>
       <use style="stroke:#000000;stroke-width:0.8;" x="577.100178" xlink:href="#m7789218508" y="162.018125"/>
      </g>
     </g>
     <g id="text_26">
      <!-- 2020-12 -->
      <g transform="translate(538.014116 197.863563)rotate(-30)scale(0.105 -0.105)">
       <use xlink:href="#DejaVuSans-50"/>
       <use x="63.623047" xlink:href="#DejaVuSans-48"/>
       <use x="127.246094" xlink:href="#DejaVuSans-50"/>
       <use x="190.869141" xlink:href="#DejaVuSans-48"/>
       <use x="254.492188" xlink:href="#DejaVuSans-45"/>
       <use x="290.576172" xlink:href="#DejaVuSans-49"/>
       <use x="354.199219" xlink:href="#DejaVuSans-50"/>
      </g>
     </g>
    </g>
    <g id="xtick_61">
     <g id="line2d_67">
      <g>
       <use style="stroke:#000000;stroke-width:0.8;" x="601.326094" xlink:href="#m7789218508" y="162.018125"/>
      </g>
     </g>
     <g id="text_27">
      <!-- 2021-01 -->
      <g transform="translate(562.240032 197.863563)rotate(-30)scale(0.105 -0.105)">
       <use xlink:href="#DejaVuSans-50"/>
       <use x="63.623047" xlink:href="#DejaVuSans-48"/>
       <use x="127.246094" xlink:href="#DejaVuSans-50"/>
       <use x="190.869141" xlink:href="#DejaVuSans-49"/>
       <use x="254.492188" xlink:href="#DejaVuSans-45"/>
       <use x="290.576172" xlink:href="#DejaVuSans-48"/>
       <use x="354.199219" xlink:href="#DejaVuSans-49"/>
      </g>
     </g>
    </g>
    <g id="xtick_62">
     <g id="line2d_68">
      <g>
       <use style="stroke:#000000;stroke-width:0.6;" x="373.915075" xlink:href="#ma3a4a42836" y="162.018125"/>
      </g>
     </g>
    </g>
    <g id="xtick_63">
     <g id="line2d_69">
      <g>
       <use style="stroke:#000000;stroke-width:0.6;" x="379.385443" xlink:href="#ma3a4a42836" y="162.018125"/>
      </g>
     </g>
    </g>
    <g id="xtick_64">
     <g id="line2d_70">
      <g>
       <use style="stroke:#000000;stroke-width:0.6;" x="384.855811" xlink:href="#ma3a4a42836" y="162.018125"/>
      </g>
     </g>
    </g>
    <g id="xtick_65">
     <g id="line2d_71">
      <g>
       <use style="stroke:#000000;stroke-width:0.6;" x="390.326179" xlink:href="#ma3a4a42836" y="162.018125"/>
      </g>
     </g>
    </g>
    <g id="xtick_66">
     <g id="line2d_72">
      <g>
       <use style="stroke:#000000;stroke-width:0.6;" x="395.796548" xlink:href="#ma3a4a42836" y="162.018125"/>
      </g>
     </g>
    </g>
    <g id="xtick_67">
     <g id="line2d_73">
      <g>
       <use style="stroke:#000000;stroke-width:0.6;" x="401.266916" xlink:href="#ma3a4a42836" y="162.018125"/>
      </g>
     </g>
    </g>
    <g id="xtick_68">
     <g id="line2d_74">
      <g>
       <use style="stroke:#000000;stroke-width:0.6;" x="406.737284" xlink:href="#ma3a4a42836" y="162.018125"/>
      </g>
     </g>
    </g>
    <g id="xtick_69">
     <g id="line2d_75">
      <g>
       <use style="stroke:#000000;stroke-width:0.6;" x="412.207652" xlink:href="#ma3a4a42836" y="162.018125"/>
      </g>
     </g>
    </g>
    <g id="xtick_70">
     <g id="line2d_76">
      <g>
       <use style="stroke:#000000;stroke-width:0.6;" x="417.67802" xlink:href="#ma3a4a42836" y="162.018125"/>
      </g>
     </g>
    </g>
    <g id="xtick_71">
     <g id="line2d_77">
      <g>
       <use style="stroke:#000000;stroke-width:0.6;" x="423.148388" xlink:href="#ma3a4a42836" y="162.018125"/>
      </g>
     </g>
    </g>
    <g id="xtick_72">
     <g id="line2d_78">
      <g>
       <use style="stroke:#000000;stroke-width:0.6;" x="428.618756" xlink:href="#ma3a4a42836" y="162.018125"/>
      </g>
     </g>
    </g>
    <g id="xtick_73">
     <g id="line2d_79">
      <g>
       <use style="stroke:#000000;stroke-width:0.6;" x="439.559493" xlink:href="#ma3a4a42836" y="162.018125"/>
      </g>
     </g>
    </g>
    <g id="xtick_74">
     <g id="line2d_80">
      <g>
       <use style="stroke:#000000;stroke-width:0.6;" x="445.029861" xlink:href="#ma3a4a42836" y="162.018125"/>
      </g>
     </g>
    </g>
    <g id="xtick_75">
     <g id="line2d_81">
      <g>
       <use style="stroke:#000000;stroke-width:0.6;" x="450.500229" xlink:href="#ma3a4a42836" y="162.018125"/>
      </g>
     </g>
    </g>
    <g id="xtick_76">
     <g id="line2d_82">
      <g>
       <use style="stroke:#000000;stroke-width:0.6;" x="455.970597" xlink:href="#ma3a4a42836" y="162.018125"/>
      </g>
     </g>
    </g>
    <g id="xtick_77">
     <g id="line2d_83">
      <g>
       <use style="stroke:#000000;stroke-width:0.6;" x="461.440965" xlink:href="#ma3a4a42836" y="162.018125"/>
      </g>
     </g>
    </g>
    <g id="xtick_78">
     <g id="line2d_84">
      <g>
       <use style="stroke:#000000;stroke-width:0.6;" x="466.911333" xlink:href="#ma3a4a42836" y="162.018125"/>
      </g>
     </g>
    </g>
    <g id="xtick_79">
     <g id="line2d_85">
      <g>
       <use style="stroke:#000000;stroke-width:0.6;" x="472.381702" xlink:href="#ma3a4a42836" y="162.018125"/>
      </g>
     </g>
    </g>
    <g id="xtick_80">
     <g id="line2d_86">
      <g>
       <use style="stroke:#000000;stroke-width:0.6;" x="477.85207" xlink:href="#ma3a4a42836" y="162.018125"/>
      </g>
     </g>
    </g>
    <g id="xtick_81">
     <g id="line2d_87">
      <g>
       <use style="stroke:#000000;stroke-width:0.6;" x="483.322438" xlink:href="#ma3a4a42836" y="162.018125"/>
      </g>
     </g>
    </g>
    <g id="xtick_82">
     <g id="line2d_88">
      <g>
       <use style="stroke:#000000;stroke-width:0.6;" x="488.792806" xlink:href="#ma3a4a42836" y="162.018125"/>
      </g>
     </g>
    </g>
    <g id="xtick_83">
     <g id="line2d_89">
      <g>
       <use style="stroke:#000000;stroke-width:0.6;" x="494.263174" xlink:href="#ma3a4a42836" y="162.018125"/>
      </g>
     </g>
    </g>
    <g id="xtick_84">
     <g id="line2d_90">
      <g>
       <use style="stroke:#000000;stroke-width:0.6;" x="499.733542" xlink:href="#ma3a4a42836" y="162.018125"/>
      </g>
     </g>
    </g>
    <g id="xtick_85">
     <g id="line2d_91">
      <g>
       <use style="stroke:#000000;stroke-width:0.6;" x="505.203911" xlink:href="#ma3a4a42836" y="162.018125"/>
      </g>
     </g>
    </g>
    <g id="xtick_86">
     <g id="line2d_92">
      <g>
       <use style="stroke:#000000;stroke-width:0.6;" x="510.674279" xlink:href="#ma3a4a42836" y="162.018125"/>
      </g>
     </g>
    </g>
    <g id="xtick_87">
     <g id="line2d_93">
      <g>
       <use style="stroke:#000000;stroke-width:0.6;" x="516.144647" xlink:href="#ma3a4a42836" y="162.018125"/>
      </g>
     </g>
    </g>
    <g id="xtick_88">
     <g id="line2d_94">
      <g>
       <use style="stroke:#000000;stroke-width:0.6;" x="521.615015" xlink:href="#ma3a4a42836" y="162.018125"/>
      </g>
     </g>
    </g>
    <g id="xtick_89">
     <g id="line2d_95">
      <g>
       <use style="stroke:#000000;stroke-width:0.6;" x="527.085383" xlink:href="#ma3a4a42836" y="162.018125"/>
      </g>
     </g>
    </g>
    <g id="xtick_90">
     <g id="line2d_96">
      <g>
       <use style="stroke:#000000;stroke-width:0.6;" x="532.555751" xlink:href="#ma3a4a42836" y="162.018125"/>
      </g>
     </g>
    </g>
    <g id="xtick_91">
     <g id="line2d_97">
      <g>
       <use style="stroke:#000000;stroke-width:0.6;" x="538.026119" xlink:href="#ma3a4a42836" y="162.018125"/>
      </g>
     </g>
    </g>
    <g id="xtick_92">
     <g id="line2d_98">
      <g>
       <use style="stroke:#000000;stroke-width:0.6;" x="543.496488" xlink:href="#ma3a4a42836" y="162.018125"/>
      </g>
     </g>
    </g>
    <g id="xtick_93">
     <g id="line2d_99">
      <g>
       <use style="stroke:#000000;stroke-width:0.6;" x="548.966856" xlink:href="#ma3a4a42836" y="162.018125"/>
      </g>
     </g>
    </g>
    <g id="xtick_94">
     <g id="line2d_100">
      <g>
       <use style="stroke:#000000;stroke-width:0.6;" x="554.437224" xlink:href="#ma3a4a42836" y="162.018125"/>
      </g>
     </g>
    </g>
    <g id="xtick_95">
     <g id="line2d_101">
      <g>
       <use style="stroke:#000000;stroke-width:0.6;" x="559.907592" xlink:href="#ma3a4a42836" y="162.018125"/>
      </g>
     </g>
    </g>
    <g id="xtick_96">
     <g id="line2d_102">
      <g>
       <use style="stroke:#000000;stroke-width:0.6;" x="565.37796" xlink:href="#ma3a4a42836" y="162.018125"/>
      </g>
     </g>
    </g>
    <g id="xtick_97">
     <g id="line2d_103">
      <g>
       <use style="stroke:#000000;stroke-width:0.6;" x="570.848328" xlink:href="#ma3a4a42836" y="162.018125"/>
      </g>
     </g>
    </g>
    <g id="xtick_98">
     <g id="line2d_104">
      <g>
       <use style="stroke:#000000;stroke-width:0.6;" x="576.318696" xlink:href="#ma3a4a42836" y="162.018125"/>
      </g>
     </g>
    </g>
    <g id="xtick_99">
     <g id="line2d_105">
      <g>
       <use style="stroke:#000000;stroke-width:0.6;" x="581.789065" xlink:href="#ma3a4a42836" y="162.018125"/>
      </g>
     </g>
    </g>
    <g id="xtick_100">
     <g id="line2d_106">
      <g>
       <use style="stroke:#000000;stroke-width:0.6;" x="587.259433" xlink:href="#ma3a4a42836" y="162.018125"/>
      </g>
     </g>
    </g>
    <g id="xtick_101">
     <g id="line2d_107">
      <g>
       <use style="stroke:#000000;stroke-width:0.6;" x="592.729801" xlink:href="#ma3a4a42836" y="162.018125"/>
      </g>
     </g>
    </g>
    <g id="xtick_102">
     <g id="line2d_108">
      <g>
       <use style="stroke:#000000;stroke-width:0.6;" x="598.200169" xlink:href="#ma3a4a42836" y="162.018125"/>
      </g>
     </g>
    </g>
   </g>
   <g id="matplotlib.axis_4">
    <g id="ytick_6">
     <g id="line2d_109">
      <g>
       <use style="stroke:#000000;stroke-width:0.8;" x="373.133594" xlink:href="#m75189f5569" y="155.96899"/>
      </g>
     </g>
     <g id="text_28">
      <!-- 0 -->
      <g transform="translate(359.452969 159.95817)scale(0.105 -0.105)">
       <use xlink:href="#DejaVuSans-48"/>
      </g>
     </g>
    </g>
    <g id="ytick_7">
     <g id="line2d_110">
      <g>
       <use style="stroke:#000000;stroke-width:0.8;" x="373.133594" xlink:href="#m75189f5569" y="131.479981"/>
      </g>
     </g>
     <g id="text_29">
      <!-- 500 -->
      <g transform="translate(346.091719 135.469161)scale(0.105 -0.105)">
       <use xlink:href="#DejaVuSans-53"/>
       <use x="63.623047" xlink:href="#DejaVuSans-48"/>
       <use x="127.246094" xlink:href="#DejaVuSans-48"/>
      </g>
     </g>
    </g>
    <g id="ytick_8">
     <g id="line2d_111">
      <g>
       <use style="stroke:#000000;stroke-width:0.8;" x="373.133594" xlink:href="#m75189f5569" y="106.990972"/>
      </g>
     </g>
     <g id="text_30">
      <!-- 1000 -->
      <g transform="translate(339.411094 110.980152)scale(0.105 -0.105)">
       <use xlink:href="#DejaVuSans-49"/>
       <use x="63.623047" xlink:href="#DejaVuSans-48"/>
       <use x="127.246094" xlink:href="#DejaVuSans-48"/>
       <use x="190.869141" xlink:href="#DejaVuSans-48"/>
      </g>
     </g>
    </g>
    <g id="ytick_9">
     <g id="line2d_112">
      <g>
       <use style="stroke:#000000;stroke-width:0.8;" x="373.133594" xlink:href="#m75189f5569" y="82.501963"/>
      </g>
     </g>
     <g id="text_31">
      <!-- 1500 -->
      <g transform="translate(339.411094 86.491143)scale(0.105 -0.105)">
       <use xlink:href="#DejaVuSans-49"/>
       <use x="63.623047" xlink:href="#DejaVuSans-53"/>
       <use x="127.246094" xlink:href="#DejaVuSans-48"/>
       <use x="190.869141" xlink:href="#DejaVuSans-48"/>
      </g>
     </g>
    </g>
    <g id="ytick_10">
     <g id="line2d_113">
      <g>
       <use style="stroke:#000000;stroke-width:0.8;" x="373.133594" xlink:href="#m75189f5569" y="58.012954"/>
      </g>
     </g>
     <g id="text_32">
      <!-- 2000 -->
      <g transform="translate(339.411094 62.002134)scale(0.105 -0.105)">
       <use xlink:href="#DejaVuSans-50"/>
       <use x="63.623047" xlink:href="#DejaVuSans-48"/>
       <use x="127.246094" xlink:href="#DejaVuSans-48"/>
       <use x="190.869141" xlink:href="#DejaVuSans-48"/>
      </g>
     </g>
    </g>
    <g id="ytick_11">
     <g id="line2d_114">
      <g>
       <use style="stroke:#000000;stroke-width:0.8;" x="373.133594" xlink:href="#m75189f5569" y="33.523946"/>
      </g>
     </g>
     <g id="text_33">
      <!-- 2500 -->
      <g transform="translate(339.411094 37.513125)scale(0.105 -0.105)">
       <use xlink:href="#DejaVuSans-50"/>
       <use x="63.623047" xlink:href="#DejaVuSans-53"/>
       <use x="127.246094" xlink:href="#DejaVuSans-48"/>
       <use x="190.869141" xlink:href="#DejaVuSans-48"/>
      </g>
     </g>
    </g>
    <g id="text_34">
     <!-- Count -->
     <g transform="translate(333.019453 109.243828)rotate(-90)scale(0.115 -0.115)">
      <use xlink:href="#DejaVuSans-67"/>
      <use x="69.824219" xlink:href="#DejaVuSans-111"/>
      <use x="131.005859" xlink:href="#DejaVuSans-117"/>
      <use x="194.384766" xlink:href="#DejaVuSans-110"/>
      <use x="257.763672" xlink:href="#DejaVuSans-116"/>
     </g>
    </g>
   </g>
   <g id="line2d_115">
    <path clip-path="url(#p0a22340219)" d="M 373.133594 155.668125 
L 375.478037 155.12237 
L 376.259518 154.723549 
L 377.041 154.485656 
L 377.822481 153.981882 
L 379.385443 152.568516 
L 380.166924 151.211125 
L 381.729887 147.831642 
L 382.511368 145.333763 
L 383.292849 142.059233 
L 384.07433 139.799247 
L 384.855811 136.265833 
L 386.418774 125.8685 
L 387.981736 112.469513 
L 388.763217 106.599148 
L 389.544698 99.049536 
L 390.326179 92.752363 
L 391.107661 84.188207 
L 391.889142 76.93946 
L 392.670623 71.97169 
L 393.452104 63.90431 
L 394.233585 61.378444 
L 395.015066 60.126006 
L 395.796548 63.043697 
L 396.578029 56.102812 
L 397.35951 53.548958 
L 398.140991 51.568847 
L 398.922472 55.221207 
L 399.703953 56.928441 
L 400.485435 51.037085 
L 401.266916 46.216249 
L 402.829878 51.862715 
L 403.611359 54.990311 
L 404.39284 50.029538 
L 405.174321 46.782995 
L 405.955803 56.494636 
L 406.737284 59.545267 
L 407.518765 63.106668 
L 408.300246 59.209417 
L 409.081727 57.082372 
L 409.863208 63.197628 
L 410.64469 65.989375 
L 411.426171 64.268147 
L 412.207652 66.975932 
L 412.989133 65.366654 
L 413.770614 65.345663 
L 414.552095 65.891418 
L 415.333577 66.919957 
L 416.115058 67.346765 
L 416.896539 70.90117 
L 417.67802 71.285997 
L 419.240982 83.257624 
L 420.022464 85.062814 
L 420.803945 86.420205 
L 421.585426 88.967062 
L 422.366907 89.533807 
L 423.148388 88.883099 
L 423.929869 89.652754 
L 424.711351 91.08711 
L 425.492832 94.151735 
L 426.274313 95.837978 
L 427.055794 96.159833 
L 427.837275 97.146391 
L 428.618756 99.658263 
L 429.400238 105.787512 
L 430.181719 106.543173 
L 430.9632 107.704652 
L 431.744681 107.634683 
L 432.526162 109.397892 
L 433.307643 109.810707 
L 434.089125 109.971634 
L 434.870606 105.528629 
L 435.652087 108.327372 
L 436.433568 109.726744 
L 437.215049 110.769276 
L 437.99653 111.25206 
L 438.778012 112.560473 
L 439.559493 113.239168 
L 440.340974 115.583116 
L 441.903936 116.93351 
L 442.685417 119.200492 
L 443.466899 119.536342 
L 444.24838 120.019125 
L 445.029861 121.068654 
L 445.811342 122.440038 
L 446.592823 123.293655 
L 447.374304 124.525103 
L 448.155786 124.658043 
L 448.937267 125.840512 
L 449.718748 126.337289 
L 450.500229 126.596173 
L 451.28171 126.204349 
L 452.063191 126.428248 
L 452.844673 126.981 
L 453.626154 127.750655 
L 454.407635 114.981386 
L 455.189116 114.932408 
L 455.970597 115.093336 
L 456.752078 111.98673 
L 457.53356 112.441526 
L 458.315041 112.09868 
L 459.096522 112.357564 
L 459.878003 127.428799 
L 460.659484 127.750655 
L 461.440965 127.456787 
L 462.222446 129.975656 
L 463.003928 128.905137 
L 463.785409 126.680135 
L 464.56689 125.091848 
L 465.348371 121.978246 
L 466.129852 120.347977 
L 466.911333 120.620855 
L 467.692815 120.599864 
L 468.474296 120.236028 
L 469.255777 120.80977 
L 470.037258 120.648842 
L 470.818739 118.703715 
L 471.60022 118.815665 
L 472.381702 118.297897 
L 474.726145 114.127769 
L 475.507626 112.217626 
L 476.289107 112.441526 
L 477.070589 111.944749 
L 477.85207 107.025957 
L 478.633551 105.857481 
L 479.415032 102.310073 
L 480.196513 103.436568 
L 480.977994 101.232557 
L 481.759476 99.812194 
L 482.540957 100.784758 
L 483.322438 104.50009 
L 484.103919 104.199225 
L 484.8854 106.66212 
L 485.666881 104.514084 
L 486.448363 105.003864 
L 487.229844 106.095374 
L 488.011325 104.136253 
L 488.792806 105.052842 
L 489.574287 104.472103 
L 490.355768 103.142699 
L 491.13725 103.513533 
L 491.918731 104.926899 
L 492.700212 103.618486 
L 493.481693 104.262197 
L 494.263174 104.052291 
L 495.826137 106.19333 
L 497.389099 106.844038 
L 498.17058 107.86558 
L 498.952061 108.656225 
L 500.515024 109.411886 
L 501.296505 108.670219 
L 502.077986 108.817153 
L 502.859467 109.719747 
L 503.640948 109.159999 
L 504.422429 110.384449 
L 505.203911 110.174543 
L 505.985392 110.993176 
L 506.766873 113.610001 
L 508.329835 114.330678 
L 509.111316 115.995931 
L 509.892798 115.233273 
L 510.674279 116.807566 
L 511.45576 121.670384 
L 512.237241 120.627852 
L 513.018722 120.683827 
L 513.800203 119.697269 
L 514.581685 120.858748 
L 515.363166 120.94271 
L 516.144647 119.669282 
L 516.926128 114.848446 
L 517.707609 115.058351 
L 519.270571 117.64719 
L 520.052053 117.598211 
L 520.833534 118.304894 
L 522.396496 120.18705 
L 523.177977 120.487915 
L 523.959458 120.124078 
L 526.303902 120.005131 
L 527.085383 119.872191 
L 529.429827 121.558434 
L 530.211308 122.062208 
L 532.555751 121.572428 
L 533.337232 122.63595 
L 534.118714 123.251674 
L 535.681676 122.398057 
L 536.463157 121.964252 
L 537.244638 121.88029 
L 538.026119 122.39106 
L 538.807601 121.943261 
L 539.589082 123.517555 
L 540.370563 121.866296 
L 541.152044 122.356076 
L 541.933525 123.111737 
L 542.715006 123.048765 
L 543.496488 121.068654 
L 544.277969 120.305996 
L 545.05945 117.374312 
L 545.840931 118.598762 
L 546.622412 117.794124 
L 547.403893 118.255916 
L 548.185375 117.402299 
L 548.966856 117.108431 
L 549.748337 116.611654 
L 550.529818 118.067001 
L 551.311299 117.738149 
L 552.09278 117.710161 
L 552.874262 116.737598 
L 553.655743 117.038463 
L 554.437224 117.465271 
L 555.218705 115.135317 
L 556.000186 113.770929 
L 556.781667 113.008272 
L 557.563149 111.587909 
L 558.34463 110.482405 
L 559.126111 110.279496 
L 559.907592 107.711649 
L 560.689073 107.578708 
L 561.470554 104.842936 
L 562.252036 107.207875 
L 563.033517 104.507087 
L 563.814998 102.512982 
L 564.596479 101.449459 
L 565.37796 102.750875 
L 566.159441 101.855277 
L 566.940923 99.322414 
L 567.722404 89.316905 
L 568.503885 88.799137 
L 569.285366 90.387424 
L 570.848328 80.304949 
L 571.62981 76.862494 
L 572.411291 74.476565 
L 573.192772 81.340485 
L 573.974253 84.349134 
L 574.755734 82.362026 
L 575.537215 86.595126 
L 576.318696 86.490173 
L 577.100178 84.083254 
L 577.881659 80.808723 
L 579.444621 61.112563 
L 580.226102 54.416569 
L 581.007583 52.177574 
L 582.570546 50.981111 
L 583.352027 47.559646 
L 584.133508 47.244787 
L 584.914989 41.584328 
L 585.69647 41.500366 
L 586.477952 39.12843 
L 587.259433 37.757046 
L 588.040914 34.769387 
L 588.822395 33.230078 
L 589.603876 28.668125 
L 590.385357 35.105236 
L 591.166839 34.573475 
L 591.94832 34.489512 
L 592.729801 37.253272 
L 593.511282 32.22253 
L 594.292763 37.07835 
L 595.074244 38.16986 
L 595.855726 49.812635 
L 596.637207 58.600691 
L 597.418688 60.49684 
L 598.200169 48.525213 
L 598.98165 49.931582 
L 599.763131 44.592978 
L 600.544613 43.312552 
L 601.326094 28.738094 
L 601.326094 28.738094 
" style="fill:none;stroke:#1f77b4;stroke-linecap:square;stroke-width:1.5;"/>
   </g>
   <g id="patch_12">
    <path d="M 373.133594 162.018125 
L 373.133594 22.318125 
" style="fill:none;stroke:#000000;stroke-linecap:square;stroke-linejoin:miter;stroke-width:0.8;"/>
   </g>
   <g id="patch_13">
    <path d="M 601.326094 162.018125 
L 601.326094 22.318125 
" style="fill:none;stroke:#000000;stroke-linecap:square;stroke-linejoin:miter;stroke-width:0.8;"/>
   </g>
   <g id="patch_14">
    <path d="M 373.133594 162.018125 
L 601.326094 162.018125 
" style="fill:none;stroke:#000000;stroke-linecap:square;stroke-linejoin:miter;stroke-width:0.8;"/>
   </g>
   <g id="patch_15">
    <path d="M 373.133594 22.318125 
L 601.326094 22.318125 
" style="fill:none;stroke:#000000;stroke-linecap:square;stroke-linejoin:miter;stroke-width:0.8;"/>
   </g>
   <g id="text_35">
    <!-- COVID-19 Deaths -->
    <g transform="translate(434.952031 16.318125)scale(0.12 -0.12)">
     <defs>
      <path d="M 54.890625 33.015625 
L 54.890625 0 
L 45.90625 0 
L 45.90625 32.71875 
Q 45.90625 40.484375 42.875 44.328125 
Q 39.84375 48.1875 33.796875 48.1875 
Q 26.515625 48.1875 22.3125 43.546875 
Q 18.109375 38.921875 18.109375 30.90625 
L 18.109375 0 
L 9.078125 0 
L 9.078125 75.984375 
L 18.109375 75.984375 
L 18.109375 46.1875 
Q 21.34375 51.125 25.703125 53.5625 
Q 30.078125 56 35.796875 56 
Q 45.21875 56 50.046875 50.171875 
Q 54.890625 44.34375 54.890625 33.015625 
z
" id="DejaVuSans-104"/>
     </defs>
     <use xlink:href="#DejaVuSans-67"/>
     <use x="69.824219" xlink:href="#DejaVuSans-79"/>
     <use x="146.785156" xlink:href="#DejaVuSans-86"/>
     <use x="215.193359" xlink:href="#DejaVuSans-73"/>
     <use x="244.685547" xlink:href="#DejaVuSans-68"/>
     <use x="321.6875" xlink:href="#DejaVuSans-45"/>
     <use x="357.771484" xlink:href="#DejaVuSans-49"/>
     <use x="421.394531" xlink:href="#DejaVuSans-57"/>
     <use x="485.017578" xlink:href="#DejaVuSans-32"/>
     <use x="516.804688" xlink:href="#DejaVuSans-68"/>
     <use x="593.806641" xlink:href="#DejaVuSans-101"/>
     <use x="655.330078" xlink:href="#DejaVuSans-97"/>
     <use x="716.609375" xlink:href="#DejaVuSans-116"/>
     <use x="755.818359" xlink:href="#DejaVuSans-104"/>
     <use x="819.197266" xlink:href="#DejaVuSans-115"/>
    </g>
   </g>
  </g>
  <g id="axes_3">
   <g id="patch_16">
    <path d="M 676.853594 162.018125 
L 905.046094 162.018125 
L 905.046094 22.318125 
L 676.853594 22.318125 
z
" style="fill:#ffffff;"/>
   </g>
   <g id="patch_17">
    <path clip-path="url(#p96311d4e7a)" d="M 880.820178 162.018125 
L 880.820178 22.318125 
L 905.046094 22.318125 
L 905.046094 162.018125 
z
" style="fill:#808080;opacity:0.5;"/>
   </g>
   <g id="patch_18">
    <path clip-path="url(#p96311d4e7a)" d="M 676.853594 162.018125 
L 676.853594 22.318125 
L 689.357292 22.318125 
L 689.357292 162.018125 
z
" style="fill:#808080;opacity:0.5;"/>
   </g>
   <g id="matplotlib.axis_5">
    <g id="xtick_103">
     <g id="line2d_116">
      <g>
       <use style="stroke:#000000;stroke-width:0.8;" x="690.138774" xlink:href="#m7789218508" y="162.018125"/>
      </g>
     </g>
     <g id="text_36">
      <!-- 2020-04 -->
      <g transform="translate(651.052712 197.863563)rotate(-30)scale(0.105 -0.105)">
       <use xlink:href="#DejaVuSans-50"/>
       <use x="63.623047" xlink:href="#DejaVuSans-48"/>
       <use x="127.246094" xlink:href="#DejaVuSans-50"/>
       <use x="190.869141" xlink:href="#DejaVuSans-48"/>
       <use x="254.492188" xlink:href="#DejaVuSans-45"/>
       <use x="290.576172" xlink:href="#DejaVuSans-48"/>
       <use x="354.199219" xlink:href="#DejaVuSans-52"/>
      </g>
     </g>
    </g>
    <g id="xtick_104">
     <g id="line2d_117">
      <g>
       <use style="stroke:#000000;stroke-width:0.8;" x="713.583208" xlink:href="#m7789218508" y="162.018125"/>
      </g>
     </g>
     <g id="text_37">
      <!-- 2020-05 -->
      <g transform="translate(674.497147 197.863563)rotate(-30)scale(0.105 -0.105)">
       <use xlink:href="#DejaVuSans-50"/>
       <use x="63.623047" xlink:href="#DejaVuSans-48"/>
       <use x="127.246094" xlink:href="#DejaVuSans-50"/>
       <use x="190.869141" xlink:href="#DejaVuSans-48"/>
       <use x="254.492188" xlink:href="#DejaVuSans-45"/>
       <use x="290.576172" xlink:href="#DejaVuSans-48"/>
       <use x="354.199219" xlink:href="#DejaVuSans-53"/>
      </g>
     </g>
    </g>
    <g id="xtick_105">
     <g id="line2d_118">
      <g>
       <use style="stroke:#000000;stroke-width:0.8;" x="737.809125" xlink:href="#m7789218508" y="162.018125"/>
      </g>
     </g>
     <g id="text_38">
      <!-- 2020-06 -->
      <g transform="translate(698.723063 197.863563)rotate(-30)scale(0.105 -0.105)">
       <use xlink:href="#DejaVuSans-50"/>
       <use x="63.623047" xlink:href="#DejaVuSans-48"/>
       <use x="127.246094" xlink:href="#DejaVuSans-50"/>
       <use x="190.869141" xlink:href="#DejaVuSans-48"/>
       <use x="254.492188" xlink:href="#DejaVuSans-45"/>
       <use x="290.576172" xlink:href="#DejaVuSans-48"/>
       <use x="354.199219" xlink:href="#DejaVuSans-54"/>
      </g>
     </g>
    </g>
    <g id="xtick_106">
     <g id="line2d_119">
      <g>
       <use style="stroke:#000000;stroke-width:0.8;" x="761.25356" xlink:href="#m7789218508" y="162.018125"/>
      </g>
     </g>
     <g id="text_39">
      <!-- 2020-07 -->
      <g transform="translate(722.167498 197.863563)rotate(-30)scale(0.105 -0.105)">
       <use xlink:href="#DejaVuSans-50"/>
       <use x="63.623047" xlink:href="#DejaVuSans-48"/>
       <use x="127.246094" xlink:href="#DejaVuSans-50"/>
       <use x="190.869141" xlink:href="#DejaVuSans-48"/>
       <use x="254.492188" xlink:href="#DejaVuSans-45"/>
       <use x="290.576172" xlink:href="#DejaVuSans-48"/>
       <use x="354.199219" xlink:href="#DejaVuSans-55"/>
      </g>
     </g>
    </g>
    <g id="xtick_107">
     <g id="line2d_120">
      <g>
       <use style="stroke:#000000;stroke-width:0.8;" x="785.479476" xlink:href="#m7789218508" y="162.018125"/>
      </g>
     </g>
     <g id="text_40">
      <!-- 2020-08 -->
      <g transform="translate(746.393414 197.863563)rotate(-30)scale(0.105 -0.105)">
       <use xlink:href="#DejaVuSans-50"/>
       <use x="63.623047" xlink:href="#DejaVuSans-48"/>
       <use x="127.246094" xlink:href="#DejaVuSans-50"/>
       <use x="190.869141" xlink:href="#DejaVuSans-48"/>
       <use x="254.492188" xlink:href="#DejaVuSans-45"/>
       <use x="290.576172" xlink:href="#DejaVuSans-48"/>
       <use x="354.199219" xlink:href="#DejaVuSans-56"/>
      </g>
     </g>
    </g>
    <g id="xtick_108">
     <g id="line2d_121">
      <g>
       <use style="stroke:#000000;stroke-width:0.8;" x="809.705392" xlink:href="#m7789218508" y="162.018125"/>
      </g>
     </g>
     <g id="text_41">
      <!-- 2020-09 -->
      <g transform="translate(770.61933 197.863563)rotate(-30)scale(0.105 -0.105)">
       <use xlink:href="#DejaVuSans-50"/>
       <use x="63.623047" xlink:href="#DejaVuSans-48"/>
       <use x="127.246094" xlink:href="#DejaVuSans-50"/>
       <use x="190.869141" xlink:href="#DejaVuSans-48"/>
       <use x="254.492188" xlink:href="#DejaVuSans-45"/>
       <use x="290.576172" xlink:href="#DejaVuSans-48"/>
       <use x="354.199219" xlink:href="#DejaVuSans-57"/>
      </g>
     </g>
    </g>
    <g id="xtick_109">
     <g id="line2d_122">
      <g>
       <use style="stroke:#000000;stroke-width:0.8;" x="833.149827" xlink:href="#m7789218508" y="162.018125"/>
      </g>
     </g>
     <g id="text_42">
      <!-- 2020-10 -->
      <g transform="translate(794.063765 197.863563)rotate(-30)scale(0.105 -0.105)">
       <use xlink:href="#DejaVuSans-50"/>
       <use x="63.623047" xlink:href="#DejaVuSans-48"/>
       <use x="127.246094" xlink:href="#DejaVuSans-50"/>
       <use x="190.869141" xlink:href="#DejaVuSans-48"/>
       <use x="254.492188" xlink:href="#DejaVuSans-45"/>
       <use x="290.576172" xlink:href="#DejaVuSans-49"/>
       <use x="354.199219" xlink:href="#DejaVuSans-48"/>
      </g>
     </g>
    </g>
    <g id="xtick_110">
     <g id="line2d_123">
      <g>
       <use style="stroke:#000000;stroke-width:0.8;" x="857.375743" xlink:href="#m7789218508" y="162.018125"/>
      </g>
     </g>
     <g id="text_43">
      <!-- 2020-11 -->
      <g transform="translate(818.289681 197.863563)rotate(-30)scale(0.105 -0.105)">
       <use xlink:href="#DejaVuSans-50"/>
       <use x="63.623047" xlink:href="#DejaVuSans-48"/>
       <use x="127.246094" xlink:href="#DejaVuSans-50"/>
       <use x="190.869141" xlink:href="#DejaVuSans-48"/>
       <use x="254.492188" xlink:href="#DejaVuSans-45"/>
       <use x="290.576172" xlink:href="#DejaVuSans-49"/>
       <use x="354.199219" xlink:href="#DejaVuSans-49"/>
      </g>
     </g>
    </g>
    <g id="xtick_111">
     <g id="line2d_124">
      <g>
       <use style="stroke:#000000;stroke-width:0.8;" x="880.820178" xlink:href="#m7789218508" y="162.018125"/>
      </g>
     </g>
     <g id="text_44">
      <!-- 2020-12 -->
      <g transform="translate(841.734116 197.863563)rotate(-30)scale(0.105 -0.105)">
       <use xlink:href="#DejaVuSans-50"/>
       <use x="63.623047" xlink:href="#DejaVuSans-48"/>
       <use x="127.246094" xlink:href="#DejaVuSans-50"/>
       <use x="190.869141" xlink:href="#DejaVuSans-48"/>
       <use x="254.492188" xlink:href="#DejaVuSans-45"/>
       <use x="290.576172" xlink:href="#DejaVuSans-49"/>
       <use x="354.199219" xlink:href="#DejaVuSans-50"/>
      </g>
     </g>
    </g>
    <g id="xtick_112">
     <g id="line2d_125">
      <g>
       <use style="stroke:#000000;stroke-width:0.8;" x="905.046094" xlink:href="#m7789218508" y="162.018125"/>
      </g>
     </g>
     <g id="text_45">
      <!-- 2021-01 -->
      <g transform="translate(865.960032 197.863563)rotate(-30)scale(0.105 -0.105)">
       <use xlink:href="#DejaVuSans-50"/>
       <use x="63.623047" xlink:href="#DejaVuSans-48"/>
       <use x="127.246094" xlink:href="#DejaVuSans-50"/>
       <use x="190.869141" xlink:href="#DejaVuSans-49"/>
       <use x="254.492188" xlink:href="#DejaVuSans-45"/>
       <use x="290.576172" xlink:href="#DejaVuSans-48"/>
       <use x="354.199219" xlink:href="#DejaVuSans-49"/>
      </g>
     </g>
    </g>
    <g id="xtick_113">
     <g id="line2d_126">
      <g>
       <use style="stroke:#000000;stroke-width:0.6;" x="677.635075" xlink:href="#ma3a4a42836" y="162.018125"/>
      </g>
     </g>
    </g>
    <g id="xtick_114">
     <g id="line2d_127">
      <g>
       <use style="stroke:#000000;stroke-width:0.6;" x="683.105443" xlink:href="#ma3a4a42836" y="162.018125"/>
      </g>
     </g>
    </g>
    <g id="xtick_115">
     <g id="line2d_128">
      <g>
       <use style="stroke:#000000;stroke-width:0.6;" x="688.575811" xlink:href="#ma3a4a42836" y="162.018125"/>
      </g>
     </g>
    </g>
    <g id="xtick_116">
     <g id="line2d_129">
      <g>
       <use style="stroke:#000000;stroke-width:0.6;" x="694.046179" xlink:href="#ma3a4a42836" y="162.018125"/>
      </g>
     </g>
    </g>
    <g id="xtick_117">
     <g id="line2d_130">
      <g>
       <use style="stroke:#000000;stroke-width:0.6;" x="699.516548" xlink:href="#ma3a4a42836" y="162.018125"/>
      </g>
     </g>
    </g>
    <g id="xtick_118">
     <g id="line2d_131">
      <g>
       <use style="stroke:#000000;stroke-width:0.6;" x="704.986916" xlink:href="#ma3a4a42836" y="162.018125"/>
      </g>
     </g>
    </g>
    <g id="xtick_119">
     <g id="line2d_132">
      <g>
       <use style="stroke:#000000;stroke-width:0.6;" x="710.457284" xlink:href="#ma3a4a42836" y="162.018125"/>
      </g>
     </g>
    </g>
    <g id="xtick_120">
     <g id="line2d_133">
      <g>
       <use style="stroke:#000000;stroke-width:0.6;" x="715.927652" xlink:href="#ma3a4a42836" y="162.018125"/>
      </g>
     </g>
    </g>
    <g id="xtick_121">
     <g id="line2d_134">
      <g>
       <use style="stroke:#000000;stroke-width:0.6;" x="721.39802" xlink:href="#ma3a4a42836" y="162.018125"/>
      </g>
     </g>
    </g>
    <g id="xtick_122">
     <g id="line2d_135">
      <g>
       <use style="stroke:#000000;stroke-width:0.6;" x="726.868388" xlink:href="#ma3a4a42836" y="162.018125"/>
      </g>
     </g>
    </g>
    <g id="xtick_123">
     <g id="line2d_136">
      <g>
       <use style="stroke:#000000;stroke-width:0.6;" x="732.338756" xlink:href="#ma3a4a42836" y="162.018125"/>
      </g>
     </g>
    </g>
    <g id="xtick_124">
     <g id="line2d_137">
      <g>
       <use style="stroke:#000000;stroke-width:0.6;" x="743.279493" xlink:href="#ma3a4a42836" y="162.018125"/>
      </g>
     </g>
    </g>
    <g id="xtick_125">
     <g id="line2d_138">
      <g>
       <use style="stroke:#000000;stroke-width:0.6;" x="748.749861" xlink:href="#ma3a4a42836" y="162.018125"/>
      </g>
     </g>
    </g>
    <g id="xtick_126">
     <g id="line2d_139">
      <g>
       <use style="stroke:#000000;stroke-width:0.6;" x="754.220229" xlink:href="#ma3a4a42836" y="162.018125"/>
      </g>
     </g>
    </g>
    <g id="xtick_127">
     <g id="line2d_140">
      <g>
       <use style="stroke:#000000;stroke-width:0.6;" x="759.690597" xlink:href="#ma3a4a42836" y="162.018125"/>
      </g>
     </g>
    </g>
    <g id="xtick_128">
     <g id="line2d_141">
      <g>
       <use style="stroke:#000000;stroke-width:0.6;" x="765.160965" xlink:href="#ma3a4a42836" y="162.018125"/>
      </g>
     </g>
    </g>
    <g id="xtick_129">
     <g id="line2d_142">
      <g>
       <use style="stroke:#000000;stroke-width:0.6;" x="770.631333" xlink:href="#ma3a4a42836" y="162.018125"/>
      </g>
     </g>
    </g>
    <g id="xtick_130">
     <g id="line2d_143">
      <g>
       <use style="stroke:#000000;stroke-width:0.6;" x="776.101702" xlink:href="#ma3a4a42836" y="162.018125"/>
      </g>
     </g>
    </g>
    <g id="xtick_131">
     <g id="line2d_144">
      <g>
       <use style="stroke:#000000;stroke-width:0.6;" x="781.57207" xlink:href="#ma3a4a42836" y="162.018125"/>
      </g>
     </g>
    </g>
    <g id="xtick_132">
     <g id="line2d_145">
      <g>
       <use style="stroke:#000000;stroke-width:0.6;" x="787.042438" xlink:href="#ma3a4a42836" y="162.018125"/>
      </g>
     </g>
    </g>
    <g id="xtick_133">
     <g id="line2d_146">
      <g>
       <use style="stroke:#000000;stroke-width:0.6;" x="792.512806" xlink:href="#ma3a4a42836" y="162.018125"/>
      </g>
     </g>
    </g>
    <g id="xtick_134">
     <g id="line2d_147">
      <g>
       <use style="stroke:#000000;stroke-width:0.6;" x="797.983174" xlink:href="#ma3a4a42836" y="162.018125"/>
      </g>
     </g>
    </g>
    <g id="xtick_135">
     <g id="line2d_148">
      <g>
       <use style="stroke:#000000;stroke-width:0.6;" x="803.453542" xlink:href="#ma3a4a42836" y="162.018125"/>
      </g>
     </g>
    </g>
    <g id="xtick_136">
     <g id="line2d_149">
      <g>
       <use style="stroke:#000000;stroke-width:0.6;" x="808.923911" xlink:href="#ma3a4a42836" y="162.018125"/>
      </g>
     </g>
    </g>
    <g id="xtick_137">
     <g id="line2d_150">
      <g>
       <use style="stroke:#000000;stroke-width:0.6;" x="814.394279" xlink:href="#ma3a4a42836" y="162.018125"/>
      </g>
     </g>
    </g>
    <g id="xtick_138">
     <g id="line2d_151">
      <g>
       <use style="stroke:#000000;stroke-width:0.6;" x="819.864647" xlink:href="#ma3a4a42836" y="162.018125"/>
      </g>
     </g>
    </g>
    <g id="xtick_139">
     <g id="line2d_152">
      <g>
       <use style="stroke:#000000;stroke-width:0.6;" x="825.335015" xlink:href="#ma3a4a42836" y="162.018125"/>
      </g>
     </g>
    </g>
    <g id="xtick_140">
     <g id="line2d_153">
      <g>
       <use style="stroke:#000000;stroke-width:0.6;" x="830.805383" xlink:href="#ma3a4a42836" y="162.018125"/>
      </g>
     </g>
    </g>
    <g id="xtick_141">
     <g id="line2d_154">
      <g>
       <use style="stroke:#000000;stroke-width:0.6;" x="836.275751" xlink:href="#ma3a4a42836" y="162.018125"/>
      </g>
     </g>
    </g>
    <g id="xtick_142">
     <g id="line2d_155">
      <g>
       <use style="stroke:#000000;stroke-width:0.6;" x="841.746119" xlink:href="#ma3a4a42836" y="162.018125"/>
      </g>
     </g>
    </g>
    <g id="xtick_143">
     <g id="line2d_156">
      <g>
       <use style="stroke:#000000;stroke-width:0.6;" x="847.216488" xlink:href="#ma3a4a42836" y="162.018125"/>
      </g>
     </g>
    </g>
    <g id="xtick_144">
     <g id="line2d_157">
      <g>
       <use style="stroke:#000000;stroke-width:0.6;" x="852.686856" xlink:href="#ma3a4a42836" y="162.018125"/>
      </g>
     </g>
    </g>
    <g id="xtick_145">
     <g id="line2d_158">
      <g>
       <use style="stroke:#000000;stroke-width:0.6;" x="858.157224" xlink:href="#ma3a4a42836" y="162.018125"/>
      </g>
     </g>
    </g>
    <g id="xtick_146">
     <g id="line2d_159">
      <g>
       <use style="stroke:#000000;stroke-width:0.6;" x="863.627592" xlink:href="#ma3a4a42836" y="162.018125"/>
      </g>
     </g>
    </g>
    <g id="xtick_147">
     <g id="line2d_160">
      <g>
       <use style="stroke:#000000;stroke-width:0.6;" x="869.09796" xlink:href="#ma3a4a42836" y="162.018125"/>
      </g>
     </g>
    </g>
    <g id="xtick_148">
     <g id="line2d_161">
      <g>
       <use style="stroke:#000000;stroke-width:0.6;" x="874.568328" xlink:href="#ma3a4a42836" y="162.018125"/>
      </g>
     </g>
    </g>
    <g id="xtick_149">
     <g id="line2d_162">
      <g>
       <use style="stroke:#000000;stroke-width:0.6;" x="880.038696" xlink:href="#ma3a4a42836" y="162.018125"/>
      </g>
     </g>
    </g>
    <g id="xtick_150">
     <g id="line2d_163">
      <g>
       <use style="stroke:#000000;stroke-width:0.6;" x="885.509065" xlink:href="#ma3a4a42836" y="162.018125"/>
      </g>
     </g>
    </g>
    <g id="xtick_151">
     <g id="line2d_164">
      <g>
       <use style="stroke:#000000;stroke-width:0.6;" x="890.979433" xlink:href="#ma3a4a42836" y="162.018125"/>
      </g>
     </g>
    </g>
    <g id="xtick_152">
     <g id="line2d_165">
      <g>
       <use style="stroke:#000000;stroke-width:0.6;" x="896.449801" xlink:href="#ma3a4a42836" y="162.018125"/>
      </g>
     </g>
    </g>
    <g id="xtick_153">
     <g id="line2d_166">
      <g>
       <use style="stroke:#000000;stroke-width:0.6;" x="901.920169" xlink:href="#ma3a4a42836" y="162.018125"/>
      </g>
     </g>
    </g>
   </g>
   <g id="matplotlib.axis_6">
    <g id="ytick_12">
     <g id="line2d_167">
      <g>
       <use style="stroke:#000000;stroke-width:0.8;" x="676.853594" xlink:href="#m75189f5569" y="162.018125"/>
      </g>
     </g>
     <g id="text_46">
      <!-- 0.00 -->
      <g transform="translate(646.474688 166.007305)scale(0.105 -0.105)">
       <defs>
        <path d="M 10.6875 12.40625 
L 21 12.40625 
L 21 0 
L 10.6875 0 
z
" id="DejaVuSans-46"/>
       </defs>
       <use xlink:href="#DejaVuSans-48"/>
       <use x="63.623047" xlink:href="#DejaVuSans-46"/>
       <use x="95.410156" xlink:href="#DejaVuSans-48"/>
       <use x="159.033203" xlink:href="#DejaVuSans-48"/>
      </g>
     </g>
    </g>
    <g id="ytick_13">
     <g id="line2d_168">
      <g>
       <use style="stroke:#000000;stroke-width:0.8;" x="676.853594" xlink:href="#m75189f5569" y="127.093125"/>
      </g>
     </g>
     <g id="text_47">
      <!-- 0.02 -->
      <g transform="translate(646.474688 131.082305)scale(0.105 -0.105)">
       <use xlink:href="#DejaVuSans-48"/>
       <use x="63.623047" xlink:href="#DejaVuSans-46"/>
       <use x="95.410156" xlink:href="#DejaVuSans-48"/>
       <use x="159.033203" xlink:href="#DejaVuSans-50"/>
      </g>
     </g>
    </g>
    <g id="ytick_14">
     <g id="line2d_169">
      <g>
       <use style="stroke:#000000;stroke-width:0.8;" x="676.853594" xlink:href="#m75189f5569" y="92.168125"/>
      </g>
     </g>
     <g id="text_48">
      <!-- 0.04 -->
      <g transform="translate(646.474688 96.157305)scale(0.105 -0.105)">
       <use xlink:href="#DejaVuSans-48"/>
       <use x="63.623047" xlink:href="#DejaVuSans-46"/>
       <use x="95.410156" xlink:href="#DejaVuSans-48"/>
       <use x="159.033203" xlink:href="#DejaVuSans-52"/>
      </g>
     </g>
    </g>
    <g id="ytick_15">
     <g id="line2d_170">
      <g>
       <use style="stroke:#000000;stroke-width:0.8;" x="676.853594" xlink:href="#m75189f5569" y="57.243125"/>
      </g>
     </g>
     <g id="text_49">
      <!-- 0.06 -->
      <g transform="translate(646.474688 61.232305)scale(0.105 -0.105)">
       <use xlink:href="#DejaVuSans-48"/>
       <use x="63.623047" xlink:href="#DejaVuSans-46"/>
       <use x="95.410156" xlink:href="#DejaVuSans-48"/>
       <use x="159.033203" xlink:href="#DejaVuSans-54"/>
      </g>
     </g>
    </g>
    <g id="ytick_16">
     <g id="line2d_171">
      <g>
       <use style="stroke:#000000;stroke-width:0.8;" x="676.853594" xlink:href="#m75189f5569" y="22.318125"/>
      </g>
     </g>
     <g id="text_50">
      <!-- 0.08 -->
      <g transform="translate(646.474688 26.307305)scale(0.105 -0.105)">
       <use xlink:href="#DejaVuSans-48"/>
       <use x="63.623047" xlink:href="#DejaVuSans-46"/>
       <use x="95.410156" xlink:href="#DejaVuSans-48"/>
       <use x="159.033203" xlink:href="#DejaVuSans-56"/>
      </g>
     </g>
    </g>
    <g id="text_51">
     <!-- Ratio -->
     <g transform="translate(640.083047 106.927656)rotate(-90)scale(0.115 -0.115)">
      <defs>
       <path d="M 44.390625 34.1875 
Q 47.5625 33.109375 50.5625 29.59375 
Q 53.5625 26.078125 56.59375 19.921875 
L 66.609375 0 
L 56 0 
L 46.6875 18.703125 
Q 43.0625 26.03125 39.671875 28.421875 
Q 36.28125 30.8125 30.421875 30.8125 
L 19.671875 30.8125 
L 19.671875 0 
L 9.8125 0 
L 9.8125 72.90625 
L 32.078125 72.90625 
Q 44.578125 72.90625 50.734375 67.671875 
Q 56.890625 62.453125 56.890625 51.90625 
Q 56.890625 45.015625 53.6875 40.46875 
Q 50.484375 35.9375 44.390625 34.1875 
z
M 19.671875 64.796875 
L 19.671875 38.921875 
L 32.078125 38.921875 
Q 39.203125 38.921875 42.84375 42.21875 
Q 46.484375 45.515625 46.484375 51.90625 
Q 46.484375 58.296875 42.84375 61.546875 
Q 39.203125 64.796875 32.078125 64.796875 
z
" id="DejaVuSans-82"/>
       <path d="M 9.421875 54.6875 
L 18.40625 54.6875 
L 18.40625 0 
L 9.421875 0 
z
M 9.421875 75.984375 
L 18.40625 75.984375 
L 18.40625 64.59375 
L 9.421875 64.59375 
z
" id="DejaVuSans-105"/>
      </defs>
      <use xlink:href="#DejaVuSans-82"/>
      <use x="67.232422" xlink:href="#DejaVuSans-97"/>
      <use x="128.511719" xlink:href="#DejaVuSans-116"/>
      <use x="167.720703" xlink:href="#DejaVuSans-105"/>
      <use x="195.503906" xlink:href="#DejaVuSans-111"/>
     </g>
    </g>
   </g>
   <g id="line2d_172">
    <path clip-path="url(#p96311d4e7a)" d="M 676.853594 139.104256 
L 677.635075 131.743942 
L 678.416556 133.831408 
L 679.198037 135.186855 
L 679.979518 137.151525 
L 680.761 140.029232 
L 681.542481 140.915406 
L 682.323962 140.06407 
L 683.105443 140.333892 
L 683.886924 137.064357 
L 684.668405 134.929662 
L 685.449887 133.349048 
L 686.231368 130.208387 
L 687.012849 126.050274 
L 687.79433 124.650917 
L 688.575811 120.983378 
L 690.138774 110.047406 
L 690.920255 103.342361 
L 692.483217 96.391797 
L 693.264698 88.678474 
L 694.046179 83.757756 
L 694.827661 76.23622 
L 695.609142 70.308517 
L 696.390623 66.811959 
L 697.172104 56.684033 
L 697.953585 52.486576 
L 698.735066 52.32998 
L 699.516548 53.211862 
L 700.298029 42.327068 
L 701.07951 37.778257 
L 701.860991 34.574759 
L 702.642472 37.688109 
L 703.423953 37.744397 
L 704.205435 28.92478 
L 704.986916 23.907898 
L 705.768397 27.47121 
L 706.549878 30.194412 
L 707.331359 33.571449 
L 708.11284 31.55538 
L 708.894321 31.566833 
L 709.675803 43.375536 
L 710.457284 44.92683 
L 711.238765 48.488736 
L 712.020246 43.227186 
L 712.801727 38.994591 
L 713.583208 44.073819 
L 714.36469 45.246118 
L 715.146171 42.815889 
L 715.927652 45.666103 
L 716.709133 43.572016 
L 717.490614 40.834062 
L 718.272095 40.677063 
L 719.835058 35.755081 
L 720.616539 37.228064 
L 721.39802 34.895713 
L 722.960982 49.035583 
L 723.742464 51.257875 
L 724.523945 51.665312 
L 725.305426 54.980308 
L 726.086907 54.782638 
L 726.868388 56.366441 
L 727.649869 56.998693 
L 728.431351 60.188316 
L 729.212832 64.502031 
L 729.994313 66.224782 
L 730.775794 65.344777 
L 732.338756 70.767257 
L 733.120238 79.283048 
L 734.6832 79.445925 
L 735.464681 80.234985 
L 736.246162 83.606986 
L 737.027643 83.327374 
L 737.809125 84.789203 
L 738.590606 78.741244 
L 739.372087 83.058486 
L 740.153568 85.008014 
L 740.935049 88.591833 
L 741.71653 89.336368 
L 742.498012 91.058669 
L 743.279493 90.1196 
L 744.060974 93.179946 
L 745.623936 96.254677 
L 746.405417 98.773053 
L 747.96838 102.36867 
L 748.749861 104.718453 
L 749.531342 109.035119 
L 750.312823 111.659112 
L 751.094304 114.910005 
L 751.875786 116.538101 
L 752.657267 119.730859 
L 753.438748 121.87303 
L 754.220229 124.426617 
L 755.00171 125.861206 
L 756.564673 130.333201 
L 757.346154 133.060434 
L 758.127635 121.704538 
L 759.690597 125.126009 
L 760.472078 123.894792 
L 761.25356 126.047961 
L 762.035041 127.612772 
L 762.816522 128.657279 
L 763.598003 140.381752 
L 764.379484 140.767951 
L 765.160965 141.450017 
L 765.942446 143.752992 
L 766.723928 143.440282 
L 767.505409 142.323859 
L 768.28689 142.103711 
L 769.068371 140.932112 
L 769.849852 140.795801 
L 770.631333 141.091756 
L 771.412815 141.725589 
L 772.194296 141.899102 
L 772.975777 142.803941 
L 773.757258 142.703985 
L 774.538739 141.888899 
L 775.32022 142.045163 
L 776.101702 141.777632 
L 779.227626 138.276694 
L 780.009107 138.343268 
L 780.790589 137.881228 
L 781.57207 135.15469 
L 782.353551 134.282475 
L 783.135032 132.911112 
L 783.916513 132.921774 
L 784.697994 131.442911 
L 786.260957 129.281385 
L 787.042438 131.54156 
L 787.823919 130.558336 
L 788.6054 130.271401 
L 789.386881 128.700473 
L 790.168363 128.196462 
L 790.949844 128.431773 
L 791.731325 128.146226 
L 792.512806 127.423431 
L 793.294287 127.42868 
L 794.075768 126.575903 
L 794.85725 126.426198 
L 795.638731 127.072431 
L 796.420212 125.823157 
L 797.201693 125.338874 
L 797.983174 124.992865 
L 798.764655 124.188227 
L 799.546137 123.923811 
L 801.109099 122.174047 
L 801.89058 122.226839 
L 804.235024 121.850161 
L 805.016505 121.246498 
L 806.579467 122.101976 
L 807.360948 121.449403 
L 808.142429 122.6333 
L 808.923911 122.235305 
L 810.486873 125.067881 
L 811.268354 124.900874 
L 812.049835 125.792762 
L 812.831316 127.35379 
L 813.612798 126.301745 
L 814.394279 126.530213 
L 815.17576 128.66888 
L 815.957241 126.925827 
L 816.738722 126.043196 
L 817.520203 124.543181 
L 818.301685 124.838805 
L 819.083166 125.590618 
L 819.864647 125.532573 
L 820.646128 122.346887 
L 822.20909 126.787988 
L 822.990571 128.156397 
L 824.553534 129.361893 
L 825.335015 130.524579 
L 826.116496 132.77309 
L 826.897977 132.124821 
L 827.679458 131.949327 
L 828.46094 132.584461 
L 829.242421 132.50305 
L 830.023902 132.702456 
L 831.586864 131.31891 
L 832.368345 132.522619 
L 833.149827 133.053735 
L 833.931308 132.775772 
L 834.712789 133.566748 
L 835.49427 133.296599 
L 836.275751 133.553486 
L 837.057232 134.768182 
L 837.838714 135.696934 
L 838.620195 136.30111 
L 839.401676 136.645854 
L 840.964638 136.821384 
L 841.746119 137.662657 
L 842.527601 138.003539 
L 843.309082 139.689988 
L 844.090563 139.121199 
L 845.653525 140.506705 
L 846.435006 140.869846 
L 847.216488 140.482297 
L 847.997969 140.513446 
L 848.77945 138.835268 
L 849.560931 140.249658 
L 850.342412 140.705387 
L 851.123893 140.651086 
L 851.905375 141.700377 
L 853.468337 142.1519 
L 854.249818 143.558491 
L 855.031299 143.747525 
L 855.81278 144.217518 
L 857.375743 144.679433 
L 858.157224 145.389101 
L 858.938705 144.993891 
L 859.720186 145.246512 
L 862.846111 146.90613 
L 863.627592 146.89922 
L 864.409073 147.70231 
L 865.190554 147.571585 
L 865.972036 148.651002 
L 866.753517 148.638119 
L 868.316479 148.917614 
L 869.09796 149.54518 
L 869.879441 149.382892 
L 870.660923 148.969076 
L 871.442404 147.305377 
L 872.223885 147.088046 
L 873.005366 147.976841 
L 873.786847 146.900581 
L 874.568328 146.114072 
L 875.34981 145.788374 
L 876.131291 145.60893 
L 876.912772 145.912354 
L 877.694253 146.65967 
L 878.475734 145.78591 
L 879.257215 146.423461 
L 880.038696 146.186332 
L 881.601659 145.349221 
L 882.38314 144.620689 
L 883.164621 143.27809 
L 883.946102 142.448816 
L 884.727583 142.668003 
L 886.290546 143.598699 
L 887.072027 143.283732 
L 887.853508 143.296574 
L 888.634989 142.513164 
L 889.41647 142.476991 
L 890.979433 142.047561 
L 891.760914 141.128666 
L 892.542395 140.909524 
L 893.323876 140.520677 
L 894.105357 141.56784 
L 894.886839 141.168089 
L 895.66832 141.065553 
L 896.449801 143.597141 
L 897.231282 142.595458 
L 898.012763 143.384019 
L 899.575726 142.427197 
L 900.357207 143.899306 
L 901.138688 143.671138 
L 901.920169 138.694512 
L 902.70165 140.061509 
L 903.483131 139.490962 
L 904.264613 139.647796 
L 905.046094 139.297656 
L 905.046094 139.297656 
" style="fill:none;stroke:#1f77b4;stroke-linecap:square;stroke-width:1.5;"/>
   </g>
   <g id="patch_19">
    <path d="M 676.853594 162.018125 
L 676.853594 22.318125 
" style="fill:none;stroke:#000000;stroke-linecap:square;stroke-linejoin:miter;stroke-width:0.8;"/>
   </g>
   <g id="patch_20">
    <path d="M 905.046094 162.018125 
L 905.046094 22.318125 
" style="fill:none;stroke:#000000;stroke-linecap:square;stroke-linejoin:miter;stroke-width:0.8;"/>
   </g>
   <g id="patch_21">
    <path d="M 676.853594 162.018125 
L 905.046094 162.018125 
" style="fill:none;stroke:#000000;stroke-linecap:square;stroke-linejoin:miter;stroke-width:0.8;"/>
   </g>
   <g id="patch_22">
    <path d="M 676.853594 22.318125 
L 905.046094 22.318125 
" style="fill:none;stroke:#000000;stroke-linecap:square;stroke-linejoin:miter;stroke-width:0.8;"/>
   </g>
   <g id="text_52">
    <!-- CFR -->
    <g transform="translate(779.140156 16.318125)scale(0.12 -0.12)">
     <defs>
      <path d="M 9.8125 72.90625 
L 51.703125 72.90625 
L 51.703125 64.59375 
L 19.671875 64.59375 
L 19.671875 43.109375 
L 48.578125 43.109375 
L 48.578125 34.8125 
L 19.671875 34.8125 
L 19.671875 0 
L 9.8125 0 
z
" id="DejaVuSans-70"/>
     </defs>
     <use xlink:href="#DejaVuSans-67"/>
     <use x="69.824219" xlink:href="#DejaVuSans-70"/>
     <use x="127.34375" xlink:href="#DejaVuSans-82"/>
    </g>
   </g>
  </g>
 </g>
 <defs>
  <clipPath id="p895ae2d876">
   <rect height="139.7" width="228.1925" x="69.413594" y="22.318125"/>
  </clipPath>
  <clipPath id="p0a22340219">
   <rect height="139.7" width="228.1925" x="373.133594" y="22.318125"/>
  </clipPath>
  <clipPath id="p96311d4e7a">
   <rect height="139.7" width="228.1925" x="676.853594" y="22.318125"/>
  </clipPath>
 </defs>
</svg>
